<svg width="512" height="512" viewBox="0 0 512 512" fill="none" xmlns="http://www.w3.org/2000/svg">
<path d="M432 18H80C35.8867 18 0 53.8867 0 98V378C0 422.113 35.8867 458 80 458H270C277.629 458 284.594 453.66 287.957 446.809C291.316 439.961 290.488 431.793 285.816 425.762L233.504 358.152L378.496 173.727L472 285.273V319C472 330.047 480.953 339 492 339C503.047 339 512 330.047 512 319V98C512 53.8867 476.113 18 432 18V18ZM393.328 129.152C389.457 124.535 383.719 121.898 377.688 122.004C371.66 122.098 366 124.902 362.277 129.641L208.262 325.535L155.816 257.762C152.027 252.863 146.188 250 140 250C139.992 250 139.98 250 139.973 250C133.773 250.008 127.926 252.891 124.148 257.805L80.1328 315.023C73.3984 323.781 75.0352 336.336 83.7891 343.07C92.5469 349.809 105.102 348.168 111.836 339.414L140.047 302.742L229.234 418H80C57.9453 418 40 400.055 40 378V98C40 75.9453 57.9453 58 80 58H432C454.055 58 472 75.9453 472 98V223.008L393.328 129.152ZM140 90C106.914 90 80 116.914 80 150C80 183.086 106.914 210 140 210C173.086 210 200 183.086 200 150C200 116.914 173.086 90 140 90ZM140 170C128.973 170 120 161.027 120 150C120 138.973 128.973 130 140 130C151.027 130 160 138.973 160 150C160 161.027 151.027 170 140 170ZM512 399C512 410.047 503.047 419 492 419H437V474C437 485.047 428.047 494 417 494C405.953 494 397 485.047 397 474V419H342C330.953 419 322 410.047 322 399C322 387.953 330.953 379 342 379H397V324C397 312.953 405.953 304 417 304C428.047 304 437 312.953 437 324V379H492C503.047 379 512 387.953 512 399Z" fill="#A5A5A4"/>
</svg>
