<svg width="32" height="32" viewBox="0 0 32 32" fill="none" xmlns="http://www.w3.org/2000/svg">
<g clip-path="url(#clip0)">
<path d="M5.93518 12.9086C6.28604 13.2501 6.64925 13.5657 7.02322 13.8558C7.02758 13.8515 7.03194 13.8472 7.0363 13.8429C7.0421 13.8372 7.04785 13.8314 7.05365 13.8257C8.52582 12.3832 10.2292 11.271 12.0619 10.5572C12.0693 10.5543 12.0766 10.5514 12.084 10.5485C12.0913 10.5457 12.0986 10.5428 12.1059 10.54C12.0132 10.4558 11.9195 10.3717 11.824 10.2878C10.4388 9.07139 8.91723 8.02512 7.55565 7.12733C9.05981 7.77787 10.5189 8.69463 12.0024 9.65608C12.301 9.84958 12.5876 10.0553 12.8648 10.2721C12.8656 10.2719 12.8663 10.2716 12.8671 10.2714C12.8746 10.269 12.882 10.2668 12.8894 10.2644C12.8973 10.2619 12.905 10.2596 12.9129 10.2571C14.0165 9.90727 15.1323 9.6488 16.2512 9.45005C16.2583 9.44878 16.2655 9.44756 16.2726 9.44629C16.28 9.44497 16.2873 9.44366 16.2947 9.44239C16.2334 9.31944 16.1703 9.19755 16.1051 9.0771C15.1905 7.3893 13.9209 6.03031 12.4335 5.14699C10.495 3.99606 8.36025 3.34759 6.29577 2.72045C5.86623 2.58997 5.42205 2.45504 4.98591 2.31749C3.67533 1.90429 1.99307 1.28904 0.605801 0.190296C0.537576 0.136249 0.459406 0.107681 0.379796 0.107681C0.256339 0.107681 0.135337 0.177556 0.0639378 0.290051C-0.0136406 0.41228 -0.021555 0.560283 0.042353 0.696097C0.637374 1.96138 1.0485 3.31872 1.44609 4.63133C1.93902 6.25873 2.44876 7.94153 3.31415 9.47024C4.05616 10.7811 4.938 11.9379 5.93518 12.9086Z" fill="white"/>
<path d="M31.5121 8.0233C31.4435 8.0233 31.3717 8.03862 31.2993 8.07278C29.1914 9.0669 26.7722 9.45162 24.5003 9.65244C21.8983 9.88238 19.2964 10.0091 16.7381 10.4388C16.7307 10.44 16.7233 10.4412 16.716 10.4424C16.709 10.4436 16.702 10.4447 16.695 10.4459C15.7435 10.607 14.798 10.8104 13.8609 11.077C13.8537 11.079 13.8465 11.0812 13.8394 11.0833C13.8314 11.0855 13.8236 11.088 13.8157 11.0902C13.6066 11.1502 13.3978 11.2128 13.1895 11.2793C13.1118 11.3042 13.0344 11.3298 12.9573 11.356C12.9499 11.3586 12.9426 11.3612 12.9353 11.3638C12.9279 11.3663 12.9205 11.369 12.913 11.3716C11.0325 12.02 9.35279 13.0902 7.93399 14.4462C7.92836 14.4515 7.92282 14.4569 7.91723 14.4623C7.91237 14.467 7.9075 14.4717 7.90263 14.4764C5.77196 16.5247 4.23361 19.218 3.49308 22.0925C3.40564 22.432 3.67647 22.7089 3.97184 22.7089C4.07634 22.7089 4.18388 22.6743 4.27974 22.5954C6.84481 20.4878 9.4555 18.43 12.6114 17.2873C13.1438 17.0946 13.682 16.9012 14.2248 16.7123C14.2355 16.7085 14.2463 16.7048 14.257 16.701C14.2683 16.6971 14.2794 16.6933 14.2907 16.6894C14.9299 16.4675 15.5756 16.2522 16.2256 16.0518C16.2316 16.0499 16.2377 16.048 16.2437 16.0462C16.2516 16.0438 16.2595 16.0413 16.2674 16.0389C17.5765 15.6368 18.903 15.296 20.231 15.0862C18.9646 15.5512 17.7021 16.0283 16.4612 16.5459C16.4537 16.5491 16.4461 16.5521 16.4385 16.5553C16.4327 16.5577 16.4271 16.5601 16.4213 16.5625C16.0212 16.7297 15.6237 16.9018 15.2288 17.0785C15.2202 17.0823 15.2116 17.0861 15.2031 17.0899C15.1947 17.0937 15.1863 17.0974 15.178 17.1012C14.3579 17.4692 13.55 17.8597 12.7603 18.282C10.9568 19.2466 9.24656 20.3751 7.6933 21.7712C4.97502 24.2144 2.74066 27.4462 1.89327 31.0352C1.80841 31.3946 2.00094 31.7686 2.36678 31.8693C2.42324 31.8848 2.48127 31.8922 2.53912 31.8922C2.83597 31.8922 3.12974 31.6967 3.20076 31.3958C3.62246 29.6098 4.37539 27.9487 5.42115 26.4777C5.47731 26.4635 5.53496 26.448 5.59552 26.4302C8.53168 25.5661 11.8486 26.0916 14.8653 25.5119C18.8264 24.7503 22.3176 22.5017 25.0068 19.5418C27.9309 16.3235 29.2738 12.2076 31.8941 8.81978C32.1602 8.47573 31.8848 8.0233 31.5121 8.0233Z" fill="white"/>
</g>
<defs>
<clipPath id="clip0">
<rect width="32" height="32" fill="white"/>
</clipPath>
</defs>
</svg>
