<svg width="32" height="32" viewBox="0 0 32 32" fill="none" xmlns="http://www.w3.org/2000/svg">
<path d="M6.11062 17.2486L20.351 31.4888C20.6804 31.8184 21.1201 32 21.5889 32C22.0577 32 22.4973 31.8184 22.8267 31.4888L23.8754 30.4403C24.5578 29.7572 24.5578 28.6468 23.8754 27.9647L11.9174 16.0066L23.8887 4.03535C24.2181 3.70573 24.3999 3.26632 24.3999 2.79777C24.3999 2.3287 24.2181 1.88929 23.8887 1.5594L22.84 0.511215C22.5104 0.181593 22.0709 1.90735e-06 21.6021 1.90735e-06C21.1333 1.90735e-06 20.6937 0.181593 20.3643 0.511215L6.11062 14.7644C5.78048 15.095 5.59915 15.5365 5.60019 16.0059C5.59915 16.477 5.78048 16.9182 6.11062 17.2486Z" fill="white"/>
</svg>
