<svg width="32" height="32" viewBox="0 0 32 32" fill="none" xmlns="http://www.w3.org/2000/svg">
<path d="M15.9469 29.3334H3.98669C3.25313 29.3334 2.65781 28.736 2.65781 28.0001V4.00004C2.65781 3.26403 3.25319 2.66673 3.98669 2.66673H15.9469C16.6818 2.66673 17.2758 2.07075 17.2758 1.33343C17.2758 0.596105 16.6818 0 15.9469 0H3.98669C1.78869 0 0 1.79471 0 4.00004V28C0 30.2053 1.78869 32 3.98669 32H15.9469C16.6818 32 17.2758 31.404 17.2758 30.6667C17.2758 29.9294 16.6818 29.3334 15.9469 29.3334Z" fill="white"/>
<path d="M31.6039 15.0507L23.5241 7.05067C23.0032 6.53332 22.1607 6.54003 21.6451 7.06402C21.1294 7.58801 21.1347 8.43201 21.6584 8.94935L27.4324 14.6667H11.96C11.2251 14.6667 10.6311 15.2626 10.6311 16C10.6311 16.7373 11.2251 17.3333 11.96 17.3333H27.4324L21.6584 23.0506C21.1348 23.568 21.1308 24.412 21.6451 24.936C21.9055 25.2 22.2484 25.3333 22.5912 25.3333C22.9288 25.3333 23.2663 25.2053 23.5241 24.9493L31.6039 16.9492C31.8564 16.6986 31.9999 16.3572 31.9999 15.9999C31.9999 15.6427 31.8577 15.3027 31.6039 15.0507Z" fill="white"/>
</svg>
