<svg width="70" height="53" viewBox="0 0 70 53" fill="none" xmlns="http://www.w3.org/2000/svg">
<path d="M59.1366 23.4855L22.2731 23.4855C20.5159 23.4855 19.0913 24.9101 19.0913 26.6673C19.0913 28.4246 20.5159 29.8492 22.2731 29.8492L59.1366 29.8492L55.0228 33.9628C53.7802 35.2052 53.7802 37.22 55.0228 38.4626C56.2649 39.7052 58.2797 39.7052 59.5225 38.4626L69.0673 28.9177C69.1411 28.8441 69.2107 28.7671 69.2769 28.6865C69.293 28.6668 69.3068 28.6456 69.3225 28.6254C69.3711 28.5637 69.4188 28.5018 69.4625 28.4364C69.4752 28.4173 69.4856 28.3972 69.4981 28.3779C69.5418 28.3096 69.5847 28.2407 69.6233 28.1687C69.6307 28.1545 69.6368 28.1395 69.6443 28.1253C69.6844 28.0474 69.723 27.9685 69.7567 27.887C69.7609 27.8771 69.7639 27.8665 69.7679 27.8563C69.8025 27.7706 69.8345 27.6838 69.8617 27.5945C69.8653 27.5833 69.8672 27.5716 69.8704 27.5602C69.8961 27.4726 69.9196 27.3841 69.9376 27.2935C69.9429 27.2666 69.9453 27.2388 69.9502 27.2116C69.9633 27.1366 69.9765 27.0615 69.9839 26.9849C69.9947 26.8799 70 26.7738 70 26.6673C70 26.5609 69.9947 26.4548 69.9839 26.3496C69.9765 26.272 69.9629 26.1962 69.9499 26.1205C69.9453 26.0942 69.9429 26.0673 69.9376 26.0412C69.9194 25.9497 69.8961 25.8604 69.8702 25.772C69.867 25.7616 69.8651 25.7506 69.8619 25.7402C69.8345 25.6504 69.8025 25.5628 69.7675 25.4763C69.7637 25.467 69.7609 25.457 69.7569 25.4477C69.723 25.3656 69.6842 25.2862 69.6436 25.208C69.6366 25.1942 69.6307 25.1797 69.6235 25.166C69.5845 25.0936 69.5414 25.024 69.4971 24.9551C69.4852 24.9364 69.475 24.9167 69.4627 24.8985C69.4188 24.8329 69.3706 24.7706 69.3223 24.7086C69.3068 24.6887 69.293 24.6677 69.2771 24.6482C69.2107 24.5678 69.1411 24.4906 69.0675 24.417L59.5227 14.8721C58.9014 14.2506 58.0871 13.9401 57.2727 13.9401C56.4584 13.9401 55.6441 14.2506 55.023 14.8721C53.7804 16.1147 53.7804 18.1293 55.023 19.3719L59.1366 23.4855Z" fill="#8CB369"/>
<path d="M26.0276 52.6948C34.7127 52.6948 42.7933 48.3862 47.6434 41.1696C48.6234 39.7113 48.2357 37.7343 46.7773 36.7541C45.3188 35.7741 43.342 36.1615 42.3616 37.6202C38.6959 43.0749 32.5898 46.3314 26.0276 46.3314C15.185 46.3312 6.36377 37.5101 6.36377 26.6673C6.36377 15.8245 15.185 7.00349 26.0276 7.00349C32.5705 7.00349 38.6667 10.2453 42.3351 15.6752C43.3191 17.1314 45.2965 17.5141 46.7529 16.5305C48.2089 15.5467 48.592 13.5689 47.6082 12.1129C42.7547 4.92873 34.6873 0.639854 26.0276 0.639854C11.6761 0.639854 0.000136355 12.3156 0.000136355 26.6673C0.000136355 41.019 11.6761 52.6948 26.0276 52.6948Z" fill="#8CB369"/>
</svg>
