<svg width="32" height="32" viewBox="0 0 32 32" fill="none" xmlns="http://www.w3.org/2000/svg">
<path d="M26.8894 14.7514L12.649 0.511215C12.3196 0.181592 11.8799 0 11.4111 0C10.9423 0 10.5027 0.181592 10.1733 0.511215L9.12458 1.55966C8.44218 2.24284 8.44218 3.35321 9.12458 4.03535L21.0826 15.9934L9.11131 27.9646C8.78195 28.2943 8.6001 28.7337 8.6001 29.2022C8.6001 29.6713 8.78195 30.1107 9.11131 30.4406L10.16 31.4888C10.4896 31.8184 10.9291 32 11.3979 32C11.8667 32 12.3063 31.8184 12.6357 31.4888L26.8894 17.2356C27.2195 16.905 27.4009 16.4635 27.3998 15.9941C27.4009 15.523 27.2195 15.0818 26.8894 14.7514Z" fill="white"/>
</svg>
