<svg width="500" height="500" viewBox="0 0 500 500" fill="none" xmlns="http://www.w3.org/2000/svg">
<path d="M344.769 480.447H305.943L302.189 444.202L349.074 445.387L344.769 480.447Z" fill="#4BA3BC"/>
<path d="M344.769 480.447H337.862L334.109 444.202L349.074 445.387L344.769 480.447Z" fill="#00748C"/>
<path d="M323.563 447.597C323.645 447.618 323.724 447.634 323.807 447.644C309.466 447.354 297.542 437.237 294.5 423.753C294.009 421.574 293.75 419.306 293.75 416.978C293.75 400.245 307.148 386.643 323.807 386.305C323.724 386.316 323.646 386.331 323.563 386.351C312.572 387.306 303.856 400.654 303.856 416.978C303.856 433.302 312.572 446.644 323.563 447.597Z" fill="#0C2C00"/>
<path d="M355.144 416.979C355.144 433.523 342.037 447.007 325.632 447.629C336.842 447.007 345.796 433.523 345.796 416.979C345.796 400.431 336.842 386.943 325.632 386.321C342.038 386.943 355.144 400.431 355.144 416.979Z" fill="#0C2C00"/>
<path d="M323.563 447.597C312.572 446.644 303.855 433.302 303.855 416.979C303.855 400.654 312.572 387.306 323.563 386.352C319.814 387.306 316.843 400.654 316.843 416.979C316.843 433.302 319.814 446.644 323.563 447.597Z" fill="#8CB369"/>
<path d="M345.796 416.979C345.796 433.523 336.842 447.007 325.631 447.629C325.501 447.64 325.367 447.64 325.237 447.644C325.169 447.65 325.102 447.65 325.03 447.65C324.91 447.65 324.792 447.655 324.668 447.65C324.511 447.655 324.356 447.65 324.206 447.64C328.052 447.163 331.143 433.622 331.143 416.979C331.143 400.333 328.052 386.788 324.206 386.312C324.356 386.301 324.511 386.296 324.668 386.301C324.792 386.296 324.911 386.301 325.03 386.301C325.102 386.296 325.168 386.301 325.237 386.306C325.367 386.312 325.501 386.312 325.631 386.321C336.842 386.944 345.796 400.432 345.796 416.979Z" fill="#8CB369"/>
<path d="M318.221 435.088C317.45 430.57 316.961 425.114 316.861 419.19L318.221 435.088Z" fill="#0C2C00"/>
<path d="M316.861 419.19C316.85 418.458 316.844 417.722 316.844 416.979C316.844 400.654 319.814 387.306 323.563 386.352C323.775 386.331 323.989 386.316 324.206 386.311C328.053 386.788 331.144 400.333 331.144 416.979C331.144 433.622 328.053 447.163 324.206 447.64C323.989 447.634 323.775 447.618 323.563 447.597C321.369 447.04 319.443 442.242 318.221 435.088" fill="#0C2C00"/>
<path d="M303.53 400.69C302.757 400.15 282.578 387.423 282.578 387.423L304.916 398.501L303.53 400.69Z" fill="#0C2C00"/>
<path d="M312.013 396.532C311.356 395.855 293.922 379.573 293.922 379.573L313.787 394.642L312.013 396.532Z" fill="#0C2C00"/>
<path d="M301.553 411.317C300.612 411.284 276.752 411.598 276.752 411.598L301.526 408.728L301.553 411.317Z" fill="#0C2C00"/>
<path d="M310.747 418.772C309.804 418.738 285.945 419.052 285.945 419.052L310.717 416.182L310.747 418.772Z" fill="#0C2C00"/>
<path d="M300.882 426.089C300.014 426.457 278.514 436.802 278.514 436.802L299.763 423.755L300.882 426.089Z" fill="#0C2C00"/>
<path d="M305.374 433.965C304.831 434.661 292.014 452.907 292.014 452.907L303.393 432.57L305.374 433.965Z" fill="#0C2C00"/>
<path d="M314.864 438.883C314.325 439.578 301.507 457.825 301.507 457.825L312.885 437.487L314.864 438.883Z" fill="#0C2C00"/>
<path d="M345.98 432.006C346.753 432.548 366.934 445.275 366.934 445.275L344.594 434.195L345.98 432.006Z" fill="#0C2C00"/>
<path d="M337.498 436.165C338.154 436.843 355.59 453.123 355.59 453.123L335.725 438.053L337.498 436.165Z" fill="#0C2C00"/>
<path d="M347.957 421.379C348.899 421.413 372.759 421.098 372.759 421.098L347.986 423.968L347.957 421.379Z" fill="#0C2C00"/>
<path d="M338.766 413.925C339.707 413.96 363.566 413.645 363.566 413.645L338.794 416.515L338.766 413.925Z" fill="#0C2C00"/>
<path d="M348.629 406.606C349.497 406.24 370.998 395.896 370.998 395.896L349.748 408.942L348.629 406.606Z" fill="#0C2C00"/>
<path d="M344.138 398.732C344.68 398.036 357.496 379.789 357.496 379.789L346.117 400.127L344.138 398.732Z" fill="#0C2C00"/>
<path d="M334.646 393.814C335.187 393.119 348.004 374.871 348.004 374.871L336.625 395.208L334.646 393.814Z" fill="#0C2C00"/>
<path d="M317.222 413.249C316.977 413.249 316.776 413.053 316.772 412.807C316.732 410.615 316.741 408.577 316.799 406.748C316.807 406.498 317.023 406.281 317.265 406.311C317.513 406.319 317.71 406.527 317.7 406.775C317.642 408.591 317.634 410.615 317.673 412.791C317.679 413.039 317.48 413.244 317.23 413.25H317.222V413.249Z" fill="#0C2C00"/>
<path d="M318.47 433.088C318.241 433.088 318.045 432.914 318.021 432.682C317.691 429.265 317.42 425.955 317.215 422.836C317.199 422.589 317.386 422.373 317.635 422.357C317.881 422.348 318.098 422.528 318.114 422.778C318.319 425.884 318.59 429.188 318.919 432.594C318.944 432.843 318.762 433.062 318.515 433.085C318.501 433.087 318.485 433.088 318.47 433.088Z" fill="#0C2C00"/>
<path d="M307.551 434.811C307.398 434.811 307.249 434.733 307.165 434.594C306.535 433.549 305.983 432.406 305.521 431.194C305.433 430.961 305.549 430.701 305.784 430.612C306.016 430.523 306.277 430.64 306.365 430.874C306.807 432.035 307.337 433.13 307.937 434.129C308.065 434.341 307.997 434.62 307.783 434.747C307.71 434.791 307.63 434.811 307.551 434.811Z" fill="#0C2C00"/>
<path d="M305.943 431.485C305.762 431.485 305.59 431.374 305.521 431.194C305.053 429.964 304.665 428.623 304.366 427.209C304.314 426.967 304.471 426.726 304.714 426.675C304.958 426.624 305.197 426.78 305.248 427.023C305.539 428.391 305.914 429.687 306.365 430.874C306.453 431.107 306.337 431.367 306.103 431.456C306.051 431.476 305.996 431.485 305.943 431.485Z" fill="#0C2C00"/>
<path d="M304.195 413.595C304.184 413.595 304.173 413.595 304.162 413.594C303.914 413.576 303.727 413.36 303.745 413.113C303.848 411.712 303.993 410.22 304.18 408.675C304.259 408.01 304.364 407.337 304.49 406.677C304.538 406.433 304.774 406.274 305.018 406.319C305.263 406.366 305.422 406.603 305.376 406.846C305.253 407.487 305.152 408.139 305.075 408.782C304.891 410.314 304.747 411.792 304.646 413.178C304.627 413.415 304.43 413.595 304.195 413.595Z" fill="#0C2C00"/>
<path d="M308.555 397.852C308.473 397.852 308.395 397.83 308.321 397.787C308.109 397.658 308.04 397.381 308.168 397.168C311.151 392.218 314.594 389.608 314.74 389.5C314.938 389.35 315.221 389.391 315.37 389.591C315.52 389.79 315.478 390.072 315.279 390.221C315.245 390.248 311.825 392.843 308.94 397.633C308.855 397.774 308.706 397.852 308.555 397.852Z" fill="#0C2C00"/>
<path d="M305.372 441.462C305.281 441.462 305.187 441.434 305.105 441.376C304.798 441.149 302.002 439.059 299.164 435.226C299.016 435.026 299.059 434.744 299.259 434.595C299.459 434.446 299.741 434.489 299.889 434.69C302.648 438.414 305.34 440.43 305.638 440.646C305.839 440.794 305.884 441.075 305.737 441.277C305.649 441.398 305.511 441.462 305.372 441.462Z" fill="#0C2C00"/>
<path d="M297.535 432.381C297.38 432.381 297.229 432.301 297.145 432.157C295.444 429.223 294.272 426.128 293.665 422.957C293.619 422.712 293.779 422.476 294.024 422.429C294.269 422.386 294.505 422.543 294.551 422.788C295.14 425.859 296.273 428.858 297.925 431.705C298.049 431.921 297.976 432.195 297.763 432.32C297.69 432.362 297.613 432.381 297.535 432.381Z" fill="#0C2C00"/>
<path d="M294.032 413.259C294.009 413.259 293.987 413.257 293.962 413.255C293.715 413.215 293.548 412.985 293.586 412.738C293.945 410.453 294.517 408.231 295.29 406.139C295.376 405.905 295.636 405.785 295.869 405.872C296.102 405.958 296.222 406.217 296.135 406.45C295.384 408.489 294.826 410.651 294.477 412.879C294.442 413.1 294.252 413.259 294.032 413.259Z" fill="#0C2C00"/>
<path d="M298.098 401.676C298.02 401.676 297.942 401.657 297.871 401.616C297.655 401.49 297.583 401.214 297.71 400.998C300.883 395.564 304.509 393.042 304.662 392.935C304.867 392.796 305.147 392.847 305.289 393.053C305.429 393.258 305.376 393.54 305.171 393.68C305.136 393.704 301.553 396.205 298.489 401.453C298.405 401.597 298.253 401.676 298.098 401.676Z" fill="#0C2C00"/>
<path d="M331.026 422.984C331.011 422.984 330.995 422.984 330.979 422.982C330.733 422.956 330.552 422.734 330.578 422.486C330.814 420.194 330.887 417.58 330.789 414.716C330.781 414.468 330.975 414.259 331.226 414.251C331.474 414.23 331.68 414.436 331.691 414.685C331.789 417.591 331.717 420.246 331.475 422.579C331.451 422.812 331.255 422.984 331.026 422.984Z" fill="#0C2C00"/>
<path d="M330.924 410.132C330.691 410.132 330.496 409.954 330.475 409.721C330.17 406.327 329.68 402.691 329.015 398.915C328.973 398.669 329.136 398.436 329.382 398.392C329.628 398.345 329.86 398.514 329.903 398.758C330.573 402.561 331.068 406.221 331.373 409.64C331.395 409.888 331.212 410.108 330.964 410.13C330.951 410.131 330.937 410.132 330.924 410.132Z" fill="#0C2C00"/>
<path d="M328.7 395.296C328.491 395.296 328.303 395.149 328.258 394.935C327.83 392.841 327.516 391.554 327.513 391.54C327.454 391.299 327.601 391.054 327.843 390.995C328.083 390.936 328.329 391.084 328.389 391.327C328.393 391.339 328.71 392.641 329.143 394.754C329.192 394.999 329.035 395.237 328.792 395.287C328.762 395.294 328.731 395.296 328.7 395.296Z" fill="#0C2C00"/>
<path d="M344.036 429.732C343.987 429.732 343.937 429.723 343.89 429.706C343.655 429.624 343.528 429.368 343.609 429.134C344.233 427.327 344.711 425.436 345.03 423.513C345.07 423.268 345.302 423.097 345.548 423.143C345.795 423.182 345.96 423.415 345.919 423.661C345.593 425.634 345.102 427.573 344.462 429.428C344.398 429.613 344.223 429.732 344.036 429.732Z" fill="#0C2C00"/>
<path d="M345.968 418.611H345.96C345.71 418.606 345.512 418.399 345.517 418.151C345.556 416.202 345.448 414.196 345.195 412.191C345.165 411.944 345.339 411.719 345.587 411.687C345.833 411.662 346.061 411.831 346.091 412.078C346.348 414.127 346.459 416.176 346.419 418.169C346.414 418.416 346.212 418.611 345.968 418.611Z" fill="#0C2C00"/>
<path d="M344.375 406.244C344.177 406.244 343.996 406.112 343.941 405.913C343.627 404.773 343.275 403.67 342.895 402.635C342.808 402.401 342.929 402.142 343.161 402.056C343.397 401.969 343.655 402.089 343.74 402.323C344.131 403.382 344.491 404.509 344.811 405.673C344.877 405.912 344.736 406.161 344.495 406.227C344.454 406.238 344.416 406.244 344.375 406.244Z" fill="#0C2C00"/>
<path d="M343.317 402.929C343.134 402.929 342.961 402.817 342.895 402.634C342.485 401.521 342.188 400.888 342.186 400.882C342.078 400.656 342.176 400.388 342.4 400.282C342.627 400.176 342.895 400.272 343.001 400.497C343.014 400.524 343.317 401.167 343.74 402.322C343.825 402.557 343.707 402.815 343.472 402.901C343.422 402.922 343.369 402.929 343.317 402.929Z" fill="#0C2C00"/>
<path d="M341.86 364.337C341.98 381.5 327.748 386.457 324.632 387.339C324.248 387.447 324.034 387.494 324.034 387.494C324.034 387.494 323.091 383.649 324.336 378.37C324.471 377.814 324.621 377.25 324.809 376.664C326.581 370.994 330.978 364.093 341.321 358.517C341.678 360.595 341.851 362.533 341.86 364.337Z" fill="#4BA3BC"/>
<path d="M324.808 376.664C325.051 377.913 325.348 379.115 325.632 379.571C326.327 380.68 330.474 375.694 336.52 373.006C342.571 370.316 340.818 368.762 341.326 365.999C341.44 365.372 341.633 364.818 341.86 364.337C341.98 381.5 327.748 386.457 324.631 387.339C324.517 384.7 324.414 381.229 324.335 378.369L324.808 376.664Z" fill="#00748C"/>
<path d="M337.91 378.555C337.403 380.26 336.744 381.66 335.986 382.805C331.583 389.49 323.946 387.562 323.946 387.562C323.946 387.562 323.957 387.521 323.977 387.441C324.263 386.405 326.705 378.939 337.91 378.555Z" fill="#4BA3BC"/>
<path d="M335.986 382.805C331.583 389.49 323.946 387.562 323.946 387.562C323.946 387.562 323.957 387.521 323.977 387.441C324.766 386.473 326.649 385.364 330.925 384.55C333.353 384.09 334.939 383.466 335.986 382.805Z" fill="#00748C"/>
<path d="M324.466 387.755C324.466 387.755 314.161 384.172 312.595 370.281C312.367 368.263 312.323 366.034 312.521 363.564C317.664 365.765 320.847 368.654 322.775 371.671C327.66 379.312 324.466 387.755 324.466 387.755Z" fill="#4BA3BC"/>
<path d="M324.466 387.755C324.466 387.755 314.161 384.172 312.595 370.281C317.097 372.432 321.035 382.611 322.539 379.807C323.455 378.104 323.182 374.504 322.775 371.67C327.66 379.312 324.466 387.755 324.466 387.755Z" fill="#00748C"/>
<path d="M324.067 386.863C324.067 386.863 321.251 387.503 317.311 386.655C312.566 385.634 306.188 382.437 301.159 373.326C301 373.031 300.832 372.723 300.671 372.414C320.556 369.321 324.067 386.863 324.067 386.863Z" fill="#4BA3BC"/>
<path d="M317.31 386.655C312.566 385.634 306.188 382.437 301.159 373.326C302.595 372.923 305.053 372.762 308.78 374.114C315.438 376.534 311.009 378.259 314.863 381.197C316.838 382.7 317.314 384.888 317.31 386.655Z" fill="#00748C"/>
<path d="M323.563 386.995C323.563 386.995 322.832 388.597 320.956 390.192C318.701 392.112 314.783 394.018 308.497 393.076C308.295 393.045 308.084 393.012 307.875 392.974C313.748 382.189 323.563 386.995 323.563 386.995Z" fill="#4BA3BC"/>
<path d="M320.956 390.192C318.701 392.112 314.783 394.018 308.497 393.076C308.834 392.23 309.668 390.979 311.707 389.674C315.35 387.345 314.546 390.13 317.401 389.354C318.863 388.954 320.101 389.534 320.956 390.192Z" fill="#00748C"/>
<path d="M344.94 467.232C344.843 467.232 344.746 467.202 344.664 467.137L339.175 462.854L333.684 467.137C333.521 467.264 333.292 467.264 333.129 467.137L327.64 462.854L322.148 467.137C321.984 467.264 321.756 467.264 321.594 467.137L316.103 462.854L310.615 467.137C310.451 467.264 310.222 467.264 310.06 467.137L304.293 462.638C304.096 462.484 304.062 462.203 304.215 462.005C304.368 461.809 304.652 461.774 304.848 461.926L310.336 466.21L315.827 461.926C315.988 461.799 316.218 461.799 316.38 461.926L321.87 466.21L327.363 461.926C327.526 461.799 327.753 461.799 327.917 461.926L333.408 466.21L338.899 461.926C339.062 461.799 339.29 461.799 339.453 461.926L345.219 466.426C345.415 466.58 345.449 466.863 345.296 467.059C345.208 467.173 345.074 467.232 344.94 467.232Z" fill="#00748C"/>
<path d="M344.94 472.933C344.843 472.933 344.746 472.902 344.664 472.838L339.175 468.555L333.684 472.838C333.521 472.966 333.292 472.966 333.129 472.838L327.64 468.555L322.148 472.838C321.984 472.966 321.756 472.966 321.594 472.838L316.103 468.555L310.615 472.838C310.451 472.966 310.222 472.966 310.06 472.838L304.293 468.339C304.096 468.185 304.062 467.903 304.215 467.706C304.368 467.508 304.652 467.475 304.848 467.626L310.336 471.91L315.827 467.626C315.988 467.499 316.218 467.499 316.38 467.626L321.87 471.91L327.363 467.626C327.526 467.499 327.753 467.499 327.917 467.626L333.408 471.91L338.899 467.626C339.062 467.499 339.29 467.499 339.453 467.626L345.219 472.127C345.415 472.28 345.449 472.564 345.296 472.76C345.208 472.874 345.074 472.933 344.94 472.933Z" fill="#00748C"/>
<path d="M344.94 477.078C344.843 477.078 344.746 477.048 344.664 476.983L339.175 472.699L333.684 476.983C333.521 477.111 333.292 477.111 333.129 476.983L327.64 472.699L322.148 476.983C321.984 477.111 321.756 477.111 321.594 476.983L316.103 472.699L310.615 476.983C310.451 477.111 310.222 477.111 310.06 476.983L304.293 472.485C304.096 472.331 304.062 472.047 304.215 471.851C304.368 471.655 304.652 471.62 304.848 471.772L310.336 476.056L315.827 471.772C315.988 471.645 316.218 471.645 316.38 471.772L321.87 476.056L327.363 471.772C327.526 471.645 327.753 471.645 327.917 471.772L333.408 476.056L338.899 471.772C339.062 471.645 339.29 471.645 339.453 471.772L345.219 476.273C345.415 476.425 345.449 476.708 345.296 476.905C345.208 477.02 345.074 477.078 344.94 477.078Z" fill="#00748C"/>
<path d="M322.608 441.688C322.341 441.688 322.087 441.527 321.981 441.262C321.567 440.226 321.199 438.987 320.884 437.58C320.803 437.216 321.033 436.855 321.399 436.773C321.763 436.693 322.124 436.922 322.206 437.287C322.503 438.623 322.849 439.792 323.237 440.76C323.375 441.107 323.207 441.501 322.86 441.639C322.777 441.672 322.692 441.688 322.608 441.688Z" fill="white"/>
<path d="M320.67 432.548C320.329 432.548 320.035 432.29 319.999 431.944C319.915 431.162 319.84 430.334 319.773 429.48C319.746 429.107 320.023 428.783 320.397 428.754C320.769 428.726 321.094 429.004 321.123 429.376C321.187 430.217 321.26 431.031 321.344 431.799C321.383 432.17 321.115 432.504 320.744 432.543C320.719 432.547 320.695 432.548 320.67 432.548Z" fill="white"/>
<path d="M320.193 425.432C319.83 425.432 319.529 425.145 319.517 424.779C319.492 424.045 319.472 423.307 319.459 422.569C319.451 422.195 319.749 421.888 320.123 421.88C320.491 421.875 320.803 422.171 320.811 422.544C320.824 423.275 320.844 424.005 320.87 424.732C320.882 425.106 320.589 425.418 320.217 425.431C320.209 425.432 320.201 425.432 320.193 425.432Z" fill="white"/>
<path d="M320.125 417.538C320.12 417.538 320.117 417.538 320.117 417.538C319.74 417.534 319.443 417.226 319.447 416.852C319.454 416.373 319.463 415.896 319.472 415.425C319.48 415.052 319.776 414.767 320.161 414.762C320.535 414.77 320.832 415.08 320.824 415.452C320.814 415.922 320.807 416.394 320.8 416.871C320.795 417.242 320.494 417.538 320.125 417.538Z" fill="white"/>
<path d="M320.424 408.604C320.412 408.604 320.4 408.603 320.389 408.603C320.016 408.584 319.729 408.267 319.749 407.893C319.791 407.064 319.836 406.28 319.88 405.556C319.904 405.183 320.222 404.897 320.597 404.923C320.97 404.945 321.254 405.267 321.231 405.639C321.185 406.36 321.142 407.137 321.1 407.963C321.08 408.322 320.781 408.604 320.424 408.604Z" fill="white"/>
<path d="M320.793 402.785C320.777 402.785 320.76 402.785 320.742 402.785C320.369 402.756 320.09 402.431 320.119 402.057C320.217 400.79 320.283 400.064 320.283 400.064C320.317 399.691 320.646 399.413 321.019 399.453C321.39 399.487 321.665 399.816 321.63 400.189C321.63 400.192 321.563 400.909 321.468 402.161C321.441 402.516 321.144 402.785 320.793 402.785Z" fill="white"/>
<path d="M307.079 410.572C307.053 410.572 307.026 410.571 307 410.568C306.629 410.525 306.364 410.191 306.406 409.82C306.519 408.817 306.658 407.795 306.817 406.785C306.874 406.416 307.22 406.16 307.589 406.222C307.959 406.28 308.211 406.625 308.152 406.995C307.996 407.988 307.861 408.988 307.749 409.972C307.71 410.318 307.418 410.572 307.079 410.572Z" fill="white"/>
<path d="M308.152 403.946C308.106 403.946 308.058 403.941 308.011 403.931C307.646 403.853 307.413 403.494 307.492 403.128C307.845 401.478 308.117 400.54 308.129 400.5C308.233 400.141 308.611 399.937 308.967 400.04C309.327 400.146 309.532 400.521 309.428 400.88C309.425 400.889 309.154 401.815 308.813 403.412C308.746 403.729 308.465 403.946 308.152 403.946Z" fill="white"/>
<path d="M341.789 406.098C341.495 406.098 341.226 405.908 341.14 405.614C340.836 404.593 340.452 403.542 339.995 402.494C339.845 402.15 340.002 401.753 340.346 401.603C340.688 401.453 341.086 401.611 341.236 401.952C341.714 403.054 342.118 404.156 342.437 405.23C342.543 405.587 342.338 405.964 341.981 406.07C341.917 406.089 341.851 406.098 341.789 406.098Z" fill="white"/>
<path d="M339.115 399.89C338.878 399.89 338.65 399.766 338.525 399.546C337.864 398.374 337.363 397.665 337.356 397.659C337.143 397.354 337.214 396.93 337.518 396.715C337.823 396.499 338.245 396.571 338.46 396.876C338.483 396.906 339.004 397.643 339.703 398.881C339.887 399.206 339.772 399.62 339.447 399.803C339.341 399.861 339.227 399.89 339.115 399.89Z" fill="white"/>
<path d="M321.355 385.716C321.034 385.716 320.748 385.484 320.692 385.155C320.549 384.341 320.153 383.388 319.517 382.326C319.325 382.005 319.429 381.59 319.749 381.398C320.07 381.205 320.485 381.309 320.676 381.629C321.4 382.837 321.853 383.944 322.024 384.922C322.088 385.29 321.843 385.64 321.475 385.705C321.435 385.712 321.394 385.716 321.355 385.716Z" fill="white"/>
<path d="M317.957 379.712C317.764 379.712 317.573 379.629 317.438 379.47C317.027 378.98 316.582 378.481 316.116 377.984C315.859 377.713 315.872 377.285 316.144 377.028C316.416 376.773 316.845 376.786 317.102 377.058C317.584 377.572 318.047 378.091 318.475 378.6C318.715 378.885 318.678 379.312 318.392 379.552C318.264 379.659 318.11 379.712 317.957 379.712Z" fill="white"/>
<path d="M332.977 366.75C332.816 366.75 332.653 366.692 332.523 366.575C332.247 366.325 332.226 365.898 332.476 365.622C334.015 363.918 335.723 362.482 337.555 361.355C337.875 361.158 338.29 361.257 338.486 361.576C338.682 361.894 338.582 362.31 338.264 362.506C336.542 363.567 334.932 364.92 333.479 366.527C333.345 366.675 333.162 366.75 332.977 366.75Z" fill="white"/>
<path d="M329.364 371.879C329.256 371.879 329.148 371.854 329.046 371.8C328.717 371.624 328.593 371.215 328.768 370.885C329.456 369.597 330.272 368.341 331.194 367.15C331.423 366.855 331.847 366.802 332.142 367.03C332.438 367.259 332.491 367.684 332.263 367.979C331.388 369.109 330.614 370.3 329.961 371.523C329.839 371.75 329.606 371.879 329.364 371.879Z" fill="white"/>
<path d="M327.952 375.547C327.936 375.547 327.921 375.547 327.906 375.546C327.533 375.521 327.251 375.2 327.276 374.826C327.309 374.336 327.546 373.545 327.946 372.602C328.091 372.258 328.488 372.098 328.832 372.242C329.175 372.388 329.337 372.785 329.191 373.129C328.8 374.053 328.643 374.67 328.626 374.916C328.602 375.274 328.305 375.547 327.952 375.547Z" fill="white"/>
<path d="M308.553 478.422C308.214 478.422 307.923 478.169 307.882 477.826L307.711 476.396C307.669 476.024 307.932 475.689 308.305 475.645C308.675 475.598 309.012 475.866 309.056 476.237L309.226 477.665C309.27 478.036 309.004 478.373 308.633 478.417C308.606 478.421 308.58 478.422 308.553 478.422Z" fill="white"/>
<path d="M307.649 471.048C307.311 471.048 307.02 470.796 306.979 470.453L306.239 464.215C306.196 463.844 306.461 463.507 306.832 463.465C307.201 463.412 307.539 463.684 307.583 464.055L308.321 470.292C308.365 470.663 308.1 470.999 307.729 471.043C307.702 471.047 307.676 471.048 307.649 471.048Z" fill="white"/>
<path d="M306.324 459.617C305.986 459.617 305.694 459.363 305.653 459.02L305.272 455.802C305.227 455.431 305.492 455.095 305.863 455.052C306.233 454.999 306.571 455.271 306.615 455.643L306.997 458.86C307.04 459.231 306.777 459.567 306.405 459.61C306.377 459.615 306.35 459.617 306.324 459.617Z" fill="white"/>
<path d="M206.032 371.606C206.032 371.606 151.71 380.661 154.728 333.582C157.746 315.776 168.007 305.817 173.137 300.988C178.267 296.16 186.415 285.295 190.943 276.242C195.47 267.188 196.978 265.678 196.978 265.678C196.978 265.678 207.542 266.886 211.465 278.052C215.387 289.218 215.387 289.218 215.387 289.218C215.387 289.218 225.045 280.164 228.667 274.129C232.289 268.093 234.703 268.697 234.703 268.697C234.703 268.697 243.454 276.242 244.058 284.389C244.662 292.538 245.868 289.821 245.868 289.821C245.868 289.821 249.491 280.466 261.26 265.678C273.029 250.891 285.101 241.838 298.38 234.595C311.659 227.351 335.499 224.032 346.063 227.05C356.625 230.068 376.241 241.838 376.845 243.045C377.448 244.252 378.655 238.215 371.413 232.18C364.17 226.143 374.464 226.749 377.315 223.428C380.164 220.109 372.62 215.582 374.128 209.245C375.638 202.906 379.561 205.623 380.769 202.605C381.975 199.588 372.62 194.153 371.413 189.024C370.206 183.894 383.183 185.704 382.277 181.479C381.371 177.255 371.112 180.273 371.715 174.84C372.318 169.407 380.769 169.71 380.164 168.2C379.561 166.691 371.112 164.881 371.112 161.259C371.112 157.639 378.958 157.94 378.354 154.619C377.751 151.301 369.3 150.094 369.904 145.567C370.508 141.04 375.336 142.55 377.448 139.228C379.561 135.909 372.62 131.081 369.602 127.157C366.584 123.234 373.224 122.026 375.638 120.519C378.054 119.009 369.903 120.217 369.903 115.085C369.903 109.955 375.034 113.275 376.544 109.352C378.054 105.429 372.318 107.843 371.413 101.506C370.508 95.168 374.128 96.9786 375.336 94.2622C376.543 91.5467 370.205 90.6423 370.508 86.1148C370.811 81.5874 378.656 85.8128 378.656 81.5874C378.656 77.362 370.206 79.173 370.206 74.3453C370.206 69.5162 373.224 70.4206 375.94 68.6113C378.656 66.7998 370.811 64.0843 373.224 60.4621C375.639 56.8413 377.448 60.1601 378.958 57.143C380.467 54.1254 376.544 50.2012 378.354 46.8815C380.164 43.5615 383.485 51.7106 384.993 46.8815C386.503 42.0538 382.579 39.9411 386.503 37.5267C390.426 35.112 391.331 36.3198 393.444 37.5267C395.557 38.7341 396.159 40.1642 397.367 35.0741C398.575 29.9821 404.308 25.7554 405.818 30.5845C407.326 35.4136 402.8 42.0533 405.818 43.2603C408.835 44.4681 414.266 40.8459 416.38 43.8644C418.492 46.8815 411.853 48.3901 413.664 49.2963C415.474 50.2007 421.51 48.9956 418.795 53.5226C416.078 58.0474 414.444 58.6524 419.486 59.5573C424.528 60.4622 431.167 63.179 427.245 64.9896C423.321 66.8002 417.588 69.2146 419.096 69.8178C420.606 70.4215 428.754 68.3101 429.962 70.7231C431.167 73.1379 421.51 76.4584 420.002 78.2686C418.493 80.0784 426.34 78.2686 428.452 81.2862C430.565 84.3046 420.908 86.1153 423.02 87.623C425.133 89.1328 434.487 87.3222 435.092 90.9435C435.694 94.5643 425.133 96.0742 425.737 97.8839C426.34 99.6946 434.538 96.6774 435.117 100.602C435.694 104.524 428.15 105.43 426.641 107.24C425.132 109.051 435.204 107.844 435.147 110.862C435.092 113.879 430.867 115.691 427.245 118.106C423.623 120.52 426.942 117.501 431.771 121.726C436.6 125.951 432.072 127.426 428.452 130.611C424.831 133.798 433.092 128.873 435.147 133.75C437.204 138.627 425.434 140.506 425.737 142.132C426.038 143.757 432.375 144.756 433.884 147.576C435.393 150.396 430.867 147.822 428.754 152.28C426.641 156.733 436.291 151.905 435.39 157.941C434.487 163.977 421.51 159.449 423.322 163.674C425.133 167.9 435.504 163.977 435.449 168.503C435.393 173.03 430.867 173.936 425.133 176.35C419.398 178.764 431.47 178.16 434.185 182.688C436.901 187.215 429.658 188.12 426.037 189.025C422.416 189.931 425.434 190.534 428.754 193.854C432.072 197.174 432.677 202.304 429.055 203.813C425.434 205.321 418.493 201.701 419.096 204.417C419.7 207.133 427.245 205.925 427.849 209.547C428.452 213.167 426.34 217.695 422.718 217.092C419.096 216.487 420.908 219.204 420.304 223.429C419.7 227.654 423.02 224.335 419.7 227.654C416.38 230.973 410.948 224.032 414.57 231.275C418.191 238.517 418.492 239.726 415.475 240.329C412.457 240.933 410.647 238.518 410.044 241.838C409.439 245.157 402.8 265.981 405.818 273.526C408.836 281.07 416.983 316.681 414.267 351.085C411.551 385.49 404.007 477.532 397.368 486.286C390.728 495.037 372.018 497.752 368.396 491.717C364.775 485.681 375.035 440.716 375.337 424.42C375.64 408.123 380.769 317.587 326.146 334.185C271.52 350.784 276.953 410.839 274.236 421.705C271.52 432.568 276.953 481.759 256.43 487.794C235.91 493.831 242.247 471.799 243.755 459.126C245.264 446.451 240.134 412.348 238.324 406.614C236.513 400.88 234.4 401.484 233.797 406.011C233.193 410.538 238.022 426.229 227.158 430.757C216.293 435.284 196.375 414.461 203.316 383.075C209.653 365.572 206.032 371.606 206.032 371.606Z" fill="black"/>
<path d="M173.833 323.686C175.164 318.263 173.09 313.095 169.205 312.144C165.32 311.191 161.093 314.815 159.765 320.239C158.434 325.664 160.509 330.829 164.394 331.782C168.279 332.733 172.506 329.11 173.833 323.686Z" fill="white"/>
<path d="M210.916 330.06C212.244 324.638 208.687 319.107 202.969 317.707C197.251 316.305 191.54 319.566 190.213 324.989C188.883 330.412 192.44 335.943 198.158 337.343C203.877 338.744 209.587 335.484 210.916 330.06Z" fill="white"/>
<path d="M201.807 304.433C201.526 304.433 201.27 304.247 201.195 303.964C201.105 303.625 201.305 303.281 201.641 303.19C201.727 303.165 207.582 301.385 214.84 288.899C215.016 288.599 215.403 288.495 215.706 288.671C216.009 288.847 216.112 289.235 215.935 289.536C208.347 302.589 202.227 304.344 201.97 304.412C201.916 304.427 201.859 304.433 201.807 304.433Z" fill="white"/>
<path d="M206.031 372.24C205.908 372.24 205.783 372.204 205.673 372.128C205.384 371.929 205.313 371.535 205.51 371.248C211.15 363.081 216.859 359.151 222.513 359.58C230.956 360.217 235.967 370.298 236.176 370.726C236.329 371.04 236.198 371.418 235.884 371.572C235.571 371.727 235.193 371.596 235.04 371.281C234.991 371.182 230.131 361.42 222.413 360.842C217.245 360.444 211.916 364.198 206.552 371.967C206.43 372.145 206.232 372.24 206.031 372.24Z" fill="white"/>
<path d="M247.2 405.988C240.962 405.988 235.62 403.189 235.309 403.023C235 402.859 234.884 402.475 235.048 402.168C235.212 401.859 235.596 401.745 235.905 401.907C236.005 401.961 246.1 407.234 254.325 403.144C259.654 400.495 263.095 394.521 264.557 385.39C268.451 361.054 258.199 350.431 258.095 350.327C257.848 350.078 257.848 349.678 258.095 349.431C258.342 349.184 258.743 349.185 258.989 349.431C259.432 349.874 269.812 360.562 265.807 385.591C264.277 395.152 260.601 401.441 254.882 404.282C252.356 405.536 249.707 405.988 247.2 405.988Z" fill="white"/>
<path d="M270.012 273.253C269.8 273.253 269.592 273.146 269.472 272.953C269.289 272.655 269.382 272.266 269.679 272.081C269.737 272.046 275.45 268.439 276.021 261.66C276.049 261.311 276.352 261.044 276.705 261.082C277.052 261.11 277.312 261.417 277.282 261.766C276.659 269.197 270.6 273.001 270.343 273.159C270.238 273.224 270.125 273.253 270.012 273.253Z" fill="white"/>
<path d="M279.667 273.253C279.547 273.253 279.425 273.218 279.318 273.146C279.027 272.953 278.948 272.561 279.142 272.269C279.213 272.163 286.229 261.54 285.082 255.23C285.018 254.886 285.246 254.556 285.59 254.494C285.933 254.426 286.263 254.659 286.326 255.004C287.566 261.815 280.496 272.519 280.196 272.972C280.073 273.154 279.873 273.253 279.667 273.253Z" fill="white"/>
<path d="M291.74 255.749C291.7 255.749 291.661 255.745 291.621 255.739C291.277 255.673 291.052 255.341 291.118 254.997C291.189 254.623 292.897 245.821 294.462 242.757C294.622 242.447 295.005 242.325 295.313 242.481C295.626 242.64 295.749 243.022 295.589 243.334C294.106 246.238 292.377 255.148 292.362 255.237C292.302 255.539 292.038 255.749 291.74 255.749Z" fill="white"/>
<path d="M295.026 264.502C294.727 264.502 294.462 264.289 294.404 263.984C294.341 263.641 294.568 263.31 294.912 263.245C294.989 263.232 302.757 261.71 305.022 254.917C305.132 254.586 305.486 254.405 305.822 254.518C306.153 254.627 306.332 254.986 306.222 255.317C303.719 262.829 295.489 264.426 295.141 264.492C295.103 264.498 295.063 264.502 295.026 264.502Z" fill="white"/>
<path d="M300.324 252.732C300.172 252.732 300.019 252.677 299.896 252.566C299.638 252.328 299.623 251.927 299.858 251.67C299.911 251.613 305.091 245.887 304.989 238.83C304.983 238.48 305.263 238.193 305.612 238.188C305.982 238.203 306.249 238.463 306.255 238.811C306.365 246.383 301.019 252.28 300.789 252.529C300.666 252.663 300.495 252.732 300.324 252.732Z" fill="white"/>
<path d="M315.278 252.732C314.992 252.732 314.733 252.536 314.663 252.245C314.581 251.906 314.792 251.565 315.131 251.483C315.419 251.413 322.192 249.625 321.288 238.874C321.26 238.525 321.517 238.219 321.866 238.19C322.214 238.161 322.519 238.419 322.55 238.767C323.55 250.644 315.507 252.695 315.426 252.715C315.375 252.726 315.326 252.732 315.278 252.732Z" fill="white"/>
<path d="M330.369 252.732C330.206 252.732 330.045 252.67 329.92 252.547C329.673 252.299 329.673 251.898 329.92 251.652C330.579 250.993 331.694 250.801 332.985 250.58C336.02 250.056 339.799 249.408 340.606 242.967C340.649 242.619 340.961 242.375 341.311 242.417C341.659 242.46 341.905 242.777 341.861 243.124C340.939 250.495 336.281 251.296 333.199 251.827C332.165 252.005 331.188 252.173 330.816 252.546C330.691 252.67 330.531 252.732 330.369 252.732Z" fill="white"/>
<path d="M330.369 243.678C330.273 243.678 330.177 243.657 330.086 243.611C329.772 243.455 329.647 243.075 329.802 242.761C329.844 242.678 334.028 234.301 335.213 231.342C335.344 231.019 335.713 230.86 336.036 230.99C336.361 231.119 336.519 231.488 336.389 231.813C335.184 234.821 331.107 242.982 330.934 243.328C330.824 243.551 330.6 243.678 330.369 243.678Z" fill="white"/>
<path d="M353.507 249.08C351.824 249.08 350.681 248.096 350.625 248.048C350.361 247.817 350.336 247.418 350.567 247.154C350.797 246.894 351.196 246.867 351.459 247.094C351.508 247.139 352.621 248.073 354.161 247.745C355.807 247.393 357.401 245.674 358.767 242.775C358.916 242.459 359.292 242.321 359.609 242.473C359.926 242.623 360.06 242.999 359.912 243.316C358.343 246.646 356.487 248.555 354.399 248.988C354.09 249.052 353.791 249.08 353.507 249.08Z" fill="white"/>
<path d="M396.158 60.0873C395.889 60.0873 395.641 59.9158 395.555 59.6459L391.33 46.3206C391.224 45.9868 391.408 45.6323 391.741 45.5256C392.077 45.4197 392.432 45.6054 392.537 45.937L396.763 59.2632C396.868 59.5961 396.683 59.9524 396.351 60.0574C396.286 60.0785 396.222 60.0873 396.158 60.0873Z" fill="white"/>
<path d="M402.193 62.1423C402.115 62.1423 402.035 62.1277 401.956 62.0969C401.632 61.965 401.476 61.595 401.608 61.2714L407.04 47.9064C407.172 47.5823 407.539 47.4279 407.865 47.5589C408.189 47.6898 408.346 48.0598 408.213 48.3826L402.782 61.7476C402.681 61.9946 402.444 62.1423 402.193 62.1423Z" fill="white"/>
<path d="M391.933 73.1586C391.695 73.1586 391.465 73.0233 391.358 72.7909L385.324 59.7204C385.176 59.4029 385.314 59.0264 385.632 58.8795C385.951 58.7335 386.325 58.8716 386.473 59.1891L392.508 72.2599C392.653 72.5788 392.515 72.9545 392.197 73.1004C392.112 73.1405 392.022 73.1586 391.933 73.1586Z" fill="white"/>
<path d="M402.193 77.7121C402.081 77.7121 401.964 77.6808 401.861 77.6169C401.563 77.4325 401.472 77.0427 401.657 76.7451L409.504 64.1152C409.688 63.8158 410.078 63.7267 410.376 63.9101C410.672 64.0944 410.764 64.486 410.58 64.7819L402.732 77.4131C402.612 77.6067 402.405 77.7121 402.193 77.7121Z" fill="white"/>
<path d="M388.916 82.9985C388.693 82.9985 388.477 82.8794 388.363 82.6713L382.93 72.8319C382.761 72.5258 382.871 72.1404 383.178 71.9724C383.485 71.8018 383.869 71.9142 384.038 72.2189L389.47 82.0597C389.639 82.3652 389.527 82.7511 389.221 82.9187C389.125 82.9733 389.02 82.9985 388.916 82.9985Z" fill="white"/>
<path d="M404.91 89.756C404.768 89.756 404.625 89.7083 404.507 89.61C404.238 89.3877 404.199 88.9887 404.423 88.7188L414.382 76.6763C414.605 76.4077 415.003 76.3685 415.273 76.5925C415.543 76.8143 415.582 77.2147 415.357 77.4837L405.398 89.5271C405.273 89.677 405.091 89.756 404.91 89.756Z" fill="white"/>
<path d="M394.046 98.8206C393.869 98.8206 393.694 98.7478 393.568 98.6041L383.006 86.5324C382.776 86.2692 382.804 85.8705 383.068 85.6386C383.328 85.4084 383.729 85.4349 383.96 85.6999L394.521 97.7715C394.751 98.0339 394.726 98.4338 394.462 98.6636C394.344 98.7681 394.194 98.8206 394.046 98.8206Z" fill="white"/>
<path d="M406.117 103.045C405.98 103.045 405.844 103.001 405.728 102.911C405.452 102.696 405.403 102.298 405.618 102.022C407.41 99.7303 413.346 92.2038 414.587 91.5847C414.9 91.429 415.28 91.5556 415.436 91.8678C415.592 92.1804 415.466 92.5601 415.153 92.7166C414.438 93.1065 410.25 98.1494 406.616 102.801C406.491 102.961 406.306 103.045 406.117 103.045Z" fill="white"/>
<path d="M388.916 112.448C388.697 112.448 388.485 112.336 388.366 112.132L382.936 102.728C382.761 102.425 382.864 102.038 383.167 101.864C383.467 101.69 383.856 101.792 384.031 102.095L389.464 111.499C389.639 111.802 389.535 112.189 389.232 112.365C389.131 112.421 389.022 112.448 388.916 112.448Z" fill="white"/>
<path d="M402.195 115.719C401.986 115.719 401.781 115.617 401.662 115.429L393.513 102.753C393.324 102.459 393.409 102.068 393.705 101.88C394 101.689 394.39 101.776 394.578 102.069L402.727 114.743C402.916 115.038 402.83 115.43 402.537 115.619C402.43 115.687 402.312 115.719 402.195 115.719Z" fill="white"/>
<path d="M407.627 113.549C407.45 113.549 407.274 113.476 407.149 113.331C406.919 113.067 406.948 112.667 407.211 112.439C409.75 110.238 413.87 106.626 414.334 106.117C414.446 105.94 414.644 105.821 414.871 105.821C415.22 105.821 415.503 106.104 415.503 106.455C415.503 106.826 415.503 106.926 408.042 113.395C407.921 113.499 407.774 113.549 407.627 113.549Z" fill="white"/>
<path d="M391.933 131.244C391.743 131.244 391.554 131.159 391.43 130.996L382.98 119.911C382.768 119.633 382.821 119.237 383.099 119.025C383.377 118.812 383.775 118.867 383.986 119.144L392.436 130.228C392.647 130.507 392.594 130.903 392.316 131.114C392.201 131.201 392.067 131.244 391.933 131.244Z" fill="white"/>
<path d="M410.494 129.557C410.341 129.557 410.188 129.501 410.066 129.39C409.808 129.153 409.79 128.754 410.026 128.496L418.627 119.101C418.862 118.843 419.263 118.826 419.521 119.061C419.779 119.297 419.797 119.698 419.56 119.955L410.96 129.35C410.835 129.487 410.665 129.557 410.494 129.557Z" fill="white"/>
<path d="M402.195 137.32C401.956 137.32 401.727 137.185 401.62 136.954L395.585 124.052C395.435 123.736 395.574 123.358 395.89 123.209C396.207 123.063 396.583 123.199 396.732 123.515L402.767 136.419C402.915 136.735 402.778 137.112 402.462 137.26C402.376 137.302 402.284 137.32 402.195 137.32Z" fill="white"/>
<path d="M410.494 142.765C410.336 142.765 410.178 142.707 410.056 142.588C409.803 142.345 409.795 141.945 410.038 141.693C414.052 137.522 418.415 132.404 418.461 131.412C418.478 131.072 418.756 130.794 419.095 130.794C419.101 130.794 419.104 130.794 419.11 130.794C419.453 130.803 419.727 131.07 419.727 131.413C419.727 133.303 413.009 140.431 410.951 142.57C410.825 142.7 410.66 142.765 410.494 142.765Z" fill="white"/>
<path d="M391.933 150.842C391.706 150.842 391.485 150.717 391.372 150.503L387.148 142.425C386.986 142.114 387.106 141.733 387.415 141.571C387.727 141.407 388.108 141.529 388.269 141.838L392.493 149.915C392.655 150.226 392.537 150.607 392.227 150.769C392.132 150.82 392.032 150.842 391.933 150.842Z" fill="white"/>
<path d="M404.912 156.288C404.702 156.288 404.498 156.184 404.376 155.994C401.11 150.861 396.097 143.044 395.673 142.538C395.45 142.27 395.484 141.87 395.752 141.647C396.021 141.422 396.42 141.459 396.644 141.724C397.256 142.457 404.609 154 405.444 155.314C405.632 155.609 405.545 156 405.25 156.188C405.145 156.255 405.027 156.288 404.912 156.288Z" fill="white"/>
<path d="M409.889 162.601C409.813 162.601 409.735 162.588 409.66 162.558C409.335 162.43 409.172 162.064 409.3 161.739C409.883 160.25 415.091 147.155 418.852 145.587C419.174 145.452 419.543 145.604 419.678 145.926C419.813 146.248 419.661 146.619 419.338 146.754C416.572 147.908 412.006 158.295 410.479 162.2C410.382 162.449 410.143 162.601 409.889 162.601Z" fill="white"/>
<path d="M389.822 175.086C389.591 175.086 389.369 174.958 389.257 174.741L382.919 162.255C382.761 161.944 382.885 161.563 383.198 161.405C383.508 161.247 383.889 161.372 384.049 161.683L390.386 174.167C390.544 174.479 390.419 174.859 390.107 175.017C390.015 175.064 389.918 175.086 389.822 175.086Z" fill="white"/>
<path d="M399.175 181.403C398.896 181.403 398.642 181.218 398.566 180.937L393.435 162.136C393.343 161.798 393.54 161.452 393.879 161.358C394.217 161.269 394.565 161.466 394.656 161.802L399.788 180.602C399.879 180.941 399.679 181.288 399.343 181.38C399.286 181.395 399.23 181.403 399.175 181.403Z" fill="white"/>
<path d="M406.117 178.492C405.97 178.492 405.823 178.442 405.704 178.339C405.438 178.11 405.408 177.712 405.638 177.447L414.012 167.726C414.24 167.46 414.641 167.43 414.904 167.659C415.17 167.887 415.2 168.286 414.971 168.551L406.596 178.273C406.471 178.417 406.294 178.492 406.117 178.492Z" fill="white"/>
<path d="M407.626 194.185C407.512 194.185 407.397 194.153 407.29 194.088C406.995 193.904 406.905 193.513 407.09 193.216C408.527 190.917 413.315 183.361 414.578 182.705C414.888 182.544 415.268 182.664 415.432 182.974C415.592 183.284 415.472 183.664 415.164 183.826C414.452 184.252 411.046 189.275 408.164 193.888C408.044 194.08 407.838 194.185 407.626 194.185Z" fill="white"/>
<path d="M396.611 201.964C396.352 201.964 396.109 201.805 396.014 201.548L391.337 188.624C391.219 188.296 391.389 187.934 391.717 187.814C392.049 187.695 392.408 187.866 392.527 188.193L397.206 201.117C397.324 201.445 397.154 201.807 396.826 201.927C396.755 201.953 396.682 201.964 396.611 201.964Z" fill="white"/>
<path d="M399.175 213.714C399.055 213.714 398.934 213.678 398.826 213.607C398.535 213.415 398.455 213.022 398.649 212.73L404.382 204.067C404.575 203.775 404.967 203.695 405.26 203.889C405.552 204.082 405.631 204.475 405.437 204.765L399.704 213.429C399.582 213.614 399.38 213.714 399.175 213.714Z" fill="white"/>
<path d="M398.12 226.782C397.978 226.782 397.835 226.736 397.718 226.638C397.448 226.415 397.41 226.016 397.632 225.747C400.099 222.763 404.086 217.581 404.286 216.383C404.343 216.039 404.666 215.8 405.014 215.863C405.358 215.921 405.592 216.247 405.534 216.591C405.221 218.476 399.71 225.22 398.608 226.553C398.483 226.704 398.302 226.782 398.12 226.782Z" fill="white"/>
<path d="M389.822 229.796C389.623 229.796 389.428 229.704 389.305 229.53C388.107 227.843 382.154 219.304 382.619 216.785C382.702 216.332 382.943 216.087 383.132 215.961C383.422 215.767 383.817 215.846 384.01 216.136C384.198 216.417 384.13 216.791 383.865 216.992C383.49 217.931 386.439 223.309 390.338 228.796C390.539 229.082 390.473 229.476 390.188 229.679C390.077 229.758 389.948 229.796 389.822 229.796Z" fill="white"/>
<path d="M389.821 209.382C389.547 209.382 389.296 209.203 389.213 208.929C389.186 208.837 386.5 199.777 386.06 198.621C385.937 198.292 386.1 197.928 386.427 197.803C386.755 197.678 387.119 197.843 387.243 198.17C387.7 199.372 390.316 208.193 390.428 208.569C390.528 208.905 390.337 209.257 390.002 209.356C389.941 209.374 389.879 209.382 389.821 209.382Z" fill="white"/>
<path d="M406.117 308.865C406.086 308.865 406.055 308.862 406.024 308.857C405.678 308.805 405.438 308.483 405.49 308.138C406.343 302.466 401.814 295.474 400.067 293.57C399.831 293.312 399.849 292.911 400.107 292.675C400.366 292.439 400.764 292.457 401.001 292.715C402.38 294.218 407.733 301.722 406.743 308.326C406.696 308.64 406.426 308.865 406.117 308.865Z" fill="white"/>
<path d="M256.733 372.24C256.703 372.24 256.673 372.239 256.642 372.234C256.297 372.185 256.056 371.864 256.107 371.517C257.264 363.413 253.221 356.921 253.18 356.857C252.994 356.562 253.079 356.171 253.375 355.984C253.67 355.796 254.06 355.884 254.248 356.178C254.425 356.456 258.583 363.113 257.36 371.697C257.314 372.013 257.043 372.24 256.733 372.24Z" fill="white"/>
<path d="M253.715 393.969C253.54 393.969 253.367 393.897 253.242 393.756C253.01 393.496 253.033 393.095 253.294 392.864C255.163 391.201 256.097 389.648 255.993 388.368C255.9 387.232 255.002 386.633 254.994 386.628C254.698 386.442 254.611 386.049 254.797 385.755C254.985 385.459 255.375 385.37 255.671 385.56C255.729 385.596 257.111 386.488 257.254 388.266C257.394 389.98 256.346 391.846 254.134 393.81C254.014 393.917 253.864 393.969 253.715 393.969Z" fill="white"/>
<path d="M174.043 360.815C173.693 360.815 173.409 360.531 173.409 360.181V356.518C173.409 356.167 173.693 355.884 174.043 355.884C174.392 355.884 174.676 356.167 174.676 356.518V360.181C174.675 360.531 174.392 360.815 174.043 360.815Z" fill="white"/>
<path d="M197.28 332.705C196.97 332.705 196.698 332.478 196.654 332.163C196.304 329.721 198.401 323.389 198.49 323.121C198.6 322.79 198.954 322.611 199.29 322.721C199.622 322.831 199.801 323.19 199.691 323.522C199.147 325.153 197.653 330.209 197.906 331.983C197.956 332.329 197.715 332.65 197.369 332.699C197.339 332.704 197.309 332.705 197.28 332.705Z" fill="#4BA3BC"/>
<path d="M164.688 327.346C164.661 327.346 164.634 327.343 164.606 327.341C164.259 327.296 164.014 326.979 164.059 326.632C164.362 324.281 165.243 320.612 165.28 320.458C165.359 320.118 165.699 319.908 166.042 319.99C166.382 320.072 166.591 320.414 166.511 320.754C166.501 320.791 165.609 324.511 165.314 326.794C165.274 327.112 165.002 327.346 164.688 327.346Z" fill="#4BA3BC"/>
<path d="M122.537 378.241C122.305 378.241 122.083 378.114 121.972 377.894C121.814 377.582 121.939 377.202 122.251 377.044L160.391 357.785C160.702 357.626 161.083 357.753 161.242 358.064C161.398 358.377 161.274 358.757 160.962 358.915L122.822 378.174C122.73 378.22 122.634 378.241 122.537 378.241Z" fill="#4BA3BC"/>
<path d="M122.535 364.695C122.239 364.695 121.975 364.486 121.915 364.185C121.848 363.841 122.07 363.509 122.413 363.441L160.553 355.897C160.895 355.831 161.229 356.052 161.297 356.395C161.365 356.736 161.143 357.07 160.799 357.139L122.659 364.683C122.618 364.691 122.576 364.695 122.535 364.695Z" fill="#4BA3BC"/>
<path d="M156.419 350.511C156.358 350.511 156.297 350.502 156.235 350.484L115.914 338.274C115.58 338.173 115.391 337.821 115.493 337.486C115.594 337.152 115.945 336.963 116.281 337.062L156.602 349.272C156.937 349.373 157.126 349.726 157.025 350.062C156.941 350.335 156.691 350.511 156.419 350.511Z" fill="#4BA3BC"/>
<path d="M189.934 353.928C189.671 353.928 189.424 353.764 189.335 353.501C189.223 353.17 189.398 352.81 189.73 352.698L235.403 337.07C235.73 336.958 236.092 337.133 236.206 337.465C236.319 337.794 236.142 338.155 235.812 338.269L190.138 353.896C190.071 353.917 190.002 353.928 189.934 353.928Z" fill="white"/>
<path d="M191.598 355.394C191.3 355.394 191.036 355.184 190.978 354.881C190.912 354.537 191.135 354.206 191.479 354.139L235.488 345.668C235.832 345.605 236.163 345.826 236.229 346.17C236.295 346.514 236.071 346.845 235.728 346.912L191.72 355.383C191.678 355.39 191.638 355.394 191.598 355.394Z" fill="white"/>
<path d="M193.357 360.923H189.934C189.595 360.923 189.318 360.657 189.301 360.319C189.287 359.982 189.539 359.69 189.875 359.661L230.316 355.887C230.657 355.855 230.973 356.111 231.006 356.46C231.038 356.807 230.782 357.115 230.433 357.148L193.932 360.553C193.832 360.771 193.612 360.923 193.357 360.923Z" fill="white"/>
<path d="M276.523 169.52H268.572V161.57C268.572 160.548 267.745 159.722 266.725 159.722C265.704 159.722 264.877 160.548 264.877 161.57V169.52H256.925C255.905 169.52 255.078 170.347 255.078 171.368C255.078 172.388 255.905 173.216 256.925 173.216H264.877V181.166C264.877 182.187 265.704 183.016 266.725 183.016C267.745 183.016 268.572 182.188 268.572 181.166V173.216H276.523C277.543 173.216 278.371 172.388 278.371 171.368C278.371 170.347 277.543 169.52 276.523 169.52Z" fill="#DB0F44"/>
<path d="M196.428 209.392H190.645V203.61C190.645 202.868 190.043 202.267 189.3 202.267C188.558 202.267 187.956 202.868 187.956 203.61V209.392H182.172C181.43 209.392 180.828 209.996 180.828 210.738C180.828 211.481 181.43 212.083 182.172 212.083H187.956V217.866C187.956 218.608 188.558 219.211 189.3 219.211C190.043 219.211 190.645 218.608 190.645 217.866V212.083H196.428C197.171 212.083 197.773 211.481 197.773 210.738C197.773 209.996 197.171 209.392 196.428 209.392Z" fill="#DB0F44"/>
<path d="M168.436 427.409H162.654V421.624C162.654 420.883 162.051 420.281 161.309 420.281C160.567 420.281 159.966 420.883 159.966 421.624V427.409H154.181C153.439 427.409 152.837 428.01 152.837 428.752C152.837 429.495 153.439 430.097 154.181 430.097H159.966V435.88C159.966 436.622 160.567 437.224 161.309 437.224C162.051 437.224 162.654 436.622 162.654 435.88V430.097H168.436C169.18 430.097 169.782 429.495 169.782 428.752C169.782 428.01 169.179 427.409 168.436 427.409Z" fill="#DB0F44"/>
<path d="M44.2529 409.896H40.8733V406.516C40.8733 406.083 40.521 405.732 40.0879 405.732C39.6549 405.732 39.3026 406.083 39.3026 406.516V409.896H35.9229C35.4899 409.896 35.1376 410.249 35.1376 410.682C35.1376 411.116 35.4899 411.468 35.9229 411.468H39.3026V414.848C39.3026 415.281 39.6549 415.634 40.0879 415.634C40.521 415.634 40.8733 415.281 40.8733 414.848V411.468H44.2529C44.6873 411.468 45.0383 411.116 45.0383 410.682C45.0383 410.249 44.6873 409.896 44.2529 409.896Z" fill="#DB0F44"/>
<path d="M109.627 251.124H103.845V245.339C103.845 244.599 103.241 243.996 102.501 243.996C101.757 243.996 101.156 244.599 101.156 245.339V251.124H95.3717C94.63 251.124 94.0281 251.726 94.0281 252.469C94.0281 253.211 94.63 253.813 95.3717 253.813H101.156V259.597C101.156 260.339 101.757 260.941 102.501 260.941C103.241 260.941 103.845 260.339 103.845 259.597V253.813H109.627C110.37 253.813 110.972 253.211 110.972 252.469C110.972 251.726 110.37 251.124 109.627 251.124Z" fill="#DB0F44"/>
<path d="M173.633 251.5H167.85V245.718C167.85 244.976 167.247 244.372 166.505 244.372C165.763 244.372 165.161 244.976 165.161 245.718V251.5H159.377C158.636 251.5 158.032 252.103 158.032 252.846C158.032 253.588 158.636 254.189 159.377 254.189H165.161V259.974C165.161 260.716 165.763 261.318 166.505 261.318C167.247 261.318 167.85 260.715 167.85 259.974V254.189H173.633C174.375 254.189 174.977 253.587 174.977 252.846C174.977 252.103 174.375 251.5 173.633 251.5Z" fill="#DB0F44"/>
<path d="M129.569 270.422H124.81V265.663C124.81 265.053 124.312 264.556 123.703 264.556C123.091 264.556 122.596 265.053 122.596 265.663V270.422H117.837C117.226 270.422 116.731 270.918 116.731 271.529C116.731 272.14 117.226 272.636 117.837 272.636H122.596V277.395C122.596 278.007 123.092 278.502 123.703 278.502C124.313 278.502 124.811 278.006 124.811 277.395V272.636H129.57C130.18 272.636 130.677 272.14 130.677 271.529C130.676 270.918 130.18 270.422 129.569 270.422Z" fill="#DB0F44"/>
<path d="M22.935 306.632H19.1668V302.865C19.1668 302.382 18.7744 301.99 18.2924 301.99C17.8078 301.99 17.4157 302.383 17.4157 302.865V306.632H13.649C13.1652 306.632 12.7732 307.025 12.7732 307.509C12.7732 307.992 13.1657 308.385 13.649 308.385H17.4157V312.152C17.4157 312.635 17.8082 313.027 18.2924 313.027C18.7748 313.027 19.1668 312.634 19.1668 312.152V308.385H22.935C23.4174 308.385 23.8094 307.992 23.8094 307.509C23.8094 307.025 23.4174 306.632 22.935 306.632Z" fill="#DB0F44"/>
<path d="M474.493 309.994H465.895V301.397C465.895 300.295 465 299.398 463.897 299.398C462.792 299.398 461.897 300.295 461.897 301.397V309.994H453.301C452.197 309.994 451.303 310.889 451.303 311.992C451.303 313.096 452.197 313.991 453.301 313.991H461.897V322.59C461.897 323.691 462.792 324.586 463.897 324.586C465 324.586 465.895 323.691 465.895 322.59V313.991H474.493C475.595 313.991 476.49 313.096 476.49 311.992C476.49 310.889 475.595 309.994 474.493 309.994Z" fill="#DB0F44"/>
</svg>
