<svg width="686" height="590" viewBox="0 0 686 590" fill="none" xmlns="http://www.w3.org/2000/svg">
<path d="M652.362 179.413C650.902 180.972 634.947 198.606 648.216 217.674C648.216 217.682 648.231 217.682 648.231 217.697C657.297 223.993 663.215 234.448 663.215 246.266C663.215 262.373 652.204 275.932 637.235 279.943C633.191 281.503 627.804 287.695 624.451 291.958C622.704 294.165 621.504 295.859 621.32 296.135C621.297 296.166 621.29 296.173 621.29 296.173C617.278 300.35 611.627 302.943 605.36 302.943C597.883 302.943 591.272 299.239 587.298 293.574C579.775 284.119 574.373 280.51 571.663 279.163C570.503 278.596 569.835 278.43 569.685 278.399C569.661 278.384 569.652 278.384 569.652 278.384C557.052 273.088 548.209 260.694 548.209 246.266C548.209 235.536 553.088 225.939 560.77 219.549V219.533C568.596 207.203 568.199 196.944 565.426 189.411C564.156 185.968 562.391 183.091 560.69 180.855C557.927 177.214 555.328 175.252 555.328 175.252C550.854 169.407 548.209 162.118 548.209 154.216C548.209 143.248 553.301 133.469 561.286 127.087C561.286 127.087 561.286 127.071 561.296 127.071C575.421 107.5 562.463 93.5226 561.366 92.3874C561.311 92.3314 561.286 92.3175 561.286 92.3175C553.301 85.9269 548.209 76.148 548.209 65.1802C548.209 49.7699 558.3 36.666 572.275 32.0888C572.275 32.0888 572.292 32.0888 572.3 32.0794C572.324 32.0794 572.339 32.0565 572.378 32.0484C572.387 32.0484 572.387 32.0328 572.395 32.0328C573.253 31.6222 578.584 28.779 583.541 19.1113C584.884 8.34061 594.141 0.00445557 605.36 0.00445557C613.732 0.00445557 621.011 4.6364 624.729 11.4604C624.729 11.4604 624.729 11.4694 624.737 11.5003C624.793 11.8705 625.301 14.9746 627.16 18.8908C629.052 22.8854 632.325 27.7159 637.943 31.3475C637.943 31.3475 637.943 31.3475 637.949 31.3475C638.323 31.5922 638.705 31.8284 639.095 32.057C648.001 34.9804 655.334 41.3307 659.49 49.5405C661.286 53.0784 662.485 56.9632 662.97 61.0609C663.137 62.4149 663.215 63.7863 663.215 65.1806C663.215 75.0379 659.101 83.9338 652.465 90.2769C652.465 90.2769 652.434 90.3083 652.371 90.371C650.932 91.8442 634.677 109.162 650.13 127.072L650.138 127.087C658.124 133.47 663.216 143.249 663.216 154.216C663.216 164.065 659.101 172.961 652.466 179.303C652.465 179.302 652.434 179.342 652.362 179.413Z" fill="#8CB369"/>
<path d="M652.362 179.412C650.902 180.972 634.947 198.606 648.216 217.674C648.216 217.681 648.231 217.681 648.231 217.697C657.297 223.992 663.215 234.448 663.215 246.266C663.215 262.373 652.204 275.932 637.235 279.942C633.191 281.503 627.804 287.695 624.451 291.958C622.704 294.165 621.504 295.859 621.32 296.135C621.297 296.166 621.29 296.173 621.29 296.173C617.278 300.35 611.627 302.943 605.36 302.943C597.883 302.943 591.272 299.239 587.298 293.574C579.775 284.118 574.373 280.51 571.663 279.162C570.503 278.596 569.835 278.43 569.685 278.398C569.661 278.384 569.652 278.384 569.652 278.384C557.052 273.088 548.209 260.693 548.209 246.266C548.209 235.536 553.088 225.939 560.77 219.549V219.533C568.596 207.203 568.199 196.943 565.426 189.41C572.267 178.01 578.758 166.812 582.603 159.848C592.337 142.238 589.556 104.182 596.285 73.1775C600.235 55.0003 621.241 40.3519 637.944 31.3466C637.944 31.3466 637.944 31.3466 637.95 31.3466C638.323 31.5914 638.706 31.8275 639.096 32.0561C648.001 34.9796 655.335 41.3299 659.49 49.5396C660.316 53.0543 661.444 56.8987 662.97 61.0601C663.137 62.4141 663.216 63.7855 663.216 65.1798C663.216 75.037 659.101 83.933 652.466 90.2761C652.466 90.2761 652.435 90.3074 652.372 90.3702C650.932 91.8433 634.677 109.161 650.13 127.071L650.138 127.086C658.124 133.469 663.216 143.248 663.216 154.215C663.216 164.064 659.102 172.96 652.466 179.302C652.465 179.302 652.434 179.342 652.362 179.412Z" fill="#0C2C00"/>
<path d="M608.058 378.559C608.023 377.752 604.566 296.832 604.566 199.801V0H606.156V199.8C606.156 296.796 609.611 377.685 609.646 378.49L608.058 378.559Z" fill="#0C2C00"/>
<path d="M639.747 32.5132L638.459 31.5916L604.726 77.9463L606.014 78.8679L639.747 32.5132Z" fill="#0C2C00"/>
<path d="M652.183 39.7766L650.992 38.7328L605.123 90.233L606.314 91.2768L652.183 39.7766Z" fill="#0C2C00"/>
<path d="M606.24 130.131L560.023 90.1663L558.978 91.3547L605.196 131.32L606.24 130.131Z" fill="#0C2C00"/>
<path d="M604.995 140.151L565.396 119.86L566.123 118.459L605.725 138.751L604.995 140.151Z" fill="#0C2C00"/>
<path d="M656.65 133.771L655.547 132.635L604.816 181.046L605.918 182.182L656.65 133.771Z" fill="#0C2C00"/>
<path d="M643.49 200.481L642.652 199.143L604.94 222.352L605.777 223.69L643.49 200.481Z" fill="#0C2C00"/>
<path d="M645.187 212.097L644.429 210.712L605.319 231.773L606.077 233.158L645.187 212.097Z" fill="#0C2C00"/>
<path d="M663.599 246.959L662.836 245.577L605.324 276.825L606.088 278.207L663.599 246.959Z" fill="#0C2C00"/>
<path d="M605.7 257.2L551.414 231.765L550.735 233.19L605.022 258.625L605.7 257.2Z" fill="#0C2C00"/>
<path d="M605.644 266.615L548.486 245.533L547.932 247.01L605.09 268.092L605.644 266.615Z" fill="#0C2C00"/>
<path d="M605.647 202.669L564.909 186.715L564.326 188.18L605.064 204.133L605.647 202.669Z" fill="#0C2C00"/>
<path d="M606.085 186.748L548.728 156.7L547.986 158.092L605.344 188.141L606.085 186.748Z" fill="#0C2C00"/>
<path d="M605.849 56.1549L572.885 31.3994L571.925 32.6557L604.889 57.4111L605.849 56.1549Z" fill="#0C2C00"/>
<path d="M685.32 159.305C685.256 160.227 685.129 161.149 684.947 162.078C683.675 168.641 679.79 174.039 674.562 177.419C674.562 177.419 674.531 177.435 674.482 177.475C673.338 178.271 660.284 187.741 668.262 201.616L668.27 201.632C672.758 206.888 674.888 214.041 673.474 221.345C672.203 227.901 668.317 233.298 663.089 236.678C663.089 236.678 663.056 236.703 663.003 236.74C661.826 237.592 648.939 247.308 655.311 261.679C655.311 261.687 655.319 261.687 655.319 261.702C660.539 267.037 663.138 274.751 661.612 282.613C659.537 293.338 650.456 300.963 639.977 301.736C637.085 302.264 632.699 305.701 629.918 308.118C628.473 309.364 627.455 310.34 627.295 310.498C627.28 310.514 627.272 310.522 627.272 310.522C624.061 312.792 619.971 313.8 615.8 313.004C610.817 312.058 606.901 308.757 604.986 304.479C601.196 297.238 598.065 294.149 596.429 292.905C595.738 292.385 595.309 292.187 595.213 292.148C595.198 292.132 595.198 292.132 595.198 292.132C587.491 287.011 583.199 277.642 585.058 268.038C586.441 260.899 590.93 255.123 596.865 251.846V251.837C603.667 244.62 604.723 237.743 603.849 232.377C603.444 229.926 602.642 227.783 601.8 226.081C600.425 223.308 598.955 221.67 598.955 221.67C598.025 219.81 597.342 217.816 596.929 215.753C596.365 212.869 596.326 209.827 596.921 206.77C598.335 199.465 602.984 193.602 609.125 190.365C609.125 190.365 609.125 190.356 609.133 190.356C621.06 179.122 614.234 168.176 613.646 167.278C613.623 167.239 613.607 167.223 613.607 167.223C609.117 161.96 606.988 154.805 608.394 147.501C610.38 137.243 618.786 129.806 628.678 128.528C628.678 128.528 628.693 128.528 628.703 128.521C628.719 128.528 628.727 128.513 628.757 128.513L628.766 128.505C629.394 128.339 633.312 127.126 637.856 121.319C640.136 114.316 647.375 109.941 654.834 111.368C660.412 112.424 664.663 116.434 666.252 121.445C666.252 121.445 666.252 121.453 666.252 121.469C666.243 121.729 666.181 123.856 666.919 126.701C667.658 129.6 669.215 133.225 672.489 136.36C672.711 136.566 672.933 136.771 673.164 136.976C676.119 138.614 678.654 140.844 680.641 143.483C682.38 145.784 683.692 148.401 684.486 151.197C685.224 153.782 685.518 156.516 685.32 159.305Z" fill="#8CB369"/>
<path d="M685.32 159.305C685.256 160.227 685.129 161.149 684.947 162.078C683.675 168.641 679.79 174.039 674.562 177.419C674.562 177.419 674.531 177.435 674.482 177.475C673.338 178.271 660.284 187.741 668.262 201.616L668.27 201.632C672.758 206.889 674.888 214.041 673.474 221.345C672.203 227.901 668.317 233.298 663.089 236.678C663.089 236.678 663.056 236.703 663.003 236.74C661.826 237.592 648.939 247.308 655.311 261.679C655.311 261.687 655.319 261.687 655.319 261.702C660.539 267.037 663.138 274.751 661.612 282.614C659.537 293.338 650.456 300.963 639.977 301.736C637.085 302.264 632.699 305.701 629.918 308.119C628.473 309.364 627.455 310.34 627.295 310.498C627.28 310.514 627.272 310.522 627.272 310.522C624.061 312.792 619.971 313.8 615.8 313.004C610.817 312.058 606.901 308.757 604.986 304.479C601.196 297.238 598.065 294.149 596.429 292.906C595.738 292.385 595.309 292.188 595.213 292.148C595.198 292.132 595.198 292.132 595.198 292.132C587.491 287.011 583.199 277.642 585.058 268.038C586.441 260.899 590.93 255.123 596.865 251.846V251.837C603.667 244.62 604.723 237.743 603.849 232.377C603.444 229.926 602.642 227.783 601.8 226.081C600.425 223.308 598.955 221.67 598.955 221.67C598.025 219.81 597.342 217.816 596.929 215.753C607.186 216.886 604.446 235.071 608.706 254.462C613.558 276.538 601.474 283.82 617.626 286.034C633.772 288.248 638.419 263.727 644.354 246.26C650.29 228.783 657.489 228.271 656.154 216.311C654.819 204.343 655.104 190.451 669.557 172.424C677.265 162.819 679.877 151.741 680.641 143.484C682.38 145.784 683.691 148.401 684.486 151.197C685.224 153.782 685.518 156.516 685.32 159.305Z" fill="#0C2C00"/>
<path d="M609.166 363.874L607.594 363.644C607.675 363.103 615.803 308.796 628.309 244.205L654.058 111.214L655.618 111.511L629.87 244.502C617.37 309.059 609.247 363.333 609.166 363.874Z" fill="#0C2C00"/>
<path d="M673.702 137.534L672.613 136.388L644.178 162.955L645.267 164.102L673.702 137.534Z" fill="#0C2C00"/>
<path d="M681.02 143.956L680.05 142.71L642.892 171.19L643.863 172.436L681.02 143.956Z" fill="#0C2C00"/>
<path d="M638.831 197.943L613.219 165.48L611.968 166.451L637.579 198.914L638.831 197.943Z" fill="#0C2C00"/>
<path d="M637.361 203.552L613.617 185.027L612.635 186.265L636.379 204.79L637.361 203.552Z" fill="#0C2C00"/>
<path d="M671.889 207.118L671.023 205.795L630.999 231.556L631.864 232.879L671.889 207.118Z" fill="#0C2C00"/>
<path d="M654.471 249.876L653.904 248.406L625.805 259.056L626.372 260.526L654.471 249.876Z" fill="#0C2C00"/>
<path d="M654.087 257.825L653.606 256.324L624.859 265.388L625.341 266.889L654.087 257.825Z" fill="#0C2C00"/>
<path d="M661.87 283.366L661.383 281.866L619.077 295.385L619.564 296.885L661.87 283.366Z" fill="#0C2C00"/>
<path d="M622.068 282.387L589.213 258.578L588.276 259.85L621.13 283.659L622.068 282.387Z" fill="#0C2C00"/>
<path d="M619.971 289.985L584.646 268.709L585.471 267.363L620.797 288.639L619.971 289.985Z" fill="#0C2C00"/>
<path d="M629.06 246.097L603.998 230.314L603.146 231.644L628.208 247.427L629.06 246.097Z" fill="#0C2C00"/>
<path d="M631.414 235.582L597.107 208.31L596.114 209.539L630.421 236.811L631.414 235.582Z" fill="#0C2C00"/>
<path d="M648.101 148.649L629.352 127.991L628.171 129.046L646.92 149.704L648.101 148.649Z" fill="#0C2C00"/>
<path d="M599.741 279.542C597.159 282.001 595.045 288.405 593.854 292.708C593.235 294.938 592.862 296.6 592.813 296.867C592.805 296.9 592.797 296.907 592.797 296.907C591.088 301.351 587.617 305.101 582.849 307.08C577.154 309.426 570.94 308.694 566.101 305.637C565.561 305.338 565.028 305.054 564.52 304.787C556.71 300.681 551.935 299.752 549.59 299.585C548.527 299.522 547.97 299.602 547.843 299.633C547.819 299.625 547.811 299.625 547.811 299.625C536.53 299.57 525.835 292.92 521.211 281.937C517.778 273.773 518.422 264.934 522.219 257.653L522.212 257.645C524.222 245.794 520.639 238.112 516.118 233.258C514.044 231.036 511.78 229.397 509.771 228.232C506.503 226.333 503.898 225.663 503.898 225.663C498.622 222.622 494.277 217.91 491.742 211.891C488.238 203.546 488.977 194.502 493.014 187.134C493.014 187.134 493.004 187.118 493.014 187.118C497.494 167.775 483.161 161.219 481.962 160.7C481.906 160.676 481.881 160.676 481.881 160.676C473.762 158.327 466.755 152.488 463.243 144.137C458.308 132.413 461.796 119.263 470.965 111.383C470.965 111.383 470.974 111.375 470.981 111.367C470.997 111.36 471.005 111.336 471.028 111.319C471.037 111.319 471.028 111.305 471.037 111.305C471.561 110.721 474.707 106.877 475.383 97.9579C472.952 89.3367 477.33 80.0872 485.87 76.5488C492.242 73.9171 499.258 75.146 504.271 79.1729C504.271 79.1729 504.279 79.1729 504.297 79.1962C504.454 79.4646 505.836 81.663 508.507 84.058C511.224 86.5002 515.259 89.148 520.695 90.1407C520.695 90.1407 520.695 90.1407 520.703 90.1407C521.067 90.2124 521.434 90.2662 521.799 90.3214C528.21 89.8418 534.543 91.5036 539.828 94.9071C539.835 94.9156 539.835 94.9156 539.835 94.9156C540.908 95.6014 541.941 96.3651 542.918 97.2C545.419 99.3275 547.573 101.913 549.25 104.875C549.814 105.853 550.315 106.867 550.76 107.932C553.914 115.433 553.628 123.502 550.616 130.411C550.616 130.411 550.6 130.45 550.569 130.514C549.95 132.089 543.124 150.385 560.613 159.146L560.628 159.163C568.748 161.503 575.747 167.34 579.259 175.685C582.413 183.178 582.128 191.246 579.109 198.157C579.109 198.157 579.1 198.195 579.069 198.275C578.458 199.922 571.959 218.366 588.158 228.696C588.166 228.704 588.173 228.696 588.183 228.712C597.096 230.65 604.946 236.74 608.728 245.731C613.884 257.984 609.847 271.772 599.741 279.542Z" fill="#8CB369"/>
<path d="M599.741 279.542C597.159 282.001 595.045 288.405 593.854 292.708C593.235 294.938 592.862 296.6 592.813 296.867C592.805 296.9 592.797 296.907 592.797 296.907C591.088 301.35 587.617 305.101 582.849 307.08C577.154 309.426 570.94 308.694 566.101 305.637C565.561 305.337 565.028 305.054 564.52 304.787C575.436 298.663 580.521 288.531 582.603 278.674C585.185 266.447 589.555 255.454 579.386 245.732C569.224 236.009 563.336 222.361 560.595 204.767C557.854 187.182 549.035 172.723 543.704 167.114C538.365 161.503 540.693 142.003 543.704 119.547C545.142 108.8 542.734 100.573 539.834 94.9165C540.907 95.6022 541.94 96.3659 542.917 97.2008C545.418 99.3283 547.572 101.913 549.249 104.875C549.813 105.853 550.314 106.868 550.759 107.932C553.913 115.434 553.627 123.503 550.615 130.412C550.615 130.412 550.599 130.451 550.568 130.515C549.949 132.09 543.123 150.385 560.612 159.147L560.627 159.164C568.747 161.503 575.747 167.341 579.258 175.686C582.412 183.179 582.127 191.247 579.108 198.158C579.108 198.158 579.099 198.196 579.068 198.275C578.457 199.922 571.958 218.367 588.157 228.697C588.165 228.705 588.173 228.697 588.182 228.713C597.095 230.651 604.945 236.74 608.727 245.732C613.884 257.984 609.847 271.772 599.741 279.542Z" fill="#0C2C00"/>
<path d="M608.981 363.827C608.695 363.226 580.16 302.732 549.095 228.892L485.134 76.8517L486.601 76.2453L550.563 228.286C581.612 302.093 610.135 362.556 610.42 363.159L608.981 363.827Z" fill="#0C2C00"/>
<path d="M522.553 90.4979L521.005 90.1397L510.201 136.039L511.749 136.397L522.553 90.4979Z" fill="#0C2C00"/>
<path d="M534.362 92.1265L532.858 91.6187L514.45 145.256L515.954 145.764L534.362 92.1265Z" fill="#0C2C00"/>
<path d="M528.222 175.172L480.261 159.308L479.758 160.801L527.719 176.666L528.222 175.172Z" fill="#0C2C00"/>
<path d="M530.58 181.887L493.947 178.913L493.817 180.484L530.45 183.458L530.58 181.887Z" fill="#0C2C00"/>
<path d="M567.837 162.235L566.38 161.608L543.271 214.414L544.728 215.041L567.837 162.235Z" fill="#0C2C00"/>
<path d="M579.185 217.174L577.891 216.258L556.63 245.795L557.923 246.711L579.185 217.174Z" fill="#0C2C00"/>
<path d="M584.201 225.5L582.965 224.511L559.924 252.833L561.16 253.823L584.201 225.5Z" fill="#0C2C00"/>
<path d="M609.357 246.213L608.114 245.229L574.38 287.133L575.622 288.117L609.357 246.213Z" fill="#0C2C00"/>
<path d="M568.456 271.998L519.01 269.735L518.937 271.31L568.383 273.573L568.456 271.998Z" fill="#0C2C00"/>
<path d="M571.493 280.772L571.431 279.198L521.194 281.138L521.255 282.712L571.493 280.772Z" fill="#0C2C00"/>
<path d="M514.89 232.8L514.858 231.223L550.965 230.539L550.997 232.116L514.89 232.8Z" fill="#0C2C00"/>
<path d="M546.209 218.303L492.943 213.493L492.799 215.062L546.065 219.873L546.209 218.303Z" fill="#0C2C00"/>
<path d="M504.251 119.008L471.241 110.545L470.844 112.071L503.854 120.533L504.251 119.008Z" fill="#0C2C00"/>
<path d="M655.037 305.122C654.304 305.392 646.19 308.514 647.334 316.877C647.334 316.877 647.339 316.884 647.337 316.889C649.236 320.416 649.423 324.78 647.46 328.619C644.785 333.853 638.955 336.461 633.424 335.319C631.851 335.168 629.073 336.299 627.275 337.137C626.34 337.568 625.668 337.922 625.564 337.983C625.551 337.989 625.549 337.991 625.549 337.991C623.55 338.693 621.284 338.612 619.247 337.588C616.819 336.366 615.285 334.083 614.933 331.595C614.059 327.292 612.903 325.237 612.247 324.358C611.963 323.983 611.775 323.82 611.731 323.785C611.724 323.776 611.723 323.776 611.723 323.776C608.507 319.998 607.693 314.525 610.089 309.837C611.87 306.349 615.048 304.027 618.607 303.207L618.61 303.201C623.201 300.473 624.777 297.074 625.126 294.173C625.284 292.847 625.19 291.624 625.008 290.618C624.713 288.984 624.196 287.922 624.196 287.922C623.713 285.292 624.064 282.492 625.376 279.923C627.198 276.36 630.475 274.014 634.13 273.244C634.13 273.244 634.135 273.238 634.136 273.24C641.977 269.188 640.088 262.53 639.92 261.982C639.911 261.954 639.906 261.945 639.906 261.945C638.373 258.566 638.342 254.555 640.164 250.99C642.723 245.982 648.178 243.374 653.481 244.169C653.481 244.169 653.484 244.17 653.489 244.169C653.498 244.173 653.505 244.169 653.521 244.172C653.522 244.173 653.525 244.167 653.529 244.17C653.877 244.176 656.081 244.122 659.297 241.791C661.522 238.509 665.915 237.312 669.56 239.146C672.281 240.512 673.877 243.207 673.952 246.033C673.952 246.033 673.95 246.036 673.948 246.046C673.904 246.176 673.554 247.266 673.507 248.844C673.459 250.451 673.721 252.555 674.942 254.654C674.942 254.654 674.942 254.654 674.944 254.655C675.026 254.795 675.111 254.933 675.2 255.072C677.606 257.476 678.937 260.738 678.923 264.085C678.919 265.528 678.663 266.985 678.142 268.396C677.97 268.863 677.769 269.322 677.536 269.776C675.899 272.979 673.084 275.197 669.875 276.175C669.875 276.175 669.859 276.18 669.828 276.19C669.117 276.434 660.958 279.407 663.004 287.75V287.757C664.538 291.134 664.57 295.144 662.749 298.709C661.113 301.908 658.298 304.128 655.09 305.104C655.09 305.103 655.073 305.112 655.037 305.122Z" fill="#8CB369"/>
<path d="M608.551 363.047L607.105 362.394C607.228 362.127 619.548 335.256 635.669 303.714L668.851 238.788L670.269 239.5L637.085 304.427C620.98 335.939 608.673 362.779 608.551 363.047Z" fill="#0C2C00"/>
<path d="M675.565 255.793L674.836 254.393L656.177 263.952L656.906 265.352L675.565 255.793Z" fill="#0C2C00"/>
<path d="M678.374 260.193L677.788 258.728L654.324 267.961L654.911 269.426L678.374 260.193Z" fill="#0C2C00"/>
<path d="M648.69 281.408L640.309 260.871L638.836 261.463L647.217 281.999L648.69 281.408Z" fill="#0C2C00"/>
<path d="M647.03 283.995L637.532 270.933L636.243 271.855L645.741 284.917L647.03 283.995Z" fill="#0C2C00"/>
<path d="M664.133 291.456L663.667 289.948L639.145 297.403L639.611 298.911L664.133 291.456Z" fill="#0C2C00"/>
<path d="M648.691 311.007L648.552 309.437L632.444 310.835L632.583 312.405L648.691 311.007Z" fill="#0C2C00"/>
<path d="M647.303 315.091L647.256 313.515L631.049 313.985L631.095 315.56L647.303 315.091Z" fill="#0C2C00"/>
<path d="M647.471 329.402L647.42 327.827L623.542 328.59L623.593 330.165L647.471 329.402Z" fill="#0C2C00"/>
<path d="M627.363 322.478L613.946 305.347L612.691 306.314L626.108 323.445L627.363 322.478Z" fill="#0C2C00"/>
<path d="M625.76 325.486L610.687 309.302L609.519 310.372L624.592 326.556L625.76 325.486Z" fill="#0C2C00"/>
<path d="M636.393 304.724L625.804 292.886L624.615 293.931L635.204 305.77L636.393 304.724Z" fill="#0C2C00"/>
<path d="M639.176 299.659L625.528 280.525L624.23 281.435L637.879 300.569L639.176 299.659Z" fill="#0C2C00"/>
<path d="M660.855 257.248L654.256 243.82L652.829 244.51L659.428 257.938L660.855 257.248Z" fill="#0C2C00"/>
<path d="M639.864 361.811H577.034V468.631H639.864V361.811Z" fill="#4BA3BC"/>
<path d="M639.864 361.811H625.268V468.631H639.864V361.811Z" fill="#00748C"/>
<path d="M644.891 103.823C644.823 103.823 644.754 103.817 644.684 103.805C644.036 103.692 643.601 103.08 643.715 102.437C644.429 98.3984 646.811 95.4991 649.825 91.8272C651.841 89.3734 654.124 86.592 656.455 82.834C656.799 82.2792 657.534 82.1048 658.094 82.4472C658.654 82.7887 658.829 83.5166 658.484 84.0732C656.072 87.9625 653.735 90.8085 651.673 93.3201C648.767 96.8571 646.67 99.4135 646.064 102.844C645.962 103.419 645.459 103.823 644.891 103.823Z" fill="#0C2C00"/>
<path d="M662.099 62.419C661.545 62.419 661.049 62.0336 660.934 61.4738C659.318 53.6629 655.794 46.5072 655.758 46.436C655.467 45.8502 655.711 45.1421 656.302 44.8544C656.892 44.5644 657.607 44.8064 657.897 45.3935C658.048 45.6947 661.592 52.8943 663.27 60.9987C663.401 61.6383 662.985 62.2635 662.341 62.3943C662.26 62.4105 662.179 62.419 662.099 62.419Z" fill="#0C2C00"/>
<path d="M609.698 250.314C609.095 250.314 608.578 249.862 608.515 249.253C607.856 242.896 603.025 237.33 594.159 232.711C593.576 232.406 593.352 231.693 593.657 231.114C593.964 230.536 594.684 230.313 595.267 230.617C604.884 235.628 610.141 241.817 610.887 249.011C610.953 249.66 610.478 250.24 609.822 250.308C609.781 250.312 609.74 250.314 609.698 250.314Z" fill="#0C2C00"/>
<path d="M582.984 226.446C582.665 226.446 582.347 226.318 582.111 226.068C577.859 221.53 577.257 214.852 577.027 208.95C576.908 205.872 577.353 202.17 577.904 198.001C577.989 197.353 578.592 196.894 579.241 196.983C579.894 197.067 580.354 197.661 580.267 198.309C579.73 202.369 579.296 205.965 579.408 208.859C579.631 214.589 580.16 220.513 583.857 224.459C584.306 224.939 584.278 225.686 583.796 226.13C583.566 226.341 583.275 226.446 582.984 226.446Z" fill="#0C2C00"/>
<path d="M580.365 187.553C580.345 187.553 580.323 187.553 580.302 187.551C579.643 187.515 579.14 186.958 579.176 186.306C579.341 183.314 579.289 180.732 579.017 178.415C578.011 169.862 569.39 164.498 560.221 159.975C559.632 159.684 559.391 158.974 559.685 158.39C559.979 157.806 560.695 157.567 561.283 157.858C570.584 162.446 580.246 168.444 581.385 178.14C581.673 180.594 581.728 183.307 581.555 186.435C581.521 187.066 580.995 187.553 580.365 187.553Z" fill="#0C2C00"/>
<path d="M550.483 151.24C550.044 151.24 549.622 150.999 549.415 150.583C546.757 145.273 546.598 139.713 546.592 139.479C546.576 138.827 547.096 138.286 547.754 138.27C548.393 138.238 548.958 138.771 548.975 139.424C548.976 139.476 549.135 144.707 551.549 149.533C551.842 150.117 551.601 150.827 551.012 151.117C550.842 151.2 550.661 151.24 550.483 151.24Z" fill="#0C2C00"/>
<path d="M588.749 23.0351C588.593 23.0351 588.435 23.0127 588.279 22.9639C587.44 22.7071 586.971 21.8242 587.23 20.9937C590.516 10.4619 598.145 5.39164 598.469 5.18144C599.202 4.70368 600.187 4.90492 600.669 5.63186C601.15 6.35836 600.949 7.33405 600.217 7.81316C600.136 7.86649 593.199 12.5249 590.265 21.9237C590.054 22.6004 589.427 23.0351 588.749 23.0351Z" fill="white"/>
<path d="M555.56 55.1522C555.421 55.1522 555.279 55.1338 555.137 55.0953C554.291 54.8636 553.795 53.9968 554.028 53.1569C557.653 40.1283 569.579 35.8881 570.086 35.7133C570.912 35.4278 571.82 35.8625 572.108 36.6858C572.395 37.5074 571.959 38.4037 571.13 38.6897C571.023 38.7278 560.262 42.6014 557.091 53.9955C556.899 54.6937 556.258 55.1522 555.56 55.1522Z" fill="white"/>
<path d="M557.26 81.9552C557.023 81.9552 556.782 81.9018 556.554 81.7902C550.183 78.6489 549.515 67.4933 549.49 67.0205C549.442 66.1519 550.115 65.4106 550.991 65.364C551.848 65.3183 552.614 65.9847 552.663 66.8519C552.812 69.5684 554.057 77.0404 557.969 78.9685C558.755 79.3562 559.075 80.3023 558.684 81.0808C558.407 81.6343 557.845 81.9552 557.26 81.9552Z" fill="white"/>
<path d="M480.019 98.9632C479.218 98.9632 478.528 98.3635 478.441 97.555C477.411 87.9944 482.097 83.6201 482.296 83.4391C482.944 82.8515 483.949 82.8972 484.542 83.5372C485.132 84.1772 485.09 85.1673 484.452 85.7562C484.28 85.9166 480.753 89.3631 481.602 97.2202C481.696 98.0856 481.062 98.8619 480.19 98.9542C480.134 98.9605 480.075 98.9632 480.019 98.9632Z" fill="white"/>
<path d="M466.033 132.308C465.354 132.308 464.725 131.873 464.516 131.197C462.486 124.666 469.539 116.509 469.841 116.165C470.415 115.509 471.417 115.439 472.08 116.008C472.744 116.578 472.814 117.573 472.24 118.231C470.511 120.211 466.299 126.235 467.552 130.267C467.811 131.099 467.341 131.982 466.502 132.237C466.348 132.286 466.188 132.308 466.033 132.308Z" fill="white"/>
<path d="M481.628 155.453C481.508 155.453 481.387 155.44 481.267 155.412C471.165 153.092 464.605 141.094 464.33 140.585C463.917 139.817 464.209 138.864 464.983 138.453C465.756 138.042 466.719 138.332 467.133 139.099C467.193 139.212 473.297 150.346 481.984 152.342C482.838 152.538 483.371 153.384 483.174 154.232C483.004 154.961 482.349 155.453 481.628 155.453Z" fill="white"/>
<path d="M493.876 204.976C493.132 204.976 492.47 204.456 492.319 203.706C491.394 199.089 494.703 191.94 495.083 191.142C495.458 190.354 496.403 190.016 497.198 190.387C497.991 190.758 498.332 191.697 497.959 192.484C497.051 194.399 494.825 200.039 495.437 203.092C495.607 203.946 495.049 204.776 494.188 204.945C494.083 204.966 493.978 204.976 493.876 204.976Z" fill="white"/>
<path d="M521.8 274.373C521.765 274.373 521.732 274.373 521.697 274.37C520.821 274.315 520.157 273.566 520.213 272.697C520.822 263.258 526.414 254.58 526.651 254.215C527.127 253.484 528.11 253.276 528.846 253.748C529.583 254.219 529.795 255.194 529.32 255.925C529.266 256.009 523.939 264.295 523.385 272.899C523.332 273.732 522.631 274.373 521.8 274.373Z" fill="white"/>
<path d="M626.535 136.11C626.365 136.11 626.196 136.106 626.025 136.098C625.148 136.058 624.47 135.321 624.51 134.452C624.55 133.581 625.298 132.93 626.17 132.95C634.917 133.332 642.284 119.397 642.359 119.257C642.76 118.483 643.719 118.179 644.498 118.578C645.279 118.976 645.586 119.926 645.183 120.699C644.85 121.338 637.049 136.11 626.535 136.11Z" fill="white"/>
<path d="M613.763 163.507C613.29 163.507 612.823 163.299 612.511 162.9C607.322 156.302 611.45 144.745 611.629 144.255C611.927 143.438 612.835 143.013 613.661 143.309C614.487 143.605 614.915 144.507 614.617 145.326C614.581 145.43 610.909 155.739 615.015 160.963C615.556 161.65 615.432 162.64 614.741 163.175C614.45 163.399 614.105 163.507 613.763 163.507Z" fill="white"/>
<path d="M605.174 203.585C604.986 203.585 604.796 203.551 604.61 203.481C603.79 203.171 603.377 202.262 603.689 201.448C607.844 190.607 617.985 183.678 618.414 183.387C619.137 182.902 620.127 183.084 620.621 183.805C621.114 184.523 620.927 185.503 620.203 185.993C620.106 186.059 610.453 192.673 606.66 202.567C606.417 203.197 605.814 203.585 605.174 203.585Z" fill="white"/>
<path d="M436.475 303.464C431.289 303.464 427.07 298.833 427.07 293.141C427.07 287.449 431.289 282.818 436.475 282.818C441.66 282.818 445.878 287.449 445.878 293.141C445.878 298.833 441.66 303.464 436.475 303.464ZM436.475 284.123C432.009 284.123 428.376 288.168 428.376 293.14C428.376 298.113 432.009 302.159 436.475 302.159C440.94 302.159 444.573 298.113 444.573 293.14C444.573 288.168 440.94 284.123 436.475 284.123Z" fill="#0C2C00"/>
<path d="M512.204 278.576C511.943 286.795 507.425 294.838 502.353 301.431C499.161 302.025 495.734 300.987 492.15 297.919C500.858 296.829 503.901 286.821 497.595 284.426C491.282 282.036 486.497 286.821 486.497 286.821C462.108 291.554 446.571 291.313 436.668 289.073C436.661 289.079 436.654 289.073 436.654 289.073C433.939 288.46 431.654 287.702 429.722 286.853C429.715 286.847 429.715 286.847 429.709 286.847C427.953 285.528 426.693 283.452 427.241 280.162C433.594 260.316 452.649 249.199 471.711 250.785C474.884 229.347 508.236 211.871 526.502 233.316C544.76 254.755 527.291 274.607 512.204 278.576Z" fill="#0C2C00"/>
<path d="M527.056 297.345C523.87 303.377 520.136 312.15 516.089 322.726C509.345 340.353 477.135 377.778 470.392 369.944C463.648 362.11 460.162 330.56 461.689 326.643C463.21 322.726 466.775 316.831 463.974 317.288C455.291 318.698 449.025 315.512 445.35 312.666C445.428 312.692 445.48 312.712 445.493 312.718C444.762 312.19 444.083 311.628 443.463 311.047C442.973 310.584 442.575 310.165 442.281 309.826C442.157 309.689 442.04 309.545 441.916 309.408C441.883 309.369 441.85 309.33 441.825 309.297C441.812 309.291 441.805 309.284 441.799 309.271C441.655 309.095 441.557 308.971 441.524 308.925C441.511 308.906 441.504 308.899 441.504 308.899C434.995 300.602 436.667 289.073 436.667 289.073C446.57 291.312 462.107 291.553 486.497 286.821C486.497 286.821 491.282 282.036 497.594 284.425C503.9 286.821 500.858 296.829 492.15 297.918C495.733 300.987 499.161 302.025 502.353 301.431C492.247 314.585 489.055 316.679 494.734 313.514C505.839 307.169 516.35 298.252 527.056 297.345Z" fill="#FFEE9F"/>
<path d="M563.718 465.268C541.561 449.203 514.678 450.913 497.941 454.001C496.132 477.053 493.338 502.936 489.107 523.539C489.14 522.788 489.179 522.364 489.179 522.364C489.179 522.364 454.24 532.685 436.765 530.302C430.707 529.473 403.373 527.886 369.845 526.189C364.048 485.506 366.222 418.566 367.958 383.471C374.754 382.308 383.841 374.566 398.653 354.813C431.849 310.544 443.802 312.203 445.336 312.66C445.342 312.666 445.342 312.666 445.349 312.666C449.024 315.512 455.291 318.698 463.974 317.288C466.775 316.831 463.21 322.726 461.689 326.643C460.161 330.56 463.647 362.111 470.391 369.945C477.135 377.778 509.345 340.352 516.088 322.727C520.136 312.151 523.87 303.378 527.055 297.345C537.788 296.431 548.722 303.567 560.643 329.399C573.981 358.292 569.893 417.79 563.718 465.268Z" fill="#0C2C00"/>
<path d="M369.843 526.19C358.21 525.603 345.832 525.009 333.338 524.428C314.478 523.547 295.35 522.698 278.142 521.98C244.856 520.596 218.729 519.702 215.472 519.982C214.865 520.035 214.062 520.125 213.083 520.263C196.6 513.369 190.065 499.125 215.472 466.778C220.826 459.962 226.59 454.191 232.628 449.341C200.869 440.273 174.579 422.849 158.677 410.407C171.649 367.706 192.062 311.283 215.472 297.639C237.015 284.321 259.361 290.4 279.441 303.325C303.243 318.64 323.866 343.571 336.204 357.216C338.907 360.205 341.211 362.653 343.065 364.338C353.295 373.634 358.348 385.111 367.957 383.471C366.22 418.568 364.046 485.507 369.843 526.19Z" fill="#4BA3BC"/>
<path d="M232.629 449.34C226.59 454.19 220.826 459.961 215.473 466.777C190.065 499.124 196.6 513.368 213.084 520.262C199.14 522.188 149.996 531.992 137.09 533.475C123.276 535.068 86.5753 550.951 85.7851 516.802C84.9886 482.66 140.576 475.512 140.576 475.512C140.576 475.512 139.78 473.129 144.545 459.629C146.275 454.72 151.262 434.802 158.678 410.406C174.581 422.848 200.87 440.272 232.629 449.34Z" fill="#0C2C00"/>
<path d="M333.338 524.428C314.478 523.547 295.35 522.699 278.142 521.98C280.172 505.196 281.595 480.004 280.792 466.791C279.572 446.573 232.628 449.341 242.668 442.232C252.702 435.129 255.581 392.024 242.472 377.551C229.357 363.071 223.266 339.146 232.268 330.581C241.264 322.009 266.509 335.059 274.316 325.985C279.297 320.188 279.754 309.958 279.44 303.326C303.242 318.641 323.865 343.572 336.203 357.216C336.445 411.269 334.748 478.705 333.338 524.428Z" fill="#00748C"/>
<path d="M563.718 465.268C558.861 502.609 552.705 532.522 552.705 534.271C552.705 538.241 511.029 555.26 499.115 550.494C488.814 546.381 488.899 528.37 489.107 523.552C489.114 523.552 489.114 523.546 489.107 523.539C493.338 502.936 496.132 477.053 497.941 454.001C514.678 450.913 541.561 449.203 563.718 465.268Z" fill="#FFEE9F"/>
<path d="M232.63 449.993C232.439 449.993 232.249 449.909 232.12 449.75C231.895 449.468 231.94 449.057 232.22 448.832C260.892 425.784 295.837 423.525 320.103 425.69C346.361 428.032 366.126 435.92 366.322 435.999C366.657 436.134 366.818 436.514 366.683 436.848C366.549 437.182 366.169 437.343 365.834 437.21C365.638 437.131 346.023 429.307 319.95 426.988C295.934 424.848 261.361 427.084 233.039 449.85C232.918 449.946 232.774 449.993 232.63 449.993Z" fill="white"/>
<path d="M497.941 454.654C497.924 454.654 497.906 454.653 497.889 454.652C497.53 454.623 497.261 454.309 497.29 453.949C499.753 422.714 500.427 396.349 500.435 396.087C500.444 395.726 500.751 395.441 501.103 395.45C501.464 395.459 501.748 395.759 501.74 396.119C501.733 396.382 501.058 422.78 498.592 454.052C498.564 454.395 498.278 454.654 497.941 454.654Z" fill="white"/>
<path d="M399.453 361.672C399.453 361.672 410.33 369.253 414.9 376.881C419.47 384.509 413.895 355.106 413.895 355.106C413.895 355.106 436.277 372.214 439.297 381.103C442.318 389.992 445.883 372.475 451.608 381.103C457.333 389.731 459.291 400.326 455.374 406.453C451.457 412.58 428.66 425.636 410.356 424.331C392.052 423.025 385.315 422.324 382.807 417.779C380.3 413.233 380.785 412.834 379.647 409.623C378.51 406.412 388.888 376.881 388.888 376.881C388.888 376.881 390.899 375.254 391.641 376.881" fill="#FFEE9F"/>
<path d="M313.561 420.863V549.781L286.723 509.494V383.799C286.723 391.856 313.561 420.863 313.561 420.863Z" fill="#8CB369"/>
<path d="M450.134 383.799V420.863H313.561C313.561 420.863 286.723 391.857 286.723 383.799H450.134Z" fill="#0C2C00"/>
<path d="M490.679 493.436V549.781H313.561V420.863L331.143 485.322L450.134 491.373L490.679 493.436Z" fill="#0C2C00"/>
<path d="M521.297 494.991L490.679 493.436L325.903 494.991L313.561 420.863H490.679L521.297 494.991Z" fill="#8CB369"/>
<path d="M286.723 383.799V439.394H248.957L286.723 383.799Z" fill="#0C2C00"/>
<path d="M490.679 420.863H450.134V383.799L490.679 420.863Z" fill="#0C2C00"/>
<path d="M289.995 260.903C315.331 277.501 332.951 295.13 345.113 312.37C384.089 367.67 366.774 418.953 366.774 418.953C366.774 418.953 296.691 397.377 285.469 324.902C282.668 306.869 283.515 285.69 289.995 260.903Z" fill="#8CB369"/>
<path d="M345.113 312.37C384.089 367.67 366.774 418.953 366.774 418.953C366.774 418.953 296.691 397.377 285.469 324.902C330.182 350.253 309.246 316.802 316.642 313.121C324.342 309.288 329.078 306.14 345.113 312.37Z" fill="#0C2C00"/>
<path d="M367.379 418.471L366.166 419.426C366.107 419.351 360.179 411.79 351.748 399.534C331.14 369.585 295.616 311.764 289.229 261.001L290.76 260.809C297.107 311.247 332.491 368.827 353.019 398.661C361.422 410.871 367.321 418.396 367.379 418.471Z" fill="#0C2C00"/>
<path d="M360.187 338.063L339.774 379.202L338.391 378.516L358.801 337.377L360.187 338.063Z" fill="#0C2C00"/>
<path d="M354.921 327.254L336.157 373.264L334.726 372.681L353.494 326.672L354.921 327.254Z" fill="#0C2C00"/>
<path d="M287.158 331.56L286.479 332.946L321.559 350.121L322.238 348.734L287.158 331.56Z" fill="#0C2C00"/>
<path d="M311.182 326.212L309.777 326.851L310.48 326.532L309.779 326.856C309.012 325.376 295.953 318.234 283.771 312.185L284.459 310.8C288.71 312.914 309.988 323.584 311.182 326.212Z" fill="#0C2C00"/>
<path d="M319.168 283.499L302.773 309.641L304.081 310.461L320.475 284.319L319.168 283.499Z" fill="#0C2C00"/>
<path d="M314.832 384.212L314.462 385.711L348.273 394.066L348.643 392.568L314.832 384.212Z" fill="#0C2C00"/>
<path d="M346.876 314.162L328.668 360.578L327.232 360.013L345.44 313.598L346.876 314.162Z" fill="#0C2C00"/>
<path d="M303.041 337.285C361.273 366.843 370.218 418.34 370.218 418.34C370.218 418.34 330.531 426.343 292.283 406.201C266.832 392.793 242.016 366.938 229.942 317.988C260.34 320.492 284.257 327.745 303.041 337.285Z" fill="#8CB369"/>
<path d="M303.041 337.285C361.273 366.843 370.218 418.34 370.218 418.34C370.218 418.34 330.531 426.343 292.283 406.201C307.508 408.367 308.844 396.625 315.866 392.777C324.92 387.816 298.943 379.383 303.041 337.285Z" fill="#0C2C00"/>
<path d="M370.522 417.633L369.913 419.052C369.824 419.015 361.171 415.272 348.152 408.649C316.344 392.468 258.611 359.235 229.317 318.441L230.571 317.54C259.674 358.068 317.171 391.156 348.852 407.273C361.824 413.87 370.437 417.599 370.522 417.633Z" fill="#0C2C00"/>
<path d="M328.319 396.706L326.778 396.762L325.112 351.716L326.654 351.658L328.319 396.706Z" fill="#0C2C00"/>
<path d="M317.02 344.789L315.487 344.96L320.891 393.432L322.425 393.261L317.02 344.789Z" fill="#0C2C00"/>
<path d="M298.911 378.606L260.606 380.228L260.671 381.771L298.976 380.149L298.911 378.606Z" fill="#0C2C00"/>
<path d="M278.826 364.386L277.896 365.618L278.361 365.003L277.899 365.62C276.533 364.706 261.93 364.662 248.601 365.153L248.545 363.61C255.09 363.37 276.617 362.717 278.826 364.386Z" fill="#0C2C00"/>
<path d="M267.225 323.897L265.686 323.799L263.772 354.028L265.311 354.125L267.225 323.897Z" fill="#0C2C00"/>
<path d="M342.196 404.064L309.115 412.693L309.504 414.188L342.585 405.558L342.196 404.064Z" fill="#0C2C00"/>
<path d="M310.015 385.842L308.485 386.035L302.442 337.468L303.973 337.276L310.015 385.842Z" fill="#0C2C00"/>
<path d="M370.834 419.159C370.834 419.159 291.699 394.8 315.247 304.736C392.412 355.27 370.834 419.159 370.834 419.159Z" fill="#8CB369"/>
<path d="M371.441 418.683L370.228 419.636C370.185 419.583 365.89 414.104 359.78 405.223C344.85 383.525 319.112 341.626 314.482 304.833L316.013 304.64C320.603 341.109 346.201 382.765 361.052 404.35C367.132 413.186 371.398 418.63 371.441 418.683Z" fill="#0C2C00"/>
<path d="M364.887 360.02L350.107 389.804L351.49 390.49L366.269 360.706L364.887 360.02Z" fill="#0C2C00"/>
<path d="M361.019 352.291L347.432 385.6L348.86 386.183L362.448 352.874L361.019 352.291Z" fill="#0C2C00"/>
<path d="M313.303 355.694L312.623 357.08L338.013 369.535L338.693 368.149L313.303 355.694Z" fill="#0C2C00"/>
<path d="M330.782 351.932L329.375 352.569L329.385 352.59C328.69 351.474 319.313 346.356 310.647 342.052L311.334 340.671C316.898 343.433 329.932 350.062 330.782 351.932Z" fill="#0C2C00"/>
<path d="M337.492 321.791L325.622 340.717L324.313 339.899L336.182 320.971L337.492 321.791Z" fill="#0C2C00"/>
<path d="M357.757 399.846L357.388 401.347L332.907 395.295L333.278 393.797L357.757 399.846Z" fill="#0C2C00"/>
<path d="M356.628 343.37L343.445 376.974L342.009 376.413L355.191 342.806L356.628 343.37Z" fill="#0C2C00"/>
<path d="M253.92 326.999C253.914 327.069 253.901 327.14 253.885 327.207C253.685 328.036 252.852 328.547 252.023 328.346C249.053 327.634 246.205 326.969 243.995 326.655C243.15 326.534 242.556 325.768 242.682 324.91C242.802 324.065 243.583 323.477 244.426 323.598C246.772 323.929 249.701 324.613 252.745 325.346C253.505 325.529 253.997 326.245 253.92 326.999Z" fill="white"/>
<path d="M248.402 351.51C248.355 351.981 248.094 352.423 247.656 352.685C246.925 353.119 245.976 352.879 245.541 352.146C242.85 347.624 240.615 343.291 238.898 339.268C237.852 336.822 237.099 334.795 236.593 333.079C236.35 332.262 236.818 331.402 237.639 331.161C238.456 330.921 239.314 331.39 239.554 332.209C240.025 333.808 240.739 335.721 241.736 338.055C243.401 341.951 245.574 346.161 248.193 350.567C248.369 350.862 248.435 351.193 248.402 351.51Z" fill="white"/>
<path d="M263.633 372.546C263.603 372.843 263.488 373.133 263.281 373.38C262.736 374.033 261.762 374.121 261.108 373.573C259.833 372.507 255.921 367.723 251.822 361.857C251.334 361.157 251.505 360.194 252.205 359.707C252.902 359.219 253.865 359.39 254.354 360.088C258.912 366.616 262.402 370.628 263.088 371.206C263.495 371.547 263.683 372.054 263.633 372.546Z" fill="white"/>
<path d="M291.916 305.259C291.839 306.015 291.213 306.616 290.433 306.644C289.581 306.674 288.866 306.007 288.836 305.155C288.767 303.176 288.719 301.214 288.693 299.327C288.684 298.474 289.364 297.773 290.215 297.763C291.068 297.75 291.769 298.434 291.78 299.285C291.806 301.151 291.854 303.088 291.922 305.047C291.925 305.12 291.923 305.19 291.916 305.259Z" fill="white"/>
<path d="M316.924 335.255C316.851 335.983 316.263 336.578 315.506 336.637C314.658 336.704 313.916 336.066 313.85 335.214C313.686 333.086 313.571 330.941 313.509 328.832C313.495 327.979 314.155 327.27 315.007 327.243C315.86 327.217 316.57 327.89 316.595 328.741C316.656 330.8 316.768 332.899 316.927 334.98C316.934 335.072 316.934 335.165 316.924 335.255Z" fill="white"/>
<path d="M319.692 353.78C319.628 354.422 319.16 354.98 318.496 355.129C317.662 355.316 316.838 354.793 316.651 353.961C316.479 353.198 316.313 352.423 316.152 351.64C315.984 350.804 316.521 349.989 317.357 349.819C318.193 349.648 319.007 350.189 319.178 351.024C319.333 351.788 319.496 352.541 319.664 353.285C319.7 353.451 319.709 353.617 319.692 353.78Z" fill="white"/>
<path d="M330.951 384.254C330.902 384.742 330.62 385.198 330.159 385.453C329.409 385.863 328.473 385.592 328.062 384.844C327.722 384.225 327.355 383.543 326.969 382.797C326.578 382.04 326.875 381.11 327.632 380.719C328.391 380.327 329.321 380.625 329.712 381.382C330.086 382.102 330.438 382.76 330.766 383.357C330.925 383.642 330.982 383.956 330.951 384.254Z" fill="white"/>
<path d="M333.397 388.39C333.35 388.85 333.095 389.285 332.671 389.549C331.947 389.996 330.994 389.772 330.548 389.045L330.427 388.857C330.064 388.283 329.215 386.943 328.063 384.846C327.652 384.1 327.924 383.159 328.67 382.747C329.418 382.336 330.357 382.61 330.767 383.357C331.874 385.37 332.69 386.657 333.037 387.206L333.174 387.423C333.359 387.724 333.429 388.063 333.397 388.39Z" fill="white"/>
<path d="M242.51 350.66C242.469 351.063 242.217 351.433 241.818 351.605C241.231 351.86 240.549 351.59 240.296 351.003C235.023 338.793 232.297 330.658 232.267 330.578C232.067 329.97 232.395 329.315 233 329.112C233.607 328.91 234.263 329.239 234.467 329.845C234.491 329.925 237.19 337.976 242.422 350.084C242.503 350.272 242.53 350.47 242.51 350.66Z" fill="#0C2C00"/>
<path d="M261.343 381.481C261.315 381.764 261.182 382.038 260.95 382.239C260.468 382.657 259.736 382.607 259.317 382.122C256.471 378.842 253.794 375.348 251.358 371.743C250.999 371.212 251.14 370.493 251.67 370.136C252.198 369.777 252.919 369.915 253.277 370.447C255.661 373.975 258.282 377.394 261.067 380.605C261.284 380.856 261.375 381.176 261.343 381.481Z" fill="#0C2C00"/>
<path d="M274.641 394.373C274.619 394.591 274.535 394.804 274.387 394.986C273.984 395.483 273.255 395.558 272.759 395.155C269.749 392.708 266.831 390.055 264.083 387.273C263.633 386.819 263.639 386.087 264.094 385.637C264.549 385.187 265.283 385.192 265.732 385.647C268.421 388.37 271.276 390.964 274.22 393.358C274.534 393.612 274.679 393.998 274.641 394.373Z" fill="#0C2C00"/>
<path d="M293.434 406.318C293.423 406.426 293.396 406.534 293.351 406.641C293.109 407.233 292.431 407.512 291.841 407.27C291.666 407.198 287.488 405.457 281.317 401.418C280.783 401.067 280.633 400.349 280.981 399.816C281.333 399.28 282.049 399.131 282.585 399.48C288.556 403.389 292.683 405.113 292.724 405.128C293.208 405.33 293.485 405.82 293.434 406.318Z" fill="#0C2C00"/>
<path d="M313.578 350.45C313.527 350.956 313.145 351.384 312.62 351.474C311.99 351.58 311.391 351.155 311.285 350.525C310.25 344.406 309.763 338.006 309.833 331.5C309.847 330.863 310.364 330.347 311.004 330.355C311.644 330.363 312.156 330.887 312.15 331.527C312.078 337.895 312.557 344.158 313.569 350.139C313.585 350.245 313.589 350.348 313.578 350.45Z" fill="#0C2C00"/>
<path d="M326.49 384.327C326.456 384.666 326.273 384.988 325.963 385.185C325.424 385.53 324.708 385.374 324.363 384.834C320.681 379.086 317.646 372.841 315.338 366.276C315.125 365.671 315.441 365.01 316.044 364.799C316.65 364.588 317.311 364.903 317.521 365.507C319.772 371.905 322.728 377.987 326.312 383.585C326.458 383.816 326.515 384.076 326.49 384.327Z" fill="#0C2C00"/>
<path d="M342.739 402.632C342.72 402.824 342.652 403.014 342.532 403.182C342.164 403.704 341.441 403.828 340.919 403.458C340.715 403.314 335.875 399.846 330.008 392.64C329.604 392.144 329.675 391.415 330.173 391.011C330.669 390.606 331.397 390.682 331.801 391.177C337.473 398.142 342.211 401.534 342.258 401.568C342.612 401.818 342.78 402.231 342.739 402.632Z" fill="#0C2C00"/>
<path d="M537.05 384.614C537.07 384.462 537.134 384.316 537.245 384.194C540.568 380.465 542.345 377.915 542.363 377.89C542.612 377.531 543.106 377.441 543.465 377.69C543.825 377.939 543.914 378.434 543.665 378.793C543.591 378.899 541.822 381.438 538.427 385.247C538.136 385.575 537.635 385.602 537.309 385.311C537.104 385.13 537.016 384.866 537.05 384.614Z" fill="#FFEE9F"/>
<path d="M530.089 369.517C536.493 370.291 543.35 371.756 550.681 374.047C510.878 428.992 465.674 422.235 452.622 418.822C450.226 418.199 448.916 417.685 448.916 417.685C448.916 417.685 461.355 383.151 496.591 372.158L496.595 372.16C506.052 369.208 517.15 367.954 530.089 369.517Z" fill="#8CB369"/>
<path d="M452.622 418.822C450.226 418.199 448.916 417.685 448.916 417.685C448.916 417.685 461.355 383.15 496.591 372.158L496.595 372.159C496.595 372.159 479.372 405.756 472.333 411.794C468.121 415.407 459.152 417.625 452.622 418.822Z" fill="#0C2C00"/>
<path d="M448.522 417.633C448.551 417.419 448.553 417.401 452.138 414.995C454.171 413.631 457.468 411.465 461.631 408.88C481.088 396.801 518.525 376.165 550.65 373.651L550.711 374.442C518.755 376.941 481.445 397.513 462.048 409.553C453.993 414.552 449.192 417.974 449.146 418.007L448.917 417.686L448.522 417.633Z" fill="#0C2C00"/>
<path d="M500.056 415.873L500.441 415.182L475.148 401.118L474.764 401.809L500.056 415.873Z" fill="#0C2C00"/>
<path d="M507.005 412.871L507.339 412.152L478.941 398.956L478.607 399.675L507.005 412.871Z" fill="#0C2C00"/>
<path d="M494.387 391.692L506.239 370.12L505.543 369.738L493.691 391.31L494.387 391.692Z" fill="#0C2C00"/>
<path d="M508.614 384.624C509.578 384.24 514.512 376.108 518.664 368.652L519.358 369.037C517.904 371.646 510.57 384.7 508.907 385.361L508.614 384.624Z" fill="#0C2C00"/>
<path d="M535.075 392.455L535.527 391.805L519.557 380.707L519.105 381.357L535.075 392.455Z" fill="#0C2C00"/>
<path d="M465.965 407.029L472.231 385.994L471.473 385.768L465.207 406.803L465.965 407.029Z" fill="#0C2C00"/>
<path d="M515.509 408.22L515.833 407.498L487.166 394.638L486.842 395.36L515.509 408.22Z" fill="#0C2C00"/>
<path d="M472.009 379.693C475.477 378.294 479.451 377.183 484.009 376.46C477.451 415.435 448.666 417.958 448.666 417.958C448.666 417.958 445.497 390.392 472.009 379.693Z" fill="#8CB369"/>
<path d="M448.317 417.77C448.331 417.744 449.742 415.115 452.178 411.187C458.128 401.591 470.15 384.274 483.806 376.119L484.212 376.8C470.701 384.867 458.764 402.07 452.851 411.605C450.43 415.511 449.029 418.119 449.016 418.144L448.317 417.77Z" fill="#0C2C00"/>
<path d="M456.567 405.497L470.798 406.173L470.836 405.382L456.604 404.706L456.567 405.497Z" fill="#0C2C00"/>
<path d="M457.823 403.714L473.233 403.317L473.213 402.526L457.803 402.923L457.823 403.714Z" fill="#0C2C00"/>
<path d="M462.407 396.527L463.199 396.561L463.725 384.456L462.933 384.421L462.407 396.527Z" fill="#0C2C00"/>
<path d="M468.507 381.071L469.298 381.108C469.171 383.775 468.808 390.048 468.208 390.718L467.618 390.188L467.606 390.205C467.921 389.705 468.311 385.168 468.507 381.071Z" fill="#0C2C00"/>
<path d="M481.154 388.167L481.269 387.382L471.798 385.995L471.683 386.78L481.154 388.167Z" fill="#0C2C00"/>
<path d="M453.281 409.637L454.062 409.501L452.21 398.855L451.428 398.991L453.281 409.637Z" fill="#0C2C00"/>
<path d="M460.535 400.015L475.99 399.409L475.959 398.618L460.504 399.224L460.535 400.015Z" fill="#0C2C00"/>
<path d="M491.042 414.539C491.083 414.235 491.297 413.97 491.611 413.88C493.593 413.317 495.593 412.665 497.555 411.944C497.966 411.793 498.42 412.003 498.573 412.414C498.724 412.824 498.513 413.279 498.102 413.431C496.103 414.167 494.065 414.831 492.043 415.405C491.622 415.525 491.184 415.28 491.066 414.859C491.035 414.751 491.027 414.642 491.042 414.539Z" fill="white"/>
<path d="M502.244 410.471C502.279 410.207 502.447 409.967 502.708 409.85C504.813 408.916 506.927 407.876 508.989 406.761C509.374 406.553 509.855 406.696 510.063 407.081C510.271 407.465 510.128 407.947 509.744 408.155C507.643 409.29 505.493 410.348 503.351 411.299C502.952 411.477 502.483 411.297 502.306 410.897C502.244 410.758 502.225 410.611 502.244 410.471Z" fill="white"/>
<path d="M512.73 404.972C512.761 404.743 512.891 404.528 513.104 404.399C519.779 400.345 526.141 395.386 532.017 389.655C532.33 389.349 532.833 389.355 533.138 389.668C533.443 389.983 533.437 390.484 533.124 390.79C527.162 396.604 520.704 401.638 513.928 405.754C513.553 405.981 513.066 405.862 512.838 405.488C512.741 405.327 512.708 405.145 512.73 404.972Z" fill="white"/>
<path d="M462.924 410.262C462.948 410.075 463.041 409.895 463.196 409.763C465.617 407.708 468.328 404.592 471.256 400.502C471.511 400.145 472.006 400.063 472.362 400.318C472.718 400.573 472.8 401.067 472.545 401.424C469.54 405.62 466.74 408.832 464.22 410.969C463.887 411.253 463.387 411.213 463.104 410.878C462.954 410.702 462.895 410.477 462.924 410.262Z" fill="white"/>
<path d="M472.615 397.139C472.627 397.044 472.658 396.951 472.706 396.863C474.333 393.883 475.979 390.578 477.597 387.038C477.78 386.64 478.25 386.465 478.648 386.647C479.046 386.829 479.222 387.299 479.039 387.698C477.404 391.27 475.742 394.609 474.098 397.623C473.888 398.007 473.406 398.148 473.021 397.939C472.726 397.776 472.573 397.452 472.615 397.139Z" fill="white"/>
<path d="M478.955 384.071C478.964 384 478.985 383.929 479.015 383.86C479.99 381.617 480.559 380.178 480.564 380.164C480.725 379.756 481.186 379.557 481.591 379.717C481.998 379.878 482.201 380.339 482.038 380.746C482.033 380.76 481.454 382.222 480.468 384.492C480.294 384.893 479.827 385.076 479.425 384.902C479.094 384.759 478.909 384.414 478.955 384.071Z" fill="white"/>
<path d="M493.396 372.955C493.42 372.78 493.521 372.616 493.685 372.52C495.698 371.342 498.459 370.424 501.891 369.791C502.213 369.732 502.524 369.945 502.583 370.267C502.644 370.59 502.429 370.9 502.106 370.96C498.81 371.568 496.178 372.438 494.285 373.547C494.003 373.712 493.638 373.617 493.472 373.333C493.402 373.214 493.379 373.082 493.396 372.955Z" fill="#0C2C00"/>
<path d="M507.917 369.486C507.954 369.214 508.176 368.994 508.461 368.972C513.191 368.613 518.784 368.599 525.083 368.932C525.411 368.949 525.662 369.228 525.644 369.557C525.622 369.881 525.348 370.136 525.019 370.119C518.772 369.79 513.231 369.803 508.551 370.159C508.225 370.183 507.938 369.938 507.913 369.611C507.91 369.567 507.912 369.527 507.917 369.486Z" fill="#0C2C00"/>
<path d="M531.822 369.968C531.863 369.653 532.145 369.425 532.462 369.455C539.744 370.091 545.127 370.913 545.18 370.92C545.5 370.97 545.721 371.266 545.678 371.587C545.678 371.587 545.677 371.594 545.677 371.598C545.628 371.922 545.324 372.144 545 372.095C544.946 372.088 539.6 371.271 532.359 370.638C532.032 370.61 531.79 370.322 531.819 369.995C531.82 369.985 531.821 369.976 531.822 369.968Z" fill="#0C2C00"/>
<path d="M453.495 394.571C453.505 394.492 453.531 394.415 453.575 394.343C454.609 392.624 455.832 390.971 457.213 389.431C457.432 389.187 457.808 389.168 458.053 389.386C458.295 389.606 458.318 389.981 458.098 390.226C456.768 391.71 455.589 393.3 454.593 394.955C454.425 395.236 454.059 395.327 453.778 395.158C453.569 395.032 453.464 394.798 453.495 394.571Z" fill="#0C2C00"/>
<path d="M462.888 384.551C462.909 384.396 462.991 384.249 463.13 384.148C471.288 378.258 479.868 376.549 480.229 376.479C480.552 376.417 480.863 376.628 480.925 376.95C480.987 377.271 480.776 377.584 480.456 377.646C480.369 377.663 471.762 379.381 463.825 385.112C463.559 385.305 463.188 385.245 462.995 384.979C462.903 384.85 462.869 384.698 462.888 384.551Z" fill="#0C2C00"/>
<path d="M460.727 554.724C463.009 557.515 473.279 552.89 483.666 544.395C494.052 535.899 500.621 526.75 498.338 523.96C496.056 521.169 485.786 525.794 475.4 534.289C465.013 542.785 458.444 551.934 460.727 554.724Z" fill="#FFEE9F"/>
<path d="M551.555 576.386C555.279 574.98 554.055 562.606 548.821 548.749C543.588 534.892 536.327 524.799 532.604 526.205C528.881 527.611 530.105 539.984 535.338 553.841C540.571 567.698 547.832 577.792 551.555 576.386Z" fill="#FFEE9F"/>
<path d="M557.962 559.598C560.344 558.698 559.561 550.784 556.213 541.921C552.866 533.057 548.222 526.601 545.841 527.5C543.459 528.4 544.242 536.314 547.59 545.177C550.937 554.041 555.581 560.497 557.962 559.598Z" fill="#FFEE9F"/>
<path d="M487.005 582.257C491.595 584.001 500.577 571.565 507.067 554.481C513.557 537.397 515.097 522.134 510.507 520.39C505.917 518.647 496.935 531.083 490.445 548.167C483.955 565.251 482.415 580.514 487.005 582.257Z" fill="#FFEE9F"/>
<path d="M534.072 548.952C529.183 531.342 521.385 518.13 516.654 519.445C511.923 520.757 512.051 536.098 516.938 553.707C521.825 571.317 529.624 584.527 534.355 583.213C539.087 581.901 538.96 566.561 534.072 548.952Z" fill="#FFEE9F"/>
<path d="M448.064 396.326C451.621 395.742 452.745 384.535 450.572 371.293C448.4 358.051 443.754 347.79 440.196 348.374C436.639 348.958 435.516 360.165 437.688 373.407C439.861 386.648 444.506 396.91 448.064 396.326Z" fill="#FFEE9F"/>
<path d="M424.118 407.099C427.976 406.339 428.81 394.084 425.981 379.727C423.152 365.369 417.732 354.347 413.874 355.107C410.017 355.867 409.183 368.122 412.012 382.479C414.84 396.836 420.261 407.859 424.118 407.099Z" fill="#FFEE9F"/>
<path d="M396.948 409.598C400.505 409.783 403.948 399.2 404.638 385.96C405.327 372.719 403.002 361.836 399.445 361.65C395.887 361.465 392.444 372.048 391.755 385.289C391.065 398.529 393.39 409.413 396.948 409.598Z" fill="#FFEE9F"/>
<path d="M378.525 406.398C380.99 407.035 384.911 400.117 387.285 390.944C389.658 381.772 389.584 373.82 387.12 373.182C384.656 372.545 380.734 379.463 378.361 388.635C375.987 397.808 376.061 405.76 378.525 406.398Z" fill="#FFEE9F"/>
<path d="M490.366 295.077C490.096 295.077 489.843 294.907 489.749 294.638C488.832 291.987 488.936 289.917 490.061 288.489C491.849 286.217 495.497 286.539 495.652 286.555C496.01 286.589 496.273 286.907 496.239 287.266C496.205 287.624 495.885 287.883 495.528 287.854C495.497 287.851 492.427 287.588 491.084 289.3C490.255 290.357 490.22 292.01 490.983 294.211C491.101 294.551 490.92 294.924 490.58 295.042C490.509 295.065 490.437 295.077 490.366 295.077Z" fill="#0C2C00"/>
<path d="M442.429 305.975C440.899 305.975 438.65 305.173 438.019 304.465C437.63 304.03 437.601 303.487 437.945 303.079C438.287 302.351 438.146 296.274 437.793 290.847C437.769 290.487 438.042 290.176 438.402 290.153C438.763 290.137 439.072 290.403 439.096 290.762C439.431 295.917 439.685 302.169 439.076 303.684C439.696 304.218 442.308 304.9 442.853 304.629C443.153 304.43 443.554 304.512 443.754 304.813C443.954 305.113 443.868 305.521 443.568 305.721C443.302 305.899 442.899 305.975 442.429 305.975Z" fill="#0C2C00"/>
<path d="M486.476 542.69C486.276 542.69 486.079 542.599 485.951 542.425C485.737 542.136 485.797 541.727 486.086 541.513C497.952 532.708 497.298 523.331 497.29 523.238C497.26 522.879 497.525 522.563 497.883 522.531C498.242 522.503 498.558 522.763 498.59 523.122C498.628 523.533 499.356 533.291 486.864 542.561C486.747 542.647 486.611 542.69 486.476 542.69Z" fill="#0C2C00"/>
<path d="M535.331 554.536C535.034 554.536 534.765 554.332 534.696 554.03C534.194 551.849 529.791 532.676 529.788 530.66C529.785 529.057 525.807 521.474 521.177 520.604C519.429 520.276 518.537 521.804 517.551 523.835C516.949 525.075 516.466 526.022 515.549 526.035C514.767 526.02 514.146 525.293 513.334 523.443C512.617 521.81 511.715 520.874 510.65 520.665C508.571 520.251 506.172 522.565 505.269 523.436L505.034 523.66C504.77 523.905 504.358 523.89 504.112 523.627C503.866 523.363 503.881 522.949 504.145 522.703L504.363 522.495C505.4 521.496 508.156 518.837 510.904 519.383C512.412 519.682 513.631 520.871 514.53 522.919C515.097 524.212 515.433 524.591 515.563 524.698C515.783 524.489 516.136 523.761 516.377 523.264C517.244 521.48 518.555 518.783 521.419 519.322C526.732 520.319 531.09 528.325 531.094 530.658C531.097 532.072 534.01 545.234 535.969 553.736C536.05 554.088 535.83 554.438 535.479 554.519C535.429 554.53 535.38 554.536 535.331 554.536Z" fill="#0C2C00"/>
<path d="M544.454 539.601C544.26 539.601 544.068 539.515 543.94 539.35C542.866 537.977 541.354 534.29 539.892 530.724C538.865 528.221 537.896 525.857 537.258 524.755C537.134 524.542 536.999 524.501 536.872 524.49C535.532 524.38 532.362 527.341 530.536 529.489C530.303 529.763 529.891 529.797 529.616 529.563C529.342 529.33 529.308 528.918 529.542 528.643C530.348 527.693 534.498 522.968 536.989 523.19C537.59 523.244 538.074 523.559 538.388 524.101C539.07 525.28 540.056 527.684 541.1 530.229C542.462 533.551 544.006 537.315 544.969 538.547C545.191 538.831 545.14 539.241 544.856 539.463C544.737 539.556 544.595 539.601 544.454 539.601Z" fill="#0C2C00"/>
<path d="M558.567 550.434C558.249 550.434 557.971 550.202 557.922 549.879C555.382 532.938 544.259 526.827 544.147 526.767C543.829 526.598 543.709 526.203 543.877 525.885C544.046 525.566 544.44 525.444 544.759 525.614C545.24 525.869 556.57 532.06 559.213 549.685C559.266 550.041 559.021 550.374 558.664 550.428C558.632 550.432 558.599 550.434 558.567 550.434Z" fill="#0C2C00"/>
<path d="M452.262 305.292C445.572 305.292 440.13 299.84 440.13 293.14C440.13 286.44 445.572 280.989 452.262 280.989C458.952 280.989 464.395 286.44 464.395 293.14C464.395 299.84 458.953 305.292 452.262 305.292ZM452.262 282.295C446.292 282.295 441.435 287.16 441.435 293.14C441.435 299.121 446.292 303.986 452.262 303.986C458.232 303.986 463.089 299.121 463.089 293.14C463.089 287.16 458.232 282.295 452.262 282.295Z" fill="#0C2C00"/>
<path d="M194.87 475.127C194.509 475.127 194.217 474.835 194.217 474.474V466.79C194.217 466.561 194.337 466.349 194.533 466.231L208.572 457.759L198.283 445.316C198.054 445.038 198.092 444.626 198.371 444.397C198.649 444.167 199.06 444.207 199.29 444.484L210.061 457.51C210.182 457.657 210.233 457.849 210.202 458.036C210.17 458.223 210.058 458.388 209.895 458.485L195.523 467.158V474.474C195.523 474.835 195.231 475.127 194.87 475.127Z" fill="white"/>
<path d="M94.9936 526.843C94.6622 526.843 94.3785 526.592 94.3447 526.256C94.3086 525.898 94.5705 525.578 94.929 525.541C95.3202 525.501 134.578 521.475 180.021 509.873C180.371 509.782 180.726 509.994 180.815 510.344C180.904 510.693 180.694 511.048 180.344 511.138C134.803 522.766 95.4524 526.801 95.0602 526.841C95.037 526.842 95.0153 526.843 94.9936 526.843Z" fill="white"/>
<path d="M222.286 438.164C222.169 438.164 222.049 438.132 221.941 438.065C221.636 437.874 221.542 437.472 221.733 437.166C229.65 424.468 234.24 396.672 237.277 378.277C239.763 363.219 240.696 358.3 242.226 357.684C242.56 357.551 242.94 357.712 243.075 358.046C243.207 358.373 243.055 358.744 242.735 358.887C241.667 359.705 240.09 369.255 238.565 378.49C235.329 398.093 230.896 424.939 222.841 437.857C222.717 438.055 222.504 438.164 222.286 438.164Z" fill="white"/>
<path d="M436.474 284.123C436.377 284.123 436.279 284.101 436.185 284.056C435.862 283.896 435.73 283.504 435.889 283.181C435.993 282.971 446.5 262.123 465.149 260.159C465.509 260.121 465.83 260.382 465.867 260.74C465.905 261.098 465.645 261.42 465.286 261.457C447.343 263.347 437.16 283.556 437.059 283.76C436.946 283.99 436.715 284.123 436.474 284.123Z" fill="white"/>
<path d="M429.931 282.296C429.816 282.296 429.7 282.268 429.602 282.214C429.286 282.039 429.172 281.641 429.347 281.326C429.383 281.26 429.429 281.204 429.482 281.157C429.57 280.968 429.736 280.533 429.898 280.11C438.258 258.249 452.931 253.818 463.751 253.989C464.112 253.995 464.4 254.291 464.394 254.651C464.389 255.012 464.103 255.279 463.732 255.295C448.585 255.11 437.612 263.591 431.117 280.577C430.616 281.888 430.525 282.123 430.16 282.257C430.089 282.283 430.011 282.296 429.931 282.296Z" fill="white"/>
<path d="M529.809 261.461C529.792 261.461 529.775 261.46 529.758 261.459C529.398 261.432 529.129 261.118 529.157 260.758C530.969 237.183 511.761 227.639 511.567 227.546C511.242 227.389 511.106 226.999 511.262 226.675C511.419 226.351 511.808 226.212 512.133 226.369C512.335 226.466 532.342 236.372 530.459 260.859C530.432 261.201 530.146 261.461 529.809 261.461Z" fill="white"/>
<path d="M520.89 268.795C520.761 268.795 520.63 268.756 520.516 268.676C520.221 268.469 520.15 268.061 520.357 267.766C528.854 255.669 522.571 244.319 522.507 244.206C522.328 243.893 522.438 243.494 522.75 243.316C523.063 243.139 523.462 243.246 523.64 243.558C523.709 243.679 530.412 255.722 521.425 268.517C521.298 268.697 521.096 268.795 520.89 268.795Z" fill="white"/>
<path d="M504.743 287.838C504.716 287.838 504.69 287.836 504.663 287.833C504.305 287.789 504.05 287.464 504.093 287.107C506.441 267.777 485.778 257.763 485.569 257.664C485.243 257.51 485.104 257.12 485.259 256.795C485.413 256.469 485.802 256.329 486.127 256.484C486.345 256.587 507.85 267.01 505.39 287.264C505.35 287.595 505.068 287.838 504.743 287.838Z" fill="white"/>
<path d="M120.493 467.747C123.098 463.192 153.456 387.786 184.687 359.576C192.494 365.337 192.494 365.337 192.494 365.337L120.493 467.747Z" fill="#0C2C00"/>
<path d="M184.687 359.576L198.568 428.551L192.494 365.337L184.687 359.576Z" fill="#0C2C00"/>
<path d="M119.912 469.398C118.173 466.355 97.8872 415.974 77.0238 397.125C71.8057 400.972 71.8057 400.972 71.8057 400.972L119.912 469.398Z" fill="#0C2C00"/>
<path d="M77.0238 397.125L67.7491 443.209L71.8057 400.972L77.0238 397.125Z" fill="#0C2C00"/>
<path d="M186.199 276.644L176.806 304.035L155.861 365.146V365.156L152.92 373.704L120.498 468.3C121.072 465.961 122.63 453.841 125.363 436.349C125.372 436.341 125.372 436.333 125.372 436.323C129.429 410.5 136.063 372.966 145.94 337.864C152.68 313.883 160.938 291.035 170.921 273.827C171.284 273.206 171.645 272.586 172.008 271.984C186.199 276.644 186.199 276.644 186.199 276.644Z" fill="#0C2C00"/>
<path d="M186.199 276.644L176.806 304.035C175.53 296.257 173.216 282.963 170.921 273.827C171.284 273.206 171.645 272.586 172.008 271.984C186.199 276.644 186.199 276.644 186.199 276.644Z" fill="#0C2C00"/>
<path d="M172.007 271.981L221.86 368.892L186.2 276.648L172.007 271.981Z" fill="#8CB369"/>
<path d="M155.86 365.145V365.155L152.92 373.704L145.599 363.772C145.599 363.772 132.421 410.599 125.371 436.322C129.429 410.499 136.063 372.965 145.94 337.863L155.86 365.145Z" fill="#0C2C00"/>
<path d="M26.5151 291.856L23.9531 302.249L21.4743 312.324L19.1481 321.762L0 399.484L12.1502 312.24L13.813 300.295C13.813 300.295 13.813 300.295 15.7786 298.997C16.0427 298.821 16.3449 298.62 16.6923 298.385C17.4938 297.848 18.5203 297.169 19.8423 296.29C21.5413 295.158 23.7251 293.708 26.5151 291.856Z" fill="#0C2C00"/>
<path d="M26.5151 305.955L24.1859 316.581L21.4743 312.324L19.1481 321.763L12.1502 312.24L13.813 300.296C13.813 300.296 13.813 300.296 15.7785 298.998C16.0427 298.822 16.3449 298.621 16.6923 298.386C17.4938 297.849 18.5203 297.169 19.8423 296.29L23.9537 302.249L26.5151 305.955Z" fill="#0C2C00"/>
<path d="M120.498 467.746L24.186 316.581L21.4744 312.324L13.8131 300.296C13.8131 300.296 13.8131 300.296 15.7786 298.999C16.0428 298.823 16.3449 298.621 16.6923 298.386C17.4939 297.849 18.5204 297.17 19.8424 296.291C21.5419 295.159 23.7258 293.709 26.5158 291.856C40.3964 305.654 53.8909 325.845 66.1238 347.669C68.9204 352.658 71.6483 357.737 74.3008 362.833C99.6579 411.589 118.065 463.01 120.498 467.746Z" fill="#8CB369"/>
<path d="M74.3002 362.832L67.1516 372.446C67.1516 372.446 65.806 357.335 66.1232 347.669C68.9199 352.657 71.6477 357.736 74.3002 362.832Z" fill="#0C2C00"/>
<path d="M104.191 247.231L97.7702 268.078L93.6816 281.329L90.68 291.06L68.5272 362.942L83.6827 276.618L88.7989 247.491L91.262 247.45L104.191 247.231Z" fill="#0C2C00"/>
<path d="M100.24 275.931L95.0627 290.884L93.6816 281.33L90.6793 291.061C88.8302 287.121 86.1982 281.597 83.6821 276.619L88.7976 247.492C88.7976 247.492 88.7976 247.492 91.2095 247.266L91.2607 247.45L97.7689 268.079L100.24 275.931Z" fill="#0C2C00"/>
<path d="M120.83 469.397L120.581 467.645L116.214 437.388L95.0634 290.883L93.6823 281.329L88.7989 247.491C88.7989 247.491 88.7989 247.491 91.2107 247.266C93.3403 247.073 97.3685 246.704 104.969 246C113.288 268.865 117.868 298.93 120.256 329.572C125.062 391.245 121.004 455.265 120.822 467.712C120.808 468.468 120.808 469.037 120.83 469.397Z" fill="#8CB369"/>
<path d="M120.822 467.712C120.738 467.695 120.664 467.669 120.581 467.645L116.215 437.388L120.256 329.572C125.062 391.246 121.004 455.266 120.822 467.712Z" fill="#0C2C00"/>
<path d="M121.219 468.218C121.65 461.709 114.105 362.013 132.901 312.122C144.198 313.322 145.308 313.322 145.308 313.322L121.219 468.218Z" fill="#0C2C00"/>
<path d="M132.901 312.122L164.312 390.239L145.308 313.323L132.901 312.122Z" fill="#8CB369"/>
<path d="M148.882 573.433H90.9423L82.6483 459.178H156.146L148.882 573.433Z" fill="#4BA3BC"/>
<path d="M132.868 504.662C136.129 504.662 138.772 501.73 138.772 498.112C138.772 494.495 136.129 491.563 132.868 491.563C129.607 491.563 126.964 494.495 126.964 498.112C126.964 501.73 129.607 504.662 132.868 504.662Z" fill="#00748C"/>
<path d="M142.061 522.852C143.877 522.852 145.349 521.219 145.349 519.204C145.349 517.19 143.877 515.557 142.061 515.557C140.245 515.557 138.773 517.19 138.773 519.204C138.773 521.219 140.245 522.852 142.061 522.852Z" fill="#00748C"/>
<path d="M117.283 537.942C118.458 537.942 119.411 536.885 119.411 535.581C119.411 534.278 118.458 533.221 117.283 533.221C116.108 533.221 115.155 534.278 115.155 535.581C115.155 536.885 116.108 537.942 117.283 537.942Z" fill="#00748C"/>
<path d="M107.534 500.837C108.409 500.837 109.118 500.051 109.118 499.08C109.118 498.11 108.409 497.324 107.534 497.324C106.66 497.324 105.951 498.11 105.951 499.08C105.951 500.051 106.66 500.837 107.534 500.837Z" fill="#00748C"/>
<path d="M120.364 473.567C120.364 475.164 119.197 476.457 117.761 476.457C116.322 476.457 115.155 475.164 115.155 473.567C115.155 471.971 116.323 470.679 117.761 470.679C119.197 470.679 120.364 471.971 120.364 473.567Z" fill="#00748C"/>
<path d="M132.869 473.678C132.869 475.334 131.657 476.676 130.166 476.676C128.671 476.676 127.462 475.334 127.462 473.678C127.462 472.022 128.672 470.679 130.166 470.679C131.657 470.679 132.869 472.022 132.869 473.678Z" fill="#00748C"/>
<path d="M143.83 482.771C144.807 482.771 145.599 481.892 145.599 480.809C145.599 479.725 144.807 478.846 143.83 478.846C142.853 478.846 142.061 479.725 142.061 480.809C142.061 481.892 142.853 482.771 143.83 482.771Z" fill="#00748C"/>
<path d="M119.174 518.297C120.219 518.297 121.065 517.358 121.065 516.199C121.065 515.04 120.219 514.101 119.174 514.101C118.129 514.101 117.283 515.04 117.283 516.199C117.283 517.358 118.129 518.297 119.174 518.297Z" fill="#00748C"/>
<path d="M94.8432 531.175C95.7726 531.175 96.5259 530.339 96.5259 529.308C96.5259 528.277 95.7726 527.442 94.8432 527.442C93.9139 527.442 93.1606 528.277 93.1606 529.308C93.1606 530.339 93.9139 531.175 94.8432 531.175Z" fill="#00748C"/>
<path d="M94.6557 492.764C95.4814 492.764 96.1508 492.021 96.1508 491.105C96.1508 490.189 95.4814 489.447 94.6557 489.447C93.83 489.447 93.1606 490.189 93.1606 491.105C93.1606 492.021 93.83 492.764 94.6557 492.764Z" fill="#00748C"/>
<path d="M103.955 483.384C105.084 483.384 106 482.369 106 481.116C106 479.863 105.084 478.847 103.955 478.847C102.825 478.847 101.91 479.863 101.91 481.116C101.91 482.369 102.825 483.384 103.955 483.384Z" fill="#00748C"/>
<path d="M103.955 523.325C103.955 525.6 102.293 527.445 100.24 527.445C98.1906 527.445 96.526 525.6 96.526 523.325C96.526 521.049 98.1906 519.204 100.24 519.204C102.294 519.204 103.955 521.049 103.955 523.325Z" fill="#00748C"/>
<path d="M120.256 330.83C119.66 330.83 119.158 330.314 119.125 329.646C118.6 319.553 117.156 307.759 114.84 294.588C114.72 293.907 115.12 293.246 115.734 293.113C116.349 292.98 116.946 293.424 117.064 294.106C119.403 307.386 120.855 319.294 121.387 329.5C121.425 330.193 120.946 330.789 120.321 330.828C120.299 330.83 120.278 330.83 120.256 330.83Z" fill="#0C2C00"/>
<path d="M114.396 287.232C113.872 287.232 113.403 286.83 113.288 286.242C112.114 280.229 110.776 273.987 109.311 267.692C109.153 267.019 109.518 266.334 110.125 266.16C110.733 265.987 111.348 266.391 111.505 267.064C112.978 273.391 114.322 279.664 115.503 285.709C115.635 286.388 115.248 287.057 114.634 287.203C114.553 287.223 114.474 287.232 114.396 287.232Z" fill="#0C2C00"/>
<path d="M57.6996 334.531C57.3268 334.531 56.9631 334.329 56.7454 333.957C55.1291 331.196 52.8421 327.736 49.9453 323.676C49.5563 323.132 49.639 322.341 50.1311 321.911C50.6221 321.478 51.3349 321.573 51.7239 322.117C54.6647 326.238 56.9939 329.761 58.647 332.589C58.9884 333.172 58.84 333.951 58.3135 334.327C58.1235 334.465 57.9106 334.531 57.6996 334.531Z" fill="#0C2C00"/>
<path d="M46.0644 317.654C45.7411 317.654 45.4185 317.499 45.1947 317.202C43.8329 315.391 42.45 313.583 41.0833 311.818C40.675 311.292 40.7281 310.498 41.2039 310.044C41.6774 309.592 42.3939 309.652 42.8022 310.179C44.1779 311.953 45.5674 313.77 46.9347 315.59C47.3364 316.124 47.2712 316.917 46.7911 317.361C46.5782 317.557 46.3207 317.654 46.0644 317.654Z" fill="#0C2C00"/>
<path d="M32.0167 299.779C31.7079 299.779 31.3998 299.639 31.1754 299.365C27.9301 295.381 25.751 292.791 25.6919 292.722C25.5001 292.496 25.3795 292.191 25.3795 291.856C25.3795 291.163 25.8873 290.599 26.5146 290.599C27.0905 290.599 27.0905 290.599 32.8575 297.679C33.2766 298.195 33.2417 298.989 32.7773 299.456C32.5601 299.672 32.2875 299.779 32.0167 299.779Z" fill="#0C2C00"/>
<path d="M162.402 292.871C162.246 292.871 162.086 292.835 161.934 292.758C161.364 292.469 161.114 291.724 161.371 291.092C163.947 284.819 165.83 280.609 166.968 278.579C167.301 277.991 167.999 277.81 168.531 278.177C169.063 278.542 169.224 279.319 168.894 279.908C167.809 281.846 165.97 285.958 163.434 292.134C163.245 292.597 162.834 292.871 162.402 292.871Z" fill="#0C2C00"/>
<path d="M151.262 321.476C151.118 321.476 150.97 321.446 150.829 321.38C150.252 321.114 149.975 320.379 150.215 319.737C150.241 319.67 152.768 312.909 155.878 304.901C156.128 304.263 156.797 303.971 157.369 304.243C157.943 304.519 158.21 305.259 157.962 305.896C154.857 313.887 152.335 320.632 152.31 320.7C152.128 321.185 151.708 321.476 151.262 321.476Z" fill="#0C2C00"/>
<path d="M159.915 373.704C159.417 373.704 158.962 373.337 158.822 372.778L149.721 335.942C149.556 335.272 149.911 334.58 150.515 334.397C151.117 334.208 151.742 334.607 151.908 335.277L161.011 372.113C161.174 372.782 160.819 373.475 160.216 373.658C160.114 373.689 160.017 373.704 159.915 373.704Z" fill="#0C2C00"/>
<path d="M146.835 320.767C146.338 320.767 145.88 320.401 145.743 319.843L144.424 314.499L132.802 313.375C132.179 313.315 131.716 312.706 131.771 312.013C131.828 311.322 132.37 310.809 133 310.871L145.406 312.071C145.878 312.116 146.274 312.482 146.4 312.99L147.928 319.178C148.093 319.848 147.739 320.539 147.135 320.723C147.036 320.753 146.934 320.767 146.835 320.767Z" fill="#0C2C00"/>
<path d="M148.883 573.433H141.195L132.901 459.178H156.146L148.883 573.433Z" fill="#00748C"/>
</svg>
