<svg width="704" height="821" viewBox="0 0 704 821" fill="none" xmlns="http://www.w3.org/2000/svg">
<path d="M658.089 249.473C656.058 251.642 633.873 276.162 652.323 302.675C652.323 302.686 652.345 302.686 652.345 302.708C664.951 311.462 673.18 326 673.18 342.433C673.18 364.83 657.868 383.683 637.055 389.26C631.431 391.43 623.941 400.04 619.279 405.968C616.849 409.036 615.181 411.392 614.925 411.776C614.893 411.818 614.883 411.828 614.883 411.828C609.304 417.637 601.446 421.242 592.732 421.242C582.335 421.242 573.143 416.092 567.617 408.215C557.157 395.067 549.645 390.049 545.877 388.176C544.264 387.387 543.335 387.157 543.126 387.113C543.093 387.093 543.081 387.093 543.081 387.093C525.56 379.729 513.264 362.495 513.264 342.433C513.264 327.513 520.048 314.168 530.731 305.283V305.26C541.612 288.116 541.061 273.85 537.205 263.375C535.438 258.589 532.985 254.588 530.619 251.478C526.777 246.416 523.163 243.688 523.163 243.688C516.942 235.56 513.264 225.425 513.264 214.437C513.264 199.186 520.345 185.589 531.448 176.714C531.448 176.714 531.448 176.692 531.461 176.692C551.103 149.478 533.085 130.043 531.559 128.465C531.483 128.387 531.448 128.367 531.448 128.367C520.345 119.481 513.264 105.884 513.264 90.6329C513.264 69.205 527.295 50.9841 546.728 44.6194C546.728 44.6194 546.751 44.6194 546.762 44.6063C546.795 44.6063 546.817 44.5745 546.872 44.5633C546.883 44.5633 546.883 44.5415 546.895 44.5415C548.087 43.9707 555.501 40.0171 562.393 26.5742C564.261 11.5976 577.132 0.00619507 592.732 0.00619507C604.374 0.00619507 614.495 6.44691 619.664 15.9357C619.664 15.9357 619.664 15.9481 619.676 15.9911C619.754 16.5059 620.461 20.8221 623.046 26.2676C625.676 31.8221 630.227 38.5389 638.039 43.5886C638.039 43.5886 638.039 43.5886 638.048 43.5886C638.567 43.9289 639.099 44.2573 639.641 44.5752C652.024 48.6403 662.221 57.4703 668 68.886C670.498 73.8055 672.165 79.2073 672.839 84.9052C673.071 86.7878 673.18 88.6948 673.18 90.6336C673.18 104.34 667.459 116.71 658.232 125.53C658.232 125.53 658.189 125.574 658.102 125.661C656.1 127.709 633.497 151.79 654.985 176.693L654.996 176.715C666.1 185.59 673.181 199.188 673.181 214.437C673.181 228.132 667.46 240.502 658.233 249.321C658.232 249.319 658.189 249.375 658.089 249.473Z" fill="#8CB369"/>
<path d="M658.089 249.473C656.058 251.641 633.873 276.161 652.323 302.675C652.323 302.685 652.345 302.685 652.345 302.707C664.951 311.461 673.18 325.999 673.18 342.433C673.18 364.829 657.868 383.683 637.055 389.259C631.431 391.429 623.941 400.04 619.279 405.967C616.849 409.036 615.181 411.392 614.925 411.776C614.893 411.818 614.883 411.828 614.883 411.828C609.304 417.636 601.446 421.242 592.732 421.242C582.335 421.242 573.143 416.091 567.617 408.214C557.157 395.066 549.645 390.048 545.877 388.175C544.264 387.387 543.335 387.156 543.126 387.113C543.093 387.093 543.081 387.093 543.081 387.093C525.56 379.728 513.264 362.494 513.264 342.433C513.264 327.512 520.048 314.168 530.731 305.282V305.26C541.612 288.115 541.061 273.85 537.205 263.375C546.717 247.523 555.743 231.952 561.089 222.268C574.624 197.782 570.757 144.865 580.114 101.753C585.607 76.4778 614.815 56.1093 638.04 43.5875C638.04 43.5875 638.04 43.5875 638.049 43.5875C638.568 43.9278 639.099 44.2562 639.642 44.574C652.025 48.6391 662.222 57.4691 668 68.8848C669.149 73.7719 670.718 79.1177 672.839 84.904C673.072 86.7867 673.181 88.6937 673.181 90.6324C673.181 104.339 667.46 116.709 658.233 125.529C658.233 125.529 658.189 125.572 658.102 125.66C656.101 127.708 633.498 151.789 654.985 176.692L654.997 176.714C666.101 185.589 673.182 199.187 673.182 214.436C673.182 228.131 667.461 240.501 658.233 249.319C658.232 249.319 658.189 249.374 658.089 249.473Z" fill="#0C2C00"/>
<path d="M596.484 526.386C596.436 525.263 591.628 412.745 591.628 277.823V0H593.839V277.822C593.839 412.694 598.643 525.171 598.692 526.29L596.484 526.386Z" fill="#0C2C00"/>
<path d="M640.548 45.2096L638.757 43.9281L591.851 108.384L593.642 109.666L640.548 45.2096Z" fill="#0C2C00"/>
<path d="M657.84 55.3093L656.183 53.8579L592.402 125.469L594.059 126.92L657.84 55.3093Z" fill="#0C2C00"/>
<path d="M593.957 180.947L529.691 125.376L528.239 127.029L592.504 182.6L593.957 180.947Z" fill="#0C2C00"/>
<path d="M592.226 194.88L537.162 166.665L538.173 164.717L593.24 192.933L592.226 194.88Z" fill="#0C2C00"/>
<path d="M664.051 186.009L662.518 184.429L591.976 251.744L593.509 253.324L664.051 186.009Z" fill="#0C2C00"/>
<path d="M645.752 278.769L644.587 276.908L592.148 309.18L593.313 311.041L645.752 278.769Z" fill="#0C2C00"/>
<path d="M648.112 294.921L647.058 292.995L592.675 322.28L593.73 324.206L648.112 294.921Z" fill="#0C2C00"/>
<path d="M673.714 343.396L672.652 341.474L592.683 384.924L593.744 386.846L673.714 343.396Z" fill="#0C2C00"/>
<path d="M593.206 357.637L517.721 322.269L516.777 324.25L592.262 359.618L593.206 357.637Z" fill="#0C2C00"/>
<path d="M593.127 370.727L513.65 341.414L512.879 343.467L592.357 372.781L593.127 370.727Z" fill="#0C2C00"/>
<path d="M593.131 281.811L536.486 259.627L535.675 261.664L592.32 283.847L593.131 281.811Z" fill="#0C2C00"/>
<path d="M593.741 259.673L513.986 217.891L512.954 219.827L592.71 261.609L593.741 259.673Z" fill="#0C2C00"/>
<path d="M593.412 78.0834L547.575 43.6609L546.241 45.4077L592.078 79.8302L593.412 78.0834Z" fill="#0C2C00"/>
<path d="M703.916 221.513C703.827 222.795 703.651 224.077 703.398 225.369C701.629 234.495 696.227 242.001 688.957 246.701C688.957 246.701 688.915 246.723 688.847 246.779C687.256 247.885 669.104 261.054 680.197 280.346L680.209 280.369C686.449 287.678 689.411 297.624 687.446 307.781C685.678 316.896 680.274 324.401 673.005 329.101C673.005 329.101 672.959 329.135 672.884 329.187C671.248 330.371 653.329 343.882 662.189 363.864C662.189 363.875 662.2 363.875 662.2 363.897C669.459 371.315 673.072 382.04 670.951 392.974C668.066 407.886 655.439 418.489 640.868 419.564C636.847 420.298 630.748 425.077 626.88 428.438C624.871 430.17 623.456 431.528 623.234 431.748C623.212 431.769 623.201 431.78 623.201 431.78C618.737 434.936 613.048 436.339 607.249 435.232C600.32 433.917 594.876 429.326 592.212 423.378C586.943 413.309 582.588 409.014 580.314 407.285C579.353 406.561 578.756 406.286 578.624 406.232C578.602 406.21 578.602 406.21 578.602 406.21C567.885 399.088 561.918 386.061 564.503 372.706C566.426 362.779 572.668 354.748 580.92 350.191V350.18C590.378 340.144 591.847 330.581 590.631 323.12C590.068 319.712 588.953 316.732 587.782 314.365C585.871 310.509 583.826 308.232 583.826 308.232C582.534 305.646 581.583 302.872 581.01 300.004C580.225 295.994 580.171 291.764 580.998 287.513C582.965 277.356 589.428 269.204 597.968 264.702C597.968 264.702 597.968 264.69 597.979 264.69C614.563 249.069 605.072 233.849 604.254 232.6C604.222 232.546 604.2 232.524 604.2 232.524C597.957 225.206 594.996 215.256 596.951 205.1C599.713 190.836 611.402 180.494 625.156 178.718C625.156 178.718 625.177 178.718 625.191 178.708C625.213 178.718 625.224 178.698 625.267 178.698L625.278 178.687C626.152 178.455 631.599 176.769 637.918 168.694C641.089 158.956 651.154 152.873 661.526 154.858C669.282 156.325 675.193 161.901 677.403 168.869C677.403 168.869 677.403 168.881 677.403 168.903C677.39 169.264 677.303 172.222 678.33 176.178C679.357 180.209 681.523 185.249 686.075 189.609C686.384 189.895 686.693 190.18 687.014 190.464C691.123 192.743 694.647 195.844 697.411 199.513C699.829 202.712 701.653 206.351 702.758 210.239C703.784 213.833 704.192 217.635 703.916 221.513Z" fill="#8CB369"/>
<path d="M703.916 221.513C703.827 222.795 703.651 224.077 703.398 225.369C701.629 234.496 696.227 242.001 688.957 246.701C688.957 246.701 688.915 246.723 688.847 246.779C687.256 247.885 669.105 261.054 680.197 280.346L680.209 280.369C686.449 287.678 689.411 297.624 687.446 307.781C685.678 316.896 680.274 324.401 673.005 329.101C673.005 329.101 672.959 329.135 672.884 329.187C671.248 330.371 653.329 343.882 662.189 363.864C662.189 363.875 662.2 363.875 662.2 363.897C669.459 371.315 673.072 382.04 670.951 392.974C668.066 407.886 655.439 418.489 640.868 419.564C636.847 420.298 630.748 425.077 626.88 428.439C624.871 430.17 623.456 431.528 623.234 431.748C623.212 431.769 623.201 431.78 623.201 431.78C618.737 434.937 613.048 436.339 607.249 435.232C600.32 433.917 594.876 429.327 592.212 423.378C586.943 413.309 582.588 409.014 580.314 407.285C579.353 406.561 578.756 406.286 578.624 406.232C578.602 406.21 578.602 406.21 578.602 406.21C567.885 399.089 561.918 386.061 564.503 372.706C566.426 362.779 572.668 354.748 580.92 350.192V350.18C590.378 340.144 591.847 330.581 590.631 323.12C590.068 319.712 588.953 316.732 587.782 314.365C585.871 310.509 583.826 308.232 583.826 308.232C582.534 305.646 581.583 302.872 581.01 300.004C595.272 301.58 591.462 326.866 597.384 353.83C604.132 384.526 587.329 394.651 609.789 397.729C632.24 400.809 638.7 366.712 646.953 342.424C655.208 318.123 665.217 317.41 663.361 300.78C661.505 284.139 661.902 264.822 681.998 239.756C692.716 226.4 696.349 210.996 697.41 199.514C699.828 202.713 701.652 206.351 702.757 210.24C703.784 213.834 704.192 217.635 703.916 221.513Z" fill="#0C2C00"/>
<path d="M598.025 505.967L595.839 505.647C595.952 504.894 607.254 429.381 624.643 339.567L660.447 154.643L662.616 155.056L626.813 339.98C609.433 429.746 598.137 505.215 598.025 505.967Z" fill="#0C2C00"/>
<path d="M687.762 191.241L686.248 189.647L646.708 226.589L648.223 228.184L687.762 191.241Z" fill="#0C2C00"/>
<path d="M697.938 200.171L696.588 198.439L644.92 238.04L646.27 239.772L697.938 200.171Z" fill="#0C2C00"/>
<path d="M639.274 275.24L603.661 230.1L601.921 231.45L637.533 276.59L639.274 275.24Z" fill="#0C2C00"/>
<path d="M637.23 283.038L604.214 257.279L602.848 259.002L635.864 284.761L637.23 283.038Z" fill="#0C2C00"/>
<path d="M685.241 287.997L684.037 286.158L628.383 321.979L629.586 323.818L685.241 287.997Z" fill="#0C2C00"/>
<path d="M661.021 347.453L660.233 345.409L621.162 360.217L621.95 362.261L661.021 347.453Z" fill="#0C2C00"/>
<path d="M660.488 358.506L659.818 356.418L619.846 369.021L620.515 371.109L660.488 358.506Z" fill="#0C2C00"/>
<path d="M671.309 394.02L670.632 391.935L611.806 410.733L612.484 412.818L671.309 394.02Z" fill="#0C2C00"/>
<path d="M615.964 392.658L570.281 359.553L568.977 361.322L614.661 394.427L615.964 392.658Z" fill="#0C2C00"/>
<path d="M613.049 403.223L563.929 373.64L565.077 371.768L614.198 401.352L613.049 403.223Z" fill="#0C2C00"/>
<path d="M625.687 342.198L590.839 320.252L589.654 322.101L624.503 344.047L625.687 342.198Z" fill="#0C2C00"/>
<path d="M628.96 327.577L581.257 289.655L579.876 291.364L627.579 329.286L628.96 327.577Z" fill="#0C2C00"/>
<path d="M652.164 206.697L626.094 177.971L624.451 179.438L650.521 208.163L652.164 206.697Z" fill="#0C2C00"/>
<path d="M584.92 388.702C581.329 392.122 578.39 401.027 576.733 407.01C575.872 410.112 575.354 412.422 575.286 412.793C575.275 412.839 575.264 412.849 575.264 412.849C572.888 419.028 568.06 424.242 561.431 426.995C553.512 430.257 544.872 429.239 538.143 424.988C537.392 424.572 536.65 424.178 535.944 423.806C525.085 418.097 518.445 416.805 515.185 416.573C513.706 416.485 512.932 416.597 512.755 416.64C512.721 416.628 512.711 416.628 512.711 416.628C497.025 416.552 482.153 407.305 475.724 392.033C470.95 380.681 471.845 368.39 477.125 358.266L477.116 358.256C479.91 341.776 474.928 331.094 468.641 324.345C465.757 321.255 462.61 318.977 459.815 317.356C455.273 314.716 451.65 313.785 451.65 313.785C444.314 309.556 438.271 303.004 434.747 294.634C429.874 283.031 430.902 270.454 436.515 260.21C436.515 260.21 436.502 260.187 436.515 260.187C442.744 233.29 422.815 224.175 421.148 223.453C421.07 223.42 421.034 223.42 421.034 223.42C409.746 220.154 400.002 212.035 395.119 200.423C388.256 184.12 393.108 165.834 405.857 154.878C405.857 154.878 405.868 154.867 405.878 154.856C405.9 154.846 405.912 154.812 405.944 154.79C405.957 154.79 405.944 154.769 405.957 154.769C406.685 153.958 411.06 148.612 411.999 136.21C408.619 124.223 414.707 111.361 426.581 106.441C435.442 102.782 445.198 104.49 452.169 110.09C452.169 110.09 452.18 110.09 452.204 110.122C452.423 110.495 454.345 113.552 458.058 116.883C461.836 120.278 467.447 123.96 475.005 125.341C475.005 125.341 475.005 125.341 475.017 125.341C475.523 125.44 476.033 125.515 476.541 125.592C485.456 124.925 494.262 127.236 501.61 131.968C501.62 131.98 501.62 131.98 501.62 131.98C503.112 132.934 504.548 133.996 505.907 135.157C509.385 138.115 512.38 141.709 514.712 145.828C515.495 147.188 516.192 148.599 516.812 150.079C521.197 160.509 520.799 171.729 516.611 181.336C516.611 181.336 516.589 181.391 516.546 181.479C515.684 183.67 506.194 209.11 530.511 221.293L530.533 221.316C541.824 224.569 551.556 232.686 556.439 244.29C560.825 254.709 560.428 265.928 556.23 275.537C556.23 275.537 556.218 275.59 556.175 275.7C555.325 277.991 546.288 303.638 568.813 318.002C568.824 318.013 568.835 318.002 568.848 318.023C581.241 320.719 592.156 329.186 597.416 341.689C604.585 358.726 598.972 377.899 584.92 388.702Z" fill="#8CB369"/>
<path d="M584.92 388.702C581.329 392.122 578.39 401.027 576.733 407.01C575.872 410.112 575.354 412.422 575.286 412.793C575.275 412.839 575.264 412.849 575.264 412.849C572.888 419.028 568.06 424.242 561.431 426.994C553.512 430.257 544.872 429.239 538.143 424.988C537.392 424.571 536.65 424.178 535.944 423.806C551.123 415.291 558.194 401.202 561.089 387.496C564.679 370.494 570.756 355.208 556.616 341.69C542.486 328.17 534.299 309.193 530.487 284.728C526.676 260.276 514.413 240.171 507 232.372C499.576 224.57 502.813 197.455 507 166.229C508.999 151.286 505.651 139.847 501.618 131.981C503.111 132.935 504.547 133.997 505.905 135.158C509.384 138.116 512.379 141.711 514.711 145.829C515.494 147.189 516.191 148.6 516.81 150.08C521.196 160.51 520.798 171.73 516.61 181.338C516.61 181.338 516.588 181.392 516.545 181.48C515.683 183.671 506.193 209.111 530.51 221.294L530.532 221.317C541.823 224.57 551.555 232.688 556.438 244.291C560.824 254.71 560.427 265.929 556.229 275.538C556.229 275.538 556.217 275.591 556.174 275.702C555.324 277.992 546.287 303.639 568.811 318.003C568.823 318.014 568.833 318.003 568.847 318.025C581.24 320.72 592.155 329.187 597.414 341.69C604.585 358.726 598.972 377.899 584.92 388.702Z" fill="#0C2C00"/>
<path d="M597.768 505.901C597.37 505.065 557.692 420.948 514.496 318.275L425.558 106.862L427.598 106.019L516.537 317.431C559.711 420.06 599.373 504.134 599.768 504.972L597.768 505.901Z" fill="#0C2C00"/>
<path d="M477.589 125.837L475.437 125.339L460.415 189.161L462.567 189.66L477.589 125.837Z" fill="#0C2C00"/>
<path d="M494.01 128.102L491.918 127.396L466.322 201.978L468.414 202.684L494.01 128.102Z" fill="#0C2C00"/>
<path d="M485.472 243.576L418.782 221.517L418.083 223.594L484.773 245.653L485.472 243.576Z" fill="#0C2C00"/>
<path d="M488.751 252.914L437.813 248.778L437.632 250.963L488.57 255.099L488.751 252.914Z" fill="#0C2C00"/>
<path d="M540.557 225.588L538.531 224.716L506.397 298.142L508.423 299.015L540.557 225.588Z" fill="#0C2C00"/>
<path d="M556.336 301.98L554.538 300.707L524.973 341.778L526.772 343.052L556.336 301.98Z" fill="#0C2C00"/>
<path d="M563.311 313.558L561.592 312.182L529.553 351.565L531.273 352.94L563.311 313.558Z" fill="#0C2C00"/>
<path d="M598.29 342.359L596.562 340.991L549.655 399.259L551.382 400.627L598.29 342.359Z" fill="#0C2C00"/>
<path d="M541.418 378.213L472.663 375.067L472.561 377.256L541.316 380.403L541.418 378.213Z" fill="#0C2C00"/>
<path d="M545.64 390.413L545.554 388.225L475.699 390.921L475.785 393.11L545.64 390.413Z" fill="#0C2C00"/>
<path d="M466.933 323.708L466.89 321.516L517.096 320.565L517.14 322.757L466.933 323.708Z" fill="#0C2C00"/>
<path d="M510.483 303.551L436.417 296.861L436.216 299.043L510.283 305.733L510.483 303.551Z" fill="#0C2C00"/>
<path d="M452.141 165.481L406.241 153.713L405.688 155.834L451.588 167.602L452.141 165.481Z" fill="#0C2C00"/>
<path d="M661.808 424.272C660.789 424.647 649.507 428.989 651.098 440.618C651.098 440.618 651.104 440.627 651.101 440.633C653.741 445.538 654.002 451.606 651.273 456.945C647.553 464.223 639.447 467.849 631.755 466.261C629.568 466.05 625.705 467.623 623.205 468.789C621.906 469.388 620.971 469.88 620.827 469.964C620.809 469.974 620.805 469.976 620.805 469.976C618.026 470.952 614.875 470.839 612.043 469.416C608.666 467.717 606.533 464.543 606.043 461.082C604.829 455.099 603.22 452.242 602.309 451.019C601.914 450.498 601.653 450.272 601.591 450.222C601.581 450.21 601.58 450.21 601.58 450.21C597.109 444.957 595.976 437.347 599.308 430.828C601.785 425.978 606.204 422.749 611.152 421.609L611.156 421.6C617.54 417.807 619.731 413.081 620.217 409.048C620.437 407.204 620.306 405.503 620.052 404.105C619.643 401.833 618.923 400.356 618.923 400.356C618.252 396.699 618.74 392.805 620.564 389.233C623.098 384.278 627.654 381.017 632.738 379.946C632.738 379.946 632.743 379.938 632.745 379.94C643.649 374.305 641.022 365.047 640.788 364.285C640.775 364.247 640.768 364.235 640.768 364.235C638.637 359.535 638.593 353.958 641.127 349.002C644.686 342.038 652.27 338.411 659.644 339.516C659.644 339.516 659.649 339.518 659.655 339.516C659.668 339.522 659.679 339.516 659.701 339.521C659.702 339.522 659.706 339.514 659.711 339.518C660.195 339.527 663.259 339.451 667.731 336.21C670.826 331.647 676.934 329.983 682.003 332.532C685.786 334.432 688.005 338.179 688.11 342.108C688.11 342.108 688.106 342.112 688.105 342.126C688.042 342.307 687.557 343.823 687.491 346.017C687.424 348.252 687.788 351.178 689.486 354.096C689.486 354.096 689.486 354.096 689.49 354.098C689.603 354.292 689.721 354.484 689.845 354.677C693.191 358.02 695.041 362.556 695.022 367.21C695.016 369.216 694.66 371.242 693.936 373.204C693.697 373.854 693.417 374.492 693.093 375.124C690.817 379.577 686.902 382.661 682.441 384.02C682.441 384.02 682.419 384.028 682.375 384.042C681.386 384.381 670.041 388.516 672.886 400.116V400.126C675.02 404.822 675.064 410.398 672.532 415.355C670.257 419.803 666.343 422.89 661.882 424.246C661.881 424.245 661.858 424.258 661.808 424.272Z" fill="#8CB369"/>
<path d="M597.17 504.816L595.158 503.909C595.329 503.537 612.461 466.173 634.877 422.314L681.016 332.034L682.988 333.025L636.846 423.306C614.453 467.123 597.34 504.444 597.17 504.816Z" fill="#0C2C00"/>
<path d="M690.353 355.68L689.339 353.734L663.394 367.026L664.407 368.972L690.353 355.68Z" fill="#0C2C00"/>
<path d="M694.258 361.799L693.443 359.762L660.817 372.599L661.632 374.636L694.258 361.799Z" fill="#0C2C00"/>
<path d="M652.983 391.297L641.329 362.741L639.28 363.564L650.935 392.119L652.983 391.297Z" fill="#0C2C00"/>
<path d="M650.675 394.895L637.467 376.732L635.675 378.014L648.883 396.177L650.675 394.895Z" fill="#0C2C00"/>
<path d="M674.456 405.269L673.808 403.173L639.71 413.539L640.358 415.635L674.456 405.269Z" fill="#0C2C00"/>
<path d="M652.984 432.455L652.792 430.272L630.393 432.216L630.586 434.399L652.984 432.455Z" fill="#0C2C00"/>
<path d="M651.054 438.134L650.989 435.943L628.452 436.596L628.517 438.787L651.054 438.134Z" fill="#0C2C00"/>
<path d="M651.287 458.033L651.216 455.844L618.014 456.905L618.085 459.094L651.287 458.033Z" fill="#0C2C00"/>
<path d="M623.327 448.406L604.671 424.585L602.926 425.929L621.582 449.75L623.327 448.406Z" fill="#0C2C00"/>
<path d="M621.098 452.588L600.14 430.085L598.516 431.572L619.474 454.075L621.098 452.588Z" fill="#0C2C00"/>
<path d="M635.884 423.719L621.159 407.258L619.507 408.711L634.231 425.172L635.884 423.719Z" fill="#0C2C00"/>
<path d="M639.754 416.676L620.776 390.07L618.972 391.335L637.95 417.941L639.754 416.676Z" fill="#0C2C00"/>
<path d="M669.899 357.703L660.723 339.032L658.738 339.991L667.914 358.662L669.899 357.703Z" fill="#0C2C00"/>
<path d="M640.71 503.098H553.345V651.631H640.71V503.098Z" fill="#4BA3BC"/>
<path d="M640.71 503.098H620.414V651.631H640.71V503.098Z" fill="#00748C"/>
<path d="M647.701 144.366C647.606 144.366 647.509 144.358 647.413 144.34C646.512 144.183 645.907 143.332 646.065 142.438C647.058 136.823 650.369 132.791 654.56 127.686C657.364 124.274 660.539 120.406 663.78 115.181C664.259 114.409 665.28 114.167 666.059 114.643C666.838 115.118 667.082 116.13 666.601 116.904C663.248 122.312 659.998 126.269 657.131 129.761C653.09 134.68 650.173 138.234 649.332 143.004C649.19 143.805 648.49 144.366 647.701 144.366Z" fill="#0C2C00"/>
<path d="M671.628 86.7935C670.858 86.7935 670.168 86.2576 670.008 85.4792C667.761 74.6182 662.861 64.6683 662.811 64.5692C662.407 63.7547 662.745 62.77 663.567 62.3699C664.388 61.9667 665.382 62.3033 665.784 63.1196C665.996 63.5384 670.924 73.5494 673.256 84.8186C673.438 85.7079 672.86 86.5773 671.964 86.7593C671.852 86.7817 671.739 86.7935 671.628 86.7935Z" fill="#0C2C00"/>
<path d="M598.765 348.061C597.926 348.061 597.207 347.433 597.119 346.586C596.204 337.746 589.486 330.007 577.157 323.584C576.347 323.161 576.036 322.169 576.46 321.364C576.886 320.56 577.887 320.25 578.698 320.673C592.07 327.641 599.381 336.246 600.417 346.25C600.509 347.152 599.849 347.959 598.937 348.053C598.88 348.058 598.823 348.061 598.765 348.061Z" fill="#0C2C00"/>
<path d="M561.619 314.873C561.175 314.873 560.733 314.696 560.405 314.348C554.492 308.037 553.656 298.752 553.335 290.545C553.17 286.264 553.789 281.117 554.555 275.32C554.673 274.419 555.511 273.78 556.413 273.904C557.322 274.022 557.961 274.848 557.841 275.748C557.094 281.395 556.491 286.394 556.647 290.418C556.956 298.386 557.692 306.623 562.833 312.111C563.457 312.777 563.418 313.816 562.747 314.433C562.427 314.727 562.023 314.873 561.619 314.873Z" fill="#0C2C00"/>
<path d="M557.978 260.792C557.949 260.792 557.918 260.792 557.889 260.79C556.973 260.739 556.274 259.965 556.323 259.059C556.554 254.898 556.481 251.308 556.103 248.086C554.704 236.192 542.716 228.735 529.967 222.445C529.148 222.04 528.813 221.054 529.222 220.242C529.63 219.429 530.626 219.097 531.443 219.502C544.376 225.88 557.812 234.221 559.395 247.704C559.796 251.115 559.872 254.888 559.632 259.238C559.584 260.115 558.854 260.792 557.978 260.792Z" fill="#0C2C00"/>
<path d="M516.426 210.299C515.816 210.299 515.229 209.964 514.941 209.385C511.245 202.002 511.023 194.271 511.016 193.946C510.994 193.038 511.716 192.287 512.632 192.265C513.519 192.22 514.305 192.96 514.329 193.868C514.331 193.941 514.552 201.215 517.908 207.925C518.315 208.737 517.98 209.724 517.162 210.127C516.925 210.244 516.673 210.299 516.426 210.299Z" fill="#0C2C00"/>
<path d="M569.635 32.0303C569.418 32.0303 569.198 31.9992 568.981 31.9313C567.815 31.5742 567.162 30.3465 567.523 29.1917C572.092 14.5473 582.699 7.49707 583.151 7.20479C584.17 6.54047 585.539 6.82028 586.209 7.8311C586.878 8.8413 586.599 10.198 585.581 10.8642C585.468 10.9383 575.823 17.4158 571.743 30.4848C571.449 31.4259 570.578 32.0303 569.635 32.0303Z" fill="white"/>
<path d="M523.486 76.6891C523.293 76.6891 523.095 76.6635 522.898 76.6099C521.721 76.2878 521.031 75.0825 521.356 73.9146C526.396 55.7984 542.98 49.9023 543.684 49.6593C544.833 49.2623 546.095 49.8668 546.496 51.0116C546.894 52.1539 546.288 53.4003 545.136 53.7979C544.987 53.8509 530.024 59.2372 525.614 75.0806C525.347 76.0516 524.456 76.6891 523.486 76.6891Z" fill="white"/>
<path d="M525.85 113.959C525.52 113.959 525.185 113.884 524.867 113.729C516.009 109.361 515.08 93.8493 515.045 93.1919C514.979 91.9841 515.915 90.9534 517.132 90.8886C518.324 90.825 519.389 91.7517 519.457 92.9576C519.664 96.7347 521.396 107.125 526.836 109.806C527.928 110.345 528.373 111.66 527.83 112.743C527.444 113.512 526.663 113.959 525.85 113.959Z" fill="white"/>
<path d="M418.445 137.608C417.332 137.608 416.373 136.774 416.252 135.65C414.82 122.356 421.335 116.274 421.612 116.022C422.513 115.205 423.911 115.269 424.736 116.158C425.555 117.048 425.497 118.425 424.611 119.244C424.371 119.467 419.467 124.259 420.647 135.185C420.777 136.388 419.897 137.467 418.684 137.596C418.606 137.604 418.524 137.608 418.445 137.608Z" fill="white"/>
<path d="M398.999 183.974C398.054 183.974 397.18 183.369 396.889 182.429C394.066 173.348 403.873 162.006 404.293 161.528C405.092 160.616 406.485 160.517 407.407 161.309C408.33 162.102 408.428 163.486 407.63 164.4C405.225 167.153 399.368 175.529 401.111 181.136C401.471 182.292 400.818 183.521 399.651 183.876C399.436 183.944 399.213 183.974 398.999 183.974Z" fill="white"/>
<path d="M420.683 216.157C420.517 216.157 420.348 216.139 420.182 216.1C406.135 212.874 397.013 196.192 396.63 195.484C396.056 194.415 396.462 193.09 397.538 192.519C398.613 191.947 399.952 192.35 400.527 193.416C400.611 193.574 409.098 209.056 421.178 211.831C422.366 212.104 423.107 213.281 422.832 214.46C422.596 215.473 421.686 216.157 420.683 216.157Z" fill="white"/>
<path d="M437.714 285.018C436.68 285.018 435.759 284.296 435.55 283.253C434.263 276.833 438.864 266.893 439.393 265.782C439.913 264.687 441.228 264.217 442.333 264.733C443.436 265.249 443.91 266.555 443.391 267.649C442.129 270.312 439.034 278.154 439.884 282.399C440.121 283.587 439.345 284.74 438.147 284.975C438.002 285.005 437.856 285.018 437.714 285.018Z" fill="white"/>
<path d="M476.542 381.516C476.494 381.516 476.448 381.515 476.399 381.511C475.182 381.435 474.258 380.393 474.336 379.184C475.182 366.06 482.958 353.994 483.288 353.486C483.949 352.47 485.317 352.18 486.34 352.836C487.365 353.491 487.659 354.847 486.999 355.864C486.924 355.98 479.517 367.501 478.746 379.466C478.672 380.625 477.698 381.516 476.542 381.516Z" fill="white"/>
<path d="M622.177 189.26C621.94 189.26 621.705 189.255 621.467 189.244C620.247 189.188 619.304 188.164 619.36 186.955C619.417 185.745 620.456 184.839 621.669 184.866C633.831 185.398 644.075 166.021 644.18 165.826C644.737 164.75 646.071 164.328 647.154 164.882C648.24 165.436 648.666 166.757 648.106 167.832C647.643 168.72 636.796 189.26 622.177 189.26Z" fill="white"/>
<path d="M604.417 227.357C603.76 227.357 603.11 227.067 602.676 226.513C595.461 217.338 601.201 201.267 601.449 200.587C601.864 199.45 603.127 198.86 604.275 199.271C605.423 199.682 606.018 200.937 605.605 202.075C605.554 202.22 600.448 216.554 606.158 223.82C606.91 224.774 606.738 226.15 605.776 226.894C605.371 227.206 604.893 227.357 604.417 227.357Z" fill="white"/>
<path d="M592.473 283.084C592.213 283.084 591.948 283.038 591.689 282.94C590.55 282.51 589.975 281.246 590.409 280.114C596.187 265.038 610.288 255.404 610.885 255C611.889 254.325 613.266 254.579 613.953 255.58C614.639 256.58 614.379 257.942 613.372 258.624C613.237 258.715 599.814 267.912 594.54 281.669C594.203 282.545 593.364 283.084 592.473 283.084Z" fill="white"/>
<path d="M436.475 534.464C431.289 534.464 427.07 529.833 427.07 524.141C427.07 518.449 431.289 513.818 436.475 513.818C441.66 513.818 445.878 518.449 445.878 524.141C445.878 529.833 441.66 534.464 436.475 534.464ZM436.475 515.123C432.009 515.123 428.376 519.168 428.376 524.14C428.376 529.113 432.009 533.159 436.475 533.159C440.94 533.159 444.573 529.113 444.573 524.14C444.573 519.168 440.94 515.123 436.475 515.123Z" fill="#0C2C00"/>
<path d="M512.204 509.576C511.943 517.795 507.425 525.838 502.353 532.431C499.161 533.025 495.734 531.987 492.15 528.919C500.858 527.829 503.901 517.821 497.595 515.426C491.282 513.036 486.497 517.821 486.497 517.821C462.108 522.554 446.571 522.313 436.668 520.073C436.661 520.079 436.654 520.073 436.654 520.073C433.939 519.46 431.654 518.702 429.722 517.853C429.715 517.847 429.715 517.847 429.709 517.847C427.953 516.528 426.693 514.452 427.241 511.162C433.594 491.316 452.649 480.199 471.711 481.785C474.884 460.347 508.236 442.871 526.502 464.316C544.76 485.755 527.291 505.607 512.204 509.576Z" fill="#0C2C00"/>
<path d="M527.056 528.345C523.87 534.377 520.136 543.15 516.089 553.726C509.345 571.353 477.135 608.778 470.392 600.944C463.648 593.11 460.162 561.56 461.689 557.643C463.21 553.726 466.775 547.831 463.974 548.288C455.291 549.698 449.025 546.512 445.35 543.666C445.428 543.692 445.48 543.712 445.493 543.718C444.762 543.19 444.083 542.628 443.463 542.047C442.973 541.584 442.575 541.165 442.281 540.826C442.157 540.689 442.04 540.545 441.916 540.408C441.883 540.369 441.85 540.33 441.825 540.297C441.812 540.291 441.805 540.284 441.799 540.271C441.655 540.095 441.557 539.971 441.524 539.925C441.511 539.906 441.504 539.899 441.504 539.899C434.995 531.602 436.667 520.073 436.667 520.073C446.57 522.312 462.107 522.553 486.497 517.821C486.497 517.821 491.282 513.036 497.594 515.425C503.9 517.821 500.858 527.829 492.15 528.918C495.733 531.987 499.161 533.025 502.353 532.431C492.247 545.585 489.055 547.679 494.734 544.514C505.839 538.169 516.35 529.252 527.056 528.345Z" fill="#FFEE9F"/>
<path d="M563.718 696.268C541.561 680.203 514.678 681.913 497.941 685.001C496.132 708.053 493.338 733.936 489.107 754.539C489.14 753.788 489.179 753.364 489.179 753.364C489.179 753.364 454.24 763.685 436.765 761.302C430.707 760.473 403.373 758.886 369.845 757.189C364.048 716.506 366.222 649.566 367.958 614.471C374.754 613.308 383.841 605.566 398.653 585.813C431.849 541.544 443.802 543.203 445.336 543.66C445.342 543.666 445.342 543.666 445.349 543.666C449.024 546.512 455.291 549.698 463.974 548.288C466.775 547.831 463.21 553.726 461.689 557.643C460.161 561.56 463.647 593.111 470.391 600.945C477.135 608.778 509.345 571.352 516.088 553.727C520.136 543.151 523.87 534.378 527.055 528.345C537.788 527.431 548.722 534.567 560.643 560.399C573.981 589.292 569.893 648.79 563.718 696.268Z" fill="#0C2C00"/>
<path d="M369.843 757.19C358.21 756.603 345.832 756.009 333.338 755.428C314.478 754.547 295.35 753.698 278.142 752.98C244.856 751.596 218.729 750.702 215.472 750.982C214.865 751.035 214.062 751.125 213.083 751.263C196.6 744.369 190.065 730.125 215.472 697.778C220.826 690.962 226.59 685.191 232.628 680.341C200.869 671.273 174.579 653.849 158.677 641.407C171.649 598.706 192.062 542.283 215.472 528.639C237.015 515.321 259.361 521.4 279.441 534.325C303.243 549.64 323.866 574.571 336.204 588.216C338.907 591.205 341.211 593.653 343.065 595.338C353.295 604.634 358.348 616.111 367.957 614.471C366.22 649.568 364.046 716.507 369.843 757.19Z" fill="#4BA3BC"/>
<path d="M232.629 680.34C226.59 685.19 220.826 690.961 215.473 697.777C190.065 730.124 196.6 744.368 213.084 751.262C199.14 753.188 149.996 762.992 137.09 764.475C123.276 766.068 86.5753 781.951 85.7851 747.802C84.9886 713.66 140.576 706.512 140.576 706.512C140.576 706.512 139.78 704.129 144.545 690.629C146.275 685.72 151.262 665.802 158.678 641.406C174.581 653.848 200.87 671.272 232.629 680.34Z" fill="#0C2C00"/>
<path d="M333.338 755.428C314.478 754.547 295.35 753.699 278.142 752.98C280.172 736.196 281.595 711.004 280.792 697.791C279.572 677.573 232.628 680.341 242.668 673.232C252.702 666.129 255.581 623.024 242.472 608.551C229.357 594.071 223.266 570.146 232.268 561.581C241.264 553.009 266.509 566.059 274.316 556.985C279.297 551.188 279.754 540.958 279.44 534.326C303.242 549.641 323.865 574.572 336.203 588.216C336.445 642.269 334.748 709.705 333.338 755.428Z" fill="#00748C"/>
<path d="M563.718 696.268C558.861 733.609 552.705 763.522 552.705 765.271C552.705 769.241 511.029 786.26 499.115 781.494C488.814 777.381 488.899 759.37 489.107 754.552C489.114 754.552 489.114 754.546 489.107 754.539C493.338 733.936 496.132 708.053 497.941 685.001C514.678 681.913 541.561 680.203 563.718 696.268Z" fill="#FFEE9F"/>
<path d="M232.63 680.993C232.439 680.993 232.249 680.909 232.12 680.75C231.895 680.468 231.94 680.057 232.22 679.832C260.892 656.784 295.837 654.525 320.103 656.69C346.361 659.032 366.126 666.92 366.322 666.999C366.657 667.134 366.818 667.514 366.683 667.848C366.549 668.182 366.169 668.343 365.834 668.21C365.638 668.131 346.023 660.307 319.95 657.988C295.934 655.848 261.361 658.084 233.039 680.85C232.918 680.946 232.774 680.993 232.63 680.993Z" fill="white"/>
<path d="M497.941 685.654C497.924 685.654 497.906 685.653 497.889 685.652C497.53 685.623 497.261 685.309 497.29 684.949C499.753 653.714 500.427 627.349 500.435 627.087C500.444 626.726 500.751 626.441 501.103 626.45C501.464 626.459 501.748 626.759 501.74 627.119C501.733 627.382 501.058 653.78 498.592 685.052C498.564 685.395 498.278 685.654 497.941 685.654Z" fill="white"/>
<path d="M399.453 592.672C399.453 592.672 410.33 600.253 414.9 607.881C419.47 615.509 413.895 586.106 413.895 586.106C413.895 586.106 436.277 603.214 439.297 612.103C442.318 620.992 445.883 603.475 451.608 612.103C457.333 620.731 459.291 631.326 455.374 637.453C451.457 643.58 428.66 656.636 410.356 655.331C392.052 654.025 385.315 653.324 382.807 648.779C380.3 644.233 380.785 643.834 379.647 640.623C378.51 637.412 388.888 607.881 388.888 607.881C388.888 607.881 390.899 606.254 391.641 607.881" fill="#FFEE9F"/>
<path d="M313.561 651.863V780.781L286.723 740.494V614.799C286.723 622.856 313.561 651.863 313.561 651.863Z" fill="#8CB369"/>
<path d="M450.134 614.799V651.863H313.561C313.561 651.863 286.723 622.857 286.723 614.799H450.134Z" fill="#0C2C00"/>
<path d="M490.679 724.436V780.781H313.561V651.863L331.143 716.322L450.134 722.373L490.679 724.436Z" fill="#0C2C00"/>
<path d="M521.297 725.991L490.679 724.436L325.903 725.991L313.561 651.863H490.679L521.297 725.991Z" fill="#8CB369"/>
<path d="M286.723 614.799V670.394H248.957L286.723 614.799Z" fill="#0C2C00"/>
<path d="M490.679 651.863H450.134V614.799L490.679 651.863Z" fill="#0C2C00"/>
<path d="M289.995 491.903C315.331 508.501 332.951 526.13 345.113 543.37C384.089 598.67 366.774 649.953 366.774 649.953C366.774 649.953 296.691 628.377 285.469 555.902C282.668 537.869 283.515 516.69 289.995 491.903Z" fill="#8CB369"/>
<path d="M345.113 543.37C384.089 598.67 366.774 649.953 366.774 649.953C366.774 649.953 296.691 628.377 285.469 555.902C330.182 581.253 309.246 547.802 316.642 544.121C324.342 540.288 329.078 537.14 345.113 543.37Z" fill="#0C2C00"/>
<path d="M367.379 649.471L366.166 650.426C366.107 650.351 360.179 642.79 351.748 630.534C331.14 600.585 295.616 542.764 289.229 492.001L290.76 491.809C297.107 542.247 332.491 599.827 353.019 629.661C361.422 641.871 367.321 649.396 367.379 649.471Z" fill="#0C2C00"/>
<path d="M360.187 569.063L339.774 610.202L338.391 609.516L358.801 568.377L360.187 569.063Z" fill="#0C2C00"/>
<path d="M354.921 558.254L336.157 604.264L334.726 603.681L353.494 557.672L354.921 558.254Z" fill="#0C2C00"/>
<path d="M287.158 562.56L286.479 563.946L321.559 581.121L322.238 579.734L287.158 562.56Z" fill="#0C2C00"/>
<path d="M311.182 557.212L309.777 557.851L310.48 557.532L309.779 557.856C309.012 556.376 295.953 549.234 283.771 543.185L284.459 541.8C288.71 543.914 309.988 554.584 311.182 557.212Z" fill="#0C2C00"/>
<path d="M319.168 514.499L302.773 540.641L304.081 541.461L320.475 515.319L319.168 514.499Z" fill="#0C2C00"/>
<path d="M314.832 615.212L314.462 616.711L348.273 625.066L348.643 623.568L314.832 615.212Z" fill="#0C2C00"/>
<path d="M346.876 545.162L328.668 591.578L327.232 591.013L345.44 544.598L346.876 545.162Z" fill="#0C2C00"/>
<path d="M303.041 568.285C361.273 597.843 370.218 649.34 370.218 649.34C370.218 649.34 330.531 657.343 292.283 637.201C266.832 623.793 242.016 597.938 229.942 548.988C260.34 551.492 284.257 558.745 303.041 568.285Z" fill="#8CB369"/>
<path d="M303.041 568.285C361.273 597.843 370.218 649.34 370.218 649.34C370.218 649.34 330.531 657.343 292.283 637.201C307.508 639.367 308.844 627.625 315.866 623.777C324.92 618.816 298.943 610.383 303.041 568.285Z" fill="#0C2C00"/>
<path d="M370.522 648.633L369.913 650.052C369.824 650.015 361.171 646.272 348.152 639.649C316.344 623.468 258.611 590.235 229.317 549.441L230.571 548.54C259.674 589.068 317.171 622.156 348.852 638.273C361.824 644.87 370.437 648.599 370.522 648.633Z" fill="#0C2C00"/>
<path d="M328.319 627.706L326.778 627.762L325.112 582.716L326.654 582.658L328.319 627.706Z" fill="#0C2C00"/>
<path d="M317.02 575.789L315.487 575.96L320.891 624.432L322.425 624.261L317.02 575.789Z" fill="#0C2C00"/>
<path d="M298.911 609.606L260.606 611.228L260.671 612.771L298.976 611.149L298.911 609.606Z" fill="#0C2C00"/>
<path d="M278.826 595.386L277.896 596.618L278.361 596.003L277.899 596.62C276.533 595.706 261.93 595.662 248.601 596.153L248.545 594.61C255.09 594.37 276.617 593.717 278.826 595.386Z" fill="#0C2C00"/>
<path d="M267.225 554.897L265.686 554.799L263.772 585.028L265.311 585.125L267.225 554.897Z" fill="#0C2C00"/>
<path d="M342.196 635.064L309.115 643.693L309.504 645.188L342.585 636.558L342.196 635.064Z" fill="#0C2C00"/>
<path d="M310.015 616.842L308.485 617.035L302.442 568.468L303.973 568.276L310.015 616.842Z" fill="#0C2C00"/>
<path d="M370.834 650.159C370.834 650.159 291.699 625.8 315.247 535.736C392.412 586.27 370.834 650.159 370.834 650.159Z" fill="#8CB369"/>
<path d="M371.441 649.683L370.228 650.636C370.185 650.583 365.89 645.104 359.78 636.223C344.85 614.525 319.112 572.626 314.482 535.833L316.013 535.64C320.603 572.109 346.201 613.765 361.052 635.35C367.132 644.186 371.398 649.63 371.441 649.683Z" fill="#0C2C00"/>
<path d="M364.887 591.02L350.107 620.804L351.49 621.49L366.269 591.706L364.887 591.02Z" fill="#0C2C00"/>
<path d="M361.019 583.291L347.432 616.6L348.86 617.183L362.448 583.874L361.019 583.291Z" fill="#0C2C00"/>
<path d="M313.303 586.694L312.623 588.08L338.013 600.535L338.693 599.149L313.303 586.694Z" fill="#0C2C00"/>
<path d="M330.782 582.932L329.375 583.569L329.385 583.59C328.69 582.474 319.313 577.356 310.647 573.052L311.334 571.671C316.898 574.433 329.932 581.062 330.782 582.932Z" fill="#0C2C00"/>
<path d="M337.492 552.791L325.622 571.717L324.313 570.899L336.182 551.971L337.492 552.791Z" fill="#0C2C00"/>
<path d="M357.757 630.846L357.388 632.347L332.907 626.295L333.278 624.797L357.757 630.846Z" fill="#0C2C00"/>
<path d="M356.628 574.37L343.445 607.974L342.009 607.413L355.191 573.806L356.628 574.37Z" fill="#0C2C00"/>
<path d="M253.92 557.999C253.914 558.069 253.901 558.14 253.885 558.207C253.685 559.036 252.852 559.547 252.023 559.346C249.053 558.634 246.205 557.969 243.995 557.655C243.15 557.534 242.556 556.768 242.682 555.91C242.802 555.065 243.583 554.477 244.426 554.598C246.772 554.929 249.701 555.613 252.745 556.346C253.505 556.529 253.997 557.245 253.92 557.999Z" fill="white"/>
<path d="M248.402 582.51C248.355 582.981 248.094 583.423 247.656 583.685C246.925 584.119 245.976 583.879 245.541 583.146C242.85 578.624 240.615 574.291 238.898 570.268C237.852 567.822 237.099 565.795 236.593 564.079C236.35 563.262 236.818 562.402 237.639 562.161C238.456 561.921 239.314 562.39 239.554 563.209C240.025 564.808 240.739 566.721 241.736 569.055C243.401 572.951 245.574 577.161 248.193 581.567C248.369 581.862 248.435 582.193 248.402 582.51Z" fill="white"/>
<path d="M263.633 603.546C263.603 603.843 263.488 604.133 263.281 604.38C262.736 605.033 261.762 605.121 261.108 604.573C259.833 603.507 255.921 598.723 251.822 592.857C251.334 592.157 251.505 591.194 252.205 590.707C252.902 590.219 253.865 590.39 254.354 591.088C258.912 597.616 262.402 601.628 263.088 602.206C263.495 602.547 263.683 603.054 263.633 603.546Z" fill="white"/>
<path d="M291.916 536.259C291.839 537.015 291.213 537.616 290.433 537.644C289.581 537.674 288.866 537.007 288.836 536.155C288.767 534.176 288.719 532.214 288.693 530.327C288.684 529.474 289.364 528.773 290.215 528.763C291.068 528.75 291.769 529.434 291.78 530.285C291.806 532.151 291.854 534.088 291.922 536.047C291.925 536.12 291.923 536.19 291.916 536.259Z" fill="white"/>
<path d="M316.924 566.255C316.851 566.983 316.263 567.578 315.506 567.637C314.658 567.704 313.916 567.066 313.85 566.214C313.686 564.086 313.571 561.941 313.509 559.832C313.495 558.979 314.155 558.27 315.007 558.243C315.86 558.217 316.57 558.89 316.595 559.741C316.656 561.8 316.768 563.899 316.927 565.98C316.934 566.072 316.934 566.165 316.924 566.255Z" fill="white"/>
<path d="M319.692 584.78C319.628 585.422 319.16 585.98 318.496 586.129C317.662 586.316 316.838 585.793 316.651 584.961C316.479 584.198 316.313 583.423 316.152 582.64C315.984 581.804 316.521 580.989 317.357 580.819C318.193 580.648 319.007 581.189 319.178 582.024C319.333 582.788 319.496 583.541 319.664 584.285C319.7 584.451 319.709 584.617 319.692 584.78Z" fill="white"/>
<path d="M330.951 615.254C330.902 615.742 330.62 616.198 330.159 616.453C329.409 616.863 328.473 616.592 328.062 615.844C327.722 615.225 327.355 614.543 326.969 613.797C326.578 613.04 326.875 612.11 327.632 611.719C328.391 611.327 329.321 611.625 329.712 612.382C330.086 613.102 330.438 613.76 330.766 614.357C330.925 614.642 330.982 614.956 330.951 615.254Z" fill="white"/>
<path d="M333.397 619.39C333.35 619.85 333.095 620.285 332.671 620.549C331.947 620.996 330.994 620.772 330.548 620.045L330.427 619.857C330.064 619.283 329.215 617.943 328.063 615.846C327.652 615.1 327.924 614.159 328.67 613.747C329.418 613.336 330.357 613.61 330.767 614.357C331.874 616.37 332.69 617.657 333.037 618.206L333.174 618.423C333.359 618.724 333.429 619.063 333.397 619.39Z" fill="white"/>
<path d="M242.51 581.66C242.469 582.063 242.217 582.433 241.818 582.605C241.231 582.86 240.549 582.59 240.296 582.003C235.023 569.793 232.297 561.658 232.267 561.578C232.067 560.97 232.395 560.315 233 560.112C233.607 559.91 234.263 560.239 234.467 560.845C234.491 560.925 237.19 568.976 242.422 581.084C242.503 581.272 242.53 581.47 242.51 581.66Z" fill="#0C2C00"/>
<path d="M261.343 612.481C261.315 612.764 261.182 613.038 260.95 613.239C260.468 613.657 259.736 613.607 259.317 613.122C256.471 609.842 253.794 606.348 251.358 602.743C250.999 602.212 251.14 601.493 251.67 601.136C252.198 600.777 252.919 600.915 253.277 601.447C255.661 604.975 258.282 608.394 261.067 611.605C261.284 611.856 261.375 612.176 261.343 612.481Z" fill="#0C2C00"/>
<path d="M274.641 625.373C274.619 625.591 274.535 625.804 274.387 625.986C273.984 626.483 273.255 626.558 272.759 626.155C269.749 623.708 266.831 621.055 264.083 618.273C263.633 617.819 263.639 617.087 264.094 616.637C264.549 616.187 265.283 616.192 265.732 616.647C268.421 619.37 271.276 621.964 274.22 624.358C274.534 624.612 274.679 624.998 274.641 625.373Z" fill="#0C2C00"/>
<path d="M293.434 637.318C293.423 637.426 293.396 637.534 293.351 637.641C293.109 638.233 292.431 638.512 291.841 638.27C291.666 638.198 287.488 636.457 281.317 632.418C280.783 632.067 280.633 631.349 280.981 630.816C281.333 630.28 282.049 630.131 282.585 630.48C288.556 634.389 292.683 636.113 292.724 636.128C293.208 636.33 293.485 636.82 293.434 637.318Z" fill="#0C2C00"/>
<path d="M313.578 581.45C313.527 581.956 313.145 582.384 312.62 582.474C311.99 582.58 311.391 582.155 311.285 581.525C310.25 575.406 309.763 569.006 309.833 562.5C309.847 561.863 310.364 561.347 311.004 561.355C311.644 561.363 312.156 561.887 312.15 562.527C312.078 568.895 312.557 575.158 313.569 581.139C313.585 581.245 313.589 581.348 313.578 581.45Z" fill="#0C2C00"/>
<path d="M326.49 615.327C326.456 615.666 326.273 615.988 325.963 616.185C325.424 616.53 324.708 616.374 324.363 615.834C320.681 610.086 317.646 603.841 315.338 597.276C315.125 596.671 315.441 596.01 316.044 595.799C316.65 595.588 317.311 595.903 317.521 596.507C319.772 602.905 322.728 608.987 326.312 614.585C326.458 614.816 326.515 615.076 326.49 615.327Z" fill="#0C2C00"/>
<path d="M342.739 633.632C342.72 633.824 342.652 634.014 342.532 634.182C342.164 634.704 341.441 634.828 340.919 634.458C340.715 634.314 335.875 630.846 330.008 623.64C329.604 623.144 329.675 622.415 330.173 622.011C330.669 621.606 331.397 621.682 331.801 622.177C337.473 629.142 342.211 632.534 342.258 632.568C342.612 632.818 342.78 633.231 342.739 633.632Z" fill="#0C2C00"/>
<path d="M537.05 615.614C537.07 615.462 537.134 615.316 537.245 615.194C540.568 611.465 542.345 608.915 542.363 608.89C542.612 608.531 543.106 608.441 543.465 608.69C543.825 608.939 543.914 609.434 543.665 609.793C543.591 609.899 541.822 612.438 538.427 616.247C538.136 616.575 537.635 616.602 537.309 616.311C537.104 616.13 537.016 615.866 537.05 615.614Z" fill="#FFEE9F"/>
<path d="M530.089 600.517C536.493 601.291 543.35 602.756 550.681 605.047C510.878 659.992 465.674 653.235 452.622 649.822C450.226 649.199 448.916 648.685 448.916 648.685C448.916 648.685 461.355 614.151 496.591 603.158L496.595 603.16C506.052 600.208 517.15 598.954 530.089 600.517Z" fill="#8CB369"/>
<path d="M452.622 649.822C450.226 649.199 448.916 648.685 448.916 648.685C448.916 648.685 461.355 614.15 496.591 603.158L496.595 603.159C496.595 603.159 479.372 636.756 472.333 642.794C468.121 646.407 459.152 648.625 452.622 649.822Z" fill="#0C2C00"/>
<path d="M448.522 648.633C448.551 648.419 448.553 648.401 452.138 645.995C454.171 644.631 457.468 642.465 461.631 639.88C481.088 627.801 518.525 607.165 550.65 604.651L550.711 605.442C518.755 607.941 481.445 628.513 462.048 640.553C453.993 645.552 449.192 648.974 449.146 649.007L448.917 648.686L448.522 648.633Z" fill="#0C2C00"/>
<path d="M500.056 646.873L500.441 646.182L475.148 632.118L474.764 632.809L500.056 646.873Z" fill="#0C2C00"/>
<path d="M507.005 643.871L507.339 643.152L478.941 629.956L478.607 630.675L507.005 643.871Z" fill="#0C2C00"/>
<path d="M494.387 622.692L506.239 601.12L505.543 600.738L493.691 622.31L494.387 622.692Z" fill="#0C2C00"/>
<path d="M508.614 615.624C509.578 615.24 514.512 607.108 518.664 599.652L519.358 600.037C517.904 602.646 510.57 615.7 508.907 616.361L508.614 615.624Z" fill="#0C2C00"/>
<path d="M535.075 623.455L535.527 622.805L519.557 611.707L519.105 612.357L535.075 623.455Z" fill="#0C2C00"/>
<path d="M465.965 638.029L472.231 616.994L471.473 616.768L465.207 637.803L465.965 638.029Z" fill="#0C2C00"/>
<path d="M515.509 639.22L515.833 638.498L487.166 625.638L486.842 626.36L515.509 639.22Z" fill="#0C2C00"/>
<path d="M472.009 610.693C475.477 609.294 479.451 608.183 484.009 607.46C477.451 646.435 448.666 648.958 448.666 648.958C448.666 648.958 445.497 621.392 472.009 610.693Z" fill="#8CB369"/>
<path d="M448.317 648.77C448.331 648.744 449.742 646.115 452.178 642.187C458.128 632.591 470.15 615.274 483.806 607.119L484.212 607.8C470.701 615.867 458.764 633.07 452.851 642.605C450.43 646.511 449.029 649.119 449.016 649.144L448.317 648.77Z" fill="#0C2C00"/>
<path d="M456.567 636.497L470.798 637.173L470.836 636.382L456.604 635.706L456.567 636.497Z" fill="#0C2C00"/>
<path d="M457.823 634.714L473.233 634.317L473.213 633.526L457.803 633.923L457.823 634.714Z" fill="#0C2C00"/>
<path d="M462.407 627.527L463.199 627.561L463.725 615.456L462.933 615.421L462.407 627.527Z" fill="#0C2C00"/>
<path d="M468.507 612.071L469.298 612.108C469.171 614.775 468.808 621.048 468.208 621.718L467.618 621.188L467.606 621.205C467.921 620.705 468.311 616.168 468.507 612.071Z" fill="#0C2C00"/>
<path d="M481.154 619.167L481.269 618.382L471.798 616.995L471.683 617.78L481.154 619.167Z" fill="#0C2C00"/>
<path d="M453.281 640.637L454.062 640.501L452.21 629.855L451.428 629.991L453.281 640.637Z" fill="#0C2C00"/>
<path d="M460.535 631.015L475.99 630.409L475.959 629.618L460.504 630.224L460.535 631.015Z" fill="#0C2C00"/>
<path d="M491.042 645.539C491.083 645.235 491.297 644.97 491.611 644.88C493.593 644.317 495.593 643.665 497.555 642.944C497.966 642.793 498.42 643.003 498.573 643.414C498.724 643.824 498.513 644.279 498.102 644.431C496.103 645.167 494.065 645.831 492.043 646.405C491.622 646.525 491.184 646.28 491.066 645.859C491.035 645.751 491.027 645.642 491.042 645.539Z" fill="white"/>
<path d="M502.244 641.471C502.279 641.207 502.447 640.967 502.708 640.85C504.813 639.916 506.927 638.876 508.989 637.761C509.374 637.553 509.855 637.696 510.063 638.081C510.271 638.465 510.128 638.947 509.744 639.155C507.643 640.29 505.493 641.348 503.351 642.299C502.952 642.477 502.483 642.297 502.306 641.897C502.244 641.758 502.225 641.611 502.244 641.471Z" fill="white"/>
<path d="M512.73 635.972C512.761 635.743 512.891 635.528 513.104 635.399C519.779 631.345 526.141 626.386 532.017 620.655C532.33 620.349 532.833 620.355 533.138 620.668C533.443 620.983 533.437 621.484 533.124 621.79C527.162 627.604 520.704 632.638 513.928 636.754C513.553 636.981 513.066 636.862 512.838 636.488C512.741 636.327 512.708 636.145 512.73 635.972Z" fill="white"/>
<path d="M462.924 641.262C462.948 641.075 463.041 640.895 463.196 640.763C465.617 638.708 468.328 635.592 471.256 631.502C471.511 631.145 472.006 631.063 472.362 631.318C472.718 631.573 472.8 632.067 472.545 632.424C469.54 636.62 466.74 639.832 464.22 641.969C463.887 642.253 463.387 642.213 463.104 641.878C462.954 641.702 462.895 641.477 462.924 641.262Z" fill="white"/>
<path d="M472.615 628.139C472.627 628.044 472.658 627.951 472.706 627.863C474.333 624.883 475.979 621.578 477.597 618.038C477.78 617.64 478.25 617.465 478.648 617.647C479.046 617.829 479.222 618.299 479.039 618.698C477.404 622.27 475.742 625.609 474.098 628.623C473.888 629.007 473.406 629.148 473.021 628.939C472.726 628.776 472.573 628.452 472.615 628.139Z" fill="white"/>
<path d="M478.955 615.071C478.964 615 478.985 614.929 479.015 614.86C479.99 612.617 480.559 611.178 480.564 611.164C480.725 610.756 481.186 610.557 481.591 610.717C481.998 610.878 482.201 611.339 482.038 611.746C482.033 611.76 481.454 613.222 480.468 615.492C480.294 615.893 479.827 616.076 479.425 615.902C479.094 615.759 478.909 615.414 478.955 615.071Z" fill="white"/>
<path d="M493.396 603.955C493.42 603.78 493.521 603.616 493.685 603.52C495.698 602.342 498.459 601.424 501.891 600.791C502.213 600.732 502.524 600.945 502.583 601.267C502.644 601.59 502.429 601.9 502.106 601.96C498.81 602.568 496.178 603.438 494.285 604.547C494.003 604.712 493.638 604.617 493.472 604.333C493.402 604.214 493.379 604.082 493.396 603.955Z" fill="#0C2C00"/>
<path d="M507.917 600.486C507.954 600.214 508.176 599.994 508.461 599.972C513.191 599.613 518.784 599.599 525.083 599.932C525.411 599.949 525.662 600.228 525.644 600.557C525.622 600.881 525.348 601.136 525.019 601.119C518.772 600.79 513.231 600.803 508.551 601.159C508.225 601.183 507.938 600.938 507.913 600.611C507.91 600.567 507.912 600.527 507.917 600.486Z" fill="#0C2C00"/>
<path d="M531.822 600.968C531.863 600.653 532.145 600.425 532.462 600.455C539.744 601.091 545.127 601.913 545.18 601.92C545.5 601.97 545.721 602.266 545.678 602.587C545.678 602.587 545.677 602.594 545.677 602.598C545.628 602.922 545.324 603.144 545 603.095C544.946 603.088 539.6 602.271 532.359 601.638C532.032 601.61 531.79 601.322 531.819 600.995C531.82 600.985 531.821 600.976 531.822 600.968Z" fill="#0C2C00"/>
<path d="M453.495 625.571C453.505 625.492 453.531 625.415 453.575 625.343C454.609 623.624 455.832 621.971 457.213 620.431C457.432 620.187 457.808 620.168 458.053 620.386C458.295 620.606 458.318 620.981 458.098 621.226C456.768 622.71 455.589 624.3 454.593 625.955C454.425 626.236 454.059 626.327 453.778 626.158C453.569 626.032 453.464 625.798 453.495 625.571Z" fill="#0C2C00"/>
<path d="M462.888 615.551C462.909 615.396 462.991 615.249 463.13 615.148C471.288 609.258 479.868 607.549 480.229 607.479C480.552 607.417 480.863 607.628 480.925 607.95C480.987 608.271 480.776 608.584 480.456 608.646C480.369 608.663 471.762 610.381 463.825 616.112C463.559 616.305 463.188 616.245 462.995 615.979C462.903 615.85 462.869 615.698 462.888 615.551Z" fill="#0C2C00"/>
<path d="M460.727 785.724C463.009 788.515 473.279 783.89 483.666 775.395C494.052 766.899 500.621 757.75 498.338 754.96C496.056 752.169 485.786 756.794 475.4 765.289C465.013 773.785 458.444 782.934 460.727 785.724Z" fill="#FFEE9F"/>
<path d="M551.555 807.386C555.279 805.98 554.055 793.606 548.821 779.749C543.588 765.892 536.327 755.799 532.604 757.205C528.881 758.611 530.105 770.984 535.338 784.841C540.571 798.698 547.832 808.792 551.555 807.386Z" fill="#FFEE9F"/>
<path d="M557.962 790.598C560.344 789.698 559.561 781.784 556.213 772.921C552.866 764.057 548.222 757.601 545.841 758.5C543.459 759.4 544.242 767.314 547.59 776.177C550.937 785.041 555.581 791.497 557.962 790.598Z" fill="#FFEE9F"/>
<path d="M487.005 813.257C491.595 815.001 500.577 802.565 507.067 785.481C513.557 768.397 515.097 753.134 510.507 751.39C505.917 749.647 496.935 762.083 490.445 779.167C483.955 796.251 482.415 811.514 487.005 813.257Z" fill="#FFEE9F"/>
<path d="M534.072 779.952C529.183 762.342 521.385 749.13 516.654 750.445C511.923 751.757 512.051 767.098 516.938 784.707C521.825 802.317 529.624 815.527 534.355 814.213C539.087 812.901 538.96 797.561 534.072 779.952Z" fill="#FFEE9F"/>
<path d="M448.064 627.326C451.621 626.742 452.745 615.535 450.572 602.293C448.4 589.051 443.754 578.79 440.196 579.374C436.639 579.958 435.516 591.165 437.688 604.407C439.861 617.648 444.506 627.91 448.064 627.326Z" fill="#FFEE9F"/>
<path d="M424.118 638.099C427.976 637.339 428.81 625.084 425.981 610.727C423.152 596.369 417.732 585.347 413.874 586.107C410.017 586.867 409.183 599.122 412.012 613.479C414.84 627.836 420.261 638.859 424.118 638.099Z" fill="#FFEE9F"/>
<path d="M396.948 640.598C400.505 640.783 403.948 630.2 404.638 616.96C405.327 603.719 403.002 592.836 399.445 592.65C395.887 592.465 392.444 603.048 391.755 616.289C391.065 629.529 393.39 640.413 396.948 640.598Z" fill="#FFEE9F"/>
<path d="M378.525 637.398C380.99 638.035 384.911 631.117 387.285 621.944C389.658 612.772 389.584 604.82 387.12 604.182C384.656 603.545 380.734 610.463 378.361 619.635C375.987 628.808 376.061 636.76 378.525 637.398Z" fill="#FFEE9F"/>
<path d="M490.366 526.077C490.096 526.077 489.843 525.907 489.749 525.638C488.832 522.987 488.936 520.917 490.061 519.489C491.849 517.217 495.497 517.539 495.652 517.555C496.01 517.589 496.273 517.907 496.239 518.266C496.205 518.624 495.885 518.883 495.528 518.854C495.497 518.851 492.427 518.588 491.084 520.3C490.255 521.357 490.22 523.01 490.983 525.211C491.101 525.551 490.92 525.924 490.58 526.042C490.509 526.065 490.437 526.077 490.366 526.077Z" fill="#0C2C00"/>
<path d="M442.429 536.975C440.899 536.975 438.65 536.173 438.019 535.465C437.63 535.03 437.601 534.487 437.945 534.079C438.287 533.351 438.146 527.274 437.793 521.847C437.769 521.487 438.042 521.176 438.402 521.153C438.763 521.137 439.072 521.403 439.096 521.762C439.431 526.917 439.685 533.169 439.076 534.684C439.696 535.218 442.308 535.9 442.853 535.629C443.153 535.43 443.554 535.512 443.754 535.813C443.954 536.113 443.868 536.521 443.568 536.721C443.302 536.899 442.899 536.975 442.429 536.975Z" fill="#0C2C00"/>
<path d="M486.476 773.69C486.276 773.69 486.079 773.599 485.951 773.425C485.737 773.136 485.797 772.727 486.086 772.513C497.952 763.708 497.298 754.331 497.29 754.238C497.26 753.879 497.525 753.563 497.883 753.531C498.242 753.503 498.558 753.763 498.59 754.122C498.628 754.533 499.356 764.291 486.864 773.561C486.747 773.647 486.611 773.69 486.476 773.69Z" fill="#0C2C00"/>
<path d="M535.331 785.536C535.034 785.536 534.765 785.332 534.696 785.03C534.194 782.849 529.791 763.676 529.788 761.66C529.785 760.057 525.807 752.474 521.177 751.604C519.429 751.276 518.537 752.804 517.551 754.835C516.949 756.075 516.466 757.022 515.549 757.035C514.767 757.02 514.146 756.293 513.334 754.443C512.617 752.81 511.715 751.874 510.65 751.665C508.571 751.251 506.172 753.565 505.269 754.436L505.034 754.66C504.77 754.905 504.358 754.89 504.112 754.627C503.866 754.363 503.881 753.949 504.145 753.703L504.363 753.495C505.4 752.496 508.156 749.837 510.904 750.383C512.412 750.682 513.631 751.871 514.53 753.919C515.097 755.212 515.433 755.591 515.563 755.698C515.783 755.489 516.136 754.761 516.377 754.264C517.244 752.48 518.555 749.783 521.419 750.322C526.732 751.319 531.09 759.325 531.094 761.658C531.097 763.072 534.01 776.234 535.969 784.736C536.05 785.088 535.83 785.438 535.479 785.519C535.429 785.53 535.38 785.536 535.331 785.536Z" fill="#0C2C00"/>
<path d="M544.454 770.601C544.26 770.601 544.068 770.515 543.94 770.35C542.866 768.977 541.354 765.29 539.892 761.724C538.865 759.221 537.896 756.857 537.258 755.755C537.134 755.542 536.999 755.501 536.872 755.49C535.532 755.38 532.362 758.341 530.536 760.489C530.303 760.763 529.891 760.797 529.616 760.563C529.342 760.33 529.308 759.918 529.542 759.643C530.348 758.693 534.498 753.968 536.989 754.19C537.59 754.244 538.074 754.559 538.388 755.101C539.07 756.28 540.056 758.684 541.1 761.229C542.462 764.551 544.006 768.315 544.969 769.547C545.191 769.831 545.14 770.241 544.856 770.463C544.737 770.556 544.595 770.601 544.454 770.601Z" fill="#0C2C00"/>
<path d="M558.567 781.434C558.249 781.434 557.971 781.202 557.922 780.879C555.382 763.938 544.259 757.827 544.147 757.767C543.829 757.598 543.709 757.203 543.877 756.885C544.046 756.566 544.44 756.444 544.759 756.614C545.24 756.869 556.57 763.06 559.213 780.685C559.266 781.041 559.021 781.374 558.664 781.428C558.632 781.432 558.599 781.434 558.567 781.434Z" fill="#0C2C00"/>
<path d="M452.262 536.292C445.572 536.292 440.13 530.84 440.13 524.14C440.13 517.44 445.572 511.989 452.262 511.989C458.952 511.989 464.395 517.44 464.395 524.14C464.395 530.84 458.953 536.292 452.262 536.292ZM452.262 513.295C446.292 513.295 441.435 518.16 441.435 524.14C441.435 530.121 446.292 534.986 452.262 534.986C458.232 534.986 463.089 530.121 463.089 524.14C463.089 518.16 458.232 513.295 452.262 513.295Z" fill="#0C2C00"/>
<path d="M194.87 706.127C194.509 706.127 194.217 705.835 194.217 705.474V697.79C194.217 697.561 194.337 697.349 194.533 697.231L208.572 688.759L198.283 676.316C198.054 676.038 198.092 675.626 198.371 675.397C198.649 675.167 199.06 675.207 199.29 675.484L210.061 688.51C210.182 688.657 210.233 688.849 210.202 689.036C210.17 689.223 210.058 689.388 209.895 689.485L195.523 698.158V705.474C195.523 705.835 195.231 706.127 194.87 706.127Z" fill="white"/>
<path d="M94.9936 757.843C94.6622 757.843 94.3785 757.592 94.3447 757.256C94.3086 756.898 94.5705 756.578 94.929 756.541C95.3202 756.501 134.578 752.475 180.021 740.873C180.371 740.782 180.726 740.994 180.815 741.344C180.904 741.693 180.694 742.048 180.344 742.138C134.803 753.766 95.4524 757.801 95.0602 757.841C95.037 757.842 95.0153 757.843 94.9936 757.843Z" fill="white"/>
<path d="M222.286 669.164C222.169 669.164 222.049 669.132 221.941 669.065C221.636 668.874 221.542 668.472 221.733 668.166C229.65 655.468 234.24 627.672 237.277 609.277C239.763 594.219 240.696 589.3 242.226 588.684C242.56 588.551 242.94 588.712 243.075 589.046C243.207 589.373 243.055 589.744 242.735 589.887C241.667 590.705 240.09 600.255 238.565 609.49C235.329 629.093 230.896 655.939 222.841 668.857C222.717 669.055 222.504 669.164 222.286 669.164Z" fill="white"/>
<path d="M436.474 515.123C436.377 515.123 436.279 515.101 436.185 515.056C435.862 514.896 435.73 514.504 435.889 514.181C435.993 513.971 446.5 493.123 465.149 491.159C465.509 491.121 465.83 491.382 465.867 491.74C465.905 492.098 465.645 492.42 465.286 492.457C447.343 494.347 437.16 514.556 437.059 514.76C436.946 514.99 436.715 515.123 436.474 515.123Z" fill="white"/>
<path d="M429.931 513.296C429.816 513.296 429.7 513.268 429.602 513.214C429.286 513.039 429.172 512.641 429.347 512.326C429.383 512.26 429.429 512.204 429.482 512.157C429.57 511.968 429.736 511.533 429.898 511.11C438.258 489.249 452.931 484.818 463.751 484.989C464.112 484.995 464.4 485.291 464.394 485.651C464.389 486.012 464.103 486.279 463.732 486.295C448.585 486.11 437.612 494.591 431.117 511.577C430.616 512.888 430.525 513.123 430.16 513.257C430.089 513.283 430.011 513.296 429.931 513.296Z" fill="white"/>
<path d="M529.809 492.461C529.792 492.461 529.775 492.46 529.758 492.459C529.398 492.432 529.129 492.118 529.157 491.758C530.969 468.183 511.761 458.639 511.567 458.546C511.242 458.389 511.106 457.999 511.262 457.675C511.419 457.351 511.808 457.212 512.133 457.369C512.335 457.466 532.342 467.372 530.459 491.859C530.432 492.201 530.146 492.461 529.809 492.461Z" fill="white"/>
<path d="M520.89 499.795C520.761 499.795 520.63 499.756 520.516 499.676C520.221 499.469 520.15 499.061 520.357 498.766C528.854 486.669 522.571 475.319 522.507 475.206C522.328 474.893 522.438 474.494 522.75 474.316C523.063 474.139 523.462 474.246 523.64 474.558C523.709 474.679 530.412 486.722 521.425 499.517C521.298 499.697 521.096 499.795 520.89 499.795Z" fill="white"/>
<path d="M504.743 518.838C504.716 518.838 504.69 518.836 504.663 518.833C504.305 518.789 504.05 518.464 504.093 518.107C506.441 498.777 485.778 488.763 485.569 488.664C485.243 488.51 485.104 488.12 485.259 487.795C485.413 487.469 485.802 487.329 486.127 487.484C486.345 487.587 507.85 498.01 505.39 518.264C505.35 518.595 505.068 518.838 504.743 518.838Z" fill="white"/>
<path d="M120.493 698.747C123.098 694.192 153.456 618.786 184.687 590.576C192.494 596.337 192.494 596.337 192.494 596.337L120.493 698.747Z" fill="#0C2C00"/>
<path d="M184.687 590.576L198.568 659.551L192.494 596.337L184.687 590.576Z" fill="#0C2C00"/>
<path d="M119.912 700.398C118.173 697.355 97.8872 646.974 77.0238 628.125C71.8057 631.972 71.8057 631.972 71.8057 631.972L119.912 700.398Z" fill="#0C2C00"/>
<path d="M77.0238 628.125L67.7491 674.209L71.8057 631.972L77.0238 628.125Z" fill="#0C2C00"/>
<path d="M186.199 507.644L176.806 535.035L155.861 596.146V596.156L152.92 604.704L120.498 699.3C121.072 696.961 122.63 684.841 125.363 667.349C125.372 667.341 125.372 667.333 125.372 667.323C129.429 641.5 136.063 603.966 145.94 568.864C152.68 544.883 160.938 522.035 170.921 504.827C171.284 504.206 171.645 503.586 172.008 502.984C186.199 507.644 186.199 507.644 186.199 507.644Z" fill="#0C2C00"/>
<path d="M186.199 507.644L176.806 535.035C175.53 527.257 173.216 513.963 170.921 504.827C171.284 504.206 171.645 503.586 172.008 502.984C186.199 507.644 186.199 507.644 186.199 507.644Z" fill="#0C2C00"/>
<path d="M172.007 502.981L221.86 599.892L186.2 507.648L172.007 502.981Z" fill="#8CB369"/>
<path d="M155.86 596.145V596.155L152.92 604.704L145.599 594.772C145.599 594.772 132.421 641.599 125.371 667.322C129.429 641.499 136.063 603.965 145.94 568.863L155.86 596.145Z" fill="#0C2C00"/>
<path d="M26.5151 522.856L23.9531 533.249L21.4743 543.324L19.1481 552.762L0 630.484L12.1502 543.24L13.813 531.295C13.813 531.295 13.813 531.295 15.7786 529.997C16.0427 529.821 16.3449 529.62 16.6923 529.385C17.4938 528.848 18.5203 528.169 19.8423 527.29C21.5413 526.158 23.7251 524.708 26.5151 522.856Z" fill="#0C2C00"/>
<path d="M26.5151 536.955L24.1859 547.581L21.4743 543.324L19.1481 552.763L12.1502 543.24L13.813 531.296C13.813 531.296 13.813 531.296 15.7785 529.998C16.0427 529.822 16.3449 529.621 16.6923 529.386C17.4938 528.849 18.5203 528.169 19.8423 527.29L23.9537 533.249L26.5151 536.955Z" fill="#0C2C00"/>
<path d="M120.498 698.746L24.186 547.581L21.4744 543.324L13.8131 531.296C13.8131 531.296 13.8131 531.296 15.7786 529.999C16.0428 529.823 16.3449 529.621 16.6923 529.386C17.4939 528.849 18.5204 528.17 19.8424 527.291C21.5419 526.159 23.7258 524.709 26.5158 522.856C40.3964 536.654 53.8909 556.845 66.1238 578.669C68.9204 583.658 71.6483 588.737 74.3008 593.833C99.6579 642.589 118.065 694.01 120.498 698.746Z" fill="#8CB369"/>
<path d="M74.3002 593.832L67.1516 603.446C67.1516 603.446 65.806 588.335 66.1232 578.669C68.9199 583.657 71.6477 588.736 74.3002 593.832Z" fill="#0C2C00"/>
<path d="M104.191 478.231L97.7702 499.078L93.6816 512.329L90.68 522.06L68.5272 593.942L83.6827 507.618L88.7989 478.491L91.262 478.45L104.191 478.231Z" fill="#0C2C00"/>
<path d="M100.24 506.931L95.0627 521.884L93.6816 512.33L90.6793 522.061C88.8302 518.121 86.1982 512.597 83.6821 507.619L88.7976 478.492C88.7976 478.492 88.7976 478.492 91.2095 478.266L91.2607 478.45L97.7689 499.079L100.24 506.931Z" fill="#0C2C00"/>
<path d="M120.83 700.397L120.581 698.645L116.214 668.388L95.0634 521.883L93.6823 512.329L88.7989 478.491C88.7989 478.491 88.7989 478.491 91.2107 478.266C93.3403 478.073 97.3685 477.704 104.969 477C113.288 499.865 117.868 529.93 120.256 560.572C125.062 622.245 121.004 686.265 120.822 698.712C120.808 699.468 120.808 700.037 120.83 700.397Z" fill="#8CB369"/>
<path d="M120.822 698.712C120.738 698.695 120.664 698.669 120.581 698.645L116.215 668.388L120.256 560.572C125.062 622.246 121.004 686.266 120.822 698.712Z" fill="#0C2C00"/>
<path d="M121.219 699.218C121.65 692.709 114.105 593.013 132.901 543.122C144.198 544.322 145.308 544.322 145.308 544.322L121.219 699.218Z" fill="#0C2C00"/>
<path d="M132.901 543.122L164.312 621.239L145.308 544.323L132.901 543.122Z" fill="#8CB369"/>
<path d="M148.882 804.433H90.9423L82.6483 690.178H156.146L148.882 804.433Z" fill="#4BA3BC"/>
<path d="M132.868 735.662C136.129 735.662 138.772 732.73 138.772 729.112C138.772 725.495 136.129 722.563 132.868 722.563C129.607 722.563 126.964 725.495 126.964 729.112C126.964 732.73 129.607 735.662 132.868 735.662Z" fill="#00748C"/>
<path d="M142.061 753.852C143.877 753.852 145.349 752.219 145.349 750.204C145.349 748.19 143.877 746.557 142.061 746.557C140.245 746.557 138.773 748.19 138.773 750.204C138.773 752.219 140.245 753.852 142.061 753.852Z" fill="#00748C"/>
<path d="M117.283 768.942C118.458 768.942 119.411 767.885 119.411 766.581C119.411 765.278 118.458 764.221 117.283 764.221C116.108 764.221 115.155 765.278 115.155 766.581C115.155 767.885 116.108 768.942 117.283 768.942Z" fill="#00748C"/>
<path d="M107.534 731.837C108.409 731.837 109.118 731.051 109.118 730.08C109.118 729.11 108.409 728.324 107.534 728.324C106.66 728.324 105.951 729.11 105.951 730.08C105.951 731.051 106.66 731.837 107.534 731.837Z" fill="#00748C"/>
<path d="M120.364 704.567C120.364 706.164 119.197 707.457 117.761 707.457C116.322 707.457 115.155 706.164 115.155 704.567C115.155 702.971 116.323 701.679 117.761 701.679C119.197 701.679 120.364 702.971 120.364 704.567Z" fill="#00748C"/>
<path d="M132.869 704.678C132.869 706.334 131.657 707.676 130.166 707.676C128.671 707.676 127.462 706.334 127.462 704.678C127.462 703.022 128.672 701.679 130.166 701.679C131.657 701.679 132.869 703.022 132.869 704.678Z" fill="#00748C"/>
<path d="M143.83 713.771C144.807 713.771 145.599 712.892 145.599 711.809C145.599 710.725 144.807 709.846 143.83 709.846C142.853 709.846 142.061 710.725 142.061 711.809C142.061 712.892 142.853 713.771 143.83 713.771Z" fill="#00748C"/>
<path d="M119.174 749.297C120.219 749.297 121.065 748.358 121.065 747.199C121.065 746.04 120.219 745.101 119.174 745.101C118.129 745.101 117.283 746.04 117.283 747.199C117.283 748.358 118.129 749.297 119.174 749.297Z" fill="#00748C"/>
<path d="M94.8432 762.175C95.7726 762.175 96.5259 761.339 96.5259 760.308C96.5259 759.277 95.7726 758.442 94.8432 758.442C93.9139 758.442 93.1606 759.277 93.1606 760.308C93.1606 761.339 93.9139 762.175 94.8432 762.175Z" fill="#00748C"/>
<path d="M94.6557 723.764C95.4814 723.764 96.1508 723.021 96.1508 722.105C96.1508 721.189 95.4814 720.447 94.6557 720.447C93.83 720.447 93.1606 721.189 93.1606 722.105C93.1606 723.021 93.83 723.764 94.6557 723.764Z" fill="#00748C"/>
<path d="M103.955 714.384C105.084 714.384 106 713.369 106 712.116C106 710.863 105.084 709.847 103.955 709.847C102.825 709.847 101.91 710.863 101.91 712.116C101.91 713.369 102.825 714.384 103.955 714.384Z" fill="#00748C"/>
<path d="M103.955 754.325C103.955 756.6 102.293 758.445 100.24 758.445C98.1906 758.445 96.526 756.6 96.526 754.325C96.526 752.049 98.1906 750.204 100.24 750.204C102.294 750.204 103.955 752.049 103.955 754.325Z" fill="#00748C"/>
<path d="M120.256 561.83C119.66 561.83 119.158 561.314 119.125 560.646C118.6 550.553 117.156 538.759 114.84 525.588C114.72 524.907 115.12 524.246 115.734 524.113C116.349 523.98 116.946 524.424 117.064 525.106C119.403 538.386 120.855 550.294 121.387 560.5C121.425 561.193 120.946 561.789 120.321 561.828C120.299 561.83 120.278 561.83 120.256 561.83Z" fill="#0C2C00"/>
<path d="M114.396 518.232C113.872 518.232 113.403 517.83 113.288 517.242C112.114 511.229 110.776 504.987 109.311 498.692C109.153 498.019 109.518 497.334 110.125 497.16C110.733 496.987 111.348 497.391 111.505 498.064C112.978 504.391 114.322 510.664 115.503 516.709C115.635 517.388 115.248 518.057 114.634 518.203C114.553 518.223 114.474 518.232 114.396 518.232Z" fill="#0C2C00"/>
<path d="M57.6996 565.531C57.3268 565.531 56.9631 565.329 56.7454 564.957C55.1291 562.196 52.8421 558.736 49.9453 554.676C49.5563 554.132 49.639 553.341 50.1311 552.911C50.6221 552.478 51.3349 552.573 51.7239 553.117C54.6647 557.238 56.9939 560.761 58.647 563.589C58.9884 564.172 58.84 564.951 58.3135 565.327C58.1235 565.465 57.9106 565.531 57.6996 565.531Z" fill="#0C2C00"/>
<path d="M46.0644 548.654C45.7411 548.654 45.4185 548.499 45.1947 548.202C43.8329 546.391 42.45 544.583 41.0833 542.818C40.675 542.292 40.7281 541.498 41.2039 541.044C41.6774 540.592 42.3939 540.652 42.8022 541.179C44.1779 542.953 45.5674 544.77 46.9347 546.59C47.3364 547.124 47.2712 547.917 46.7911 548.361C46.5782 548.557 46.3207 548.654 46.0644 548.654Z" fill="#0C2C00"/>
<path d="M32.0167 530.779C31.7079 530.779 31.3998 530.639 31.1754 530.365C27.9301 526.381 25.751 523.791 25.6919 523.722C25.5001 523.496 25.3795 523.191 25.3795 522.856C25.3795 522.163 25.8873 521.599 26.5146 521.599C27.0905 521.599 27.0905 521.599 32.8575 528.679C33.2766 529.195 33.2417 529.989 32.7773 530.456C32.5601 530.672 32.2875 530.779 32.0167 530.779Z" fill="#0C2C00"/>
<path d="M162.402 523.871C162.246 523.871 162.086 523.835 161.934 523.758C161.364 523.469 161.114 522.724 161.371 522.092C163.947 515.819 165.83 511.609 166.968 509.579C167.301 508.991 167.999 508.81 168.531 509.177C169.063 509.542 169.224 510.319 168.894 510.908C167.809 512.846 165.97 516.958 163.434 523.134C163.245 523.597 162.834 523.871 162.402 523.871Z" fill="#0C2C00"/>
<path d="M151.262 552.476C151.118 552.476 150.97 552.446 150.829 552.38C150.252 552.114 149.975 551.379 150.215 550.737C150.241 550.67 152.768 543.909 155.878 535.901C156.128 535.263 156.797 534.971 157.369 535.243C157.943 535.519 158.21 536.259 157.962 536.896C154.857 544.887 152.335 551.632 152.31 551.7C152.128 552.185 151.708 552.476 151.262 552.476Z" fill="#0C2C00"/>
<path d="M159.915 604.704C159.417 604.704 158.962 604.337 158.822 603.778L149.721 566.942C149.556 566.272 149.911 565.58 150.515 565.397C151.117 565.208 151.742 565.607 151.908 566.277L161.011 603.113C161.174 603.782 160.819 604.475 160.216 604.658C160.114 604.689 160.017 604.704 159.915 604.704Z" fill="#0C2C00"/>
<path d="M146.835 551.767C146.338 551.767 145.88 551.401 145.743 550.843L144.424 545.499L132.802 544.375C132.179 544.315 131.716 543.706 131.771 543.013C131.828 542.322 132.37 541.809 133 541.871L145.406 543.071C145.878 543.116 146.274 543.482 146.4 543.99L147.928 550.178C148.093 550.848 147.739 551.539 147.135 551.723C147.036 551.753 146.934 551.767 146.835 551.767Z" fill="#0C2C00"/>
<path d="M148.883 804.433H141.195L132.901 690.178H156.146L148.883 804.433Z" fill="#00748C"/>
</svg>
