<svg width="1027" height="775" viewBox="0 0 1027 775" fill="none" xmlns="http://www.w3.org/2000/svg">
<path d="M592.778 495.792H884.05L853.024 673.644H621.288L592.778 495.792Z" fill="#4BA3BC"/>
<path d="M1026.39 311.418C998.525 365.09 967.058 403.645 935.269 431.276C833.289 519.848 727.933 495.795 727.933 495.795C727.933 495.795 756.656 352.238 898.347 315.334C933.604 306.133 975.842 303.545 1026.39 311.418Z" fill="#8CB369"/>
<path d="M935.269 431.276C833.289 519.848 727.933 495.795 727.933 495.795C727.933 495.795 756.656 352.238 898.347 315.334C857.011 409.261 919.236 360.928 928.038 374.878C937.202 389.399 944.411 398.17 935.269 431.276Z" fill="#0C2C00"/>
<path d="M729.008 496.901L726.868 494.682C727.005 494.55 740.827 481.253 763.472 462.031C818.804 415.059 926.493 332.84 1026.03 309.916L1026.73 312.92C927.82 335.696 820.584 417.591 765.468 464.382C742.902 483.533 729.144 496.771 729.008 496.901Z" fill="#0C2C00"/>
<path d="M888.334 463.508L802.507 431.262L801.423 434.148L887.25 466.394L888.334 463.508Z" fill="#0C2C00"/>
<path d="M908.597 450.835L813.42 422.84L812.55 425.796L907.728 453.791L908.597 450.835Z" fill="#0C2C00"/>
<path d="M885.438 320.04L882.549 318.972L855.503 392.115L858.393 393.183L885.438 320.04Z" fill="#0C2C00"/>
<path d="M900.931 366.672L899.378 364.008L900.154 365.34L899.372 364.013C902.155 362.192 913.707 334.814 923.268 309.398L926.155 310.484C922.815 319.356 905.911 363.771 900.931 366.672Z" fill="#0C2C00"/>
<path d="M987.37 373.897L932.137 346.604L930.772 349.367L986.004 376.66L987.37 373.897Z" fill="#0C2C00"/>
<path d="M786.525 385.613L783.473 385.18L773.696 454.026L776.749 454.46L786.525 385.613Z" fill="#0C2C00"/>
<path d="M932.94 432.203L837.068 405.396L836.239 408.363L932.11 435.171L932.94 432.203Z" fill="#0C2C00"/>
<path d="M877.297 352.732C830.327 474.36 729.841 502.512 729.841 502.512C729.841 502.512 705.942 425.295 738.24 345.258C759.737 292.002 806.089 237.497 900.888 203.643C902.044 264.527 892.46 313.498 877.297 352.732Z" fill="#8CB369"/>
<path d="M877.297 352.732C830.327 474.36 729.841 502.512 729.841 502.512C729.841 502.512 705.942 425.295 738.24 345.258C737.008 375.94 760.598 376.225 769.659 389.399C781.341 406.383 792.851 353.081 877.297 352.732Z" fill="#0C2C00"/>
<path d="M731.304 502.977L728.366 502.049C728.423 501.87 734.115 483.925 744.643 456.73C770.367 390.288 824.739 268.908 899.862 202.497L901.903 204.805C827.268 270.787 773.14 391.662 747.517 457.844C737.026 484.938 731.361 502.8 731.304 502.977Z" fill="#0C2C00"/>
<path d="M853.499 402.588L853.074 399.537L763.93 411.947L764.355 414.999L853.499 402.588Z" fill="#0C2C00"/>
<path d="M865.212 382.034L864.565 379.021L769.358 399.452L770.004 402.464L865.212 382.034Z" fill="#0C2C00"/>
<path d="M794.385 352.837L783.438 277.075L780.386 277.516L791.332 353.278L794.385 352.837Z" fill="#0C2C00"/>
<path d="M818.581 310.1L815.947 308.499L817.264 309.299L815.942 308.506C817.485 305.611 814.624 276.598 810.964 250.221L814.019 249.796C815.815 262.748 821.452 305.376 818.581 310.1Z" fill="#0C2C00"/>
<path d="M896.617 278.879L896.5 275.8L836.067 278.098L836.184 281.177L896.617 278.879Z" fill="#0C2C00"/>
<path d="M752.57 444.051L728.754 380.078L725.868 381.153L749.683 445.125L752.57 444.051Z" fill="#0C2C00"/>
<path d="M877.545 354.612L876.859 351.609L781.6 373.36L782.286 376.362L877.545 354.612Z" fill="#0C2C00"/>
<path d="M500.965 215.705C500.659 190.615 502.784 163.432 507.851 133.992C740.105 259.226 737.27 436.962 730.814 489.029C729.642 498.585 728.333 503.9 728.333 503.9C728.333 503.9 588.814 473.682 528.346 343.486V343.471C512.111 308.528 501.579 266.389 500.965 215.705Z" fill="#8CB369"/>
<path d="M730.813 489.029C729.641 498.585 728.332 503.9 728.332 503.9C728.332 503.9 588.813 473.682 528.345 343.486V343.471C528.345 343.471 666.708 392.61 693.599 416.652C709.687 431.029 722.846 464.467 730.813 489.029Z" fill="#0C2C00"/>
<path d="M728.339 505.444C727.493 505.444 727.425 505.444 716.308 492.854C710.008 485.719 699.958 474.125 687.861 459.405C631.309 390.596 532.527 256.867 506.345 134.318L509.358 133.674C535.404 255.584 633.867 388.857 690.242 457.447C713.65 485.931 729.309 502.684 729.457 502.841L728.34 503.897V505.444H728.339Z" fill="#0C2C00"/>
<path d="M695.071 307.616L692.202 306.488L650.997 411.226L653.867 412.354L695.071 307.616Z" fill="#0C2C00"/>
<path d="M679.924 282.313L676.981 281.395L640.727 397.646L643.67 398.564L679.924 282.313Z" fill="#0C2C00"/>
<path d="M604.805 342.011L515.552 307.393L514.437 310.268L603.69 344.885L604.805 342.011Z" fill="#0C2C00"/>
<path d="M570.229 290.735C568.254 287.214 534.369 272.369 503.489 260.19L504.621 257.322C515.429 261.585 569.514 283.157 572.917 289.227L570.229 290.735Z" fill="#0C2C00"/>
<path d="M586.859 184.62L584.116 183.212L549.57 250.49L552.312 251.898L586.859 184.62Z" fill="#0C2C00"/>
<path d="M678.532 443.575L594.218 430.224L593.736 433.267L678.05 446.618L678.532 443.575Z" fill="#0C2C00"/>
<path d="M657.531 252.053L654.575 251.177L619.857 368.344L622.813 369.219L657.531 252.053Z" fill="#0C2C00"/>
<path d="M821.112 495.792H883.374L852.349 673.644H806.429L821.112 495.792Z" fill="#00748C"/>
<path d="M728.339 503.903C728.339 503.903 760.768 341.803 944.411 370.417C859.596 533.88 728.339 503.903 728.339 503.903Z" fill="#8CB369"/>
<path d="M729.408 505.013L727.268 502.794C727.368 502.698 737.383 493.061 753.789 479.135C793.881 445.105 871.913 385.532 944.064 368.915L944.756 371.919C873.239 388.388 795.661 447.636 755.783 481.485C739.459 495.342 729.507 504.917 729.408 505.013Z" fill="#0C2C00"/>
<path d="M844.621 480.126L782.48 456.779L781.396 459.664L843.537 483.011L844.621 480.126Z" fill="#0C2C00"/>
<path d="M859.282 470.948L790.372 450.678L789.503 453.634L858.413 473.904L859.282 470.948Z" fill="#0C2C00"/>
<path d="M842.753 376.8L839.863 375.731L820.283 428.685L823.173 429.754L842.753 376.8Z" fill="#0C2C00"/>
<path d="M853.799 410.788L852.249 408.124L852.21 408.149C854.285 406.544 862.56 386.882 869.362 368.802L872.245 369.888C867.878 381.499 857.339 408.726 853.799 410.788Z" fill="#0C2C00"/>
<path d="M916.318 415.281L876.33 395.522L874.964 398.286L914.952 418.045L916.318 415.281Z" fill="#0C2C00"/>
<path d="M771.155 424.246L768.104 423.812L761.02 473.658L764.072 474.092L771.155 424.246Z" fill="#0C2C00"/>
<path d="M876.867 457.478L807.458 438.07L806.628 441.036L876.038 460.444L876.867 457.478Z" fill="#0C2C00"/>
<path d="M570.015 434.379C562.839 421.73 556.517 406.976 551.39 389.781C705.009 395.052 729.513 504.721 729.513 504.721C729.513 504.721 624.877 531.093 570.015 434.379Z" fill="#8CB369"/>
<path d="M728.97 506.165C728.864 506.124 717.999 502.032 701.611 494.66C661.56 476.648 588.629 439.196 550.183 390.738L552.597 388.824C590.638 436.77 663.077 473.952 702.874 491.849C719.175 499.18 729.946 503.239 730.054 503.278L728.97 506.165Z" fill="#0C2C00"/>
<path d="M677.352 480.543L672.654 425.337L669.581 425.598L674.279 480.805L677.352 480.543Z" fill="#0C2C00"/>
<path d="M669.951 476.678L660.503 417.478L657.461 417.964L666.909 477.163L669.951 476.678Z" fill="#0C2C00"/>
<path d="M639.819 462.626L639.539 459.556L592.604 463.84L592.884 466.91L639.819 462.626Z" fill="#0C2C00"/>
<path d="M577.124 447.174L576.862 444.104C587.208 443.227 611.579 441.405 614.467 443.373L612.731 445.919L612.795 445.958C610.709 444.999 593.018 445.825 577.124 447.174Z" fill="#0C2C00"/>
<path d="M598.062 394.873L594.98 394.828L594.437 432.052L597.519 432.097L598.062 394.873Z" fill="#0C2C00"/>
<path d="M695.076 491.207L694.154 488.266L654.055 500.835L654.977 503.776L695.076 491.207Z" fill="#0C2C00"/>
<path d="M654.236 468.234L643.961 408.964L640.925 409.49L651.199 468.761L654.236 468.234Z" fill="#0C2C00"/>
<path d="M637.3 529.774C636.54 529.774 635.879 529.212 635.774 528.439C635.66 527.596 636.253 526.82 637.095 526.706L829.689 500.648C830.533 500.538 831.308 501.127 831.423 501.969C831.536 502.812 830.946 503.588 830.104 503.702L637.507 529.76C637.438 529.77 637.368 529.774 637.3 529.774Z" fill="#00748C"/>
<path d="M655.894 555.764C655.134 555.764 654.473 555.202 654.368 554.429C654.254 553.586 654.847 552.81 655.689 552.696L833.478 528.639C834.314 528.525 835.097 529.116 835.211 529.96C835.325 530.803 834.735 531.579 833.893 531.693L656.101 555.75C656.032 555.759 655.962 555.764 655.894 555.764Z" fill="#00748C"/>
<path d="M667.505 582.691C666.746 582.691 666.085 582.129 665.982 581.356C665.869 580.513 666.459 579.737 667.3 579.623L837.264 556.626C838.105 556.51 838.884 557.103 838.997 557.946C839.111 558.789 838.521 559.566 837.679 559.68L667.716 582.677C667.645 582.687 667.573 582.691 667.505 582.691Z" fill="#00748C"/>
<path d="M681.503 609.3C680.745 609.3 680.084 608.738 679.98 607.965C679.867 607.122 680.457 606.346 681.298 606.232L841.05 584.616C841.896 584.515 842.669 585.094 842.783 585.937C842.897 586.78 842.307 587.557 841.466 587.671L681.714 609.286C681.642 609.295 681.572 609.3 681.503 609.3Z" fill="#00748C"/>
<path d="M689.163 636.767C688.404 636.767 687.743 636.205 687.638 635.432C687.526 634.589 688.116 633.813 688.958 633.699L844.839 612.606C845.679 612.502 846.458 613.084 846.573 613.927C846.686 614.77 846.094 615.546 845.251 615.661L689.373 636.753C689.302 636.762 689.231 636.767 689.163 636.767Z" fill="#00748C"/>
<path d="M709.665 662.493C708.906 662.493 708.245 661.931 708.142 661.158C708.028 660.315 708.618 659.539 709.46 659.425L848.625 640.596C849.478 640.487 850.245 641.075 850.358 641.917C850.473 642.76 849.883 643.536 849.04 643.65L709.875 662.479C709.804 662.488 709.733 662.493 709.665 662.493Z" fill="#00748C"/>
<path d="M694.571 343.118C693.379 343.118 692.246 342.423 691.741 341.261C688.554 333.909 685.014 326.534 681.223 319.341C680.428 317.836 681.006 315.972 682.51 315.177C684.016 314.384 685.878 314.961 686.672 316.467C690.539 323.797 694.146 331.314 697.397 338.808C698.074 340.371 697.358 342.185 695.795 342.863C695.396 343.035 694.98 343.118 694.571 343.118Z" fill="white"/>
<path d="M673.141 302.019C672.104 302.019 671.093 301.498 670.511 300.549C665.825 292.913 660.734 285.3 655.372 277.923C654.374 276.545 654.677 274.618 656.056 273.618C657.431 272.618 659.359 272.924 660.361 274.3C665.814 281.808 670.997 289.554 675.763 297.325C676.655 298.775 676.201 300.674 674.749 301.564C674.247 301.873 673.689 302.019 673.141 302.019Z" fill="white"/>
<path d="M646.558 264.419C645.658 264.419 644.765 264.026 644.156 263.271C625.105 239.621 602.713 217.636 577.605 197.93C576.267 196.88 576.035 194.942 577.085 193.604C578.135 192.265 580.073 192.033 581.413 193.082C606.886 213.077 629.61 235.392 648.956 259.404C650.024 260.729 649.813 262.67 648.489 263.738C647.921 264.196 647.235 264.419 646.558 264.419Z" fill="white"/>
<path d="M692.524 453.711C691.788 453.711 691.049 453.448 690.46 452.916C681.298 444.641 667.894 435.786 650.618 426.596C649.116 425.797 648.547 423.931 649.346 422.428C650.146 420.926 652.011 420.356 653.515 421.155C671.234 430.582 685.054 439.729 694.592 448.342C695.855 449.483 695.954 451.432 694.814 452.696C694.204 453.367 693.367 453.711 692.524 453.711Z" fill="white"/>
<path d="M636.953 423.085C636.586 423.085 636.213 423.018 635.849 422.878C623.523 418.136 609.934 413.489 595.462 409.066C593.833 408.568 592.917 406.844 593.415 405.216C593.911 403.589 595.632 402.67 597.261 403.169C611.874 407.636 625.601 412.331 638.062 417.125C639.65 417.736 640.442 419.52 639.832 421.107C639.36 422.333 638.193 423.085 636.953 423.085Z" fill="white"/>
<path d="M583.327 405.355C583.047 405.355 582.764 405.316 582.481 405.236C573.335 402.632 567.494 401.174 567.435 401.16C565.784 400.749 564.778 399.077 565.19 397.426C565.6 395.776 567.271 394.761 568.924 395.18C568.982 395.194 574.914 396.672 584.168 399.308C585.806 399.774 586.754 401.479 586.287 403.117C585.903 404.471 584.669 405.355 583.327 405.355Z" fill="#FFEE9F"/>
<path d="M887.82 253.09C887.682 253.09 887.542 253.081 887.402 253.062C885.715 252.833 884.534 251.282 884.762 249.595C885.58 243.551 886.33 237.759 886.504 233.305C886.572 231.603 887.977 230.27 889.707 230.346C891.407 230.412 892.731 231.845 892.665 233.545C892.478 238.272 891.709 244.227 890.868 250.422C890.66 251.969 889.337 253.09 887.82 253.09Z" fill="white"/>
<path d="M838.022 247.074C837.079 247.074 836.147 246.643 835.542 245.826C834.529 244.46 834.817 242.529 836.183 241.516C844.626 235.258 852.783 229.945 860.423 225.722C865.073 223.154 868.944 221.248 872.255 219.899C873.829 219.251 875.628 220.008 876.273 221.588C876.914 223.164 876.158 224.962 874.582 225.605C871.497 226.863 867.842 228.667 863.406 231.118C856.003 235.21 848.078 240.374 839.855 246.468C839.303 246.877 838.66 247.074 838.022 247.074Z" fill="#FFEE9F"/>
<path d="M799.31 281.568C798.716 281.568 798.114 281.396 797.584 281.037C796.175 280.083 795.807 278.165 796.763 276.757C798.622 274.011 807.335 265.276 818.161 255.952C819.452 254.842 821.399 254.986 822.509 256.277C823.619 257.567 823.474 259.512 822.185 260.623C810.14 270.993 802.869 278.734 801.865 280.215C801.268 281.094 800.298 281.568 799.31 281.568Z" fill="white"/>
<path d="M938.667 324.176C937.149 324.176 935.828 323.057 935.616 321.513C935.386 319.825 936.565 318.272 938.251 318.041C942.169 317.504 946.056 317.013 949.8 316.581C951.489 316.39 953.02 317.602 953.216 319.291C953.409 320.981 952.196 322.511 950.507 322.706C946.805 323.132 942.964 323.616 939.087 324.147C938.946 324.167 938.805 324.176 938.667 324.176Z" fill="white"/>
<path d="M884.128 379.9C882.665 379.9 881.364 378.854 881.097 377.365C880.796 375.688 881.91 374.088 883.586 373.785C887.78 373.031 892.023 372.37 896.196 371.821C897.887 371.621 899.431 372.789 899.655 374.475C899.876 376.163 898.686 377.71 897 377.933C892.922 378.467 888.776 379.115 884.675 379.852C884.491 379.886 884.308 379.9 884.128 379.9Z" fill="white"/>
<path d="M847.891 389.136C846.603 389.136 845.4 388.319 844.968 387.028C844.43 385.414 845.303 383.668 846.917 383.13C848.396 382.636 849.901 382.149 851.427 381.673C853.054 381.169 854.781 382.073 855.286 383.698C855.793 385.322 854.886 387.051 853.261 387.556C851.774 388.02 850.311 388.495 848.868 388.977C848.544 389.083 848.216 389.136 847.891 389.136Z" fill="white"/>
<path d="M789.626 417.643C788.647 417.643 787.685 417.178 787.086 416.311C786.12 414.909 786.472 412.99 787.874 412.024C789.033 411.224 790.315 410.358 791.718 409.443C793.145 408.51 795.053 408.915 795.983 410.339C796.914 411.766 796.511 413.676 795.087 414.604C793.73 415.49 792.492 416.326 791.373 417.098C790.839 417.466 790.228 417.643 789.626 417.643Z" fill="white"/>
<path d="M781.909 423.334C780.982 423.334 780.069 422.918 779.462 422.128C778.424 420.778 778.68 418.843 780.03 417.808L780.38 417.533C781.446 416.696 783.941 414.739 787.872 412.024C789.274 411.059 791.194 411.41 792.16 412.811C793.126 414.211 792.774 416.13 791.375 417.098C787.598 419.702 785.208 421.579 784.187 422.381L783.782 422.695C783.225 423.126 782.563 423.334 781.909 423.334Z" fill="white"/>
<path d="M617.194 591.714C615.71 591.714 614.4 590.637 614.156 589.121L606.237 539.928C605.967 538.248 607.11 536.667 608.792 536.396C610.472 536.123 612.053 537.269 612.323 538.95L620.242 588.143C620.511 589.823 619.369 591.405 617.688 591.675C617.522 591.702 617.357 591.714 617.194 591.714Z" fill="#FFEE9F"/>
<path d="M607.266 530.021C605.779 530.021 604.47 528.943 604.226 527.428L601.227 508.795C600.958 507.115 602.1 505.533 603.781 505.263C605.465 504.996 607.044 506.136 607.313 507.817L610.312 526.45C610.583 528.13 609.439 529.711 607.759 529.982C607.593 530.009 607.429 530.021 607.266 530.021Z" fill="#FFEE9F"/>
<path d="M533.058 355.393C532.37 355.393 531.688 355.087 531.232 354.502C525.658 347.347 520.701 337.175 516.497 324.27C516.103 323.055 516.766 321.75 517.98 321.357C519.191 320.955 520.498 321.623 520.894 322.837C524.929 335.233 529.636 344.93 534.88 351.661C535.663 352.667 535.484 354.12 534.476 354.905C534.055 355.233 533.554 355.393 533.058 355.393Z" fill="#0C2C00"/>
<path d="M512.229 301.194C511.16 301.194 510.199 300.449 509.968 299.361C506.154 281.309 503.23 259.757 501.279 235.305C501.177 234.034 502.126 232.918 503.398 232.818C504.66 232.737 505.785 233.666 505.886 234.938C507.823 259.192 510.718 280.545 514.491 298.404C514.755 299.653 513.956 300.88 512.707 301.144C512.548 301.178 512.386 301.194 512.229 301.194Z" fill="#0C2C00"/>
<path d="M501.81 208.792C500.581 208.792 499.558 207.824 499.501 206.584C498.22 178.185 498.618 157.017 498.624 156.806C498.649 155.546 499.679 154.541 500.933 154.541C500.951 154.541 500.965 154.541 500.982 154.541C502.257 154.566 503.272 155.621 503.246 156.897C503.242 157.106 502.847 178.134 504.121 206.376C504.179 207.65 503.191 208.73 501.915 208.788C501.878 208.79 501.844 208.792 501.81 208.792Z" fill="#0C2C00"/>
<path d="M636.874 498.115C636.567 498.115 636.255 498.055 635.956 497.925C628.796 494.821 621.798 490.951 615.157 486.421C614.1 485.702 613.829 484.264 614.55 483.209C615.269 482.156 616.706 481.881 617.761 482.603C624.162 486.968 630.902 490.697 637.794 493.684C638.966 494.191 639.503 495.552 638.997 496.724C638.618 497.595 637.768 498.115 636.874 498.115Z" fill="#0C2C00"/>
<path d="M593.431 467.047C592.816 467.047 592.205 466.804 591.751 466.324C564.849 437.899 553.856 405.697 553.401 404.34C552.997 403.13 553.647 401.82 554.858 401.414C556.071 401.013 557.379 401.659 557.784 402.869C557.894 403.192 568.936 435.493 595.106 463.145C595.985 464.073 595.944 465.535 595.017 466.414C594.571 466.837 593.999 467.047 593.431 467.047Z" fill="#0C2C00"/>
<path d="M838.524 235.197C837.714 235.197 836.928 234.77 836.504 234.011C835.881 232.898 836.281 231.489 837.395 230.867C860.583 217.929 876.194 210.874 876.347 210.803C877.512 210.282 878.881 210.8 879.405 211.962C879.928 213.127 879.409 214.494 878.247 215.02C878.093 215.087 862.645 222.074 839.65 234.904C839.292 235.104 838.907 235.197 838.524 235.197Z" fill="white"/>
<path d="M781.1 278.82C780.533 278.82 779.964 278.612 779.517 278.191C778.587 277.316 778.543 275.854 779.417 274.923C785.361 268.61 791.759 262.586 798.431 257.022C799.412 256.202 800.87 256.335 801.687 257.315C802.505 258.295 802.373 259.753 801.393 260.57C794.862 266.019 788.602 271.914 782.786 278.092C782.329 278.576 781.717 278.82 781.1 278.82Z" fill="#0C2C00"/>
<path d="M758.172 307.834C757.737 307.834 757.296 307.71 756.905 307.453C755.839 306.752 755.542 305.319 756.243 304.252C760.499 297.781 765.175 291.45 770.149 285.433C770.962 284.447 772.417 284.307 773.403 285.122C774.387 285.935 774.526 287.393 773.712 288.376C768.846 294.266 764.269 300.461 760.107 306.792C759.661 307.468 758.925 307.834 758.172 307.834Z" fill="#0C2C00"/>
<path d="M738.241 347.57C738.022 347.57 737.8 347.539 737.578 347.472C736.354 347.107 735.659 345.82 736.024 344.598C736.133 344.235 738.747 335.588 745.528 322.513C746.114 321.381 747.51 320.94 748.643 321.524C749.776 322.113 750.218 323.507 749.629 324.641C743.071 337.29 740.481 345.836 740.453 345.92C740.154 346.924 739.235 347.57 738.241 347.57Z" fill="#0C2C00"/>
<path d="M853.272 376.319C852.257 376.319 851.328 375.646 851.044 374.622C850.705 373.391 851.43 372.117 852.658 371.779C864.602 368.489 877.218 366.229 890.156 365.059C891.422 364.958 892.551 365.881 892.666 367.154C892.781 368.425 891.844 369.549 890.572 369.665C877.907 370.809 865.564 373.019 853.886 376.236C853.682 376.292 853.476 376.319 853.272 376.319Z" fill="#0C2C00"/>
<path d="M788.585 408.797C787.905 408.797 787.23 408.497 786.772 407.923C785.978 406.922 786.147 405.468 787.145 404.675C797.821 396.204 809.614 388.912 822.19 383.004C823.346 382.461 824.723 382.957 825.265 384.112C825.808 385.268 825.311 386.645 824.156 387.187C811.901 392.944 800.416 400.045 790.02 408.295C789.597 408.633 789.087 408.797 788.585 408.797Z" fill="#0C2C00"/>
<path d="M755.503 444.766C755.117 444.766 754.726 444.669 754.364 444.465C753.254 443.836 752.866 442.426 753.495 441.316C753.739 440.882 759.651 430.568 772.782 417.458C773.683 416.557 775.149 416.556 776.051 417.461C776.952 418.364 776.952 419.828 776.048 420.73C763.358 433.4 757.573 443.496 757.516 443.595C757.091 444.345 756.309 444.766 755.503 444.766Z" fill="#0C2C00"/>
<path d="M657.293 664.304C610.155 750.785 483.722 795.521 396.044 764.511C359.645 754.363 341.159 723.944 341.159 723.944C341.159 723.944 340.891 724.359 340.325 725.145C335.325 732.058 307.233 766.423 243.944 767.501C173.573 768.677 155.651 747.816 155.651 747.816C155.651 747.816 93.098 778.212 77.41 704.676C77.237 703.941 77.091 703.206 76.945 702.47C76.945 663.717 94.222 656.56 94.222 656.56C94.222 656.56 68.194 637.143 73.512 599.151C74.124 594.495 75.252 589.569 76.945 584.37C92.436 536.671 124.054 513.998 140.749 500.268C157.442 486.568 205.78 442.422 213.522 430.486C221.27 418.57 226.344 412.834 233.21 425.215C240.367 438.13 254.681 459.728 255.856 482.377C256.151 487.868 288.065 452.57 295.835 438.843C303.58 425.114 313.731 419.747 320.888 435.265C327.971 450.632 328.045 477.154 325.153 481.665C327.409 479.017 363.906 436.366 403.789 416.782C458.671 389.818 557.675 360.699 629.862 425.726C635.428 430.73 640.574 435.876 645.305 441.147C652.731 449.381 659.154 457.912 664.619 466.712C701.045 525.15 695.091 594.938 657.293 664.304Z" fill="#0C2C00"/>
<path d="M341.163 725.492C340.572 725.492 340.008 725.148 339.753 724.572C339.663 724.369 330.678 703.842 325.34 677.735C318.155 642.612 307.542 559.166 363.995 542.94C378.663 538.722 390.467 540.312 399.076 547.667C416.511 562.558 415.33 595.489 413.073 613.795C406.319 668.624 438.802 694.156 471.453 699.77C524.947 708.955 579.591 648.405 580.753 646.919C581.087 646.242 581.88 645.895 582.62 646.145C583.429 646.415 583.864 647.287 583.595 648.093C582.597 651.086 533.015 703.775 482.511 703.778C478.648 703.778 474.783 703.469 470.933 702.807C436.881 696.954 402.996 670.399 410.015 613.419C413.726 583.315 409.009 560.202 397.076 550.01C389.303 543.374 378.462 541.991 364.847 545.903C310.867 561.418 321.348 642.835 328.359 677.12C333.628 702.886 342.486 723.129 342.574 723.33C342.918 724.108 342.565 725.018 341.786 725.362C341.583 725.45 341.372 725.492 341.163 725.492Z" fill="white"/>
<path d="M220.085 511.365C219.439 511.365 218.839 510.958 218.624 510.312C218.354 509.503 218.79 508.631 219.597 508.363C222.606 507.359 241.85 498.136 254.648 481.451C255.167 480.778 256.132 480.648 256.808 481.165C257.484 481.685 257.612 482.65 257.094 483.326C242.296 502.619 220.775 511.22 220.573 511.286C220.41 511.34 220.246 511.365 220.085 511.365Z" fill="white"/>
<path d="M297.624 532.839C297.251 532.839 296.876 532.703 296.581 532.431C295.954 531.855 295.914 530.881 296.491 530.255C296.695 530.03 317.173 507.551 323.561 481.424C323.764 480.596 324.61 480.092 325.424 480.292C326.251 480.495 326.756 481.329 326.555 482.155C319.973 509.071 299.619 531.404 298.756 532.342C298.452 532.671 298.039 532.839 297.624 532.839Z" fill="white"/>
<path d="M121.45 572.812C114.223 572.812 108.784 570.612 105.272 566.267C98.4808 557.863 101.544 544.623 101.678 544.064C101.875 543.238 102.698 542.721 103.533 542.923C104.361 543.119 104.873 543.95 104.676 544.778C104.647 544.901 101.834 557.124 107.676 564.34C110.694 568.064 115.608 569.865 122.227 569.721C123.061 569.685 123.785 570.374 123.804 571.226C123.823 572.078 123.149 572.784 122.299 572.803C122.015 572.809 121.729 572.812 121.45 572.812Z" fill="white"/>
<path d="M189.272 608.504C183.436 608.505 178.683 606.988 175.071 603.964C166.944 597.152 167.807 585.354 167.848 584.855C167.918 584.008 168.649 583.397 169.508 583.446C170.355 583.513 170.987 584.257 170.92 585.104C170.912 585.21 170.159 595.844 177.066 601.615C182.107 605.826 190.027 606.55 200.601 603.77C233.494 595.114 244.306 577.797 244.411 577.624C244.85 576.896 245.799 576.66 246.525 577.102C247.254 577.541 247.49 578.485 247.052 579.213C246.601 579.965 235.599 597.746 201.387 606.75C196.942 607.92 192.898 608.504 189.272 608.504Z" fill="white"/>
<path d="M158.052 683.741C158.021 683.741 157.99 683.74 157.959 683.738C156.304 683.64 117.149 681.05 93.152 657.656C92.543 657.062 92.53 656.087 93.126 655.477C93.718 654.866 94.696 654.857 95.304 655.45C118.488 678.05 157.748 680.638 158.143 680.662C158.994 680.714 159.64 681.442 159.589 682.292C159.54 683.111 158.862 683.741 158.052 683.741Z" fill="white"/>
<path d="M155.665 749.354C155.298 749.354 154.93 749.223 154.635 748.958C154.463 748.812 153.763 748.447 153.145 748.125C147.609 745.245 130.759 736.477 135.052 706.437C136.392 697.07 140.115 690.936 146.117 688.208C158.386 682.623 175.465 693.561 176.188 694.028C176.901 694.492 177.104 695.446 176.641 696.159C176.177 696.873 175.223 697.077 174.51 696.614C174.346 696.509 158.119 686.128 147.387 691.015C142.406 693.282 139.283 698.617 138.104 706.873C134.119 734.75 148.974 742.48 154.567 745.392C155.584 745.921 156.255 746.27 156.696 746.667C157.328 747.236 157.38 748.211 156.81 748.844C156.507 749.183 156.087 749.354 155.665 749.354Z" fill="white"/>
<path d="M364.419 473.19C364.161 473.19 363.9 473.126 363.659 472.989C362.919 472.567 362.66 471.627 363.081 470.888C363.438 470.26 371.904 455.494 380.258 451.752C381.04 451.405 381.946 451.753 382.296 452.528C382.644 453.306 382.296 454.216 381.519 454.565C374.085 457.894 365.843 472.265 365.761 472.41C365.476 472.911 364.955 473.19 364.419 473.19Z" fill="white"/>
<path d="M394.843 461.262C394.448 461.262 394.053 461.112 393.753 460.811C393.151 460.208 393.151 459.235 393.753 458.633C394.054 458.332 401.286 451.196 416.292 444.593C417.074 444.246 417.979 444.605 418.321 445.383C418.665 446.161 418.311 447.07 417.531 447.413C403.106 453.762 396.001 460.742 395.93 460.813C395.63 461.113 395.237 461.262 394.843 461.262Z" fill="white"/>
<path d="M405.876 436.212C405.489 436.212 405.103 436.067 404.804 435.777C404.195 435.185 404.177 434.211 404.769 433.599C405.158 433.198 414.423 423.732 427.159 419.488C427.972 419.219 428.84 419.656 429.107 420.462C429.377 421.271 428.941 422.144 428.134 422.411C416.132 426.411 407.073 435.65 406.983 435.744C406.681 436.056 406.278 436.212 405.876 436.212Z" fill="white"/>
<path d="M450.907 417.719C450.292 417.719 449.71 417.348 449.471 416.74C449.16 415.947 449.553 415.053 450.346 414.743C450.914 414.52 464.45 409.281 479.412 408.081C480.289 408.006 481.005 408.647 481.072 409.494C481.14 410.343 480.508 411.087 479.66 411.154C465.162 412.316 451.603 417.561 451.468 417.614C451.284 417.686 451.095 417.719 450.907 417.719Z" fill="white"/>
<path d="M554.692 414.438C554.603 414.438 554.514 414.43 554.424 414.416C531.129 410.321 513.149 409.748 510.951 410.795C510.344 411.304 509.439 411.276 508.867 410.706C508.265 410.104 508.265 409.128 508.867 408.527C511.782 405.614 537.508 408.313 554.956 411.379C555.795 411.526 556.353 412.325 556.208 413.164C556.077 413.912 555.427 414.438 554.692 414.438Z" fill="white"/>
<path d="M437.192 441.58C436.618 441.58 436.067 441.258 435.801 440.706C435.432 439.938 435.756 439.018 436.524 438.65C437.139 438.353 451.696 431.387 458.387 430.171C459.223 430.013 460.028 430.571 460.178 431.411C460.332 432.247 459.776 433.05 458.938 433.201C452.655 434.345 438.004 441.356 437.857 441.427C437.642 441.532 437.415 441.58 437.192 441.58Z" fill="white"/>
<path d="M490.873 429.352C490.218 429.352 489.609 428.93 489.403 428.272C489.148 427.459 489.601 426.593 490.413 426.34C491.921 425.868 505.28 421.769 510.333 423.036C511.157 423.242 511.659 424.078 511.452 424.904C511.246 425.73 510.405 426.228 509.583 426.024C506.025 425.131 495.201 428.071 491.333 429.281C491.181 429.329 491.025 429.352 490.873 429.352Z" fill="white"/>
<path d="M576.761 436.212C576.491 436.212 576.218 436.142 575.97 435.992C564.568 429.153 554.841 429.341 554.736 429.351C554.721 429.351 554.707 429.351 554.69 429.351C553.861 429.351 553.175 428.69 553.15 427.855C553.127 427.005 553.796 426.294 554.646 426.269C555.077 426.269 565.375 426.043 577.556 433.349C578.285 433.787 578.522 434.734 578.083 435.463C577.795 435.945 577.284 436.212 576.761 436.212Z" fill="white"/>
<path d="M380.89 588.904C380.851 588.904 380.81 588.903 380.771 588.9C379.923 588.835 379.288 588.094 379.353 587.246C380.494 572.347 376.986 568.309 375.538 568.011C374.691 567.936 374.103 567.193 374.181 566.346C374.256 565.497 375.057 564.864 375.892 564.952C376.732 565.027 384.048 566.296 382.426 587.48C382.363 588.289 381.688 588.904 380.89 588.904Z" fill="white"/>
<path d="M399.614 594.23C399.527 594.23 399.438 594.222 399.35 594.208C398.511 594.062 397.948 593.264 398.094 592.426C400.324 579.569 393.783 572.394 393.717 572.322C393.135 571.701 393.168 570.725 393.79 570.145C394.41 569.564 395.385 569.595 395.967 570.218C396.281 570.554 403.619 578.6 401.131 592.951C401.003 593.702 400.351 594.23 399.614 594.23Z" fill="white"/>
<path d="M385.891 649.146C385.679 649.146 385.462 649.102 385.254 649.007C384.48 648.655 384.138 647.741 384.489 646.967C386.78 641.929 385.128 623.737 384.585 617.759C384.423 615.973 384.351 615.169 384.351 614.801C384.351 613.948 385.04 613.26 385.892 613.26C386.744 613.26 387.433 613.948 387.433 614.801C387.433 615.044 387.54 616.227 387.655 617.48C388.711 629.112 389.627 643.12 387.295 648.244C387.037 648.811 386.478 649.146 385.891 649.146Z" fill="white"/>
<path d="M338.178 640.199C337.488 640.199 336.86 639.732 336.685 639.031C334.853 631.705 336.572 612.491 336.645 611.677C336.723 610.831 337.463 610.195 338.32 610.281C339.168 610.358 339.792 611.107 339.715 611.956C339.697 612.15 337.97 631.461 339.675 638.283C339.883 639.108 339.38 639.945 338.554 640.151C338.428 640.184 338.302 640.199 338.178 640.199Z" fill="white"/>
<path d="M245.733 645.566C245.688 645.566 245.644 645.565 245.598 645.56L135.76 636.018C134.912 635.944 134.285 635.198 134.36 634.349C134.433 633.501 135.168 632.878 136.028 632.948L245.866 642.49C246.714 642.564 247.341 643.31 247.266 644.159C247.198 644.962 246.524 645.566 245.733 645.566Z" fill="white"/>
<path d="M220.083 683.741C219.871 683.741 219.654 683.698 219.448 683.604L135.259 645.429C134.484 645.076 134.14 644.163 134.491 643.388C134.845 642.614 135.757 642.269 136.531 642.62L220.721 680.796C221.496 681.148 221.838 682.062 221.489 682.836C221.229 683.406 220.671 683.741 220.083 683.741Z" fill="white"/>
<path d="M220.083 719.531C219.769 719.531 219.45 719.434 219.176 719.234L134.986 657.797C134.3 657.296 134.148 656.331 134.651 655.644C135.15 654.959 136.117 654.804 136.804 655.308L220.993 716.746C221.681 717.247 221.832 718.212 221.329 718.899C221.028 719.312 220.56 719.531 220.083 719.531Z" fill="white"/>
<path d="M90.6489 608.504C90.4359 608.504 90.2189 608.46 90.0109 608.365L1.19588 567.89C0.420882 567.536 0.0788828 566.622 0.429883 565.848C0.783883 565.073 1.70088 564.73 2.47288 565.084L91.2899 605.561C92.0629 605.915 92.4049 606.828 92.0529 607.603C91.7949 608.17 91.2349 608.504 90.6489 608.504Z" fill="#4BA3BC"/>
<path d="M74.6059 617.94C74.4559 617.94 74.3009 617.918 74.1489 617.871L2.97385 595.759C2.16085 595.506 1.70785 594.643 1.95885 593.83C2.21185 593.016 3.07585 592.565 3.88885 592.815L75.0639 614.927C75.8769 615.18 76.3309 616.043 76.0789 616.857C75.8739 617.518 75.2649 617.94 74.6059 617.94Z" fill="#4BA3BC"/>
<path d="M76.0458 627.487C75.9878 627.487 75.9298 627.484 75.8698 627.476L1.81883 619.075C0.972826 618.98 0.364827 618.216 0.461827 617.372C0.557827 616.526 1.32483 615.912 2.16483 616.015L76.2168 624.416C77.0628 624.511 77.6708 625.273 77.5738 626.119C77.4848 626.906 76.8188 627.487 76.0458 627.487Z" fill="#4BA3BC"/>
<path d="M117.49 645.566C109.28 645.566 105.456 641.346 103.913 629.832C99.7979 634.634 93.7359 633.97 91.4469 633.713C91.1059 633.675 90.8329 633.641 90.6509 633.641C89.7989 633.641 89.1099 632.952 89.1099 632.1C89.1099 631.248 89.7989 630.559 90.6509 630.559C90.9099 630.559 91.2969 630.597 91.7839 630.651C94.7159 630.971 100.805 631.644 103.522 624.4C103.778 623.721 104.475 623.313 105.183 623.416C105.899 623.52 106.449 624.106 106.501 624.828C107.714 641.185 112.004 642.485 117.489 642.485C118.342 642.485 119.03 643.174 119.03 644.026C119.03 644.878 118.343 645.566 117.49 645.566Z" fill="white"/>
<path d="M439.394 276.701H418.46V255.771C418.46 253.086 416.28 250.906 413.598 250.906C410.91 250.906 408.732 253.087 408.732 255.771V276.701H387.8C385.114 276.701 382.934 278.882 382.934 281.566C382.934 284.254 385.115 286.433 387.8 286.433H408.732V307.367C408.732 310.05 410.91 312.229 413.598 312.229C416.281 312.229 418.46 310.049 418.46 307.367V286.433H439.394C442.078 286.433 444.256 284.253 444.256 281.566C444.256 278.882 442.077 276.701 439.394 276.701Z" fill="#00748C"/>
<path d="M161.694 394.615H140.76V373.685C140.76 371 138.581 368.82 135.898 368.82C133.209 368.82 131.032 371.001 131.032 373.685V394.615H110.101C107.414 394.615 105.234 396.796 105.234 399.48C105.234 402.168 107.415 404.346 110.101 404.346H131.032V425.281C131.032 427.964 133.209 430.142 135.898 430.142C138.582 430.142 140.76 427.963 140.76 425.281V404.346H161.695C164.378 404.346 166.556 402.167 166.556 399.48C166.556 396.796 164.377 394.615 161.694 394.615Z" fill="#00748C"/>
<path d="M232.315 342.51H222.01V332.204C222.01 330.884 220.937 329.81 219.615 329.81C218.291 329.81 217.219 330.883 217.219 332.204V342.51H206.914C205.591 342.51 204.518 343.583 204.518 344.906C204.518 346.229 205.591 347.302 206.914 347.302H217.219V357.608C217.219 358.929 218.29 360.003 219.615 360.003C220.936 360.003 222.01 358.93 222.01 357.608V347.302H232.316C233.636 347.302 234.71 346.23 234.71 344.906C234.709 343.583 233.636 342.51 232.315 342.51Z" fill="#00748C"/>
<path d="M223.017 187.557H202.083V166.628C202.083 163.943 199.903 161.763 197.22 161.763C194.532 161.763 192.354 163.944 192.354 166.628V187.557H171.423C168.736 187.557 166.556 189.738 166.556 192.422C166.556 195.11 168.737 197.289 171.423 197.289H192.354V218.223C192.354 220.907 194.532 223.085 197.22 223.085C199.904 223.085 202.083 220.906 202.083 218.223V197.289H223.017C225.701 197.289 227.878 195.11 227.878 192.422C227.878 189.737 225.7 187.557 223.017 187.557Z" fill="#00748C"/>
<path d="M761.726 25.954H740.792V5.02502C740.792 2.34002 738.613 0.160034 735.931 0.160034C733.242 0.160034 731.064 2.34102 731.064 5.02502V25.954H710.132C707.446 25.954 705.267 28.135 705.267 30.819C705.267 33.507 707.447 35.686 710.132 35.686H731.064V56.62C731.064 59.304 733.242 61.482 735.931 61.482C738.614 61.482 740.792 59.303 740.792 56.62V35.686H761.726C764.41 35.686 766.589 33.506 766.589 30.819C766.589 28.135 764.409 25.954 761.726 25.954Z" fill="#00748C"/>
<path d="M984.905 168.116H963.971V147.186C963.971 144.501 961.792 142.321 959.11 142.321C956.421 142.321 954.243 144.502 954.243 147.186V168.116H933.311C930.625 168.116 928.445 170.297 928.445 172.981C928.445 175.669 930.626 177.847 933.311 177.847H954.243V198.782C954.243 201.465 956.421 203.643 959.11 203.643C961.793 203.643 963.971 201.464 963.971 198.782V177.847H984.905C987.589 177.847 989.768 175.668 989.768 172.981C989.769 170.297 987.589 168.116 984.905 168.116Z" fill="#00748C"/>
<path d="M811.273 100.47H795.471V84.672C795.471 82.646 793.825 80.999 791.8 80.999C789.77 80.999 788.127 82.645 788.127 84.672V100.47H772.325C770.299 100.47 768.652 102.116 768.652 104.142C768.652 106.172 770.298 107.817 772.325 107.817H788.127V123.62C788.127 125.645 789.77 127.29 791.8 127.29C793.825 127.29 795.471 125.645 795.471 123.62V107.817H811.273C813.298 107.817 814.944 106.172 814.944 104.142C814.944 102.116 813.299 100.47 811.273 100.47Z" fill="#00748C"/>
</svg>
