<svg width="226" height="103" viewBox="0 0 226 103" fill="none" xmlns="http://www.w3.org/2000/svg">
<path d="M76.7582 7.30686C76.6668 7.30686 76.5747 7.28052 76.4937 7.22497C74.0233 5.54645 72.3747 4.6929 72.3582 4.68433C72.1259 4.56498 72.0338 4.27899 72.1531 4.04537C72.2724 3.81238 72.5579 3.72001 72.7906 3.83968C72.8592 3.87491 74.5022 4.72465 77.0251 6.43903C77.2415 6.586 77.2976 6.88151 77.151 7.0983C77.0592 7.23416 76.9102 7.30686 76.7582 7.30686Z" fill="#FFEE9F"/>
<path d="M149.063 27.3768C144.784 35.6437 139.952 41.582 135.07 45.8379C119.407 59.4803 103.227 55.7754 103.227 55.7754C103.227 55.7754 107.638 33.6646 129.399 27.9802C134.814 26.5626 141.301 26.1639 149.063 27.3768Z" fill="#8CB369"/>
<path d="M135.07 45.8379C119.407 59.4803 103.227 55.7754 103.227 55.7754C103.227 55.7754 107.638 33.6645 129.399 27.9802C123.05 42.4472 132.607 35.0028 133.959 37.1514C135.366 39.3876 136.474 40.7385 135.07 45.8379Z" fill="#0C2C00"/>
<path d="M103.392 55.9458L103.063 55.6042C103.084 55.5839 105.207 53.5356 108.685 50.575C117.183 43.3401 133.722 30.6763 149.009 27.1453L149.116 27.6078C133.925 31.1163 117.456 43.7299 108.991 50.9369C105.526 53.8867 103.413 55.9255 103.392 55.9458Z" fill="#0C2C00"/>
<path d="M127.864 50.7992L114.682 45.8324L114.516 46.2769L127.697 51.2437L127.864 50.7992Z" fill="#0C2C00"/>
<path d="M130.973 48.8593L116.356 44.5473L116.222 45.0026L130.839 49.3146L130.973 48.8593Z" fill="#0C2C00"/>
<path d="M127.404 28.6975L126.96 28.5331L122.812 39.8014L123.256 39.9658L127.404 28.6975Z" fill="#0C2C00"/>
<path d="M129.796 35.8871L129.557 35.477L129.677 35.6821L129.556 35.4776C129.984 35.197 131.758 30.9801 133.226 27.0654L133.67 27.2327C133.157 28.5992 130.561 35.4402 129.796 35.8871Z" fill="#0C2C00"/>
<path d="M143.075 36.9946L134.592 32.791L134.383 33.2164L142.865 37.42L143.075 36.9946Z" fill="#0C2C00"/>
<path d="M112.222 38.8043L111.754 38.7377L110.254 49.342L110.723 49.4086L112.222 38.8043Z" fill="#0C2C00"/>
<path d="M134.707 45.9896L119.983 41.8606L119.855 42.3176L134.579 46.4467L134.707 45.9896Z" fill="#0C2C00"/>
<path d="M126.166 33.7401C118.953 52.4738 103.52 56.8098 103.52 56.8098C103.52 56.8098 99.849 44.9164 104.809 32.5891C108.111 24.386 115.23 15.9912 129.789 10.7766C129.967 20.1545 128.495 27.697 126.166 33.7401Z" fill="#8CB369"/>
<path d="M126.166 33.7402C118.952 52.474 103.52 56.8099 103.52 56.8099C103.52 56.8099 99.849 44.9165 104.809 32.5892C104.62 37.3146 108.243 37.3584 109.635 39.3877C111.429 42.0039 113.197 33.7938 126.166 33.7402Z" fill="#0C2C00"/>
<path d="M103.745 56.8816L103.293 56.7388C103.302 56.7111 104.176 53.947 105.793 49.7584C109.744 39.5248 118.094 20.8294 129.631 10.6002L129.945 10.9557C118.483 21.1186 110.17 39.7365 106.234 49.9298C104.624 54.1032 103.753 56.8543 103.745 56.8816Z" fill="#0C2C00"/>
<path d="M122.497 41.4121L122.432 40.9417L108.74 42.8422L108.805 43.3126L122.497 41.4121Z" fill="#0C2C00"/>
<path d="M124.308 38.2477L124.208 37.7841L109.588 40.9398L109.687 41.4034L124.308 38.2477Z" fill="#0C2C00"/>
<path d="M113.441 33.7657L111.76 22.0969L111.292 22.1648L112.973 33.8336L113.441 33.7657Z" fill="#0C2C00"/>
<path d="M117.149 27.1736L116.744 26.9273L116.946 27.0507L116.743 26.9285C116.98 26.4826 116.541 22.0136 115.979 17.9509L116.448 17.8856C116.723 19.8802 117.59 26.4461 117.149 27.1736Z" fill="#0C2C00"/>
<path d="M129.137 22.3722L129.119 21.8979L119.838 22.251L119.856 22.7252L129.137 22.3722Z" fill="#0C2C00"/>
<path d="M107.004 47.8134L103.347 37.9601L102.903 38.1258L106.561 47.9791L107.004 47.8134Z" fill="#0C2C00"/>
<path d="M126.208 34.0189L126.102 33.5565L111.479 36.9384L111.586 37.4008L126.208 34.0189Z" fill="#0C2C00"/>
<path d="M68.369 12.6337C68.3221 8.76915 68.6484 4.58238 69.4267 0.0480347C105.096 19.3373 104.66 46.7129 103.669 54.7325C103.489 56.2043 103.288 57.023 103.288 57.023C103.288 57.023 81.8605 52.3686 72.5743 32.315V32.3128C70.0806 26.9306 68.4636 20.4404 68.369 12.6337Z" fill="#8CB369"/>
<path d="M103.669 54.7332C103.489 56.2051 103.288 57.0237 103.288 57.0237C103.288 57.0237 81.8607 52.3694 72.5745 32.3157V32.3135C72.5745 32.3135 93.8242 39.8824 97.9542 43.5854C100.425 45.8001 102.446 50.9499 103.669 54.7332Z" fill="#0C2C00"/>
<path d="M103.289 57.2615C103.159 57.2615 103.149 57.2615 101.442 55.3227C100.474 54.2235 98.9306 52.4377 97.0724 50.1707C88.3872 39.5723 73.2166 18.975 69.1948 0.0992876L69.6578 -6.10352e-05C73.6581 18.7772 88.7803 39.3044 97.4382 49.8691C101.033 54.2562 103.438 56.8365 103.46 56.8606L103.288 57.0231V57.2615H103.289Z" fill="#0C2C00"/>
<path d="M98.1762 26.7774L97.7368 26.6039L91.4035 42.7326L91.8429 42.9061L98.1762 26.7774Z" fill="#0C2C00"/>
<path d="M95.8407 22.8927L95.3887 22.7513L89.8189 40.657L90.2709 40.7984L95.8407 22.8927Z" fill="#0C2C00"/>
<path d="M84.3192 32.0823L70.6118 26.7504L70.4404 27.1934L84.1479 32.5253L84.3192 32.0823Z" fill="#0C2C00"/>
<path d="M79.0063 24.1908C78.7034 23.6487 73.4991 21.362 68.7563 19.4864L68.9301 19.0442C70.5899 19.7009 78.8968 23.0237 79.4193 23.9585L79.0063 24.1908Z" fill="#0C2C00"/>
<path d="M81.5696 7.83627L81.1492 7.61926L75.8343 17.9758L76.2547 18.1928L81.5696 7.83627Z" fill="#0C2C00"/>
<path d="M95.6206 47.7431L82.6722 45.6855L82.5982 46.1542L95.5465 48.2118L95.6206 47.7431Z" fill="#0C2C00"/>
<path d="M92.4057 18.2411L91.9527 18.1063L86.6134 36.1507L87.0664 36.2855L92.4057 18.2411Z" fill="#0C2C00"/>
<path d="M103.289 57.024C103.289 57.024 108.269 32.0568 136.474 36.4641C123.448 61.6412 103.289 57.024 103.289 57.024Z" fill="#8CB369"/>
<path d="M103.453 57.1949L103.125 56.8534C103.14 56.8385 104.678 55.3542 107.198 53.2094C113.355 47.9678 125.34 38.7922 136.42 36.2332L136.527 36.6956C125.544 39.2325 113.629 48.3579 107.504 53.5716C104.997 55.7059 103.468 57.1803 103.453 57.1949Z" fill="#0C2C00"/>
<path d="M121.149 53.3594L111.605 49.7634L111.439 50.2079L120.983 53.8039L121.149 53.3594Z" fill="#0C2C00"/>
<path d="M123.401 51.9589L112.818 48.837L112.684 49.292L123.267 52.4139L123.401 51.9589Z" fill="#0C2C00"/>
<path d="M120.875 37.4378L120.431 37.2733L117.423 45.4299L117.867 45.5944L120.875 37.4378Z" fill="#0C2C00"/>
<path d="M122.557 42.6821L122.319 42.2717L122.313 42.2758C122.632 42.0286 123.903 39.0004 124.948 36.2154L125.39 36.3826C124.72 38.1707 123.101 42.3644 122.557 42.6821Z" fill="#0C2C00"/>
<path d="M132.162 43.366L126.021 40.3225L125.811 40.748L131.952 43.7915L132.162 43.366Z" fill="#0C2C00"/>
<path d="M109.871 44.7375L109.402 44.6708L108.318 52.3486L108.787 52.4152L109.871 44.7375Z" fill="#0C2C00"/>
<path d="M126.097 49.8803L115.438 46.891L115.31 47.348L125.97 50.3373L126.097 49.8803Z" fill="#0C2C00"/>
<path d="M78.9737 46.316C77.8716 44.3674 76.9003 42.0953 76.1135 39.4467C99.7059 40.2584 103.469 57.1502 103.469 57.1502C103.469 57.1502 87.3993 61.2122 78.9737 46.316Z" fill="#8CB369"/>
<path d="M103.386 57.3726C103.369 57.3662 101.702 56.7361 99.1845 55.6007C93.0336 52.8265 81.8325 47.058 75.9282 39.5942L76.2985 39.299C82.1408 46.6841 93.2665 52.411 99.3785 55.1675C101.882 56.2968 103.536 56.9218 103.553 56.9279L103.386 57.3726Z" fill="#0C2C00"/>
<path d="M95.4592 53.4167L94.7375 44.9133L94.2664 44.9535L94.988 53.4569L95.4592 53.4167Z" fill="#0C2C00"/>
<path d="M94.323 52.836L92.872 43.7177L92.4048 43.7925L93.8558 52.9108L94.323 52.836Z" fill="#0C2C00"/>
<path d="M89.712 50.6749L89.6694 50.202L82.4619 50.856L82.5046 51.3289L89.712 50.6749Z" fill="#0C2C00"/>
<path d="M80.0653 48.2864L80.0251 47.8138C81.614 47.6786 85.357 47.3977 85.8007 47.7011L85.5336 48.0934L85.544 48.0995C85.2234 47.9516 82.5065 48.0785 80.0653 48.2864Z" fill="#0C2C00"/>
<path d="M83.2704 40.2306L82.797 40.2238L82.7147 45.957L83.1881 45.9639L83.2704 40.2306Z" fill="#0C2C00"/>
<path d="M98.1748 55.0578L98.0333 54.605L91.875 56.5409L92.0166 56.9937L98.1748 55.0578Z" fill="#0C2C00"/>
<path d="M91.9115 51.5377L90.3326 42.4087L89.8658 42.4899L91.4446 51.6189L91.9115 51.5377Z" fill="#0C2C00"/>
<path d="M98.1029 32.259C97.92 32.259 97.7462 32.152 97.6684 31.9733C97.1787 30.8411 96.6353 29.705 96.0529 28.5969C95.9311 28.3652 96.0197 28.0779 96.2507 27.9554C96.4818 27.8332 96.7682 27.9221 96.8901 28.1541C97.4841 29.2832 98.038 30.4408 98.5368 31.5953C98.6413 31.8359 98.5305 32.1155 98.2909 32.2196C98.2298 32.2463 98.1662 32.259 98.1029 32.259Z" fill="white"/>
<path d="M94.812 25.929C94.6531 25.929 94.4974 25.8484 94.4078 25.7024C93.6884 24.5264 92.9063 23.3538 92.0834 22.2174C91.9296 22.0051 91.9764 21.7083 92.1878 21.5544C92.3992 21.4004 92.6955 21.4474 92.8493 21.6591C93.6865 22.8158 94.4825 24.0086 95.2152 25.2059C95.3519 25.4291 95.282 25.7218 95.0595 25.8589C94.9819 25.9065 94.8961 25.929 94.812 25.929Z" fill="white"/>
<path d="M90.7294 20.1378C90.5908 20.1378 90.4537 20.0774 90.3604 19.9606C87.434 16.3179 83.9958 12.9317 80.1395 9.89686C79.9338 9.73497 79.8977 9.43627 80.0591 9.23026C80.2212 9.02394 80.5184 8.98808 80.7238 9.14965C84.6361 12.2296 88.1265 15.6663 91.0972 19.3652C91.2618 19.5696 91.2295 19.868 91.026 20.0327C90.9386 20.1035 90.8335 20.1378 90.7294 20.1378Z" fill="white"/>
<path d="M97.7889 49.2933C97.6759 49.2933 97.562 49.253 97.4718 49.1708C96.0649 47.8964 94.0058 46.5324 91.3532 45.1171C91.1221 44.9942 91.0341 44.7066 91.1572 44.4752C91.2797 44.2438 91.5665 44.1562 91.7975 44.2794C94.5188 45.7309 96.6416 47.1403 98.1061 48.4668C98.3001 48.6423 98.3156 48.9423 98.1399 49.1369C98.0469 49.2407 97.9181 49.2933 97.7889 49.2933Z" fill="white"/>
<path d="M89.2544 44.5761C89.1974 44.5761 89.1401 44.5656 89.0844 44.544C87.1917 43.8136 85.1047 43.0978 82.8816 42.4167C82.6312 42.3402 82.491 42.0745 82.567 41.824C82.6436 41.5733 82.9075 41.4317 83.1585 41.5085C85.4025 42.1967 87.5104 42.9198 89.4243 43.6581C89.668 43.7524 89.7896 44.0269 89.6962 44.2717C89.6234 44.4602 89.4443 44.5761 89.2544 44.5761Z" fill="white"/>
<path d="M81.0181 41.8454C80.9753 41.8454 80.9316 41.8393 80.8883 41.827C79.4836 41.4257 78.587 41.2013 78.5781 41.1991C78.324 41.136 78.1695 40.8782 78.2325 40.6236C78.2955 40.3694 78.5522 40.2132 78.8063 40.2776C78.8155 40.2799 79.7261 40.5078 81.1478 40.9134C81.3988 40.9855 81.5447 41.248 81.4729 41.5003C81.4143 41.7089 81.2244 41.8454 81.0181 41.8454Z" fill="white"/>
<path d="M127.783 18.3928C127.761 18.3928 127.739 18.3916 127.719 18.3884C127.46 18.3532 127.278 18.1141 127.313 17.8542C127.438 16.9232 127.554 16.0312 127.581 15.3453C127.591 15.0831 127.806 14.8774 128.072 14.8895C128.334 14.8996 128.537 15.1206 128.527 15.3821C128.498 16.1103 128.38 17.0276 128.251 17.9815C128.219 18.2202 128.015 18.3928 127.783 18.3928Z" fill="white"/>
<path d="M120.135 17.466C119.989 17.466 119.847 17.4 119.753 17.274C119.598 17.0639 119.642 16.7661 119.852 16.6103C121.149 15.6466 122.401 14.8283 123.575 14.1779C124.289 13.7821 124.884 13.4885 125.392 13.2809C125.634 13.1812 125.911 13.2977 126.009 13.5411C126.108 13.7836 125.991 14.0608 125.749 14.1595C125.276 14.3531 124.714 14.6308 124.033 15.0086C122.896 15.6386 121.679 16.4344 120.416 17.3727C120.331 17.4356 120.232 17.466 120.135 17.466Z" fill="white"/>
<path d="M114.189 22.779C114.098 22.779 114.006 22.7526 113.924 22.6971C113.707 22.5501 113.651 22.2549 113.798 22.0381C114.083 21.615 115.422 20.2695 117.084 18.8335C117.283 18.6624 117.582 18.6846 117.752 18.8836C117.922 19.082 117.9 19.3816 117.702 19.5527C115.852 21.15 114.736 22.3422 114.581 22.5704C114.49 22.706 114.34 22.779 114.189 22.779Z" fill="white"/>
<path d="M135.592 29.3419C135.359 29.3419 135.156 29.1693 135.123 28.9315C135.088 28.6719 135.269 28.4325 135.528 28.3967C136.129 28.3138 136.726 28.2383 137.302 28.1719C137.561 28.1424 137.796 28.3291 137.826 28.589C137.856 28.8493 137.669 29.0851 137.41 29.115C136.842 29.1807 136.252 29.2553 135.657 29.3368C135.634 29.3403 135.612 29.3419 135.592 29.3419Z" fill="white"/>
<path d="M127.215 37.9246C126.991 37.9246 126.791 37.7633 126.75 37.5341C126.703 37.2761 126.875 37.0295 127.132 36.9831C127.776 36.8669 128.427 36.7647 129.069 36.6806C129.328 36.6495 129.565 36.8295 129.6 37.0894C129.634 37.3494 129.451 37.5875 129.192 37.6221C128.566 37.7043 127.929 37.804 127.299 37.9176C127.272 37.9224 127.243 37.9246 127.215 37.9246Z" fill="white"/>
<path d="M121.65 39.3474C121.452 39.3474 121.267 39.2217 121.201 39.023C121.118 38.7741 121.252 38.5053 121.5 38.4221C121.728 38.3462 121.959 38.271 122.193 38.1977C122.443 38.1202 122.708 38.2593 122.786 38.5097C122.864 38.7598 122.724 39.0262 122.474 39.1039C122.246 39.1753 122.022 39.2487 121.8 39.3226C121.75 39.3391 121.7 39.3474 121.65 39.3474Z" fill="white"/>
<path d="M112.702 43.7382C112.551 43.7382 112.404 43.6661 112.312 43.5331C112.163 43.3169 112.217 43.0218 112.433 42.8729C112.611 42.7494 112.808 42.6161 113.023 42.4752C113.242 42.3317 113.535 42.3939 113.678 42.6135C113.82 42.8332 113.759 43.1271 113.54 43.2703C113.331 43.4068 113.142 43.5353 112.97 43.6544C112.888 43.7109 112.794 43.7382 112.702 43.7382Z" fill="white"/>
<path d="M111.516 44.6146C111.375 44.6146 111.233 44.5504 111.14 44.4286C110.981 44.221 111.02 43.9226 111.228 43.7632L111.282 43.7207C111.445 43.5918 111.828 43.2903 112.432 42.8722C112.647 42.7234 112.942 42.7773 113.091 42.9932C113.239 43.2093 113.185 43.5045 112.97 43.6537C112.39 44.0549 112.023 44.3441 111.866 44.4673L111.804 44.5155C111.718 44.5825 111.617 44.6146 111.516 44.6146Z" fill="white"/>
<path d="M73.2976 34.1499C73.1919 34.1499 73.0875 34.103 73.0175 34.0125C72.1614 32.9101 71.3999 31.3436 70.7545 29.3559C70.6941 29.1687 70.796 28.9677 70.9821 28.9071C71.1682 28.8455 71.3692 28.9484 71.4296 29.1353C72.0497 31.0446 72.7723 32.5384 73.5778 33.5748C73.6983 33.7297 73.6705 33.9535 73.516 34.0744C73.4511 34.1255 73.3742 34.1499 73.2976 34.1499Z" fill="#0C2C00"/>
<path d="M70.0987 25.802C69.9347 25.802 69.7873 25.6874 69.7518 25.5198C69.1656 22.7392 68.7168 19.4196 68.4171 15.6535C68.401 15.4576 68.5469 15.2859 68.7428 15.2703C68.9362 15.258 69.1087 15.4008 69.1248 15.597C69.422 19.3327 69.8667 22.6214 70.4465 25.3722C70.4867 25.5642 70.3642 25.7534 70.1728 25.7944C70.1474 25.7995 70.1234 25.802 70.0987 25.802Z" fill="#0C2C00"/>
<path d="M68.4987 11.5699C68.3094 11.5699 68.1525 11.4208 68.1446 11.23C67.9474 6.85563 68.0091 3.59508 68.0091 3.56302C68.0135 3.36908 68.1718 3.21387 68.3645 3.21387C68.3645 3.21387 68.369 3.21387 68.3712 3.21387C68.5671 3.21799 68.7228 3.38019 68.7193 3.57699C68.7187 3.60937 68.6576 6.84832 68.8535 11.1982C68.8621 11.3944 68.7108 11.561 68.5149 11.5696C68.5092 11.5696 68.5038 11.5699 68.4987 11.5699Z" fill="#0C2C00"/>
<path d="M89.2421 56.1327C89.1946 56.1327 89.1468 56.1235 89.1013 56.1029C88.0014 55.6252 86.9266 55.0291 85.9065 54.3314C85.7444 54.2206 85.703 53.999 85.8131 53.8362C85.9239 53.6743 86.1445 53.6318 86.3072 53.7429C87.2899 54.4152 88.3249 54.9897 89.3833 55.45C89.563 55.5281 89.646 55.7375 89.5681 55.9182C89.5099 56.0524 89.3795 56.1327 89.2421 56.1327Z" fill="#0C2C00"/>
<path d="M82.5696 51.3474C82.4756 51.3474 82.3816 51.3103 82.3119 51.236C78.1806 46.8578 76.4924 41.8978 76.4228 41.689C76.3604 41.5023 76.4604 41.3008 76.6465 41.2382C76.832 41.1763 77.0336 41.276 77.096 41.4623C77.1128 41.5122 78.8083 46.4871 82.8275 50.7465C82.9624 50.8891 82.956 51.1144 82.8139 51.25C82.7452 51.3154 82.6576 51.3474 82.5696 51.3474Z" fill="#0C2C00"/>
<path d="M120.211 15.6368C120.087 15.6368 119.967 15.5711 119.901 15.4543C119.806 15.2829 119.867 15.0657 120.038 14.9702C123.599 12.9778 125.997 11.8909 126.02 11.8798C126.199 11.7995 126.409 11.8795 126.49 12.0585C126.57 12.2379 126.49 12.4486 126.312 12.5296C126.288 12.5397 123.916 13.6158 120.384 15.592C120.329 15.6225 120.27 15.6368 120.211 15.6368Z" fill="#0C2C00"/>
<path d="M111.393 22.3558C111.306 22.3558 111.218 22.3238 111.149 22.2587C111.007 22.1241 110.999 21.8988 111.134 21.7556C112.047 20.7834 113.029 19.8555 114.054 18.9982C114.205 18.8718 114.429 18.8925 114.554 19.0436C114.679 19.1943 114.66 19.4191 114.509 19.5448C113.506 20.384 112.544 21.2922 111.651 22.2438C111.581 22.3184 111.486 22.3558 111.393 22.3558Z" fill="#0C2C00"/>
<path d="M107.872 26.8245C107.804 26.8245 107.737 26.8055 107.677 26.7658C107.512 26.6579 107.467 26.4373 107.575 26.2728C108.228 25.2758 108.947 24.3007 109.711 23.3739C109.836 23.2218 110.059 23.2005 110.21 23.3262C110.362 23.4516 110.383 23.6763 110.258 23.8274C109.51 24.7346 108.807 25.6888 108.168 26.6642C108.1 26.7686 107.987 26.8245 107.872 26.8245Z" fill="#0C2C00"/>
<path d="M104.81 32.9452C104.776 32.9452 104.742 32.9401 104.708 32.93C104.52 32.8738 104.414 32.6754 104.47 32.4872C104.487 32.4313 104.888 31.0994 105.929 29.0854C106.019 28.9111 106.234 28.8432 106.408 28.9333C106.581 29.0238 106.65 29.239 106.56 29.4136C105.552 31.3619 105.154 32.6779 105.15 32.691C105.104 32.8452 104.963 32.9452 104.81 32.9452Z" fill="#0C2C00"/>
<path d="M122.476 37.3733C122.32 37.3733 122.178 37.2694 122.134 37.1117C122.082 36.9222 122.194 36.726 122.382 36.674C124.217 36.1671 126.154 35.8192 128.141 35.6389C128.336 35.6233 128.509 35.7652 128.527 35.9617C128.544 36.1575 128.4 36.3302 128.205 36.3483C126.26 36.5245 124.364 36.8651 122.57 37.3605C122.539 37.3688 122.508 37.3733 122.476 37.3733Z" fill="#0C2C00"/>
<path d="M112.541 42.3754C112.437 42.3754 112.333 42.3294 112.263 42.2409C112.141 42.0869 112.167 41.8628 112.321 41.7406C113.96 40.436 115.771 39.313 117.703 38.4026C117.881 38.3188 118.092 38.3956 118.175 38.5734C118.258 38.7518 118.182 38.9635 118.005 39.047C116.123 39.9338 114.359 41.0274 112.762 42.298C112.697 42.35 112.619 42.3754 112.541 42.3754Z" fill="#0C2C00"/>
<path d="M107.461 47.9158C107.401 47.9158 107.342 47.9009 107.286 47.8695C107.116 47.7727 107.056 47.5556 107.152 47.3845C107.19 47.3178 108.098 45.7291 110.114 43.71C110.253 43.571 110.478 43.571 110.616 43.7103C110.755 43.8494 110.755 44.0747 110.616 44.2138C108.667 46.1649 107.779 47.7203 107.77 47.7355C107.705 47.8511 107.584 47.9158 107.461 47.9158Z" fill="#0C2C00"/>
<path d="M118.54 69.19C118.54 72.4 117.85 75.31 116.47 77.92C115.06 80.5 113.125 82.54 110.665 84.04C108.175 85.51 105.37 86.245 102.25 86.245C99.13 86.245 96.34 85.51 93.88 84.04C91.39 82.54 89.455 80.5 88.075 77.92C86.665 75.31 85.96 72.385 85.96 69.145C85.96 66.415 86.44 63.955 87.4 61.765C88.36 59.545 89.74 57.685 91.54 56.185L95.86 60.865C93.4 62.995 92.17 65.635 92.17 68.785C92.17 70.735 92.605 72.475 93.475 74.005C94.315 75.535 95.5 76.735 97.03 77.605C98.56 78.445 100.3 78.865 102.25 78.865C104.2 78.865 105.94 78.445 107.47 77.605C109 76.735 110.2 75.535 111.07 74.005C111.91 72.475 112.33 70.735 112.33 68.785C112.33 65.635 111.085 62.995 108.595 60.865L112.915 56.185C114.745 57.685 116.14 59.545 117.1 61.765C118.06 63.985 118.54 66.46 118.54 69.19Z" fill="black"/>
<path d="M11.58 60C13.44 60 15.05 60.31 16.41 60.93C17.79 61.55 18.85 62.43 19.59 63.57C20.33 64.71 20.7 66.06 20.7 67.62C20.7 69.16 20.33 70.51 19.59 71.67C18.85 72.81 17.79 73.69 16.41 74.31C15.05 74.91 13.44 75.21 11.58 75.21H7.35V81H2.49V60H11.58ZM11.31 71.25C12.77 71.25 13.88 70.94 14.64 70.32C15.4 69.68 15.78 68.78 15.78 67.62C15.78 66.44 15.4 65.54 14.64 64.92C13.88 64.28 12.77 63.96 11.31 63.96H7.35V71.25H11.31ZM24.1327 58.74H28.8127V81H24.1327V58.74ZM39.6661 64.62C42.1661 64.62 44.0861 65.22 45.4261 66.42C46.7661 67.6 47.4361 69.39 47.4361 71.79V81H43.0561V78.99C42.1761 80.49 40.5361 81.24 38.1361 81.24C36.8961 81.24 35.8161 81.03 34.8961 80.61C33.9961 80.19 33.3061 79.61 32.8261 78.87C32.3461 78.13 32.1061 77.29 32.1061 76.35C32.1061 74.85 32.6661 73.67 33.7861 72.81C34.9261 71.95 36.6761 71.52 39.0361 71.52H42.7561C42.7561 70.5 42.4461 69.72 41.8261 69.18C41.2061 68.62 40.2761 68.34 39.0361 68.34C38.1761 68.34 37.3261 68.48 36.4861 68.76C35.6661 69.02 34.9661 69.38 34.3861 69.84L32.7061 66.57C33.5861 65.95 34.6361 65.47 35.8561 65.13C37.0961 64.79 38.3661 64.62 39.6661 64.62ZM39.3061 78.09C40.1061 78.09 40.8161 77.91 41.4361 77.55C42.0561 77.17 42.4961 76.62 42.7561 75.9V74.25H39.5461C37.6261 74.25 36.6661 74.88 36.6661 76.14C36.6661 76.74 36.8961 77.22 37.3561 77.58C37.8361 77.92 38.4861 78.09 39.3061 78.09ZM61.4817 64.62C63.4817 64.62 65.0917 65.22 66.3117 66.42C67.5517 67.62 68.1717 69.4 68.1717 71.76V81H63.4917V72.48C63.4917 71.2 63.2117 70.25 62.6517 69.63C62.0917 68.99 61.2817 68.67 60.2217 68.67C59.0417 68.67 58.1017 69.04 57.4017 69.78C56.7017 70.5 56.3517 71.58 56.3517 73.02V81H51.6717V64.86H56.1417V66.75C56.7617 66.07 57.5317 65.55 58.4517 65.19C59.3717 64.81 60.3817 64.62 61.4817 64.62ZM82.8239 80.22C82.3639 80.56 81.7939 80.82 81.1139 81C80.4539 81.16 79.7539 81.24 79.0139 81.24C77.0939 81.24 75.6039 80.75 74.5439 79.77C73.5039 78.79 72.9839 77.35 72.9839 75.45V68.82H70.4939V65.22H72.9839V61.29H77.6639V65.22H81.6839V68.82H77.6639V75.39C77.6639 76.07 77.8339 76.6 78.1739 76.98C78.5339 77.34 79.0339 77.52 79.6739 77.52C80.4139 77.52 81.0439 77.32 81.5639 76.92L82.8239 80.22ZM128.155 78H121.655L120.415 81H117.095L123.335 67H126.535L132.795 81H129.395L128.155 78ZM127.135 75.54L124.915 70.18L122.695 75.54H127.135ZM143.168 81L140.468 77.1H140.308H137.488V81H134.248V67H140.308C141.548 67 142.621 67.2067 143.528 67.62C144.448 68.0333 145.155 68.62 145.648 69.38C146.141 70.14 146.388 71.04 146.388 72.08C146.388 73.12 146.135 74.02 145.628 74.78C145.135 75.5267 144.428 76.1 143.508 76.5L146.648 81H143.168ZM143.108 72.08C143.108 71.2933 142.855 70.6933 142.348 70.28C141.841 69.8533 141.101 69.64 140.128 69.64H137.488V74.52H140.128C141.101 74.52 141.841 74.3067 142.348 73.88C142.855 73.4533 143.108 72.8533 143.108 72.08ZM148.955 67H155.315C156.835 67 158.175 67.2933 159.335 67.88C160.508 68.4533 161.415 69.2667 162.055 70.32C162.708 71.3733 163.035 72.6 163.035 74C163.035 75.4 162.708 76.6267 162.055 77.68C161.415 78.7333 160.508 79.5533 159.335 80.14C158.175 80.7133 156.835 81 155.315 81H148.955V67ZM155.155 78.34C156.555 78.34 157.668 77.9533 158.495 77.18C159.335 76.3933 159.755 75.3333 159.755 74C159.755 72.6667 159.335 71.6133 158.495 70.84C157.668 70.0533 156.555 69.66 155.155 69.66H152.195V78.34H155.155Z" fill="black"/>
</svg>
