<svg width="1439" height="904" viewBox="0 0 1439 904" fill="none" xmlns="http://www.w3.org/2000/svg">
<path d="M175 741.183C110.2 725.183 31.3333 747.849 0 761.183V905.183H1439V643.682C1426 559.183 1409.5 421.182 1294 400.682C1235.97 390.383 1147.49 409.682 1104 459.682C1030.5 544.182 883.5 507.182 802.5 525.682C696.236 549.953 628.509 674.764 555.5 713.682C434.5 778.182 256 761.183 175 741.183Z" fill="url(#paint0_linear)"/>
<path d="M1327.09 249.473C1325.06 251.642 1302.87 276.162 1321.32 302.675C1321.32 302.686 1321.34 302.686 1321.34 302.708C1333.95 311.462 1342.18 326 1342.18 342.433C1342.18 364.83 1326.87 383.683 1306.05 389.26C1300.43 391.43 1292.94 400.04 1288.28 405.968C1285.85 409.036 1284.18 411.392 1283.93 411.776C1283.89 411.818 1283.88 411.828 1283.88 411.828C1278.3 417.637 1270.45 421.242 1261.73 421.242C1251.34 421.242 1242.14 416.092 1236.62 408.215C1226.16 395.067 1218.65 390.049 1214.88 388.176C1213.26 387.387 1212.33 387.157 1212.13 387.113C1212.09 387.093 1212.08 387.093 1212.08 387.093C1194.56 379.729 1182.26 362.495 1182.26 342.433C1182.26 327.513 1189.05 314.168 1199.73 305.283V305.26C1210.61 288.116 1210.06 273.85 1206.2 263.375C1204.44 258.589 1201.98 254.588 1199.62 251.478C1195.78 246.416 1192.16 243.688 1192.16 243.688C1185.94 235.56 1182.26 225.425 1182.26 214.437C1182.26 199.186 1189.34 185.589 1200.45 176.714C1200.45 176.714 1200.45 176.692 1200.46 176.692C1220.1 149.478 1202.08 130.043 1200.56 128.465C1200.48 128.387 1200.45 128.367 1200.45 128.367C1189.34 119.481 1182.26 105.884 1182.26 90.6329C1182.26 69.205 1196.3 50.9841 1215.73 44.6194C1215.73 44.6194 1215.75 44.6194 1215.76 44.6063C1215.8 44.6063 1215.82 44.5745 1215.87 44.5633C1215.88 44.5633 1215.88 44.5415 1215.89 44.5415C1217.09 43.9707 1224.5 40.0171 1231.39 26.5742C1233.26 11.5976 1246.13 0.00619507 1261.73 0.00619507C1273.37 0.00619507 1283.49 6.44691 1288.66 15.9357C1288.66 15.9357 1288.66 15.9481 1288.68 15.9911C1288.75 16.5059 1289.46 20.8221 1292.05 26.2676C1294.68 31.8221 1299.23 38.5389 1307.04 43.5886C1307.04 43.5886 1307.04 43.5886 1307.05 43.5886C1307.57 43.9289 1308.1 44.2573 1308.64 44.5752C1321.02 48.6403 1331.22 57.4703 1337 68.886C1339.5 73.8055 1341.16 79.2073 1341.84 84.9052C1342.07 86.7878 1342.18 88.6948 1342.18 90.6336C1342.18 104.34 1336.46 116.71 1327.23 125.53C1327.23 125.53 1327.19 125.574 1327.1 125.661C1325.1 127.709 1302.5 151.79 1323.98 176.693L1324 176.715C1335.1 185.59 1342.18 199.188 1342.18 214.437C1342.18 228.132 1336.46 240.502 1327.23 249.321C1327.23 249.319 1327.19 249.375 1327.09 249.473Z" fill="#8CB369"/>
<path d="M1327.09 249.473C1325.06 251.641 1302.87 276.161 1321.32 302.675C1321.32 302.685 1321.34 302.685 1321.34 302.707C1333.95 311.461 1342.18 325.999 1342.18 342.433C1342.18 364.829 1326.87 383.683 1306.05 389.259C1300.43 391.429 1292.94 400.04 1288.28 405.967C1285.85 409.036 1284.18 411.392 1283.93 411.776C1283.89 411.818 1283.88 411.828 1283.88 411.828C1278.3 417.636 1270.45 421.242 1261.73 421.242C1251.34 421.242 1242.14 416.091 1236.62 408.214C1226.16 395.066 1218.65 390.048 1214.88 388.175C1213.26 387.387 1212.33 387.156 1212.13 387.113C1212.09 387.093 1212.08 387.093 1212.08 387.093C1194.56 379.728 1182.26 362.494 1182.26 342.433C1182.26 327.512 1189.05 314.168 1199.73 305.282V305.26C1210.61 288.115 1210.06 273.85 1206.2 263.375C1215.72 247.523 1224.74 231.952 1230.09 222.268C1243.62 197.782 1239.76 144.865 1249.11 101.753C1254.61 76.4778 1283.82 56.1093 1307.04 43.5875C1307.04 43.5875 1307.04 43.5875 1307.05 43.5875C1307.57 43.9278 1308.1 44.2562 1308.64 44.574C1321.02 48.6391 1331.22 57.4691 1337 68.8848C1338.15 73.7719 1339.72 79.1177 1341.84 84.904C1342.07 86.7867 1342.18 88.6937 1342.18 90.6324C1342.18 104.339 1336.46 116.709 1327.23 125.529C1327.23 125.529 1327.19 125.572 1327.1 125.66C1325.1 127.708 1302.5 151.789 1323.99 176.692L1324 176.714C1335.1 185.589 1342.18 199.187 1342.18 214.436C1342.18 228.131 1336.46 240.501 1327.23 249.319C1327.23 249.319 1327.19 249.374 1327.09 249.473Z" fill="#0C2C00"/>
<path d="M1265.48 526.386C1265.44 525.263 1260.63 412.745 1260.63 277.823V0H1262.84V277.822C1262.84 412.694 1267.64 525.171 1267.69 526.29L1265.48 526.386Z" fill="#0C2C00"/>
<path d="M1309.55 45.2096L1307.76 43.9281L1260.85 108.384L1262.64 109.666L1309.55 45.2096Z" fill="#0C2C00"/>
<path d="M1326.84 55.3093L1325.18 53.8579L1261.4 125.469L1263.06 126.92L1326.84 55.3093Z" fill="#0C2C00"/>
<path d="M1262.96 180.947L1198.69 125.376L1197.24 127.029L1261.5 182.6L1262.96 180.947Z" fill="#0C2C00"/>
<path d="M1261.23 194.88L1206.16 166.665L1207.17 164.717L1262.24 192.933L1261.23 194.88Z" fill="#0C2C00"/>
<path d="M1333.05 186.009L1331.52 184.429L1260.98 251.744L1262.51 253.324L1333.05 186.009Z" fill="#0C2C00"/>
<path d="M1314.75 278.769L1313.59 276.908L1261.15 309.18L1262.31 311.041L1314.75 278.769Z" fill="#0C2C00"/>
<path d="M1317.11 294.921L1316.06 292.995L1261.68 322.28L1262.73 324.206L1317.11 294.921Z" fill="#0C2C00"/>
<path d="M1342.71 343.396L1341.65 341.474L1261.68 384.924L1262.74 386.846L1342.71 343.396Z" fill="#0C2C00"/>
<path d="M1262.21 357.637L1186.72 322.269L1185.78 324.25L1261.26 359.618L1262.21 357.637Z" fill="#0C2C00"/>
<path d="M1262.13 370.727L1182.65 341.414L1181.88 343.467L1261.36 372.781L1262.13 370.727Z" fill="#0C2C00"/>
<path d="M1262.13 281.811L1205.49 259.627L1204.67 261.664L1261.32 283.847L1262.13 281.811Z" fill="#0C2C00"/>
<path d="M1262.74 259.673L1182.99 217.891L1181.95 219.827L1261.71 261.609L1262.74 259.673Z" fill="#0C2C00"/>
<path d="M1262.41 78.0834L1216.58 43.6609L1215.24 45.4077L1261.08 79.8302L1262.41 78.0834Z" fill="#0C2C00"/>
<path d="M1372.92 221.513C1372.83 222.795 1372.65 224.077 1372.4 225.369C1370.63 234.495 1365.23 242.001 1357.96 246.701C1357.96 246.701 1357.91 246.723 1357.85 246.779C1356.26 247.885 1338.1 261.054 1349.2 280.346L1349.21 280.369C1355.45 287.678 1358.41 297.624 1356.45 307.781C1354.68 316.896 1349.27 324.401 1342.01 329.101C1342.01 329.101 1341.96 329.135 1341.88 329.187C1340.25 330.371 1322.33 343.882 1331.19 363.864C1331.19 363.875 1331.2 363.875 1331.2 363.897C1338.46 371.315 1342.07 382.04 1339.95 392.974C1337.07 407.886 1324.44 418.489 1309.87 419.564C1305.85 420.298 1299.75 425.077 1295.88 428.438C1293.87 430.17 1292.46 431.528 1292.23 431.748C1292.21 431.769 1292.2 431.78 1292.2 431.78C1287.74 434.936 1282.05 436.339 1276.25 435.232C1269.32 433.917 1263.88 429.326 1261.21 423.378C1255.94 413.309 1251.59 409.014 1249.31 407.285C1248.35 406.561 1247.76 406.286 1247.62 406.232C1247.6 406.21 1247.6 406.21 1247.6 406.21C1236.89 399.088 1230.92 386.061 1233.5 372.706C1235.43 362.779 1241.67 354.748 1249.92 350.191V350.18C1259.38 340.144 1260.85 330.581 1259.63 323.12C1259.07 319.712 1257.95 316.732 1256.78 314.365C1254.87 310.509 1252.83 308.232 1252.83 308.232C1251.53 305.646 1250.58 302.872 1250.01 300.004C1249.23 295.994 1249.17 291.764 1250 287.513C1251.96 277.356 1258.43 269.204 1266.97 264.702C1266.97 264.702 1266.97 264.69 1266.98 264.69C1283.56 249.069 1274.07 233.849 1273.25 232.6C1273.22 232.546 1273.2 232.524 1273.2 232.524C1266.96 225.206 1264 215.256 1265.95 205.1C1268.71 190.836 1280.4 180.494 1294.16 178.718C1294.16 178.718 1294.18 178.718 1294.19 178.708C1294.21 178.718 1294.22 178.698 1294.27 178.698L1294.28 178.687C1295.15 178.455 1300.6 176.769 1306.92 168.694C1310.09 158.956 1320.15 152.873 1330.53 154.858C1338.28 156.325 1344.19 161.901 1346.4 168.869C1346.4 168.869 1346.4 168.881 1346.4 168.903C1346.39 169.264 1346.3 172.222 1347.33 176.178C1348.36 180.209 1350.52 185.249 1355.07 189.609C1355.38 189.895 1355.69 190.18 1356.01 190.464C1360.12 192.743 1363.65 195.844 1366.41 199.513C1368.83 202.712 1370.65 206.351 1371.76 210.239C1372.78 213.833 1373.19 217.635 1372.92 221.513Z" fill="#8CB369"/>
<path d="M1372.92 221.513C1372.83 222.795 1372.65 224.077 1372.4 225.369C1370.63 234.496 1365.23 242.001 1357.96 246.701C1357.96 246.701 1357.91 246.723 1357.85 246.779C1356.26 247.885 1338.1 261.054 1349.2 280.346L1349.21 280.369C1355.45 287.678 1358.41 297.624 1356.45 307.781C1354.68 316.896 1349.27 324.401 1342.01 329.101C1342.01 329.101 1341.96 329.135 1341.88 329.187C1340.25 330.371 1322.33 343.882 1331.19 363.864C1331.19 363.875 1331.2 363.875 1331.2 363.897C1338.46 371.315 1342.07 382.04 1339.95 392.974C1337.07 407.886 1324.44 418.489 1309.87 419.564C1305.85 420.298 1299.75 425.077 1295.88 428.439C1293.87 430.17 1292.46 431.528 1292.23 431.748C1292.21 431.769 1292.2 431.78 1292.2 431.78C1287.74 434.937 1282.05 436.339 1276.25 435.232C1269.32 433.917 1263.88 429.327 1261.21 423.378C1255.94 413.309 1251.59 409.014 1249.31 407.285C1248.35 406.561 1247.76 406.286 1247.62 406.232C1247.6 406.21 1247.6 406.21 1247.6 406.21C1236.89 399.089 1230.92 386.061 1233.5 372.706C1235.43 362.779 1241.67 354.748 1249.92 350.192V350.18C1259.38 340.144 1260.85 330.581 1259.63 323.12C1259.07 319.712 1257.95 316.732 1256.78 314.365C1254.87 310.509 1252.83 308.232 1252.83 308.232C1251.53 305.646 1250.58 302.872 1250.01 300.004C1264.27 301.58 1260.46 326.866 1266.38 353.83C1273.13 384.526 1256.33 394.651 1278.79 397.729C1301.24 400.809 1307.7 366.712 1315.95 342.424C1324.21 318.123 1334.22 317.41 1332.36 300.78C1330.51 284.139 1330.9 264.822 1351 239.756C1361.72 226.4 1365.35 210.996 1366.41 199.514C1368.83 202.713 1370.65 206.351 1371.76 210.24C1372.78 213.834 1373.19 217.635 1372.92 221.513Z" fill="#0C2C00"/>
<path d="M1267.03 505.967L1264.84 505.647C1264.95 504.894 1276.25 429.381 1293.64 339.567L1329.45 154.643L1331.62 155.056L1295.81 339.98C1278.43 429.746 1267.14 505.215 1267.03 505.967Z" fill="#0C2C00"/>
<path d="M1356.76 191.241L1355.25 189.647L1315.71 226.589L1317.22 228.184L1356.76 191.241Z" fill="#0C2C00"/>
<path d="M1366.94 200.171L1365.59 198.439L1313.92 238.04L1315.27 239.772L1366.94 200.171Z" fill="#0C2C00"/>
<path d="M1308.27 275.24L1272.66 230.1L1270.92 231.45L1306.53 276.59L1308.27 275.24Z" fill="#0C2C00"/>
<path d="M1306.23 283.038L1273.21 257.279L1271.85 259.002L1304.86 284.761L1306.23 283.038Z" fill="#0C2C00"/>
<path d="M1354.24 287.997L1353.04 286.158L1297.38 321.979L1298.59 323.818L1354.24 287.997Z" fill="#0C2C00"/>
<path d="M1330.02 347.453L1329.23 345.409L1290.16 360.217L1290.95 362.261L1330.02 347.453Z" fill="#0C2C00"/>
<path d="M1329.49 358.506L1328.82 356.418L1288.85 369.021L1289.52 371.109L1329.49 358.506Z" fill="#0C2C00"/>
<path d="M1340.31 394.02L1339.63 391.935L1280.81 410.733L1281.48 412.818L1340.31 394.02Z" fill="#0C2C00"/>
<path d="M1284.96 392.658L1239.28 359.553L1237.98 361.322L1283.66 394.427L1284.96 392.658Z" fill="#0C2C00"/>
<path d="M1282.05 403.223L1232.93 373.64L1234.08 371.768L1283.2 401.352L1282.05 403.223Z" fill="#0C2C00"/>
<path d="M1294.69 342.198L1259.84 320.252L1258.65 322.101L1293.5 344.047L1294.69 342.198Z" fill="#0C2C00"/>
<path d="M1297.96 327.577L1250.26 289.655L1248.88 291.364L1296.58 329.286L1297.96 327.577Z" fill="#0C2C00"/>
<path d="M1321.16 206.697L1295.09 177.971L1293.45 179.438L1319.52 208.163L1321.16 206.697Z" fill="#0C2C00"/>
<path d="M1253.92 388.702C1250.33 392.122 1247.39 401.027 1245.73 407.01C1244.87 410.112 1244.35 412.422 1244.29 412.793C1244.27 412.839 1244.26 412.849 1244.26 412.849C1241.89 419.028 1237.06 424.242 1230.43 426.995C1222.51 430.257 1213.87 429.239 1207.14 424.988C1206.39 424.572 1205.65 424.178 1204.94 423.806C1194.08 418.097 1187.44 416.805 1184.18 416.573C1182.71 416.485 1181.93 416.597 1181.75 416.64C1181.72 416.628 1181.71 416.628 1181.71 416.628C1166.02 416.552 1151.15 407.305 1144.72 392.033C1139.95 380.681 1140.85 368.39 1146.13 358.266L1146.12 358.256C1148.91 341.776 1143.93 331.094 1137.64 324.345C1134.76 321.255 1131.61 318.977 1128.82 317.356C1124.27 314.716 1120.65 313.785 1120.65 313.785C1113.31 309.556 1107.27 303.004 1103.75 294.634C1098.87 283.031 1099.9 270.454 1105.51 260.21C1105.51 260.21 1105.5 260.187 1105.51 260.187C1111.74 233.29 1091.81 224.175 1090.15 223.453C1090.07 223.42 1090.03 223.42 1090.03 223.42C1078.75 220.154 1069 212.035 1064.12 200.423C1057.26 184.12 1062.11 165.834 1074.86 154.878C1074.86 154.878 1074.87 154.867 1074.88 154.856C1074.9 154.846 1074.91 154.812 1074.94 154.79C1074.96 154.79 1074.94 154.769 1074.96 154.769C1075.69 153.958 1080.06 148.612 1081 136.21C1077.62 124.223 1083.71 111.361 1095.58 106.441C1104.44 102.782 1114.2 104.49 1121.17 110.09C1121.17 110.09 1121.18 110.09 1121.2 110.122C1121.42 110.495 1123.34 113.552 1127.06 116.883C1130.84 120.278 1136.45 123.96 1144.01 125.341C1144.01 125.341 1144.01 125.341 1144.02 125.341C1144.52 125.44 1145.03 125.515 1145.54 125.592C1154.46 124.925 1163.26 127.236 1170.61 131.968C1170.62 131.98 1170.62 131.98 1170.62 131.98C1172.11 132.934 1173.55 133.996 1174.91 135.157C1178.38 138.115 1181.38 141.709 1183.71 145.828C1184.5 147.188 1185.19 148.599 1185.81 150.079C1190.2 160.509 1189.8 171.729 1185.61 181.336C1185.61 181.336 1185.59 181.391 1185.55 181.479C1184.68 183.67 1175.19 209.11 1199.51 221.293L1199.53 221.316C1210.82 224.569 1220.56 232.686 1225.44 244.29C1229.82 254.709 1229.43 265.928 1225.23 275.537C1225.23 275.537 1225.22 275.59 1225.18 275.7C1224.32 277.991 1215.29 303.638 1237.81 318.002C1237.82 318.013 1237.83 318.002 1237.85 318.023C1250.24 320.719 1261.16 329.186 1266.42 341.689C1273.59 358.726 1267.97 377.899 1253.92 388.702Z" fill="#8CB369"/>
<path d="M1253.92 388.702C1250.33 392.122 1247.39 401.027 1245.73 407.01C1244.87 410.112 1244.35 412.422 1244.29 412.793C1244.27 412.839 1244.26 412.849 1244.26 412.849C1241.89 419.028 1237.06 424.242 1230.43 426.994C1222.51 430.257 1213.87 429.239 1207.14 424.988C1206.39 424.571 1205.65 424.178 1204.94 423.806C1220.12 415.291 1227.19 401.202 1230.09 387.496C1233.68 370.494 1239.76 355.208 1225.62 341.69C1211.49 328.17 1203.3 309.193 1199.49 284.728C1195.68 260.276 1183.41 240.171 1176 232.372C1168.58 224.57 1171.81 197.455 1176 166.229C1178 151.286 1174.65 139.847 1170.62 131.981C1172.11 132.935 1173.55 133.997 1174.91 135.158C1178.38 138.116 1181.38 141.711 1183.71 145.829C1184.49 147.189 1185.19 148.6 1185.81 150.08C1190.2 160.51 1189.8 171.73 1185.61 181.338C1185.61 181.338 1185.59 181.392 1185.54 181.48C1184.68 183.671 1175.19 209.111 1199.51 221.294L1199.53 221.317C1210.82 224.57 1220.55 232.688 1225.44 244.291C1229.82 254.71 1229.43 265.929 1225.23 275.538C1225.23 275.538 1225.22 275.591 1225.17 275.702C1224.32 277.992 1215.29 303.639 1237.81 318.003C1237.82 318.014 1237.83 318.003 1237.85 318.025C1250.24 320.72 1261.16 329.187 1266.41 341.69C1273.59 358.726 1267.97 377.899 1253.92 388.702Z" fill="#0C2C00"/>
<path d="M1266.77 505.901C1266.37 505.065 1226.69 420.948 1183.5 318.275L1094.56 106.862L1096.6 106.019L1185.54 317.431C1228.71 420.06 1268.37 504.134 1268.77 504.972L1266.77 505.901Z" fill="#0C2C00"/>
<path d="M1146.59 125.837L1144.44 125.339L1129.41 189.161L1131.57 189.66L1146.59 125.837Z" fill="#0C2C00"/>
<path d="M1163.01 128.102L1160.92 127.396L1135.32 201.978L1137.41 202.684L1163.01 128.102Z" fill="#0C2C00"/>
<path d="M1154.47 243.576L1087.78 221.517L1087.08 223.594L1153.77 245.653L1154.47 243.576Z" fill="#0C2C00"/>
<path d="M1157.75 252.914L1106.81 248.778L1106.63 250.963L1157.57 255.099L1157.75 252.914Z" fill="#0C2C00"/>
<path d="M1209.56 225.588L1207.53 224.716L1175.4 298.142L1177.42 299.015L1209.56 225.588Z" fill="#0C2C00"/>
<path d="M1225.34 301.98L1223.54 300.707L1193.97 341.778L1195.77 343.052L1225.34 301.98Z" fill="#0C2C00"/>
<path d="M1232.31 313.558L1230.59 312.182L1198.55 351.565L1200.27 352.94L1232.31 313.558Z" fill="#0C2C00"/>
<path d="M1267.29 342.359L1265.56 340.991L1218.65 399.259L1220.38 400.627L1267.29 342.359Z" fill="#0C2C00"/>
<path d="M1210.42 378.213L1141.66 375.067L1141.56 377.256L1210.32 380.403L1210.42 378.213Z" fill="#0C2C00"/>
<path d="M1214.64 390.413L1214.55 388.225L1144.7 390.921L1144.79 393.11L1214.64 390.413Z" fill="#0C2C00"/>
<path d="M1135.93 323.708L1135.89 321.516L1186.1 320.565L1186.14 322.757L1135.93 323.708Z" fill="#0C2C00"/>
<path d="M1179.48 303.551L1105.42 296.861L1105.22 299.043L1179.28 305.733L1179.48 303.551Z" fill="#0C2C00"/>
<path d="M1121.14 165.481L1075.24 153.713L1074.69 155.834L1120.59 167.602L1121.14 165.481Z" fill="#0C2C00"/>
<path d="M1330.81 424.272C1329.79 424.647 1318.51 428.989 1320.1 440.618C1320.1 440.618 1320.1 440.627 1320.1 440.633C1322.74 445.538 1323 451.606 1320.27 456.945C1316.55 464.223 1308.45 467.849 1300.75 466.261C1298.57 466.05 1294.71 467.623 1292.21 468.789C1290.91 469.388 1289.97 469.88 1289.83 469.964C1289.81 469.974 1289.8 469.976 1289.8 469.976C1287.03 470.952 1283.87 470.839 1281.04 469.416C1277.67 467.717 1275.53 464.543 1275.04 461.082C1273.83 455.099 1272.22 452.242 1271.31 451.019C1270.91 450.498 1270.65 450.272 1270.59 450.222C1270.58 450.21 1270.58 450.21 1270.58 450.21C1266.11 444.957 1264.98 437.347 1268.31 430.828C1270.79 425.978 1275.2 422.749 1280.15 421.609L1280.16 421.6C1286.54 417.807 1288.73 413.081 1289.22 409.048C1289.44 407.204 1289.31 405.503 1289.05 404.105C1288.64 401.833 1287.92 400.356 1287.92 400.356C1287.25 396.699 1287.74 392.805 1289.56 389.233C1292.1 384.278 1296.65 381.017 1301.74 379.946C1301.74 379.946 1301.74 379.938 1301.75 379.94C1312.65 374.305 1310.02 365.047 1309.79 364.285C1309.78 364.247 1309.77 364.235 1309.77 364.235C1307.64 359.535 1307.59 353.958 1310.13 349.002C1313.69 342.038 1321.27 338.411 1328.64 339.516C1328.64 339.516 1328.65 339.518 1328.66 339.516C1328.67 339.522 1328.68 339.516 1328.7 339.521C1328.7 339.522 1328.71 339.514 1328.71 339.518C1329.19 339.527 1332.26 339.451 1336.73 336.21C1339.83 331.647 1345.93 329.983 1351 332.532C1354.79 334.432 1357 338.179 1357.11 342.108C1357.11 342.108 1357.11 342.112 1357.1 342.126C1357.04 342.307 1356.56 343.823 1356.49 346.017C1356.42 348.252 1356.79 351.178 1358.49 354.096C1358.49 354.096 1358.49 354.096 1358.49 354.098C1358.6 354.292 1358.72 354.484 1358.84 354.677C1362.19 358.02 1364.04 362.556 1364.02 367.21C1364.02 369.216 1363.66 371.242 1362.94 373.204C1362.7 373.854 1362.42 374.492 1362.09 375.124C1359.82 379.577 1355.9 382.661 1351.44 384.02C1351.44 384.02 1351.42 384.028 1351.38 384.042C1350.39 384.381 1339.04 388.516 1341.89 400.116V400.126C1344.02 404.822 1344.06 410.398 1341.53 415.355C1339.26 419.803 1335.34 422.89 1330.88 424.246C1330.88 424.245 1330.86 424.258 1330.81 424.272Z" fill="#8CB369"/>
<path d="M1266.17 504.816L1264.16 503.909C1264.33 503.537 1281.46 466.173 1303.88 422.314L1350.02 332.034L1351.99 333.025L1305.85 423.306C1283.45 467.123 1266.34 504.444 1266.17 504.816Z" fill="#0C2C00"/>
<path d="M1359.35 355.68L1358.34 353.734L1332.39 367.026L1333.41 368.972L1359.35 355.68Z" fill="#0C2C00"/>
<path d="M1363.26 361.799L1362.44 359.762L1329.82 372.599L1330.63 374.636L1363.26 361.799Z" fill="#0C2C00"/>
<path d="M1321.98 391.297L1310.33 362.741L1308.28 363.564L1319.94 392.119L1321.98 391.297Z" fill="#0C2C00"/>
<path d="M1319.67 394.895L1306.47 376.732L1304.68 378.014L1317.88 396.177L1319.67 394.895Z" fill="#0C2C00"/>
<path d="M1343.46 405.269L1342.81 403.173L1308.71 413.539L1309.36 415.635L1343.46 405.269Z" fill="#0C2C00"/>
<path d="M1321.98 432.455L1321.79 430.272L1299.39 432.216L1299.59 434.399L1321.98 432.455Z" fill="#0C2C00"/>
<path d="M1320.05 438.134L1319.99 435.943L1297.45 436.596L1297.52 438.787L1320.05 438.134Z" fill="#0C2C00"/>
<path d="M1320.29 458.033L1320.22 455.844L1287.01 456.905L1287.09 459.094L1320.29 458.033Z" fill="#0C2C00"/>
<path d="M1292.33 448.406L1273.67 424.585L1271.93 425.929L1290.58 449.75L1292.33 448.406Z" fill="#0C2C00"/>
<path d="M1290.1 452.588L1269.14 430.085L1267.52 431.572L1288.47 454.075L1290.1 452.588Z" fill="#0C2C00"/>
<path d="M1304.88 423.719L1290.16 407.258L1288.51 408.711L1303.23 425.172L1304.88 423.719Z" fill="#0C2C00"/>
<path d="M1308.75 416.676L1289.78 390.07L1287.97 391.335L1306.95 417.941L1308.75 416.676Z" fill="#0C2C00"/>
<path d="M1338.9 357.703L1329.72 339.032L1327.74 339.991L1336.91 358.662L1338.9 357.703Z" fill="#0C2C00"/>
<path d="M1309.71 503.098H1222.34V651.631H1309.71V503.098Z" fill="#4BA3BC"/>
<path d="M1309.71 503.098H1289.41V651.631H1309.71V503.098Z" fill="#00748C"/>
<path d="M1316.7 144.366C1316.61 144.366 1316.51 144.358 1316.41 144.34C1315.51 144.183 1314.91 143.332 1315.07 142.438C1316.06 136.823 1319.37 132.791 1323.56 127.686C1326.36 124.274 1329.54 120.406 1332.78 115.181C1333.26 114.409 1334.28 114.167 1335.06 114.643C1335.84 115.118 1336.08 116.13 1335.6 116.904C1332.25 122.312 1329 126.269 1326.13 129.761C1322.09 134.68 1319.17 138.234 1318.33 143.004C1318.19 143.805 1317.49 144.366 1316.7 144.366Z" fill="#0C2C00"/>
<path d="M1340.63 86.7935C1339.86 86.7935 1339.17 86.2576 1339.01 85.4792C1336.76 74.6182 1331.86 64.6683 1331.81 64.5692C1331.41 63.7547 1331.75 62.77 1332.57 62.3699C1333.39 61.9667 1334.38 62.3033 1334.78 63.1196C1335 63.5384 1339.92 73.5494 1342.26 84.8186C1342.44 85.7079 1341.86 86.5773 1340.96 86.7593C1340.85 86.7817 1340.74 86.7935 1340.63 86.7935Z" fill="#0C2C00"/>
<path d="M1267.76 348.061C1266.93 348.061 1266.21 347.433 1266.12 346.586C1265.2 337.746 1258.49 330.007 1246.16 323.584C1245.35 323.161 1245.04 322.169 1245.46 321.364C1245.89 320.56 1246.89 320.25 1247.7 320.673C1261.07 327.641 1268.38 336.246 1269.42 346.25C1269.51 347.152 1268.85 347.959 1267.94 348.053C1267.88 348.058 1267.82 348.061 1267.76 348.061Z" fill="#0C2C00"/>
<path d="M1230.62 314.873C1230.17 314.873 1229.73 314.696 1229.41 314.348C1223.49 308.037 1222.66 298.752 1222.34 290.545C1222.17 286.264 1222.79 281.117 1223.56 275.32C1223.67 274.419 1224.51 273.78 1225.41 273.904C1226.32 274.022 1226.96 274.848 1226.84 275.748C1226.09 281.395 1225.49 286.394 1225.65 290.418C1225.96 298.386 1226.69 306.623 1231.83 312.111C1232.46 312.777 1232.42 313.816 1231.75 314.433C1231.43 314.727 1231.02 314.873 1230.62 314.873Z" fill="#0C2C00"/>
<path d="M1226.98 260.792C1226.95 260.792 1226.92 260.792 1226.89 260.79C1225.97 260.739 1225.27 259.965 1225.32 259.059C1225.55 254.898 1225.48 251.308 1225.1 248.086C1223.7 236.192 1211.72 228.735 1198.97 222.445C1198.15 222.04 1197.81 221.054 1198.22 220.242C1198.63 219.429 1199.63 219.097 1200.44 219.502C1213.38 225.88 1226.81 234.221 1228.4 247.704C1228.8 251.115 1228.87 254.888 1228.63 259.238C1228.58 260.115 1227.85 260.792 1226.98 260.792Z" fill="#0C2C00"/>
<path d="M1185.43 210.299C1184.82 210.299 1184.23 209.964 1183.94 209.385C1180.25 202.002 1180.02 194.271 1180.02 193.946C1179.99 193.038 1180.72 192.287 1181.63 192.265C1182.52 192.22 1183.31 192.96 1183.33 193.868C1183.33 193.941 1183.55 201.215 1186.91 207.925C1187.32 208.737 1186.98 209.724 1186.16 210.127C1185.93 210.244 1185.67 210.299 1185.43 210.299Z" fill="#0C2C00"/>
<path d="M1238.64 32.0303C1238.42 32.0303 1238.2 31.9992 1237.98 31.9313C1236.81 31.5742 1236.16 30.3465 1236.52 29.1917C1241.09 14.5473 1251.7 7.49707 1252.15 7.20479C1253.17 6.54047 1254.54 6.82028 1255.21 7.8311C1255.88 8.8413 1255.6 10.198 1254.58 10.8642C1254.47 10.9383 1244.82 17.4158 1240.74 30.4848C1240.45 31.4259 1239.58 32.0303 1238.64 32.0303Z" fill="white"/>
<path d="M1192.49 76.6891C1192.29 76.6891 1192.1 76.6635 1191.9 76.6099C1190.72 76.2878 1190.03 75.0825 1190.36 73.9146C1195.4 55.7984 1211.98 49.9023 1212.68 49.6593C1213.83 49.2623 1215.09 49.8668 1215.5 51.0116C1215.89 52.1539 1215.29 53.4003 1214.14 53.7979C1213.99 53.8509 1199.02 59.2372 1194.61 75.0806C1194.35 76.0516 1193.46 76.6891 1192.49 76.6891Z" fill="white"/>
<path d="M1194.85 113.959C1194.52 113.959 1194.18 113.884 1193.87 113.729C1185.01 109.361 1184.08 93.8493 1184.04 93.1919C1183.98 91.9841 1184.91 90.9534 1186.13 90.8886C1187.32 90.825 1188.39 91.7517 1188.46 92.9576C1188.66 96.7347 1190.4 107.125 1195.84 109.806C1196.93 110.345 1197.37 111.66 1196.83 112.743C1196.44 113.512 1195.66 113.959 1194.85 113.959Z" fill="white"/>
<path d="M1087.45 137.608C1086.33 137.608 1085.37 136.774 1085.25 135.65C1083.82 122.356 1090.33 116.274 1090.61 116.022C1091.51 115.205 1092.91 115.269 1093.74 116.158C1094.56 117.048 1094.5 118.425 1093.61 119.244C1093.37 119.467 1088.47 124.259 1089.65 135.185C1089.78 136.388 1088.9 137.467 1087.68 137.596C1087.61 137.604 1087.52 137.608 1087.45 137.608Z" fill="white"/>
<path d="M1068 183.974C1067.05 183.974 1066.18 183.369 1065.89 182.429C1063.07 173.348 1072.87 162.006 1073.29 161.528C1074.09 160.616 1075.48 160.517 1076.41 161.309C1077.33 162.102 1077.43 163.486 1076.63 164.4C1074.23 167.153 1068.37 175.529 1070.11 181.136C1070.47 182.292 1069.82 183.521 1068.65 183.876C1068.44 183.944 1068.21 183.974 1068 183.974Z" fill="white"/>
<path d="M1089.68 216.157C1089.52 216.157 1089.35 216.139 1089.18 216.1C1075.13 212.874 1066.01 196.192 1065.63 195.484C1065.06 194.415 1065.46 193.09 1066.54 192.519C1067.61 191.947 1068.95 192.35 1069.53 193.416C1069.61 193.574 1078.1 209.056 1090.18 211.831C1091.37 212.104 1092.11 213.281 1091.83 214.46C1091.6 215.473 1090.69 216.157 1089.68 216.157Z" fill="white"/>
<path d="M1106.71 285.018C1105.68 285.018 1104.76 284.296 1104.55 283.253C1103.26 276.833 1107.86 266.893 1108.39 265.782C1108.91 264.687 1110.23 264.217 1111.33 264.733C1112.44 265.249 1112.91 266.555 1112.39 267.649C1111.13 270.312 1108.03 278.154 1108.88 282.399C1109.12 283.587 1108.34 284.74 1107.15 284.975C1107 285.005 1106.86 285.018 1106.71 285.018Z" fill="white"/>
<path d="M1145.54 381.516C1145.49 381.516 1145.45 381.515 1145.4 381.511C1144.18 381.435 1143.26 380.393 1143.34 379.184C1144.18 366.06 1151.96 353.994 1152.29 353.486C1152.95 352.47 1154.32 352.18 1155.34 352.836C1156.36 353.491 1156.66 354.847 1156 355.864C1155.92 355.98 1148.52 367.501 1147.75 379.466C1147.67 380.625 1146.7 381.516 1145.54 381.516Z" fill="white"/>
<path d="M1291.18 189.26C1290.94 189.26 1290.71 189.255 1290.47 189.244C1289.25 189.188 1288.3 188.164 1288.36 186.955C1288.42 185.745 1289.46 184.839 1290.67 184.866C1302.83 185.398 1313.08 166.021 1313.18 165.826C1313.74 164.75 1315.07 164.328 1316.15 164.882C1317.24 165.436 1317.67 166.757 1317.11 167.832C1316.64 168.72 1305.8 189.26 1291.18 189.26Z" fill="white"/>
<path d="M1273.42 227.357C1272.76 227.357 1272.11 227.067 1271.68 226.513C1264.46 217.338 1270.2 201.267 1270.45 200.587C1270.86 199.45 1272.13 198.86 1273.28 199.271C1274.42 199.682 1275.02 200.937 1274.6 202.075C1274.55 202.22 1269.45 216.554 1275.16 223.82C1275.91 224.774 1275.74 226.15 1274.78 226.894C1274.37 227.206 1273.89 227.357 1273.42 227.357Z" fill="white"/>
<path d="M1261.47 283.084C1261.21 283.084 1260.95 283.038 1260.69 282.94C1259.55 282.51 1258.98 281.246 1259.41 280.114C1265.19 265.038 1279.29 255.404 1279.88 255C1280.89 254.325 1282.27 254.579 1282.95 255.58C1283.64 256.58 1283.38 257.942 1282.37 258.624C1282.24 258.715 1268.81 267.912 1263.54 281.669C1263.2 282.545 1262.36 283.084 1261.47 283.084Z" fill="white"/>
<path d="M1105.47 534.464C1100.29 534.464 1096.07 529.833 1096.07 524.141C1096.07 518.449 1100.29 513.818 1105.47 513.818C1110.66 513.818 1114.88 518.449 1114.88 524.141C1114.88 529.833 1110.66 534.464 1105.47 534.464ZM1105.47 515.123C1101.01 515.123 1097.38 519.168 1097.38 524.14C1097.38 529.113 1101.01 533.159 1105.47 533.159C1109.94 533.159 1113.57 529.113 1113.57 524.14C1113.57 519.168 1109.94 515.123 1105.47 515.123Z" fill="#0C2C00"/>
<path d="M1181.2 509.576C1180.94 517.795 1176.43 525.838 1171.35 532.431C1168.16 533.025 1164.73 531.987 1161.15 528.919C1169.86 527.829 1172.9 517.821 1166.59 515.426C1160.28 513.036 1155.5 517.821 1155.5 517.821C1131.11 522.554 1115.57 522.313 1105.67 520.073C1105.66 520.079 1105.65 520.073 1105.65 520.073C1102.94 519.46 1100.65 518.702 1098.72 517.853C1098.72 517.847 1098.72 517.847 1098.71 517.847C1096.95 516.528 1095.69 514.452 1096.24 511.162C1102.59 491.316 1121.65 480.199 1140.71 481.785C1143.88 460.347 1177.24 442.871 1195.5 464.316C1213.76 485.755 1196.29 505.607 1181.2 509.576Z" fill="#0C2C00"/>
<path d="M1196.06 528.345C1192.87 534.377 1189.14 543.15 1185.09 553.726C1178.35 571.353 1146.14 608.778 1139.39 600.944C1132.65 593.11 1129.16 561.56 1130.69 557.643C1132.21 553.726 1135.78 547.831 1132.97 548.288C1124.29 549.698 1118.02 546.512 1114.35 543.666C1114.43 543.692 1114.48 543.712 1114.49 543.718C1113.76 543.19 1113.08 542.628 1112.46 542.047C1111.97 541.584 1111.58 541.165 1111.28 540.826C1111.16 540.689 1111.04 540.545 1110.92 540.408C1110.88 540.369 1110.85 540.33 1110.82 540.297C1110.81 540.291 1110.8 540.284 1110.8 540.271C1110.65 540.095 1110.56 539.971 1110.52 539.925C1110.51 539.906 1110.5 539.899 1110.5 539.899C1104 531.602 1105.67 520.073 1105.67 520.073C1115.57 522.312 1131.11 522.553 1155.5 517.821C1155.5 517.821 1160.28 513.036 1166.59 515.425C1172.9 517.821 1169.86 527.829 1161.15 528.918C1164.73 531.987 1168.16 533.025 1171.35 532.431C1161.25 545.585 1158.05 547.679 1163.73 544.514C1174.84 538.169 1185.35 529.252 1196.06 528.345Z" fill="#FFEE9F"/>
<path d="M1232.72 696.268C1210.56 680.203 1183.68 681.913 1166.94 685.001C1165.13 708.053 1162.34 733.936 1158.11 754.539C1158.14 753.788 1158.18 753.364 1158.18 753.364C1158.18 753.364 1123.24 763.685 1105.76 761.302C1099.71 760.473 1072.37 758.886 1038.84 757.189C1033.05 716.506 1035.22 649.566 1036.96 614.471C1043.75 613.308 1052.84 605.566 1067.65 585.813C1100.85 541.544 1112.8 543.203 1114.34 543.66C1114.34 543.666 1114.34 543.666 1114.35 543.666C1118.02 546.512 1124.29 549.698 1132.97 548.288C1135.77 547.831 1132.21 553.726 1130.69 557.643C1129.16 561.56 1132.65 593.111 1139.39 600.945C1146.14 608.778 1178.34 571.352 1185.09 553.727C1189.14 543.151 1192.87 534.378 1196.06 528.345C1206.79 527.431 1217.72 534.567 1229.64 560.399C1242.98 589.292 1238.89 648.79 1232.72 696.268Z" fill="#0C2C00"/>
<path d="M1038.84 757.19C1027.21 756.603 1014.83 756.009 1002.34 755.428C983.478 754.547 964.35 753.698 947.142 752.98C913.856 751.596 887.729 750.702 884.472 750.982C883.865 751.035 883.062 751.125 882.083 751.263C865.6 744.369 859.065 730.125 884.472 697.778C889.826 690.962 895.59 685.191 901.628 680.341C869.869 671.273 843.579 653.849 827.677 641.407C840.649 598.706 861.062 542.283 884.472 528.639C906.015 515.321 928.361 521.4 948.441 534.325C972.243 549.64 992.866 574.571 1005.2 588.216C1007.91 591.205 1010.21 593.653 1012.07 595.338C1022.3 604.634 1027.35 616.111 1036.96 614.471C1035.22 649.568 1033.05 716.507 1038.84 757.19Z" fill="#4BA3BC"/>
<path d="M901.629 680.34C895.59 685.19 889.826 690.961 884.473 697.777C859.065 730.124 865.6 744.368 882.084 751.262C868.14 753.188 818.996 762.992 806.09 764.475C792.276 766.068 755.575 781.951 754.785 747.802C753.989 713.66 809.576 706.512 809.576 706.512C809.576 706.512 808.78 704.129 813.545 690.629C815.275 685.72 820.262 665.802 827.678 641.406C843.581 653.848 869.87 671.272 901.629 680.34Z" fill="#0C2C00"/>
<path d="M1002.34 755.428C983.478 754.547 964.35 753.699 947.142 752.98C949.172 736.196 950.595 711.004 949.792 697.791C948.572 677.573 901.628 680.341 911.668 673.232C921.702 666.129 924.581 623.024 911.472 608.551C898.357 594.071 892.266 570.146 901.268 561.581C910.264 553.009 935.509 566.059 943.316 556.985C948.297 551.188 948.754 540.958 948.44 534.326C972.242 549.641 992.865 574.572 1005.2 588.216C1005.45 642.269 1003.75 709.705 1002.34 755.428Z" fill="#00748C"/>
<path d="M1232.72 696.268C1227.86 733.609 1221.7 763.522 1221.7 765.271C1221.7 769.241 1180.03 786.26 1168.12 781.494C1157.81 777.381 1157.9 759.37 1158.11 754.552C1158.11 754.552 1158.11 754.546 1158.11 754.539C1162.34 733.936 1165.13 708.053 1166.94 685.001C1183.68 681.913 1210.56 680.203 1232.72 696.268Z" fill="#FFEE9F"/>
<path d="M901.63 680.993C901.439 680.993 901.249 680.909 901.12 680.75C900.895 680.468 900.94 680.057 901.22 679.832C929.892 656.784 964.837 654.525 989.103 656.69C1015.36 659.032 1035.13 666.92 1035.32 666.999C1035.66 667.134 1035.82 667.514 1035.68 667.848C1035.55 668.182 1035.17 668.343 1034.83 668.21C1034.64 668.131 1015.02 660.307 988.95 657.988C964.934 655.848 930.361 658.084 902.039 680.85C901.918 680.946 901.774 680.993 901.63 680.993Z" fill="white"/>
<path d="M1166.94 685.654C1166.92 685.654 1166.91 685.653 1166.89 685.652C1166.53 685.623 1166.26 685.309 1166.29 684.949C1168.75 653.714 1169.43 627.349 1169.43 627.087C1169.44 626.726 1169.75 626.441 1170.1 626.45C1170.46 626.459 1170.75 626.759 1170.74 627.119C1170.73 627.382 1170.06 653.78 1167.59 685.052C1167.56 685.395 1167.28 685.654 1166.94 685.654Z" fill="white"/>
<path d="M1068.45 592.672C1068.45 592.672 1079.33 600.253 1083.9 607.881C1088.47 615.509 1082.9 586.106 1082.9 586.106C1082.9 586.106 1105.28 603.214 1108.3 612.103C1111.32 620.992 1114.88 603.475 1120.61 612.103C1126.33 620.731 1128.29 631.326 1124.37 637.453C1120.46 643.58 1097.66 656.636 1079.36 655.331C1061.05 654.025 1054.31 653.324 1051.81 648.779C1049.3 644.233 1049.79 643.834 1048.65 640.623C1047.51 637.412 1057.89 607.881 1057.89 607.881C1057.89 607.881 1059.9 606.254 1060.64 607.881" fill="#FFEE9F"/>
<path d="M982.561 651.863V780.781L955.723 740.494V614.799C955.723 622.856 982.561 651.863 982.561 651.863Z" fill="#8CB369"/>
<path d="M1119.13 614.799V651.863H982.561C982.561 651.863 955.723 622.857 955.723 614.799H1119.13Z" fill="#0C2C00"/>
<path d="M1159.68 724.436V780.781H982.561V651.863L1000.14 716.322L1119.13 722.373L1159.68 724.436Z" fill="#0C2C00"/>
<path d="M1190.3 725.991L1159.68 724.436L994.903 725.991L982.561 651.863H1159.68L1190.3 725.991Z" fill="#8CB369"/>
<path d="M955.723 614.799V670.394H917.957L955.723 614.799Z" fill="#0C2C00"/>
<path d="M1159.68 651.863H1119.13V614.799L1159.68 651.863Z" fill="#0C2C00"/>
<path d="M958.995 491.903C984.331 508.501 1001.95 526.13 1014.11 543.37C1053.09 598.67 1035.77 649.953 1035.77 649.953C1035.77 649.953 965.691 628.377 954.469 555.902C951.668 537.869 952.515 516.69 958.995 491.903Z" fill="#8CB369"/>
<path d="M1014.11 543.37C1053.09 598.67 1035.77 649.953 1035.77 649.953C1035.77 649.953 965.691 628.377 954.469 555.902C999.182 581.253 978.246 547.802 985.642 544.121C993.342 540.288 998.078 537.14 1014.11 543.37Z" fill="#0C2C00"/>
<path d="M1036.38 649.471L1035.17 650.426C1035.11 650.351 1029.18 642.79 1020.75 630.534C1000.14 600.585 964.616 542.764 958.229 492.001L959.76 491.809C966.107 542.247 1001.49 599.827 1022.02 629.661C1030.42 641.871 1036.32 649.396 1036.38 649.471Z" fill="#0C2C00"/>
<path d="M1029.19 569.063L1008.77 610.202L1007.39 609.516L1027.8 568.377L1029.19 569.063Z" fill="#0C2C00"/>
<path d="M1023.92 558.254L1005.16 604.264L1003.73 603.681L1022.49 557.672L1023.92 558.254Z" fill="#0C2C00"/>
<path d="M956.158 562.56L955.479 563.946L990.559 581.121L991.238 579.734L956.158 562.56Z" fill="#0C2C00"/>
<path d="M980.182 557.212L978.777 557.851L979.48 557.532L978.779 557.856C978.012 556.376 964.953 549.234 952.771 543.185L953.459 541.8C957.71 543.914 978.988 554.584 980.182 557.212Z" fill="#0C2C00"/>
<path d="M988.168 514.499L971.773 540.641L973.081 541.461L989.475 515.319L988.168 514.499Z" fill="#0C2C00"/>
<path d="M983.832 615.212L983.462 616.711L1017.27 625.066L1017.64 623.568L983.832 615.212Z" fill="#0C2C00"/>
<path d="M1015.88 545.162L997.668 591.578L996.232 591.013L1014.44 544.598L1015.88 545.162Z" fill="#0C2C00"/>
<path d="M972.041 568.285C1030.27 597.843 1039.22 649.34 1039.22 649.34C1039.22 649.34 999.531 657.343 961.283 637.201C935.832 623.793 911.016 597.938 898.942 548.988C929.34 551.492 953.257 558.745 972.041 568.285Z" fill="#8CB369"/>
<path d="M972.041 568.285C1030.27 597.843 1039.22 649.34 1039.22 649.34C1039.22 649.34 999.531 657.343 961.283 637.201C976.508 639.367 977.844 627.625 984.866 623.777C993.92 618.816 967.943 610.383 972.041 568.285Z" fill="#0C2C00"/>
<path d="M1039.52 648.633L1038.91 650.052C1038.82 650.015 1030.17 646.272 1017.15 639.649C985.344 623.468 927.611 590.235 898.317 549.441L899.571 548.54C928.674 589.068 986.171 622.156 1017.85 638.273C1030.82 644.87 1039.44 648.599 1039.52 648.633Z" fill="#0C2C00"/>
<path d="M997.319 627.706L995.778 627.762L994.112 582.716L995.654 582.658L997.319 627.706Z" fill="#0C2C00"/>
<path d="M986.02 575.789L984.487 575.96L989.891 624.432L991.425 624.261L986.02 575.789Z" fill="#0C2C00"/>
<path d="M967.911 609.606L929.606 611.228L929.671 612.771L967.976 611.149L967.911 609.606Z" fill="#0C2C00"/>
<path d="M947.826 595.386L946.896 596.618L947.361 596.003L946.899 596.62C945.533 595.706 930.93 595.662 917.601 596.153L917.545 594.61C924.09 594.37 945.617 593.717 947.826 595.386Z" fill="#0C2C00"/>
<path d="M936.225 554.897L934.686 554.799L932.772 585.028L934.311 585.125L936.225 554.897Z" fill="#0C2C00"/>
<path d="M1011.2 635.064L978.115 643.693L978.504 645.188L1011.59 636.558L1011.2 635.064Z" fill="#0C2C00"/>
<path d="M979.015 616.842L977.485 617.035L971.442 568.468L972.973 568.276L979.015 616.842Z" fill="#0C2C00"/>
<path d="M1039.83 650.159C1039.83 650.159 960.699 625.8 984.247 535.736C1061.41 586.27 1039.83 650.159 1039.83 650.159Z" fill="#8CB369"/>
<path d="M1040.44 649.683L1039.23 650.636C1039.19 650.583 1034.89 645.104 1028.78 636.223C1013.85 614.525 988.112 572.626 983.482 535.833L985.013 535.64C989.603 572.109 1015.2 613.765 1030.05 635.35C1036.13 644.186 1040.4 649.63 1040.44 649.683Z" fill="#0C2C00"/>
<path d="M1033.89 591.02L1019.11 620.804L1020.49 621.49L1035.27 591.706L1033.89 591.02Z" fill="#0C2C00"/>
<path d="M1030.02 583.291L1016.43 616.6L1017.86 617.183L1031.45 583.874L1030.02 583.291Z" fill="#0C2C00"/>
<path d="M982.303 586.694L981.623 588.08L1007.01 600.535L1007.69 599.149L982.303 586.694Z" fill="#0C2C00"/>
<path d="M999.782 582.932L998.375 583.569L998.385 583.59C997.69 582.474 988.313 577.356 979.647 573.052L980.334 571.671C985.898 574.433 998.932 581.062 999.782 582.932Z" fill="#0C2C00"/>
<path d="M1006.49 552.791L994.622 571.717L993.313 570.899L1005.18 551.971L1006.49 552.791Z" fill="#0C2C00"/>
<path d="M1026.76 630.846L1026.39 632.347L1001.91 626.295L1002.28 624.797L1026.76 630.846Z" fill="#0C2C00"/>
<path d="M1025.63 574.37L1012.45 607.974L1011.01 607.413L1024.19 573.806L1025.63 574.37Z" fill="#0C2C00"/>
<path d="M922.92 557.999C922.914 558.069 922.901 558.14 922.885 558.207C922.685 559.036 921.852 559.547 921.023 559.346C918.053 558.634 915.205 557.969 912.995 557.655C912.15 557.534 911.556 556.768 911.682 555.91C911.802 555.065 912.583 554.477 913.426 554.598C915.772 554.929 918.701 555.613 921.745 556.346C922.505 556.529 922.997 557.245 922.92 557.999Z" fill="white"/>
<path d="M917.402 582.51C917.355 582.981 917.094 583.423 916.656 583.685C915.925 584.119 914.976 583.879 914.541 583.146C911.85 578.624 909.615 574.291 907.898 570.268C906.852 567.822 906.099 565.795 905.593 564.079C905.35 563.262 905.818 562.402 906.639 562.161C907.456 561.921 908.314 562.39 908.554 563.209C909.025 564.808 909.739 566.721 910.736 569.055C912.401 572.951 914.574 577.161 917.193 581.567C917.369 581.862 917.435 582.193 917.402 582.51Z" fill="white"/>
<path d="M932.633 603.546C932.603 603.843 932.488 604.133 932.281 604.38C931.736 605.033 930.762 605.121 930.108 604.573C928.833 603.507 924.921 598.723 920.822 592.857C920.334 592.157 920.505 591.194 921.205 590.707C921.902 590.219 922.865 590.39 923.354 591.088C927.912 597.616 931.402 601.628 932.088 602.206C932.495 602.547 932.683 603.054 932.633 603.546Z" fill="white"/>
<path d="M960.916 536.259C960.839 537.015 960.213 537.616 959.433 537.644C958.581 537.674 957.866 537.007 957.836 536.155C957.767 534.176 957.719 532.214 957.693 530.327C957.684 529.474 958.364 528.773 959.215 528.763C960.068 528.75 960.769 529.434 960.78 530.285C960.806 532.151 960.854 534.088 960.922 536.047C960.925 536.12 960.923 536.19 960.916 536.259Z" fill="white"/>
<path d="M985.924 566.255C985.851 566.983 985.263 567.578 984.506 567.637C983.658 567.704 982.916 567.066 982.85 566.214C982.686 564.086 982.571 561.941 982.509 559.832C982.495 558.979 983.155 558.27 984.007 558.243C984.86 558.217 985.57 558.89 985.595 559.741C985.656 561.8 985.768 563.899 985.927 565.98C985.934 566.072 985.934 566.165 985.924 566.255Z" fill="white"/>
<path d="M988.692 584.78C988.628 585.422 988.16 585.98 987.496 586.129C986.662 586.316 985.838 585.793 985.651 584.961C985.479 584.198 985.313 583.423 985.152 582.64C984.984 581.804 985.521 580.989 986.357 580.819C987.193 580.648 988.007 581.189 988.178 582.024C988.333 582.788 988.496 583.541 988.664 584.285C988.7 584.451 988.709 584.617 988.692 584.78Z" fill="white"/>
<path d="M999.951 615.254C999.902 615.742 999.62 616.198 999.159 616.453C998.409 616.863 997.473 616.592 997.062 615.844C996.722 615.225 996.355 614.543 995.969 613.797C995.578 613.04 995.875 612.11 996.632 611.719C997.391 611.327 998.321 611.625 998.712 612.382C999.086 613.102 999.438 613.76 999.766 614.357C999.925 614.642 999.982 614.956 999.951 615.254Z" fill="white"/>
<path d="M1002.4 619.39C1002.35 619.85 1002.1 620.285 1001.67 620.549C1000.95 620.996 999.994 620.772 999.548 620.045L999.427 619.857C999.064 619.283 998.215 617.943 997.063 615.846C996.652 615.1 996.924 614.159 997.67 613.747C998.418 613.336 999.357 613.61 999.767 614.357C1000.87 616.37 1001.69 617.657 1002.04 618.206L1002.17 618.423C1002.36 618.724 1002.43 619.063 1002.4 619.39Z" fill="white"/>
<path d="M911.51 581.66C911.469 582.063 911.217 582.433 910.818 582.605C910.231 582.86 909.549 582.59 909.296 582.003C904.023 569.793 901.297 561.658 901.267 561.578C901.067 560.97 901.395 560.315 902 560.112C902.607 559.91 903.263 560.239 903.467 560.845C903.491 560.925 906.19 568.976 911.422 581.084C911.503 581.272 911.53 581.47 911.51 581.66Z" fill="#0C2C00"/>
<path d="M930.343 612.481C930.315 612.764 930.182 613.038 929.95 613.239C929.468 613.657 928.736 613.607 928.317 613.122C925.471 609.842 922.794 606.348 920.358 602.743C919.999 602.212 920.14 601.493 920.67 601.136C921.198 600.777 921.919 600.915 922.277 601.447C924.661 604.975 927.282 608.394 930.067 611.605C930.284 611.856 930.375 612.176 930.343 612.481Z" fill="#0C2C00"/>
<path d="M943.641 625.373C943.619 625.591 943.535 625.804 943.387 625.986C942.984 626.483 942.255 626.558 941.759 626.155C938.749 623.708 935.831 621.055 933.083 618.273C932.633 617.819 932.639 617.087 933.094 616.637C933.549 616.187 934.283 616.192 934.732 616.647C937.421 619.37 940.276 621.964 943.22 624.358C943.534 624.612 943.679 624.998 943.641 625.373Z" fill="#0C2C00"/>
<path d="M962.434 637.318C962.423 637.426 962.396 637.534 962.351 637.641C962.109 638.233 961.431 638.512 960.841 638.27C960.666 638.198 956.488 636.457 950.317 632.418C949.783 632.067 949.633 631.349 949.981 630.816C950.333 630.28 951.049 630.131 951.585 630.48C957.556 634.389 961.683 636.113 961.724 636.128C962.208 636.33 962.485 636.82 962.434 637.318Z" fill="#0C2C00"/>
<path d="M982.578 581.45C982.527 581.956 982.145 582.384 981.62 582.474C980.99 582.58 980.391 582.155 980.285 581.525C979.25 575.406 978.763 569.006 978.833 562.5C978.847 561.863 979.364 561.347 980.004 561.355C980.644 561.363 981.156 561.887 981.15 562.527C981.078 568.895 981.557 575.158 982.569 581.139C982.585 581.245 982.589 581.348 982.578 581.45Z" fill="#0C2C00"/>
<path d="M995.49 615.327C995.456 615.666 995.273 615.988 994.963 616.185C994.424 616.53 993.708 616.374 993.363 615.834C989.681 610.086 986.646 603.841 984.338 597.276C984.125 596.671 984.441 596.01 985.044 595.799C985.65 595.588 986.311 595.903 986.521 596.507C988.772 602.905 991.728 608.987 995.312 614.585C995.458 614.816 995.515 615.076 995.49 615.327Z" fill="#0C2C00"/>
<path d="M1011.74 633.632C1011.72 633.824 1011.65 634.014 1011.53 634.182C1011.16 634.704 1010.44 634.828 1009.92 634.458C1009.71 634.314 1004.88 630.846 999.008 623.64C998.604 623.144 998.675 622.415 999.173 622.011C999.669 621.606 1000.4 621.682 1000.8 622.177C1006.47 629.142 1011.21 632.534 1011.26 632.568C1011.61 632.818 1011.78 633.231 1011.74 633.632Z" fill="#0C2C00"/>
<path d="M1206.05 615.614C1206.07 615.462 1206.13 615.316 1206.24 615.194C1209.57 611.465 1211.34 608.915 1211.36 608.89C1211.61 608.531 1212.11 608.441 1212.47 608.69C1212.82 608.939 1212.91 609.434 1212.67 609.793C1212.59 609.899 1210.82 612.438 1207.43 616.247C1207.14 616.575 1206.63 616.602 1206.31 616.311C1206.1 616.13 1206.02 615.866 1206.05 615.614Z" fill="#FFEE9F"/>
<path d="M1199.09 600.517C1205.49 601.291 1212.35 602.756 1219.68 605.047C1179.88 659.992 1134.67 653.235 1121.62 649.822C1119.23 649.199 1117.92 648.685 1117.92 648.685C1117.92 648.685 1130.35 614.151 1165.59 603.158L1165.6 603.16C1175.05 600.208 1186.15 598.954 1199.09 600.517Z" fill="#8CB369"/>
<path d="M1121.62 649.822C1119.23 649.199 1117.92 648.685 1117.92 648.685C1117.92 648.685 1130.35 614.15 1165.59 603.158L1165.6 603.159C1165.6 603.159 1148.37 636.756 1141.33 642.794C1137.12 646.407 1128.15 648.625 1121.62 649.822Z" fill="#0C2C00"/>
<path d="M1117.52 648.633C1117.55 648.419 1117.55 648.401 1121.14 645.995C1123.17 644.631 1126.47 642.465 1130.63 639.88C1150.09 627.801 1187.53 607.165 1219.65 604.651L1219.71 605.442C1187.75 607.941 1150.44 628.513 1131.05 640.553C1122.99 645.552 1118.19 648.974 1118.15 649.007L1117.92 648.686L1117.52 648.633Z" fill="#0C2C00"/>
<path d="M1169.06 646.873L1169.44 646.182L1144.15 632.118L1143.76 632.809L1169.06 646.873Z" fill="#0C2C00"/>
<path d="M1176 643.871L1176.34 643.152L1147.94 629.956L1147.61 630.675L1176 643.871Z" fill="#0C2C00"/>
<path d="M1163.39 622.692L1175.24 601.12L1174.54 600.738L1162.69 622.31L1163.39 622.692Z" fill="#0C2C00"/>
<path d="M1177.61 615.624C1178.58 615.24 1183.51 607.108 1187.66 599.652L1188.36 600.037C1186.9 602.646 1179.57 615.7 1177.91 616.361L1177.61 615.624Z" fill="#0C2C00"/>
<path d="M1204.07 623.455L1204.53 622.805L1188.56 611.707L1188.11 612.357L1204.07 623.455Z" fill="#0C2C00"/>
<path d="M1134.97 638.029L1141.23 616.994L1140.47 616.768L1134.21 637.803L1134.97 638.029Z" fill="#0C2C00"/>
<path d="M1184.51 639.22L1184.83 638.498L1156.17 625.638L1155.84 626.36L1184.51 639.22Z" fill="#0C2C00"/>
<path d="M1141.01 610.693C1144.48 609.294 1148.45 608.183 1153.01 607.46C1146.45 646.435 1117.67 648.958 1117.67 648.958C1117.67 648.958 1114.5 621.392 1141.01 610.693Z" fill="#8CB369"/>
<path d="M1117.32 648.77C1117.33 648.744 1118.74 646.115 1121.18 642.187C1127.13 632.591 1139.15 615.274 1152.81 607.119L1153.21 607.8C1139.7 615.867 1127.76 633.07 1121.85 642.605C1119.43 646.511 1118.03 649.119 1118.02 649.144L1117.32 648.77Z" fill="#0C2C00"/>
<path d="M1125.57 636.497L1139.8 637.173L1139.84 636.382L1125.6 635.706L1125.57 636.497Z" fill="#0C2C00"/>
<path d="M1126.82 634.714L1142.23 634.317L1142.21 633.526L1126.8 633.923L1126.82 634.714Z" fill="#0C2C00"/>
<path d="M1131.41 627.527L1132.2 627.561L1132.72 615.456L1131.93 615.421L1131.41 627.527Z" fill="#0C2C00"/>
<path d="M1137.51 612.071L1138.3 612.108C1138.17 614.775 1137.81 621.048 1137.21 621.718L1136.62 621.188L1136.61 621.205C1136.92 620.705 1137.31 616.168 1137.51 612.071Z" fill="#0C2C00"/>
<path d="M1150.15 619.167L1150.27 618.382L1140.8 616.995L1140.68 617.78L1150.15 619.167Z" fill="#0C2C00"/>
<path d="M1122.28 640.637L1123.06 640.501L1121.21 629.855L1120.43 629.991L1122.28 640.637Z" fill="#0C2C00"/>
<path d="M1129.53 631.015L1144.99 630.409L1144.96 629.618L1129.5 630.224L1129.53 631.015Z" fill="#0C2C00"/>
<path d="M1160.04 645.539C1160.08 645.235 1160.3 644.97 1160.61 644.88C1162.59 644.317 1164.59 643.665 1166.55 642.944C1166.97 642.793 1167.42 643.003 1167.57 643.414C1167.72 643.824 1167.51 644.279 1167.1 644.431C1165.1 645.167 1163.06 645.831 1161.04 646.405C1160.62 646.525 1160.18 646.28 1160.07 645.859C1160.03 645.751 1160.03 645.642 1160.04 645.539Z" fill="white"/>
<path d="M1171.24 641.471C1171.28 641.207 1171.45 640.967 1171.71 640.85C1173.81 639.916 1175.93 638.876 1177.99 637.761C1178.37 637.553 1178.85 637.696 1179.06 638.081C1179.27 638.465 1179.13 638.947 1178.74 639.155C1176.64 640.29 1174.49 641.348 1172.35 642.299C1171.95 642.477 1171.48 642.297 1171.31 641.897C1171.24 641.758 1171.23 641.611 1171.24 641.471Z" fill="white"/>
<path d="M1181.73 635.972C1181.76 635.743 1181.89 635.528 1182.1 635.399C1188.78 631.345 1195.14 626.386 1201.02 620.655C1201.33 620.349 1201.83 620.355 1202.14 620.668C1202.44 620.983 1202.44 621.484 1202.12 621.79C1196.16 627.604 1189.7 632.638 1182.93 636.754C1182.55 636.981 1182.07 636.862 1181.84 636.488C1181.74 636.327 1181.71 636.145 1181.73 635.972Z" fill="white"/>
<path d="M1131.92 641.262C1131.95 641.075 1132.04 640.895 1132.2 640.763C1134.62 638.708 1137.33 635.592 1140.26 631.502C1140.51 631.145 1141.01 631.063 1141.36 631.318C1141.72 631.573 1141.8 632.067 1141.54 632.424C1138.54 636.62 1135.74 639.832 1133.22 641.969C1132.89 642.253 1132.39 642.213 1132.1 641.878C1131.95 641.702 1131.89 641.477 1131.92 641.262Z" fill="white"/>
<path d="M1141.62 628.139C1141.63 628.044 1141.66 627.951 1141.71 627.863C1143.33 624.883 1144.98 621.578 1146.6 618.038C1146.78 617.64 1147.25 617.465 1147.65 617.647C1148.05 617.829 1148.22 618.299 1148.04 618.698C1146.4 622.27 1144.74 625.609 1143.1 628.623C1142.89 629.007 1142.41 629.148 1142.02 628.939C1141.73 628.776 1141.57 628.452 1141.62 628.139Z" fill="white"/>
<path d="M1147.96 615.071C1147.96 615 1147.98 614.929 1148.01 614.86C1148.99 612.617 1149.56 611.178 1149.56 611.164C1149.72 610.756 1150.19 610.557 1150.59 610.717C1151 610.878 1151.2 611.339 1151.04 611.746C1151.03 611.76 1150.45 613.222 1149.47 615.492C1149.29 615.893 1148.83 616.076 1148.43 615.902C1148.09 615.759 1147.91 615.414 1147.96 615.071Z" fill="white"/>
<path d="M1162.4 603.955C1162.42 603.78 1162.52 603.616 1162.69 603.52C1164.7 602.342 1167.46 601.424 1170.89 600.791C1171.21 600.732 1171.52 600.945 1171.58 601.267C1171.64 601.59 1171.43 601.9 1171.11 601.96C1167.81 602.568 1165.18 603.438 1163.28 604.547C1163 604.712 1162.64 604.617 1162.47 604.333C1162.4 604.214 1162.38 604.082 1162.4 603.955Z" fill="#0C2C00"/>
<path d="M1176.92 600.486C1176.95 600.214 1177.18 599.994 1177.46 599.972C1182.19 599.613 1187.78 599.599 1194.08 599.932C1194.41 599.949 1194.66 600.228 1194.64 600.557C1194.62 600.881 1194.35 601.136 1194.02 601.119C1187.77 600.79 1182.23 600.803 1177.55 601.159C1177.22 601.183 1176.94 600.938 1176.91 600.611C1176.91 600.567 1176.91 600.527 1176.92 600.486Z" fill="#0C2C00"/>
<path d="M1200.82 600.968C1200.86 600.653 1201.14 600.425 1201.46 600.455C1208.74 601.091 1214.13 601.913 1214.18 601.92C1214.5 601.97 1214.72 602.266 1214.68 602.587C1214.68 602.587 1214.68 602.594 1214.68 602.598C1214.63 602.922 1214.32 603.144 1214 603.095C1213.95 603.088 1208.6 602.271 1201.36 601.638C1201.03 601.61 1200.79 601.322 1200.82 600.995C1200.82 600.985 1200.82 600.976 1200.82 600.968Z" fill="#0C2C00"/>
<path d="M1122.49 625.571C1122.51 625.492 1122.53 625.415 1122.57 625.343C1123.61 623.624 1124.83 621.971 1126.21 620.431C1126.43 620.187 1126.81 620.168 1127.05 620.386C1127.3 620.606 1127.32 620.981 1127.1 621.226C1125.77 622.71 1124.59 624.3 1123.59 625.955C1123.42 626.236 1123.06 626.327 1122.78 626.158C1122.57 626.032 1122.46 625.798 1122.49 625.571Z" fill="#0C2C00"/>
<path d="M1131.89 615.551C1131.91 615.396 1131.99 615.249 1132.13 615.148C1140.29 609.258 1148.87 607.549 1149.23 607.479C1149.55 607.417 1149.86 607.628 1149.93 607.95C1149.99 608.271 1149.78 608.584 1149.46 608.646C1149.37 608.663 1140.76 610.381 1132.83 616.112C1132.56 616.305 1132.19 616.245 1132 615.979C1131.9 615.85 1131.87 615.698 1131.89 615.551Z" fill="#0C2C00"/>
<path d="M1129.73 785.724C1132.01 788.515 1142.28 783.89 1152.67 775.395C1163.05 766.899 1169.62 757.75 1167.34 754.96C1165.06 752.169 1154.79 756.794 1144.4 765.289C1134.01 773.785 1127.44 782.934 1129.73 785.724Z" fill="#FFEE9F"/>
<path d="M1220.56 807.386C1224.28 805.98 1223.05 793.606 1217.82 779.749C1212.59 765.892 1205.33 755.799 1201.6 757.205C1197.88 758.611 1199.1 770.984 1204.34 784.841C1209.57 798.698 1216.83 808.792 1220.56 807.386Z" fill="#FFEE9F"/>
<path d="M1226.96 790.598C1229.34 789.698 1228.56 781.784 1225.21 772.921C1221.87 764.057 1217.22 757.601 1214.84 758.5C1212.46 759.4 1213.24 767.314 1216.59 776.177C1219.94 785.041 1224.58 791.497 1226.96 790.598Z" fill="#FFEE9F"/>
<path d="M1156.01 813.257C1160.6 815.001 1169.58 802.565 1176.07 785.481C1182.56 768.397 1184.1 753.134 1179.51 751.39C1174.92 749.647 1165.93 762.083 1159.45 779.167C1152.96 796.251 1151.42 811.514 1156.01 813.257Z" fill="#FFEE9F"/>
<path d="M1203.07 779.952C1198.18 762.342 1190.38 749.13 1185.65 750.445C1180.92 751.757 1181.05 767.098 1185.94 784.707C1190.83 802.317 1198.62 815.527 1203.36 814.213C1208.09 812.901 1207.96 797.561 1203.07 779.952Z" fill="#FFEE9F"/>
<path d="M1117.06 627.326C1120.62 626.742 1121.74 615.535 1119.57 602.293C1117.4 589.051 1112.75 578.79 1109.2 579.374C1105.64 579.958 1104.52 591.165 1106.69 604.407C1108.86 617.648 1113.51 627.91 1117.06 627.326Z" fill="#FFEE9F"/>
<path d="M1093.12 638.099C1096.98 637.339 1097.81 625.084 1094.98 610.727C1092.15 596.369 1086.73 585.347 1082.87 586.107C1079.02 586.867 1078.18 599.122 1081.01 613.479C1083.84 627.836 1089.26 638.859 1093.12 638.099Z" fill="#FFEE9F"/>
<path d="M1065.95 640.598C1069.51 640.783 1072.95 630.2 1073.64 616.96C1074.33 603.719 1072 592.836 1068.44 592.65C1064.89 592.465 1061.44 603.048 1060.75 616.289C1060.07 629.529 1062.39 640.413 1065.95 640.598Z" fill="#FFEE9F"/>
<path d="M1047.53 637.398C1049.99 638.035 1053.91 631.117 1056.28 621.944C1058.66 612.772 1058.58 604.82 1056.12 604.182C1053.66 603.545 1049.73 610.463 1047.36 619.635C1044.99 628.808 1045.06 636.76 1047.53 637.398Z" fill="#FFEE9F"/>
<path d="M1159.37 526.077C1159.1 526.077 1158.84 525.907 1158.75 525.638C1157.83 522.987 1157.94 520.917 1159.06 519.489C1160.85 517.217 1164.5 517.539 1164.65 517.555C1165.01 517.589 1165.27 517.907 1165.24 518.266C1165.2 518.624 1164.88 518.883 1164.53 518.854C1164.5 518.851 1161.43 518.588 1160.08 520.3C1159.26 521.357 1159.22 523.01 1159.98 525.211C1160.1 525.551 1159.92 525.924 1159.58 526.042C1159.51 526.065 1159.44 526.077 1159.37 526.077Z" fill="#0C2C00"/>
<path d="M1111.43 536.975C1109.9 536.975 1107.65 536.173 1107.02 535.465C1106.63 535.03 1106.6 534.487 1106.95 534.079C1107.29 533.351 1107.15 527.274 1106.79 521.847C1106.77 521.487 1107.04 521.176 1107.4 521.153C1107.76 521.137 1108.07 521.403 1108.1 521.762C1108.43 526.917 1108.68 533.169 1108.08 534.684C1108.7 535.218 1111.31 535.9 1111.85 535.629C1112.15 535.43 1112.55 535.512 1112.75 535.813C1112.95 536.113 1112.87 536.521 1112.57 536.721C1112.3 536.899 1111.9 536.975 1111.43 536.975Z" fill="#0C2C00"/>
<path d="M1155.48 773.69C1155.28 773.69 1155.08 773.599 1154.95 773.425C1154.74 773.136 1154.8 772.727 1155.09 772.513C1166.95 763.708 1166.3 754.331 1166.29 754.238C1166.26 753.879 1166.52 753.563 1166.88 753.531C1167.24 753.503 1167.56 753.763 1167.59 754.122C1167.63 754.533 1168.36 764.291 1155.86 773.561C1155.75 773.647 1155.61 773.69 1155.48 773.69Z" fill="#0C2C00"/>
<path d="M1204.33 785.536C1204.03 785.536 1203.77 785.332 1203.7 785.03C1203.19 782.849 1198.79 763.676 1198.79 761.66C1198.78 760.057 1194.81 752.474 1190.18 751.604C1188.43 751.276 1187.54 752.804 1186.55 754.835C1185.95 756.075 1185.47 757.022 1184.55 757.035C1183.77 757.02 1183.15 756.293 1182.33 754.443C1181.62 752.81 1180.71 751.874 1179.65 751.665C1177.57 751.251 1175.17 753.565 1174.27 754.436L1174.03 754.66C1173.77 754.905 1173.36 754.89 1173.11 754.627C1172.87 754.363 1172.88 753.949 1173.14 753.703L1173.36 753.495C1174.4 752.496 1177.16 749.837 1179.9 750.383C1181.41 750.682 1182.63 751.871 1183.53 753.919C1184.1 755.212 1184.43 755.591 1184.56 755.698C1184.78 755.489 1185.14 754.761 1185.38 754.264C1186.24 752.48 1187.55 749.783 1190.42 750.322C1195.73 751.319 1200.09 759.325 1200.09 761.658C1200.1 763.072 1203.01 776.234 1204.97 784.736C1205.05 785.088 1204.83 785.438 1204.48 785.519C1204.43 785.53 1204.38 785.536 1204.33 785.536Z" fill="#0C2C00"/>
<path d="M1213.45 770.601C1213.26 770.601 1213.07 770.515 1212.94 770.35C1211.87 768.977 1210.35 765.29 1208.89 761.724C1207.87 759.221 1206.9 756.857 1206.26 755.755C1206.13 755.542 1206 755.501 1205.87 755.49C1204.53 755.38 1201.36 758.341 1199.54 760.489C1199.3 760.763 1198.89 760.797 1198.62 760.563C1198.34 760.33 1198.31 759.918 1198.54 759.643C1199.35 758.693 1203.5 753.968 1205.99 754.19C1206.59 754.244 1207.07 754.559 1207.39 755.101C1208.07 756.28 1209.06 758.684 1210.1 761.229C1211.46 764.551 1213.01 768.315 1213.97 769.547C1214.19 769.831 1214.14 770.241 1213.86 770.463C1213.74 770.556 1213.59 770.601 1213.45 770.601Z" fill="#0C2C00"/>
<path d="M1227.57 781.434C1227.25 781.434 1226.97 781.202 1226.92 780.879C1224.38 763.938 1213.26 757.827 1213.15 757.767C1212.83 757.598 1212.71 757.203 1212.88 756.885C1213.05 756.566 1213.44 756.444 1213.76 756.614C1214.24 756.869 1225.57 763.06 1228.21 780.685C1228.27 781.041 1228.02 781.374 1227.66 781.428C1227.63 781.432 1227.6 781.434 1227.57 781.434Z" fill="#0C2C00"/>
<path d="M1121.26 536.292C1114.57 536.292 1109.13 530.84 1109.13 524.14C1109.13 517.44 1114.57 511.989 1121.26 511.989C1127.95 511.989 1133.39 517.44 1133.39 524.14C1133.39 530.84 1127.95 536.292 1121.26 536.292ZM1121.26 513.295C1115.29 513.295 1110.44 518.16 1110.44 524.14C1110.44 530.121 1115.29 534.986 1121.26 534.986C1127.23 534.986 1132.09 530.121 1132.09 524.14C1132.09 518.16 1127.23 513.295 1121.26 513.295Z" fill="#0C2C00"/>
<path d="M863.87 706.127C863.509 706.127 863.217 705.835 863.217 705.474V697.79C863.217 697.561 863.337 697.349 863.533 697.231L877.572 688.759L867.283 676.316C867.054 676.038 867.092 675.626 867.371 675.397C867.649 675.167 868.06 675.207 868.29 675.484L879.061 688.51C879.182 688.657 879.233 688.849 879.202 689.036C879.17 689.223 879.058 689.388 878.895 689.485L864.523 698.158V705.474C864.523 705.835 864.231 706.127 863.87 706.127Z" fill="white"/>
<path d="M763.994 757.843C763.662 757.843 763.379 757.592 763.345 757.256C763.309 756.898 763.571 756.578 763.929 756.541C764.32 756.501 803.578 752.475 849.021 740.873C849.371 740.782 849.726 740.994 849.815 741.344C849.904 741.693 849.694 742.048 849.344 742.138C803.803 753.766 764.452 757.801 764.06 757.841C764.037 757.842 764.015 757.843 763.994 757.843Z" fill="white"/>
<path d="M891.286 669.164C891.169 669.164 891.049 669.132 890.941 669.065C890.636 668.874 890.542 668.472 890.733 668.166C898.65 655.468 903.24 627.672 906.277 609.277C908.763 594.219 909.696 589.3 911.226 588.684C911.56 588.551 911.94 588.712 912.075 589.046C912.207 589.373 912.055 589.744 911.735 589.887C910.667 590.705 909.09 600.255 907.565 609.49C904.329 629.093 899.896 655.939 891.841 668.857C891.717 669.055 891.504 669.164 891.286 669.164Z" fill="white"/>
<path d="M1105.47 515.123C1105.38 515.123 1105.28 515.101 1105.19 515.056C1104.86 514.896 1104.73 514.504 1104.89 514.181C1104.99 513.971 1115.5 493.123 1134.15 491.159C1134.51 491.121 1134.83 491.382 1134.87 491.74C1134.9 492.098 1134.64 492.42 1134.29 492.457C1116.34 494.347 1106.16 514.556 1106.06 514.76C1105.95 514.99 1105.71 515.123 1105.47 515.123Z" fill="white"/>
<path d="M1098.93 513.296C1098.82 513.296 1098.7 513.268 1098.6 513.214C1098.29 513.039 1098.17 512.641 1098.35 512.326C1098.38 512.26 1098.43 512.204 1098.48 512.157C1098.57 511.968 1098.74 511.533 1098.9 511.11C1107.26 489.249 1121.93 484.818 1132.75 484.989C1133.11 484.995 1133.4 485.291 1133.39 485.651C1133.39 486.012 1133.1 486.279 1132.73 486.295C1117.59 486.11 1106.61 494.591 1100.12 511.577C1099.62 512.888 1099.53 513.123 1099.16 513.257C1099.09 513.283 1099.01 513.296 1098.93 513.296Z" fill="white"/>
<path d="M1198.81 492.461C1198.79 492.461 1198.78 492.46 1198.76 492.459C1198.4 492.432 1198.13 492.118 1198.16 491.758C1199.97 468.183 1180.76 458.639 1180.57 458.546C1180.24 458.389 1180.11 457.999 1180.26 457.675C1180.42 457.351 1180.81 457.212 1181.13 457.369C1181.34 457.466 1201.34 467.372 1199.46 491.859C1199.43 492.201 1199.15 492.461 1198.81 492.461Z" fill="white"/>
<path d="M1189.89 499.795C1189.76 499.795 1189.63 499.756 1189.52 499.676C1189.22 499.469 1189.15 499.061 1189.36 498.766C1197.85 486.669 1191.57 475.319 1191.51 475.206C1191.33 474.893 1191.44 474.494 1191.75 474.316C1192.06 474.139 1192.46 474.246 1192.64 474.558C1192.71 474.679 1199.41 486.722 1190.43 499.517C1190.3 499.697 1190.1 499.795 1189.89 499.795Z" fill="white"/>
<path d="M1173.74 518.838C1173.72 518.838 1173.69 518.836 1173.66 518.833C1173.3 518.789 1173.05 518.464 1173.09 518.107C1175.44 498.777 1154.78 488.763 1154.57 488.664C1154.24 488.51 1154.1 488.12 1154.26 487.795C1154.41 487.469 1154.8 487.329 1155.13 487.484C1155.35 487.587 1176.85 498.01 1174.39 518.264C1174.35 518.595 1174.07 518.838 1173.74 518.838Z" fill="white"/>
<path d="M789.493 698.747C792.098 694.192 822.456 618.786 853.687 590.576C861.494 596.337 861.494 596.337 861.494 596.337L789.493 698.747Z" fill="#0C2C00"/>
<path d="M853.687 590.576L867.568 659.551L861.494 596.337L853.687 590.576Z" fill="#0C2C00"/>
<path d="M788.912 700.398C787.173 697.355 766.887 646.974 746.024 628.125C740.806 631.972 740.806 631.972 740.806 631.972L788.912 700.398Z" fill="#0C2C00"/>
<path d="M746.024 628.125L736.749 674.209L740.806 631.972L746.024 628.125Z" fill="#0C2C00"/>
<path d="M855.199 507.644L845.806 535.035L824.861 596.146V596.156L821.92 604.704L789.498 699.3C790.072 696.961 791.63 684.841 794.363 667.349C794.372 667.341 794.372 667.333 794.372 667.323C798.429 641.5 805.063 603.966 814.94 568.864C821.68 544.883 829.938 522.035 839.921 504.827C840.284 504.206 840.645 503.586 841.008 502.984C855.199 507.644 855.199 507.644 855.199 507.644Z" fill="#0C2C00"/>
<path d="M855.199 507.644L845.806 535.035C844.53 527.257 842.216 513.963 839.921 504.827C840.284 504.206 840.645 503.586 841.008 502.984C855.199 507.644 855.199 507.644 855.199 507.644Z" fill="#0C2C00"/>
<path d="M841.007 502.981L890.86 599.892L855.2 507.648L841.007 502.981Z" fill="#8CB369"/>
<path d="M824.86 596.145V596.155L821.92 604.704L814.599 594.772C814.599 594.772 801.421 641.599 794.371 667.322C798.429 641.499 805.063 603.965 814.94 568.863L824.86 596.145Z" fill="#0C2C00"/>
<path d="M695.515 522.856L692.953 533.249L690.474 543.324L688.148 552.762L669 630.484L681.15 543.24L682.813 531.295C682.813 531.295 682.813 531.295 684.779 529.997C685.043 529.821 685.345 529.62 685.692 529.385C686.494 528.848 687.52 528.169 688.842 527.29C690.541 526.158 692.725 524.708 695.515 522.856Z" fill="#0C2C00"/>
<path d="M695.515 536.955L693.186 547.581L690.474 543.324L688.148 552.763L681.15 543.24L682.813 531.296C682.813 531.296 682.813 531.296 684.779 529.998C685.043 529.822 685.345 529.621 685.692 529.386C686.494 528.849 687.52 528.169 688.842 527.29L692.954 533.249L695.515 536.955Z" fill="#0C2C00"/>
<path d="M789.498 698.746L693.186 547.581L690.474 543.324L682.813 531.296C682.813 531.296 682.813 531.296 684.779 529.999C685.043 529.823 685.345 529.621 685.692 529.386C686.494 528.849 687.52 528.17 688.842 527.291C690.542 526.159 692.726 524.709 695.516 522.856C709.396 536.654 722.891 556.845 735.124 578.669C737.92 583.658 740.648 588.737 743.301 593.833C768.658 642.589 787.065 694.01 789.498 698.746Z" fill="#8CB369"/>
<path d="M743.3 593.832L736.152 603.446C736.152 603.446 734.806 588.335 735.123 578.669C737.92 583.657 740.648 588.736 743.3 593.832Z" fill="#0C2C00"/>
<path d="M773.191 478.231L766.77 499.078L762.682 512.329L759.68 522.06L737.527 593.942L752.683 507.618L757.799 478.491L760.262 478.45L773.191 478.231Z" fill="#0C2C00"/>
<path d="M769.24 506.931L764.063 521.884L762.682 512.33L759.679 522.061C757.83 518.121 755.198 512.597 752.682 507.619L757.798 478.492C757.798 478.492 757.798 478.492 760.209 478.266L760.261 478.45L766.769 499.079L769.24 506.931Z" fill="#0C2C00"/>
<path d="M789.83 700.397L789.581 698.645L785.214 668.388L764.063 521.883L762.682 512.329L757.799 478.491C757.799 478.491 757.799 478.491 760.211 478.266C762.34 478.073 766.368 477.704 773.969 477C782.288 499.865 786.868 529.93 789.256 560.572C794.062 622.245 790.004 686.265 789.822 698.712C789.808 699.468 789.808 700.037 789.83 700.397Z" fill="#8CB369"/>
<path d="M789.822 698.712C789.738 698.695 789.664 698.669 789.581 698.645L785.215 668.388L789.256 560.572C794.062 622.246 790.004 686.266 789.822 698.712Z" fill="#0C2C00"/>
<path d="M790.219 699.218C790.65 692.709 783.105 593.013 801.901 543.122C813.198 544.322 814.308 544.322 814.308 544.322L790.219 699.218Z" fill="#0C2C00"/>
<path d="M801.901 543.122L833.312 621.239L814.308 544.323L801.901 543.122Z" fill="#8CB369"/>
<path d="M817.882 804.433H759.942L751.648 690.178H825.146L817.882 804.433Z" fill="#4BA3BC"/>
<path d="M801.868 735.662C805.129 735.662 807.772 732.73 807.772 729.112C807.772 725.495 805.129 722.563 801.868 722.563C798.607 722.563 795.964 725.495 795.964 729.112C795.964 732.73 798.607 735.662 801.868 735.662Z" fill="#00748C"/>
<path d="M811.061 753.852C812.877 753.852 814.349 752.219 814.349 750.204C814.349 748.19 812.877 746.557 811.061 746.557C809.245 746.557 807.773 748.19 807.773 750.204C807.773 752.219 809.245 753.852 811.061 753.852Z" fill="#00748C"/>
<path d="M786.283 768.942C787.458 768.942 788.411 767.885 788.411 766.581C788.411 765.278 787.458 764.221 786.283 764.221C785.108 764.221 784.155 765.278 784.155 766.581C784.155 767.885 785.108 768.942 786.283 768.942Z" fill="#00748C"/>
<path d="M776.534 731.837C777.409 731.837 778.118 731.051 778.118 730.08C778.118 729.11 777.409 728.324 776.534 728.324C775.66 728.324 774.951 729.11 774.951 730.08C774.951 731.051 775.66 731.837 776.534 731.837Z" fill="#00748C"/>
<path d="M789.364 704.567C789.364 706.164 788.197 707.457 786.761 707.457C785.322 707.457 784.155 706.164 784.155 704.567C784.155 702.971 785.323 701.679 786.761 701.679C788.197 701.679 789.364 702.971 789.364 704.567Z" fill="#00748C"/>
<path d="M801.869 704.678C801.869 706.334 800.657 707.676 799.166 707.676C797.671 707.676 796.462 706.334 796.462 704.678C796.462 703.022 797.672 701.679 799.166 701.679C800.657 701.679 801.869 703.022 801.869 704.678Z" fill="#00748C"/>
<path d="M812.83 713.771C813.807 713.771 814.599 712.892 814.599 711.809C814.599 710.725 813.807 709.846 812.83 709.846C811.853 709.846 811.061 710.725 811.061 711.809C811.061 712.892 811.853 713.771 812.83 713.771Z" fill="#00748C"/>
<path d="M788.174 749.297C789.219 749.297 790.065 748.358 790.065 747.199C790.065 746.04 789.219 745.101 788.174 745.101C787.129 745.101 786.283 746.04 786.283 747.199C786.283 748.358 787.129 749.297 788.174 749.297Z" fill="#00748C"/>
<path d="M763.843 762.175C764.773 762.175 765.526 761.339 765.526 760.308C765.526 759.277 764.773 758.442 763.843 758.442C762.914 758.442 762.161 759.277 762.161 760.308C762.161 761.339 762.914 762.175 763.843 762.175Z" fill="#00748C"/>
<path d="M763.656 723.764C764.481 723.764 765.151 723.021 765.151 722.105C765.151 721.189 764.481 720.447 763.656 720.447C762.83 720.447 762.161 721.189 762.161 722.105C762.161 723.021 762.83 723.764 763.656 723.764Z" fill="#00748C"/>
<path d="M772.955 714.384C774.084 714.384 775 713.369 775 712.116C775 710.863 774.084 709.847 772.955 709.847C771.825 709.847 770.91 710.863 770.91 712.116C770.91 713.369 771.825 714.384 772.955 714.384Z" fill="#00748C"/>
<path d="M772.955 754.325C772.955 756.6 771.293 758.445 769.24 758.445C767.191 758.445 765.526 756.6 765.526 754.325C765.526 752.049 767.191 750.204 769.24 750.204C771.294 750.204 772.955 752.049 772.955 754.325Z" fill="#00748C"/>
<path d="M789.256 561.83C788.66 561.83 788.158 561.314 788.125 560.646C787.6 550.553 786.156 538.759 783.84 525.588C783.72 524.907 784.12 524.246 784.734 524.113C785.349 523.98 785.946 524.424 786.064 525.106C788.403 538.386 789.855 550.294 790.387 560.5C790.425 561.193 789.946 561.789 789.321 561.828C789.299 561.83 789.278 561.83 789.256 561.83Z" fill="#0C2C00"/>
<path d="M783.396 518.232C782.872 518.232 782.403 517.83 782.288 517.242C781.114 511.229 779.776 504.987 778.311 498.692C778.153 498.019 778.518 497.334 779.125 497.16C779.733 496.987 780.348 497.391 780.505 498.064C781.978 504.391 783.322 510.664 784.503 516.709C784.635 517.388 784.248 518.057 783.634 518.203C783.553 518.223 783.474 518.232 783.396 518.232Z" fill="#0C2C00"/>
<path d="M726.7 565.531C726.327 565.531 725.963 565.329 725.745 564.957C724.129 562.196 721.842 558.736 718.945 554.676C718.556 554.132 718.639 553.341 719.131 552.911C719.622 552.478 720.335 552.573 720.724 553.117C723.665 557.238 725.994 560.761 727.647 563.589C727.988 564.172 727.84 564.951 727.313 565.327C727.124 565.465 726.911 565.531 726.7 565.531Z" fill="#0C2C00"/>
<path d="M715.064 548.654C714.741 548.654 714.418 548.499 714.195 548.202C712.833 546.391 711.45 544.583 710.083 542.818C709.675 542.292 709.728 541.498 710.204 541.044C710.677 540.592 711.394 540.652 711.802 541.179C713.178 542.953 714.567 544.77 715.935 546.59C716.336 547.124 716.271 547.917 715.791 548.361C715.578 548.557 715.321 548.654 715.064 548.654Z" fill="#0C2C00"/>
<path d="M701.017 530.779C700.708 530.779 700.4 530.639 700.175 530.365C696.93 526.381 694.751 523.791 694.692 523.722C694.5 523.496 694.379 523.191 694.379 522.856C694.379 522.163 694.887 521.599 695.515 521.599C696.091 521.599 696.091 521.599 701.857 528.679C702.277 529.195 702.242 529.989 701.777 530.456C701.56 530.672 701.288 530.779 701.017 530.779Z" fill="#0C2C00"/>
<path d="M831.402 523.871C831.246 523.871 831.086 523.835 830.934 523.758C830.364 523.469 830.114 522.724 830.371 522.092C832.947 515.819 834.83 511.609 835.968 509.579C836.301 508.991 836.999 508.81 837.531 509.177C838.063 509.542 838.224 510.319 837.894 510.908C836.809 512.846 834.97 516.958 832.434 523.134C832.245 523.597 831.834 523.871 831.402 523.871Z" fill="#0C2C00"/>
<path d="M820.262 552.476C820.118 552.476 819.97 552.446 819.829 552.38C819.252 552.114 818.975 551.379 819.215 550.737C819.241 550.67 821.768 543.909 824.878 535.901C825.128 535.263 825.797 534.971 826.369 535.243C826.943 535.519 827.21 536.259 826.962 536.896C823.857 544.887 821.335 551.632 821.31 551.7C821.128 552.185 820.708 552.476 820.262 552.476Z" fill="#0C2C00"/>
<path d="M828.915 604.704C828.417 604.704 827.962 604.337 827.822 603.778L818.721 566.942C818.556 566.272 818.911 565.58 819.515 565.397C820.117 565.208 820.742 565.607 820.908 566.277L830.011 603.113C830.174 603.782 829.819 604.475 829.216 604.658C829.114 604.689 829.017 604.704 828.915 604.704Z" fill="#0C2C00"/>
<path d="M815.835 551.767C815.338 551.767 814.88 551.401 814.743 550.843L813.424 545.499L801.802 544.375C801.179 544.315 800.716 543.706 800.771 543.013C800.828 542.322 801.37 541.809 802 541.871L814.406 543.071C814.878 543.116 815.274 543.482 815.4 543.99L816.928 550.178C817.093 550.848 816.739 551.539 816.135 551.723C816.036 551.753 815.934 551.767 815.835 551.767Z" fill="#0C2C00"/>
<path d="M817.883 804.433H810.195L801.901 690.178H825.146L817.883 804.433Z" fill="#00748C"/>
<defs>
<linearGradient id="paint0_linear" x1="719.5" y1="398" x2="719.5" y2="905.183" gradientUnits="userSpaceOnUse">
<stop stop-color="#8CB369"/>
<stop offset="1" stop-color="#C4C4C4" stop-opacity="0"/>
</linearGradient>
</defs>
</svg>
