<svg width="48" height="48" viewBox="0 0 48 48" fill="none" xmlns="http://www.w3.org/2000/svg">
<rect x="1" y="1" width="46" height="46" rx="19" fill="white" stroke="#8CB369" stroke-width="2"/>
<g clip-path="url(#clip0)">
<path d="M18.1231 23.2832C14.9925 24.4631 12.8238 27.3436 12.5556 30.6786C12.2871 34.0133 13.9673 37.2035 16.869 38.8688C17.0242 38.9562 17.1995 39.0016 17.3776 39H24.9712C25.149 39.0016 25.3245 38.9562 25.4795 38.8688C28.3812 37.2032 30.0612 34.0129 29.7927 30.6781C29.5243 27.3433 27.3554 24.4629 24.2246 23.2832H18.1231Z" fill="#B0D3F0"/>
<path d="M27.7231 30.4831C25.0587 31.1137 21.8399 31.2153 19.6484 29.8475C18.2838 29.0396 16.7123 28.6489 15.1283 28.7237C14.7557 29.5573 14.5634 30.46 14.5639 31.373C14.5604 33.5332 15.6156 35.5581 17.3882 36.7926C17.5578 36.9078 17.7586 36.9682 17.9634 36.9661H24.3844C24.5893 36.9682 24.79 36.9078 24.9594 36.7926C26.7323 35.5581 27.7874 33.5332 27.784 31.373C27.7842 31.0752 27.7638 30.7779 27.7231 30.4831Z" fill="#90BAE1"/>
<path d="M21.1739 34.9323C20.6122 34.9323 20.157 34.4768 20.157 33.9152V23.2375H22.1908V33.9152C22.1908 34.4768 21.7356 34.9323 21.1739 34.9323Z" fill="#D1D4D1"/>
<path d="M33.8857 23.2375C33.8614 23.2375 33.8369 23.2356 33.8129 23.2322C29.6711 22.7625 26.3706 19.5525 25.7856 15.4253C25.7449 15.1475 25.9369 14.8891 26.2148 14.8481C26.4928 14.8074 26.751 14.9994 26.792 15.2773C27.001 16.6965 28.136 21.3932 33.9578 22.2256C34.2221 22.2631 34.4123 22.4989 34.3933 22.7651C34.3743 23.0315 34.1525 23.2377 33.8857 23.2375Z" fill="#285680"/>
<path d="M29.9851 13.7184L27.7839 14.0851V10.5257L29.9851 10.8922C30.4756 10.9741 30.8349 11.3985 30.8349 11.8956V12.7152C30.8349 13.2123 30.4756 13.6367 29.9851 13.7184Z" fill="#A5A5A4"/>
<path d="M24.2247 23.2832V21.2034C24.2247 20.3611 23.5417 19.6781 22.6994 19.6781H19.6484C18.8059 19.6781 18.1232 20.3611 18.1232 21.2034V23.2832" fill="#4482C3"/>
<path d="M14.8383 11.4256L26.6196 9.68158C26.9119 9.63878 27.2085 9.72507 27.4322 9.91847C27.6558 10.1119 27.7842 10.3927 27.7839 10.6884V13.8103C27.7842 14.5567 27.244 15.1935 26.5077 15.3155L26.2891 15.3509L22.6994 15.9511L19.6484 16.4594L18.718 16.6121C17.4564 16.8208 16.2358 16.0614 15.8655 14.8373L14.8383 11.4256Z" fill="#4482C3"/>
<path d="M15.3468 11.9349C15.1401 11.9347 14.9538 11.8095 14.8759 11.6181L14.0929 9.70101C13.9867 9.441 14.1115 9.14414 14.3715 9.03794C14.6315 8.93197 14.9284 9.05671 15.0346 9.31672L15.8176 11.2336C15.9224 11.4932 15.7979 11.7884 15.539 11.8946C15.4781 11.9202 15.4127 11.934 15.3468 11.9349Z" fill="#4482C3"/>
<path d="M21.1739 13.5764C22.0164 13.5764 22.6994 14.2594 22.6994 15.1019V19.6782H19.6484V15.1019C19.6484 14.2594 20.3314 13.5764 21.1739 13.5764Z" fill="#285680"/>
<path d="M33.8855 11.0565C33.6196 11.0558 33.3991 10.8503 33.3799 10.585C33.3605 10.3197 33.5488 10.0845 33.8118 10.0451L34.8175 9.89677C35.0954 9.85558 35.354 10.0474 35.3952 10.3252C35.4362 10.6031 35.2444 10.8617 34.9665 10.9029L33.9601 11.0515C33.9354 11.0549 33.9105 11.0565 33.8855 11.0565Z" fill="#B0D3F0"/>
<path d="M36.9033 10.6111C36.6374 10.6107 36.4167 10.4051 36.3973 10.1398C36.3776 9.87457 36.566 9.63905 36.8292 9.59969L37.8354 9.45137C38.11 9.41635 38.362 9.60747 38.4025 9.88121C38.443 10.155 38.2572 10.4108 37.9844 10.4571L36.978 10.6054C36.9532 10.6093 36.9283 10.6111 36.9033 10.6111Z" fill="#B0D3F0"/>
<path d="M39.9211 10.1652C39.6506 10.1707 39.4233 9.96353 39.4036 9.69368C39.3839 9.42383 39.5789 9.18602 39.8474 9.15215L40.8515 9.0052C41.0312 8.97797 41.2118 9.04869 41.3253 9.1906C41.4386 9.33273 41.4677 9.52431 41.4015 9.69368C41.3354 9.86282 41.1838 9.9839 41.0042 10.0111L39.9985 10.1595C39.9728 10.1636 39.947 10.1654 39.9211 10.1652Z" fill="#B0D3F0"/>
<path d="M34.8917 15.2281C34.8668 15.2279 34.8418 15.226 34.8171 15.2224L33.8114 15.0741C33.5335 15.0329 33.3417 14.7744 33.3827 14.4968C33.401 14.3627 33.4724 14.2416 33.5812 14.161C33.6896 14.0802 33.8261 14.0466 33.9597 14.0677L34.9661 14.2162C35.2307 14.2537 35.4211 14.4902 35.4015 14.7568C35.382 15.0235 35.1593 15.2295 34.8917 15.2281Z" fill="#B0D3F0"/>
<path d="M37.9101 15.6735C37.8849 15.6735 37.86 15.6716 37.8353 15.6677L36.8291 15.5194C36.6462 15.4961 36.4906 15.3759 36.4217 15.2052C36.3528 15.0344 36.3816 14.8397 36.497 14.6961C36.6124 14.5526 36.7964 14.4828 36.9779 14.5135L37.9843 14.662C38.2473 14.7014 38.4356 14.9369 38.4162 15.2022C38.3967 15.4675 38.1761 15.673 37.9101 15.6735Z" fill="#B0D3F0"/>
<path d="M40.9284 16.1189C40.9032 16.1189 40.8781 16.117 40.8531 16.1131L39.8474 15.9662C39.6648 15.9431 39.5089 15.8229 39.44 15.6519C39.3711 15.4812 39.4 15.2866 39.5153 15.1431C39.6309 14.9996 39.8147 14.9298 39.9964 14.9605L41.0042 15.1074C41.2674 15.1468 41.4558 15.3828 41.4361 15.6483C41.4162 15.9138 41.1946 16.1191 40.9284 16.1189Z" fill="#B0D3F0"/>
<path d="M34.8643 13.0736H34.8613L33.8444 13.0679C33.5635 13.0672 33.3365 12.8388 33.3374 12.5579C33.3383 12.2771 33.5665 12.0503 33.8474 12.051H33.8506L34.8675 12.0567C35.1483 12.0574 35.3752 12.2858 35.3745 12.5666C35.3735 12.8475 35.1451 13.0745 34.8643 13.0736Z" fill="#B0D3F0"/>
<path d="M37.9153 13.0903H37.9121L36.8952 13.0848C36.6143 13.0839 36.3875 12.8555 36.3882 12.5749C36.3891 12.294 36.6175 12.067 36.8984 12.0679H36.9013L37.9183 12.0734C38.1991 12.0743 38.4262 12.3025 38.4252 12.5833C38.4243 12.8642 38.1961 13.0912 37.9153 13.0903Z" fill="#B0D3F0"/>
<path d="M40.9661 13.1077H40.9631L39.9462 13.1015C39.6653 13.1006 39.4383 12.8724 39.4392 12.5916C39.4399 12.3108 39.6683 12.0837 39.9492 12.0846H39.9521L40.9691 12.0908C41.2499 12.0915 41.477 12.3199 41.476 12.6008C41.4753 12.8816 41.2469 13.1084 40.9661 13.1077Z" fill="#B0D3F0"/>
</g>
<defs>
<clipPath id="clip0">
<rect width="30" height="30" fill="white" transform="translate(12 9)"/>
</clipPath>
</defs>
</svg>
