<svg width="48" height="48" viewBox="0 0 48 48" fill="none" xmlns="http://www.w3.org/2000/svg">
<rect x="0.5" y="0.5" width="47" height="47" rx="19.5" fill="white" stroke="#E5E5E5" stroke-dasharray="3 3"/>
<path d="M23.9999 38.3328C31.7222 38.3328 37.9825 31.9156 37.9825 23.9995C37.9825 16.0835 31.7222 9.66626 23.9999 9.66626C16.2775 9.66626 10.0172 16.0835 10.0172 23.9995C10.0172 31.9156 16.2775 38.3328 23.9999 38.3328Z" fill="#BCBCBC"/>
<path d="M29.1166 47L24.0002 38.3736L18.8834 46.9997L17.9178 36.9507L9.65451 42.4327L13.0357 32.9601L3.26491 34.2399L10.3293 27.201L1 23.9995L10.33 20.7983L3.26524 13.7594L13.036 15.0392L9.65484 5.56634L17.9181 11.049L18.8834 1L24.0002 9.62602L29.1166 1L30.0822 11.049L38.3455 5.56701L34.964 15.0392L44.7348 13.7598L37.67 20.7983L47 23.9995L37.67 27.201L44.7348 34.2402L34.964 32.9601L38.3452 42.4333L30.0822 36.9507L29.1166 47ZM20.2495 31.9916L20.8439 38.1813L23.9998 32.8604L27.1557 38.1809L27.7502 31.9916L32.8504 35.3752L30.7612 29.5224L36.7823 30.3108L32.4327 25.9773L38.1961 23.9995L32.4327 22.022L36.7823 17.6886L30.7612 18.477L32.8504 12.6242L27.7505 16.0081L27.1561 9.81872L24.0002 15.1393L20.8443 9.81872L20.2498 16.0081L15.1496 12.6242L17.2388 18.477L11.2177 17.6886L15.5673 22.022L9.80361 23.9995L15.5673 25.9773L11.2177 30.3105L17.2385 29.5224L15.1496 35.3752L20.2495 31.9916Z" fill="#E5E5E5"/>
<path d="M24.0001 35.3462C30.1134 35.3462 35.0692 30.2661 35.0692 23.9995C35.0692 17.7328 30.1134 12.6527 24.0001 12.6527C17.8867 12.6527 12.9309 17.7328 12.9309 23.9995C12.9309 30.2661 17.8867 35.3462 24.0001 35.3462Z" fill="#BCBCBC"/>
</svg>
