<svg width="48" height="48" viewBox="0 0 48 48" fill="none" xmlns="http://www.w3.org/2000/svg">
<rect x="1" y="1" width="46" height="46" rx="19" fill="#DAE8CE" stroke="#8CB369" stroke-width="2"/>
<path d="M23.9999 37.0865C31.0508 37.0865 36.7667 31.2273 36.7667 23.9996C36.7667 16.7719 31.0508 10.9126 23.9999 10.9126C16.949 10.9126 11.2332 16.7719 11.2332 23.9996C11.2332 31.2273 16.949 37.0865 23.9999 37.0865Z" fill="#FFB829"/>
<path d="M28.6717 45L24.0001 37.1238L19.3283 44.9997L18.4467 35.8245L10.9019 40.8298L13.9891 32.1809L5.06797 33.3495L11.5181 26.9226L3 23.9995L11.5187 21.0767L5.06826 14.6499L13.9894 15.8184L10.9022 7.16927L18.447 12.1752L19.3283 3L24.0001 10.8759L28.6717 3L29.5533 12.1752L37.0981 7.16988L34.0106 15.8184L42.9317 14.6502L36.4813 21.0767L45 23.9995L36.4813 26.9226L42.9317 33.3498L34.0106 32.1809L37.0978 40.8304L29.5533 35.8245L28.6717 45ZM20.5756 31.2967L21.1184 36.9481L23.9999 32.0899L26.8813 36.9478L27.4241 31.2967L32.0808 34.386L30.1733 29.0422L35.6708 29.762L31.6994 25.8054L36.9616 23.9995L31.6994 22.194L35.6708 18.2374L30.1733 18.9572L32.0808 13.6134L27.4244 16.703L26.8816 11.0519L24.0001 15.9098L21.1187 11.0519L20.5759 16.703L15.9192 13.6134L17.8267 18.9572L12.3292 18.2374L16.3006 22.194L11.0381 23.9995L16.3006 25.8054L12.3292 29.7617L17.8264 29.0422L15.9192 34.386L20.5756 31.2967Z" fill="#FDDD66"/>
<path d="M24.0001 34.3596C29.5818 34.3596 34.1067 29.7213 34.1067 23.9995C34.1067 18.2778 29.5818 13.6395 24.0001 13.6395C18.4183 13.6395 13.8934 18.2778 13.8934 23.9995C13.8934 29.7213 18.4183 34.3596 24.0001 34.3596Z" fill="#FFB829"/>
</svg>
