<svg width="48" height="48" viewBox="0 0 48 48" fill="none" xmlns="http://www.w3.org/2000/svg">
<rect x="1" y="1" width="46" height="46" rx="19" fill="#DAE8CE" stroke="#8CB369" stroke-width="2"/>
<path d="M23.9999 33.9706C29.372 33.9706 33.7269 29.5065 33.7269 23.9997C33.7269 18.4928 29.372 14.0287 23.9999 14.0287C18.6278 14.0287 14.2728 18.4928 14.2728 23.9997C14.2728 29.5065 18.6278 33.9706 23.9999 33.9706Z" fill="#FFB829"/>
<path d="M27.5594 40L24.0001 33.9991L20.4406 39.9998L19.7689 33.0091L14.0205 36.8227L16.3726 30.2331L9.57559 31.1234L14.49 26.2268L8 23.9997L14.4904 21.7728L9.57582 16.8761L16.3729 17.7664L14.0208 11.1766L19.7691 14.9906L20.4406 8L24.0001 14.0007L27.5594 8L28.2311 14.9906L33.9795 11.177L31.6271 17.7664L38.4242 16.8764L33.5096 21.7728L40 23.9997L33.5096 26.2268L38.4242 31.1236L31.6271 30.2331L33.9792 36.8232L28.2311 33.0091L27.5594 40ZM21.391 29.5594L21.8045 33.8652L23.9999 30.1638L26.1953 33.865L26.6088 29.5594L30.1568 31.9132L28.7034 27.8417L32.892 28.3901L29.8662 25.3755L33.8755 23.9997L29.8662 22.624L32.892 19.6094L28.7034 20.1579L30.1568 16.0864L26.609 18.4404L26.1955 14.1348L24.0001 17.836L21.8047 14.1348L21.3912 18.4404L17.8432 16.0864L19.2966 20.1579L15.108 19.6094L18.1338 22.624L14.1242 23.9997L18.1338 25.3755L15.108 28.3899L19.2963 27.8417L17.8432 31.9132L21.391 29.5594Z" fill="#FDDD66"/>
<path d="M24.0001 31.893C28.2528 31.893 31.7004 28.3591 31.7004 23.9997C31.7004 19.6403 28.2528 16.1063 24.0001 16.1063C19.7473 16.1063 16.2998 19.6403 16.2998 23.9997C16.2998 28.3591 19.7473 31.893 24.0001 31.893Z" fill="#FFB829"/>
</svg>
