<svg width="48" height="48" viewBox="0 0 48 48" fill="none" xmlns="http://www.w3.org/2000/svg">
<rect x="1" y="1" width="46" height="46" rx="19" fill="#DAE8CE" stroke="#8CB369" stroke-width="2"/>
<path d="M23.5 31.2896C27.697 31.2896 31.0993 27.8019 31.0993 23.4997C31.0993 19.1975 27.697 15.7099 23.5 15.7099C19.3031 15.7099 15.9008 19.1975 15.9008 23.4997C15.9008 27.8019 19.3031 31.2896 23.5 31.2896Z" fill="#FFB829"/>
<path d="M26.2808 36L23.5001 31.3118L20.7192 35.9998L20.1945 30.5384L15.7035 33.5177L17.5411 28.3696L12.2309 29.0652L16.0703 25.2397L11 23.4997L16.0706 21.76L12.2311 17.9345L17.5413 18.63L15.7037 13.4817L20.1946 16.4614L20.7192 11L23.5001 15.6881L26.2808 11L26.8055 16.4614L31.2965 13.4821L29.4587 18.63L34.7689 17.9347L30.9294 21.76L36 23.4997L30.9294 25.2397L34.7689 29.0653L29.4587 28.3696L31.2963 33.5181L26.8055 30.5384L26.2808 36ZM21.4617 27.8433L21.7847 31.2072L23.4999 28.3154L25.2151 31.207L25.5381 27.8433L28.31 29.6821L27.1746 26.5013L30.4469 26.9298L28.083 24.5746L31.2153 23.4997L28.083 22.425L30.4469 20.0699L27.1746 20.4983L28.31 17.3175L25.5383 19.1566L25.2153 15.7928L23.5001 18.6844L21.7849 15.7928L21.4619 19.1566L18.69 17.3175L19.8254 20.4983L16.5531 20.0699L18.917 22.425L15.7846 23.4997L18.917 24.5746L16.5531 26.9296L19.8253 26.5013L18.69 29.6821L21.4617 27.8433Z" fill="#FDDD66"/>
<path d="M23.5 29.6664C26.8224 29.6664 29.5158 26.9055 29.5158 23.4997C29.5158 20.094 26.8224 17.333 23.5 17.333C20.1775 17.333 17.4841 20.094 17.4841 23.4997C17.4841 26.9055 20.1775 29.6664 23.5 29.6664Z" fill="#FFB829"/>
</svg>
