<svg width="48" height="48" viewBox="0 0 48 48" fill="none" xmlns="http://www.w3.org/2000/svg">
<rect x="0.5" y="0.5" width="47" height="47" rx="19.5" fill="white" stroke="#E5E5E5" stroke-dasharray="3 3"/>
<path d="M24.5 32.2896C28.697 32.2896 32.0993 28.802 32.0993 24.4998C32.0993 20.1976 28.697 16.71 24.5 16.71C20.3031 16.71 16.9008 20.1976 16.9008 24.4998C16.9008 28.802 20.3031 32.2896 24.5 32.2896Z" fill="#BCBCBC"/>
<path d="M27.2808 37L24.5001 32.3118L21.7192 36.9998L21.1945 31.5384L16.7035 34.5177L18.5411 29.3696L13.2309 30.0652L17.0703 26.2397L12 24.4997L17.0706 22.76L13.2311 18.9345L18.5413 19.63L16.7037 14.4817L21.1946 17.4614L21.7192 12L24.5001 16.6881L27.2808 12L27.8055 17.4614L32.2965 14.4821L30.4587 19.63L35.7689 18.9347L31.9294 22.76L37 24.4997L31.9294 26.2397L35.7689 30.0653L30.4587 29.3696L32.2963 34.5181L27.8055 31.5384L27.2808 37ZM22.4617 28.8433L22.7847 32.2072L24.4999 29.3154L26.2151 32.207L26.5381 28.8433L29.31 30.6821L28.1746 27.5013L31.4469 27.9298L29.083 25.5746L32.2153 24.4997L29.083 23.425L31.4469 21.0699L28.1746 21.4983L29.31 18.3175L26.5383 20.1566L26.2153 16.7928L24.5001 19.6844L22.7849 16.7928L22.4619 20.1566L19.69 18.3175L20.8254 21.4983L17.5531 21.0699L19.917 23.425L16.7846 24.4997L19.917 25.5746L17.5531 27.9296L20.8253 27.5013L19.69 30.6821L22.4617 28.8433Z" fill="#E5E5E5"/>
<path d="M24.5 30.6664C27.8224 30.6664 30.5158 27.9055 30.5158 24.4997C30.5158 21.0939 27.8224 18.333 24.5 18.333C21.1775 18.333 18.4841 21.0939 18.4841 24.4997C18.4841 27.9055 21.1775 30.6664 24.5 30.6664Z" fill="#BCBCBC"/>
</svg>
