<svg width="48" height="48" viewBox="0 0 48 48" fill="none" xmlns="http://www.w3.org/2000/svg">
<rect x="1" y="1" width="46" height="46" rx="19" fill="#DAE8CE" stroke="#8CB369" stroke-width="2"/>
<g clip-path="url(#clip0)">
<rect width="25" height="25" transform="translate(12 10)" fill="#DAE8CE"/>
<path d="M24.522 35C28.5074 34.9882 31.7881 31.6579 31.7578 27.6724C31.7156 22.1065 26.5922 16.2008 24.8576 10.269C24.805 10.0893 24.6525 9.99976 24.5 10C24.3475 9.99976 24.1949 10.0893 24.1424 10.269C22.4078 16.2008 17.2844 22.1065 17.2422 27.6724C17.2119 31.6579 20.4926 34.9882 24.4779 35" fill="#B2EDFF"/>
<path d="M26.9198 32.9981C26.7015 32.9981 26.4908 32.8796 26.3829 32.6729C26.2286 32.3767 26.3435 32.0113 26.6396 31.8569C27.8383 31.232 28.7034 30.1224 29.0129 28.8127C29.0899 28.4874 29.4144 28.2858 29.7408 28.3629C30.0659 28.4398 30.2671 28.7658 30.1903 29.0906C29.7997 30.7429 28.7093 32.1424 27.1988 32.9295C27.1094 32.976 27.0139 32.9981 26.9198 32.9981Z" fill="#E8FAFF"/>
<path d="M26.9414 34.1936H26.8973C22.9119 34.181 19.6312 30.6358 19.6615 26.3933C19.6929 21.9896 22.5307 17.386 24.6982 12.7198C25.0535 11.955 25.0984 11.0903 24.8611 10.2811C24.8599 10.2771 24.8587 10.273 24.8576 10.269C24.805 10.0893 24.6525 9.99976 24.5 10C24.3475 9.99971 24.195 10.0893 24.1424 10.269C22.2952 16.5856 16.6053 22.8728 17.3005 28.7515C17.7251 32.3426 20.8619 35 24.478 35H24.522C25.7639 34.9963 26.9371 34.67 27.9632 34.1024C27.6283 34.1554 27.2888 34.1925 26.9414 34.1936Z" fill="#59D8FF"/>
</g>
<defs>
<clipPath id="clip0">
<rect width="25" height="25" fill="white" transform="translate(12 10)"/>
</clipPath>
</defs>
</svg>
