<svg width="48" height="48" viewBox="0 0 48 48" fill="none" xmlns="http://www.w3.org/2000/svg">
<rect x="0.5" y="0.5" width="47" height="47" rx="19.5" fill="white" stroke="#E5E5E5" stroke-dasharray="3 3"/>
<g clip-path="url(#clip0)">
<path d="M24.522 42C28.5074 41.9882 31.7881 38.6579 31.7578 34.6724C31.7156 29.1065 26.5922 23.2008 24.8576 17.269C24.805 17.0893 24.6525 16.9998 24.5 17C24.3475 16.9998 24.1949 17.0893 24.1424 17.269C22.4078 23.2008 17.2844 29.1065 17.2422 34.6724C17.2119 38.6579 20.4926 41.9882 24.4779 42" fill="#E5E5E5"/>
<path d="M26.9198 39.9981C26.7015 39.9981 26.4908 39.8796 26.3829 39.6729C26.2286 39.3767 26.3435 39.0113 26.6396 38.8569C27.8383 38.232 28.7034 37.1224 29.0129 35.8127C29.0899 35.4874 29.4144 35.2858 29.7408 35.3629C30.0659 35.4398 30.2671 35.7658 30.1903 36.0906C29.7997 37.7429 28.7093 39.1424 27.1988 39.9295C27.1094 39.976 27.0139 39.9981 26.9198 39.9981Z" fill="white" fill-opacity="0.8"/>
<path d="M26.9414 41.1936H26.8973C22.9119 41.181 19.6312 37.6358 19.6615 33.3933C19.6929 28.9896 22.5307 24.386 24.6982 19.7198C25.0535 18.955 25.0984 18.0903 24.8611 17.2811C24.8599 17.2771 24.8587 17.273 24.8576 17.269C24.805 17.0893 24.6525 16.9998 24.5 17C24.3475 16.9997 24.195 17.0893 24.1424 17.269C22.2952 23.5856 16.6053 29.8728 17.3005 35.7515C17.7251 39.3426 20.8619 42 24.478 42H24.522C25.7639 41.9963 26.9371 41.67 27.9632 41.1024C27.6283 41.1554 27.2888 41.1925 26.9414 41.1936Z" fill="#BCBCBC"/>
</g>
<g clip-path="url(#clip1)">
<path d="M33.0124 20C35.2442 19.9934 37.0814 18.1284 37.0644 15.8966C37.0408 12.7796 34.1717 9.47244 33.2003 6.15064C33.1709 6.05001 33.0855 5.99986 33.0001 6C32.9146 5.99986 32.8292 6.05001 32.7998 6.15064C31.8284 9.47244 28.9593 12.7796 28.9357 15.8966C28.9187 18.1284 30.7559 19.9934 32.9877 20" fill="#E5E5E5"/>
<path d="M34.3551 18.8789C34.2328 18.8789 34.1148 18.8126 34.0544 18.6968C33.968 18.531 34.0324 18.3264 34.1982 18.2399C34.8694 17.89 35.3539 17.2685 35.5272 16.5351C35.5703 16.353 35.752 16.2401 35.9348 16.2833C36.1168 16.3263 36.2295 16.5088 36.1865 16.6908C35.9678 17.616 35.3572 18.3997 34.5113 18.8406C34.4612 18.8666 34.4078 18.8789 34.3551 18.8789Z" fill="white" fill-opacity="0.8"/>
<path d="M34.3672 19.5484H34.3425C32.1107 19.5414 30.2735 17.5561 30.2905 15.1802C30.3081 12.7142 31.8972 10.1362 33.111 7.5231C33.31 7.09482 33.3352 6.61056 33.2023 6.15742C33.2016 6.15515 33.201 6.15291 33.2003 6.15064C33.1709 6.05001 33.0855 5.99986 33.0001 6C32.9146 5.99984 32.8292 6.05001 32.7998 6.15064C31.7654 9.68796 28.579 13.2088 28.9683 16.5008C29.2061 18.5119 30.9627 20 32.9877 20H33.0124C33.7078 19.9979 34.3648 19.8152 34.9395 19.4974C34.7519 19.527 34.5618 19.5478 34.3672 19.5484Z" fill="#BCBCBC"/>
</g>
<g clip-path="url(#clip2)">
<path d="M13.0124 24C15.2442 23.9934 17.0814 22.1284 17.0644 19.8966C17.0408 16.7796 14.1717 13.4724 13.2003 10.1506C13.1709 10.05 13.0855 9.99986 13.0001 10C12.9146 9.99986 12.8292 10.05 12.7998 10.1506C11.8284 13.4724 8.95932 16.7796 8.93566 19.8966C8.91871 22.1284 10.7559 23.9934 12.9877 24" fill="#E5E5E5"/>
<path d="M14.3551 22.8789C14.2328 22.8789 14.1148 22.8126 14.0544 22.6968C13.968 22.531 14.0324 22.3264 14.1982 22.2399C14.8694 21.89 15.3539 21.2685 15.5272 20.5351C15.5703 20.353 15.752 20.2401 15.9348 20.2833C16.1168 20.3263 16.2295 20.5088 16.1865 20.6908C15.9678 21.616 15.3572 22.3997 14.5113 22.8406C14.4612 22.8666 14.4078 22.8789 14.3551 22.8789Z" fill="white" fill-opacity="0.8"/>
<path d="M14.3672 23.5484H14.3425C12.1107 23.5414 10.2735 21.5561 10.2905 19.1802C10.3081 16.7142 11.8972 14.1362 13.111 11.5231C13.31 11.0948 13.3352 10.6106 13.2023 10.1574C13.2016 10.1551 13.201 10.1529 13.2003 10.1506C13.1709 10.05 13.0855 9.99986 13.0001 10C12.9146 9.99984 12.8292 10.05 12.7998 10.1506C11.7654 13.688 8.57901 17.2088 8.96833 20.5008C9.20614 22.5119 10.9627 24 12.9877 24H13.0124C13.7078 23.9979 14.3648 23.8152 14.9395 23.4974C14.7519 23.527 14.5618 23.5478 14.3672 23.5484Z" fill="#BCBCBC"/>
</g>
<defs>
<clipPath id="clip0">
<rect width="25" height="25" fill="white" transform="translate(12 17)"/>
</clipPath>
<clipPath id="clip1">
<rect width="14" height="14" fill="white" transform="translate(26 6)"/>
</clipPath>
<clipPath id="clip2">
<rect width="14" height="14" fill="white" transform="translate(6 10)"/>
</clipPath>
</defs>
</svg>
