<svg width="48" height="48" viewBox="0 0 48 48" fill="none" xmlns="http://www.w3.org/2000/svg">
<rect x="0.5" y="0.5" width="47" height="47" rx="19.5" fill="white" stroke="#E5E5E5" stroke-dasharray="3 3"/>
<g clip-path="url(#clip0)">
<path d="M27.522 38C31.5074 37.9882 34.7881 34.6579 34.7578 30.6724C34.7156 25.1065 29.5922 19.2008 27.8576 13.269C27.805 13.0893 27.6525 12.9998 27.5 13C27.3475 12.9998 27.1949 13.0893 27.1424 13.269C25.4078 19.2008 20.2844 25.1065 20.2422 30.6724C20.2119 34.6579 23.4926 37.9882 27.4779 38" fill="#E5E5E5"/>
<path d="M29.9198 35.9981C29.7015 35.9981 29.4908 35.8796 29.3829 35.6729C29.2286 35.3767 29.3435 35.0113 29.6396 34.8569C30.8383 34.232 31.7034 33.1224 32.0129 31.8127C32.0899 31.4874 32.4144 31.2858 32.7408 31.3629C33.0659 31.4398 33.2671 31.7658 33.1903 32.0906C32.7997 33.7429 31.7093 35.1424 30.1988 35.9295C30.1094 35.976 30.0139 35.9981 29.9198 35.9981Z" fill="white" fill-opacity="0.8"/>
<path d="M29.9414 37.1936H29.8973C25.9119 37.181 22.6312 33.6358 22.6615 29.3933C22.6929 24.9896 25.5307 20.386 27.6982 15.7198C28.0535 14.955 28.0984 14.0903 27.8611 13.2811C27.8599 13.2771 27.8587 13.273 27.8576 13.269C27.805 13.0893 27.6525 12.9998 27.5 13C27.3475 12.9997 27.195 13.0893 27.1424 13.269C25.2952 19.5856 19.6053 25.8728 20.3005 31.7515C20.7251 35.3426 23.8619 38 27.478 38H27.522C28.7639 37.9963 29.9371 37.67 30.9632 37.1024C30.6283 37.1554 30.2888 37.1925 29.9414 37.1936Z" fill="#BCBCBC"/>
</g>
<g clip-path="url(#clip1)">
<path d="M16.0124 20C18.2442 19.9934 20.0814 18.1284 20.0644 15.8966C20.0408 12.7796 17.1717 9.47244 16.2003 6.15064C16.1709 6.05001 16.0855 5.99986 16.0001 6C15.9146 5.99986 15.8292 6.05001 15.7998 6.15064C14.8284 9.47244 11.9593 12.7796 11.9357 15.8966C11.9187 18.1284 13.7559 19.9934 15.9877 20" fill="#E5E5E5"/>
<path d="M17.3551 18.8789C17.2328 18.8789 17.1148 18.8126 17.0544 18.6968C16.968 18.531 17.0324 18.3264 17.1982 18.2399C17.8694 17.89 18.3539 17.2685 18.5272 16.5351C18.5703 16.353 18.752 16.2401 18.9348 16.2833C19.1168 16.3263 19.2295 16.5088 19.1865 16.6908C18.9678 17.616 18.3572 18.3997 17.5113 18.8406C17.4612 18.8666 17.4078 18.8789 17.3551 18.8789Z" fill="white" fill-opacity="0.8"/>
<path d="M17.3672 19.5484H17.3425C15.1107 19.5414 13.2735 17.5561 13.2905 15.1802C13.3081 12.7142 14.8972 10.1362 16.111 7.5231C16.31 7.09482 16.3352 6.61056 16.2023 6.15742C16.2016 6.15515 16.201 6.15291 16.2003 6.15064C16.1709 6.05001 16.0855 5.99986 16.0001 6C15.9146 5.99984 15.8292 6.05001 15.7998 6.15064C14.7654 9.68796 11.579 13.2088 11.9683 16.5008C12.2061 18.5119 13.9627 20 15.9877 20H16.0124C16.7078 19.9979 17.3648 19.8152 17.9395 19.4974C17.7519 19.527 17.5618 19.5478 17.3672 19.5484Z" fill="#BCBCBC"/>
</g>
<defs>
<clipPath id="clip0">
<rect width="25" height="25" fill="white" transform="translate(15 13)"/>
</clipPath>
<clipPath id="clip1">
<rect width="14" height="14" fill="white" transform="translate(9 6)"/>
</clipPath>
</defs>
</svg>
